<?xml version="1.0" encoding="UTF-8"?>
<svg version="1.1" xmlns="http://www.w3.org/2000/svg" width="275" height="183">
<path d="M0 0 C90.75 0 181.5 0 275 0 C275 60.39 275 120.78 275 183 C184.25 183 93.5 183 0 183 C0 122.61 0 62.22 0 0 Z " fill="#3D3D3D" transform="translate(0,0)"/>
<path d="M0 0 C90.75 0 181.5 0 275 0 C275 60.39 275 120.78 275 183 C184.25 183 93.5 183 0 183 C0 122.61 0 62.22 0 0 Z M114.9375 8.5 C113.83857422 9.04664307 112.73964844 9.59328613 111.60742188 10.15649414 C109.41006867 11.25178772 107.21643911 12.35458786 105.02685547 13.46533203 C102.40260399 14.79587283 99.77019618 16.10607733 97.12890625 17.40234375 C93.40136515 19.23456832 89.69620713 21.10530559 86 23 C85.10152344 23.45761719 84.20304687 23.91523438 83.27734375 24.38671875 C81.13120431 25.5224887 79.06046864 26.71649974 77 28 C76.401875 28.35449219 75.80375 28.70898438 75.1875 29.07421875 C68.20715501 34.01343608 63.22096643 43.94173089 61.54897308 52.23793411 C60.89637766 57.75569049 61.02666865 63.27169821 61.1484375 68.81640625 C61.15831848 70.57037354 61.16489457 72.32436219 61.16836548 74.07835388 C61.18350313 77.72034186 61.22418898 81.3607171 61.28662109 85.00219727 C61.3662959 89.65559484 61.40194244 94.30795804 61.42123985 98.96196079 C61.44121134 103.43441335 61.48086192 107.90661989 61.5234375 112.37890625 C61.530229 113.22184298 61.53702049 114.0647797 61.54401779 114.93325996 C61.56730771 117.32762729 61.60435495 119.72136803 61.64599609 122.11547852 C61.6513739 122.81323395 61.65675171 123.51098938 61.66229248 124.22988892 C61.78577427 129.92165213 62.68829977 136.22246525 66 141 C68.30947869 142.42809517 68.30947869 142.42809517 71.0625 143.5 C72.41021484 144.07234375 72.41021484 144.07234375 73.78515625 144.65625 C74.84605469 145.0996875 75.90695313 145.543125 77 146 C78.38877348 146.62463138 79.77672549 147.25109088 81.1640625 147.87890625 C86.47843723 150.24613319 91.88110529 152.35536575 97.3125 154.4375 C98.41480957 154.86071533 99.51711914 155.28393066 100.65283203 155.7199707 C114.30860396 160.92676023 128.0598354 165.87095251 141.82501221 170.77980042 C146.04079191 172.28657565 150.23903741 173.83176268 154.42578125 175.41796875 C155.79307373 175.92614136 155.79307373 175.92614136 157.18798828 176.44458008 C158.77402536 177.03496759 160.35519279 177.63874665 161.92919922 178.26049805 C168.18691718 180.55303833 173.45501238 180.61491281 179.58959961 177.8203125 C182.49483851 176.23691185 185.30988145 174.5510112 188.125 172.8125 C189.1574585 172.19117188 190.18991699 171.56984375 191.25366211 170.9296875 C193.41697888 169.6249704 195.57603205 168.3131601 197.73095703 166.99462891 C200.95192319 165.0293344 204.18957546 163.09492653 207.43359375 161.16796875 C209.47711639 159.94623849 211.52010521 158.72361479 213.5625 157.5 C214.50689941 156.93772705 215.45129883 156.3754541 216.42431641 155.79614258 C224.50375732 150.89727955 230.98564156 146.66153103 234.8125 137.8125 C235.24079102 136.91821289 235.24079102 136.91821289 235.67773438 136.00585938 C239.76219322 126.97456175 240.30982069 117.09995166 240.6328125 107.32421875 C240.69515579 105.69453911 240.69515579 105.69453911 240.75875854 104.03193665 C240.84471447 101.74205059 240.92686262 99.45201872 241.00537109 97.16186523 C241.12338305 93.73446095 241.25399597 90.30772209 241.38671875 86.88085938 C241.59558369 81.32588419 241.76899698 75.77079008 241.91467285 70.21380615 C241.97114693 68.0867371 242.03315819 65.9598072 242.10095215 63.83306885 C242.19104164 60.85357967 242.25216214 57.87489137 242.3046875 54.89453125 C242.35002121 53.58810921 242.35002121 53.58810921 242.39627075 52.2552948 C242.45752371 46.15310835 241.20065286 41.24523769 238 36 C233.81328519 32.33141348 229.21949143 30.93234751 223.9375 29.5 C212.75102647 26.30885039 201.71011548 22.7010912 190.65475464 19.08813477 C174.12453955 13.28998074 174.12453955 13.28998074 157.1875 9.0625 C151.94523149 8.12882799 146.97984946 6.45661511 141.97143555 4.67602539 C131.45378015 1.14548503 124.62369352 3.52879074 114.9375 8.5 Z " fill="#FEFEFE" transform="translate(0,0)"/>
<path d="M0 0 C4.27066766 3.08941916 5.70969896 5.98628942 7 11 C7.26033494 14.24262513 7.22549947 17.46380562 7.17578125 20.71484375 C7.16799149 21.67108139 7.16020172 22.62731903 7.1521759 23.61253357 C7.03579602 34.46641739 6.71232075 45.31570374 6.31030273 56.16235352 C6.18649368 59.59036279 6.08057326 63.01866403 5.97460938 66.44726562 C5.24493599 87.60559525 5.24493599 87.60559525 2 98 C1.70061523 99.03842041 1.40123047 100.07684082 1.09277344 101.14672852 C-2.4201684 112.21893759 -13.89692594 116.5620514 -23.47509766 121.65527344 C-27.55843634 123.83000071 -31.55006494 126.15494583 -35.546875 128.484375 C-36.27390625 128.90203125 -37.0009375 129.3196875 -37.75 129.75 C-38.48734375 130.17796875 -39.2246875 130.6059375 -39.984375 131.046875 C-42 132 -42 132 -45 132 C-45 132.66 -45 133.32 -45 134 C-50.29230769 137.07692308 -50.29230769 137.07692308 -53.875 136.6875 C-54.926875 136.3471875 -54.926875 136.3471875 -56 136 C-56 136.66 -56 137.32 -56 138 C-59 140 -59 140 -62 140 C-62 139.34 -62 138.68 -62 138 C-62.99 138.33 -63.98 138.66 -65 139 C-66.21869929 141.50447516 -66.21869929 141.50447516 -67 144 C-70.875 142.25 -70.875 142.25 -72 140 C-72.99 139.67 -73.98 139.34 -75 139 C-75 138.34 -75 137.68 -75 137 C-75.66 136.67 -76.32 136.34 -77 136 C-76.505 135.01 -76.505 135.01 -76 134 C-75.88919841 131.74432864 -75.84342971 129.48537778 -75.82641602 127.22705078 C-75.8163855 126.18286484 -75.8163855 126.18286484 -75.80615234 125.11758423 C-75.79209155 123.60397219 -75.78020077 122.09033882 -75.77020454 120.57669449 C-75.75380833 118.18100504 -75.73057079 115.7854734 -75.70530701 113.38986206 C-75.63449556 106.577859 -75.57442243 99.7657912 -75.52319336 92.95361328 C-75.49139083 88.78854527 -75.45011104 84.62365801 -75.40299797 80.45873642 C-75.38698425 78.87115609 -75.37465976 77.28353411 -75.36609077 75.69589615 C-75.35392835 73.47432368 -75.3297748 71.25317558 -75.30297852 69.03173828 C-75.29267105 67.76758087 -75.28236359 66.50342346 -75.27174377 65.20095825 C-75.01751794 62.20634948 -74.5796562 60.51265945 -73 58 C-72.67 58 -72.34 58 -72 58 C-72 61.96 -72 65.92 -72 70 C-71.34 70 -70.68 70 -70 70 C-70.02320313 69.05898437 -70.04640625 68.11796875 -70.0703125 67.1484375 C-70.08835938 65.90320313 -70.10640625 64.65796875 -70.125 63.375 C-70.14820313 62.14523438 -70.17140625 60.91546875 -70.1953125 59.6484375 C-70.00189813 56.03545715 -69.20363154 53.38343669 -68 50 C-68 48.68 -68 47.36 -68 46 C-68.66 45.67 -69.32 45.34 -70 45 C-66.120356 36.64384369 -61.60350892 29.40693967 -54 24 C-53.01 24 -52.02 24 -51 24 C-51 23.34 -51 22.68 -51 22 C-49.73308493 21.32591692 -48.46129251 20.66099503 -47.1875 20 C-46.47980469 19.62875 -45.77210938 19.2575 -45.04296875 18.875 C-43 18 -43 18 -40 18 C-40 17.34 -40 16.68 -40 16 C-39.113125 15.731875 -38.22625 15.46375 -37.3125 15.1875 C-34.2285477 14.0819322 -31.7801557 12.69898404 -29 11 C-28.34 11 -27.68 11 -27 11 C-27 10.34 -27 9.68 -27 9 C-26.30390625 8.74476562 -25.6078125 8.48953125 -24.890625 8.2265625 C-21.66268598 6.85686945 -18.77329498 5.14954271 -15.75 3.375 C-10.48679414 0.52905837 -5.98165396 -1.77326694 0 0 Z " fill="#2F2F2F" transform="translate(235,34)"/>
<path d="M0 0 C3.45924983 0.97594854 6.91723549 1.95630319 10.375 2.9375 C11.35984375 3.21529297 12.3446875 3.49308594 13.359375 3.77929688 C14.30039063 4.04677734 15.24140625 4.31425781 16.2109375 4.58984375 C17.51490479 4.95903931 17.51490479 4.95903931 18.84521484 5.33569336 C21 6 21 6 23 7 C22.85892253 8.45880109 22.71197585 9.91703551 22.5625 11.375 C22.48128906 12.18710937 22.40007812 12.99921875 22.31640625 13.8359375 C22 16 22 16 21 18 C20.30741771 19.99117408 19.64252365 21.9921136 19 24 C18.81860977 24.56551575 18.63721954 25.13103149 18.45033264 25.71368408 C17.79675216 29.03187894 17.8214493 32.3368421 17.79467773 35.70605469 C17.77982834 36.86272896 17.77982834 36.86272896 17.76467896 38.04277039 C17.73314922 40.58577427 17.70834032 43.12879682 17.68359375 45.671875 C17.66301686 47.43736246 17.64202019 49.20284507 17.62062073 50.96832275 C17.56547601 55.61086091 17.51603325 60.25344298 17.46777344 64.89605713 C17.41750289 69.63517149 17.36184583 74.37422225 17.30664062 79.11328125 C17.19915202 88.4087998 17.09768644 97.70437363 17 107 C-3.19836477 103.66825647 -3.19836477 103.66825647 -8 99 C-9.10675066 94.37506629 -9.14824039 89.76918147 -9.14526367 85.03857422 C-9.14862228 84.26383759 -9.1519809 83.48910095 -9.15544128 82.69088745 C-9.16489396 80.14547091 -9.1668911 77.60012047 -9.16796875 75.0546875 C-9.17118378 73.2792254 -9.17454804 71.50376355 -9.17805481 69.728302 C-9.18403075 66.01466253 -9.18589614 62.30104628 -9.18530273 58.58740234 C-9.18520085 53.82812931 -9.19888663 49.06900458 -9.21607494 44.30976677 C-9.22718591 40.64665033 -9.22922227 36.98356995 -9.22869301 33.32043839 C-9.22987319 31.56535452 -9.23429713 29.81026973 -9.24202538 28.05520248 C-9.251813 25.60424061 -9.24895284 23.15360373 -9.24291992 20.70263672 C-9.24853943 19.97838501 -9.25415894 19.2541333 -9.25994873 18.50793457 C-9.23721662 14.87707418 -9.15203799 12.01435164 -7 9 C-4.875 8.25 -4.875 8.25 -3 8 C-2.87625 7.4225 -2.7525 6.845 -2.625 6.25 C-1.99274387 3.97387794 -1.08136532 2.09239794 0 0 Z " fill="#2E2E2E" transform="translate(71,37)"/>
<path d="M0 0 C1.28583984 0.39155273 1.28583984 0.39155273 2.59765625 0.79101562 C7.28104142 2.29400374 7.28104142 2.29400374 9 3.1875 C9.495 4.6725 9.495 4.6725 10 6.1875 C8.7315625 6.31125 8.7315625 6.31125 7.4375 6.4375 C3.91383069 7.20630058 1.68344313 8.36267953 -1.34375 10.21484375 C-3 11.1875 -3 11.1875 -5.5625 12.1875 C-8.19059626 13.17201106 -8.19059626 13.17201106 -11 15.1875 C-13.70282088 16.98938059 -15.99058007 18.04105431 -19 19.1875 C-21.68744921 20.48006074 -24.34237557 21.83491182 -27 23.1875 C-27.62777344 23.49558594 -28.25554687 23.80367187 -28.90234375 24.12109375 C-32.44187361 25.92051955 -35.88239202 27.90301969 -39.34375 29.84765625 C-42.85827891 31.62042598 -44.67841134 32.53560605 -48.55078125 31.515625 C-49.46214844 31.15984375 -50.37351562 30.8040625 -51.3125 30.4375 C-52.27414063 30.06625 -53.23578125 29.695 -54.2265625 29.3125 C-57.50675837 27.98194168 -60.7652518 26.62516587 -64 25.1875 C-64 24.5275 -64 23.8675 -64 23.1875 C-65.98 23.5175 -67.96 23.8475 -70 24.1875 C-66.30696139 19.66456508 -61.43808551 17.79907848 -56.25 15.4375 C-54.35226953 14.55466341 -52.45513963 13.67053477 -50.55859375 12.78515625 C-49.61870605 12.3483252 -48.67881836 11.91149414 -47.71044922 11.46142578 C-43.87959247 9.66090241 -40.09284811 7.7787658 -36.3125 5.875 C-35.66240967 5.55112305 -35.01231934 5.22724609 -34.3425293 4.89355469 C-31.56724573 3.50645082 -28.82193748 2.08860311 -26.109375 0.58203125 C-25.26890625 0.12183594 -24.4284375 -0.33835937 -23.5625 -0.8125 C-22.88316406 -1.204375 -22.20382813 -1.59625 -21.50390625 -2 C-14.15612356 -4.3843039 -7.09105468 -2.33971617 0 0 Z " fill="#767676" transform="translate(146,5.8125)"/>
<path d="M0 0 C4.65116086 1.49355459 9.32496653 2.7835555 14.0546875 4.00390625 C16.5 4.75 16.5 4.75 20.5 6.75 C20.17 31.5 19.84 56.25 19.5 81.75 C19.17 81.75 18.84 81.75 18.5 81.75 C18.5 64.92 18.5 48.09 18.5 30.75 C14.87 29.76 11.24 28.77 7.5 27.75 C4.96772024 26.95212511 2.44453734 26.12396162 -0.0625 25.25 C-1.82787109 24.64671875 -1.82787109 24.64671875 -3.62890625 24.03125 C-6.5 22.75 -6.5 22.75 -8.5 19.75 C-10.22498198 14.05755948 -10.20446332 7.40528483 -8.6875 1.6875 C-6.36465395 -2.10240671 -3.66053128 -1.21225386 0 0 Z " fill="#AEAEAD" transform="translate(42.5,41.25)"/>
<path d="M0 0 C0.33 0 0.66 0 1 0 C1.15373106 16.47760475 0.9450316 32.94485986 0.62667847 49.41921997 C0.583989 51.63474833 0.54274302 53.85030499 0.50296021 56.06588745 C0.44541697 59.22632777 0.38182475 62.38658896 0.31640625 65.546875 C0.29968872 66.49701981 0.28297119 67.44716461 0.26574707 68.42610168 C0.15546534 73.37148535 -0.17690626 78.12085767 -1 83 C-1.66 83 -2.32 83 -3 83 C-3.33 67.49 -3.66 51.98 -4 36 C-4.33 51.84 -4.66 67.68 -5 84 C-5.66 84 -6.32 84 -7 84 C-7.04633574 74.55108138 -7.0818755 65.10220186 -7.10362434 55.65319443 C-7.11406257 51.26566302 -7.12822249 46.87820933 -7.15087891 42.49072266 C-7.17260589 38.25673915 -7.18456834 34.02283042 -7.18975449 29.78879547 C-7.1934505 28.17325921 -7.20066785 26.55772704 -7.21146011 24.9422226 C-7.22597318 22.67981617 -7.22797803 20.41771891 -7.22705078 18.15527344 C-7.231492 16.86731873 -7.23593323 15.57936401 -7.24050903 14.25238037 C-7.01575378 11.21303682 -6.61183256 9.53887454 -5 7 C-4.67 7 -4.34 7 -4 7 C-4 10.96 -4 14.92 -4 19 C-3.34 19 -2.68 19 -2 19 C-2.02320313 18.04738281 -2.04640625 17.09476563 -2.0703125 16.11328125 C-2.08835938 14.85902344 -2.10640625 13.60476562 -2.125 12.3125 C-2.14820313 11.07113281 -2.17140625 9.82976562 -2.1953125 8.55078125 C-2.01032021 5.18762143 -1.45767895 3.0014413 0 0 Z " fill="#181818" transform="translate(167,85)"/>
<path d="M0 0 C0.99 0.495 0.99 0.495 2 1 C-3.85653516 6.59559001 -10.08431854 10.66379417 -17.125 14.625 C-19.25463437 15.8385669 -21.38352339 17.05344258 -23.51171875 18.26953125 C-24.58728027 18.8826416 -25.6628418 19.49575195 -26.77099609 20.12744141 C-29.9273233 21.95785345 -33.03983711 23.84524706 -36.14453125 25.76171875 C-37.1195459 26.35839355 -38.09456055 26.95506836 -39.09912109 27.56982422 C-40.9416792 28.70109721 -42.7771497 29.84402701 -44.60400391 31.00048828 C-50.89174651 34.82566222 -56.19699782 37.1101343 -63.57836914 35.40405273 C-66.28786132 34.55577573 -68.91724522 33.59304313 -71.5625 32.5625 C-72.47580078 32.22412109 -73.38910156 31.88574219 -74.33007812 31.53710938 C-76.56029516 30.70807582 -78.7825109 29.86237464 -81 29 C-81 28.67 -81 28.34 -81 28 C-74.50734271 27.4354211 -69.8939592 29.434273 -64 32 C-62.515 32.495 -62.515 32.495 -61 33 C-60.34 31.35 -59.68 29.7 -59 28 C-58.01 28 -57.02 28 -56 28 C-56 28.66 -56 29.32 -56 30 C-54.02 29.34 -52.04 28.68 -50 28 C-50 27.34 -50 26.68 -50 26 C-48.01432292 25.77213542 -46.02864583 25.54427083 -44.04296875 25.31640625 C-41.80603607 25.02829265 -41.80603607 25.02829265 -39 24 C-39 23.34 -39 22.68 -39 22 C-38.04738281 21.52949219 -37.09476563 21.05898437 -36.11328125 20.57421875 C-34.84630039 19.94542084 -33.57937631 19.31650852 -32.3125 18.6875 C-31.37374023 18.2244043 -31.37374023 18.2244043 -30.41601562 17.75195312 C-26.84173765 15.97417088 -23.4001326 14.08843243 -20 12 C-18.63425241 11.19416918 -17.2669029 10.39105048 -15.8984375 9.58984375 C-15.16109375 9.15736328 -14.42375 8.72488281 -13.6640625 8.27929688 C-12.13050198 7.38035824 -10.59664478 6.48192554 -9.0625 5.58398438 C-8.32773438 5.15279297 -7.59296875 4.72160156 -6.8359375 4.27734375 C-6.17126465 3.88796631 -5.5065918 3.49858887 -4.82177734 3.09741211 C-3.18542613 2.111698 -1.58947254 1.05964836 0 0 Z " fill="#525252" transform="translate(229,144)"/>
<path d="M0 0 C4.65116086 1.49355459 9.32496653 2.7835555 14.0546875 4.00390625 C16.37208371 4.71097123 18.37410518 5.59806164 20.5 6.75 C20.5 7.41 20.5 8.07 20.5 8.75 C15.055 8.255 15.055 8.255 9.5 7.75 C7.69431894 11.36136212 7.25148437 12.294531 7.375 16 C7.41625 17.2375 7.4575 18.475 7.5 19.75 C6.18 19.75 4.86 19.75 3.5 19.75 C3.02820313 18.57630859 3.02820313 18.57630859 2.546875 17.37890625 C2.11890625 16.36699219 1.6909375 15.35507812 1.25 14.3125 C0.83234375 13.30316406 0.4146875 12.29382813 -0.015625 11.25390625 C-1.24007116 8.61799598 -1.24007116 8.61799598 -3.546875 7.90234375 C-5.50581437 7.72407873 -5.50581437 7.72407873 -7.5 7.75 C-7.83 10.06 -8.16 12.37 -8.5 14.75 C-8.83 14.75 -9.16 14.75 -9.5 14.75 C-9.88808856 3.64635502 -9.88808856 3.64635502 -7.5 -0.25 C-4.08198807 -1.38933731 -3.31055386 -1.09635225 0 0 Z " fill="#B5B5B5" transform="translate(42.5,41.25)"/>
<path d="M0 0 C0 0.99 0 1.98 0 3 C-0.99 3.33 -1.98 3.66 -3 4 C-3.33 4.66 -3.66 5.32 -4 6 C-3.01 6 -2.02 6 -1 6 C0.4606285 8.64738916 1 9.89448334 1 13 C0.01 12.67 -0.98 12.34 -2 12 C-2 11.01 -2 10.02 -2 9 C-2.66 9 -3.32 9 -4 9 C-3.690625 10.299375 -3.690625 10.299375 -3.375 11.625 C-4 15 -4 15 -6.0859375 16.76953125 C-13.03205024 21.1184904 -13.03205024 21.1184904 -16.265625 20.72265625 C-18 20 -18 20 -19 19 C-19.99 21.475 -19.99 21.475 -21 24 C-21.66 24 -22.32 24 -23 24 C-23 19.71 -23 15.42 -23 11 C-22.34 11 -21.68 11 -21 11 C-20.67 12.32 -20.34 13.64 -20 15 C-19.81566406 14.46890625 -19.63132813 13.9378125 -19.44140625 13.390625 C-17.5356528 8.74905659 -15.93100648 6.53457919 -11.25 4.5 C-9.84296777 3.97349762 -8.42884059 3.46406789 -7 3 C-7 3.99 -7 4.98 -7 6 C-8.65 6.66 -10.3 7.32 -12 8 C-12 10.64 -12 13.28 -12 16 C-11.34 15.34 -10.68 14.68 -10 14 C-10.3185177 11.89179203 -10.3185177 11.89179203 -11 10 C-10.01 9.67 -9.02 9.34 -8 9 C-7.67 9.66 -7.34 10.32 -7 11 C-6.97421875 10.37351562 -6.9484375 9.74703125 -6.921875 9.1015625 C-6.86515625 8.28429687 -6.8084375 7.46703125 -6.75 6.625 C-6.68039063 5.40683594 -6.68039063 5.40683594 -6.609375 4.1640625 C-6 2 -6 2 -4.078125 0.7109375 C-2 0 -2 0 0 0 Z " fill="#939393" transform="translate(227,76)"/>
<path d="M0 0 C0.33 0 0.66 0 1 0 C1.15373106 16.47760475 0.9450316 32.94485986 0.62667847 49.41921997 C0.583989 51.63474833 0.54274302 53.85030499 0.50296021 56.06588745 C0.44541697 59.22632777 0.38182475 62.38658896 0.31640625 65.546875 C0.29968872 66.49701981 0.28297119 67.44716461 0.26574707 68.42610168 C0.15546534 73.37148535 -0.17690626 78.12085767 -1 83 C-1.33 83 -1.66 83 -2 83 C-2.04635541 72.91643632 -2.08188554 62.83289802 -2.10362434 52.74924946 C-2.11405826 48.06692552 -2.12821035 43.38467453 -2.15087891 38.70239258 C-2.17262119 34.18311535 -2.18457158 29.66390825 -2.18975449 25.14458275 C-2.19344774 23.42102136 -2.20065974 21.69746377 -2.21146011 19.97393227 C-2.22599345 17.55846508 -2.22797717 15.14328713 -2.22705078 12.7277832 C-2.23424133 12.01640198 -2.24143188 11.30502075 -2.24884033 10.57208252 C-2.23239108 6.60428754 -1.74692155 3.57428596 0 0 Z " fill="#111111" transform="translate(167,85)"/>
<path d="M0 0 C1.32 0.33 2.64 0.66 4 1 C4 3.31 4 5.62 4 8 C3.34 8 2.68 8 2 8 C1.608125 8.61875 1.21625 9.2375 0.8125 9.875 C-1.70580839 12.8274995 -4.29516943 13.16117044 -8 14 C-8 14.66 -8 15.32 -8 16 C-11.3171411 17.4216319 -14.44219804 18.39009109 -18 19 C-18 17 -18 17 -17 16 C-17 15.01 -17 14.02 -17 13 C-15.390625 11.4296875 -15.390625 11.4296875 -13.25 9.875 C-12.55390625 9.35679687 -11.8578125 8.83859375 -11.140625 8.3046875 C-9.05405657 7.03294689 -7.38706762 6.44085483 -5 6 C-4.67 4.68 -4.34 3.36 -4 2 C-3.34 2 -2.68 2 -2 2 C-2 2.99 -2 3.98 -2 5 C-1.34 3.35 -0.68 1.7 0 0 Z " fill="#0D0D0D" transform="translate(212,133)"/>
<path d="M0 0 C2.03435531 3.72965139 3 5.66905042 3 10 C2.34 10 1.68 10 1 10 C1.33 11.65 1.66 13.3 2 15 C-0.31 15.33 -2.62 15.66 -5 16 C-7.14553377 12.78169935 -7.29583868 11.73213493 -7.3125 8 C-7.32925781 7.13375 -7.34601562 6.2675 -7.36328125 5.375 C-7 3 -7 3 -5.73046875 1.1875 C-4 0 -4 0 0 0 Z " fill="#ADADAB" transform="translate(41,48)"/>
<path d="M0 0 C7.60311889 0.13939051 14.23101473 0.5533992 20 6 C20 6.66 20 7.32 20 8 C20.89203125 8.18175781 21.7840625 8.36351562 22.703125 8.55078125 C23.87359375 8.80214844 25.0440625 9.05351562 26.25 9.3125 C27.41015625 9.55613281 28.5703125 9.79976562 29.765625 10.05078125 C32.85368022 10.95705833 34.61523474 11.8926703 37 14 C32.95885539 15.3470482 30.3528031 13.98435172 26.5234375 12.578125 C25.79758453 12.31747253 25.07173157 12.05682007 24.32388306 11.78826904 C22.79073777 11.23457425 21.25930475 10.67611863 19.72949219 10.11328125 C17.38226254 9.25266283 15.02779816 8.41460566 12.671875 7.578125 C11.18440565 7.03780588 9.69740914 6.49618291 8.2109375 5.953125 C7.50367523 5.70298645 6.79641296 5.4528479 6.06771851 5.19512939 C4.34328916 4.5507128 2.66538699 3.78448423 1 3 C0.67 2.01 0.34 1.02 0 0 Z " fill="#767676" transform="translate(92,150)"/>
<path d="M0 0 C0.33 4.62 0.66 9.24 1 14 C-0.65 14.33 -2.3 14.66 -4 15 C-4.66 14.34 -5.32 13.68 -6 13 C-6.66 14.65 -7.32 16.3 -8 18 C-8.66 18 -9.32 18 -10 18 C-10 13.71 -10 9.42 -10 5 C-9.34 5 -8.68 5 -8 5 C-7.67 6.32 -7.34 7.64 -7 9 C-6.73445312 8.43410156 -6.46890625 7.86820312 -6.1953125 7.28515625 C-5.66550781 6.18494141 -5.66550781 6.18494141 -5.125 5.0625 C-4.77695313 4.33160156 -4.42890625 3.60070312 -4.0703125 2.84765625 C-3.00335884 1.00579829 -2.2777043 0 0 0 Z " fill="#858585" transform="translate(214,82)"/>
<path d="M0 0 C2.97 0.33 5.94 0.66 9 1 C9 1.99 9 2.98 9 4 C7.54544508 5.19009039 6.08713291 6.3762027 4.6015625 7.52734375 C1.96115589 9.95522983 0.61957106 12.82314907 -1 16 C-1.33 16 -1.66 16 -2 16 C-2.05423638 14.08364783 -2.09289963 12.16685075 -2.125 10.25 C-2.14820312 9.18265625 -2.17140625 8.1153125 -2.1953125 7.015625 C-2 4 -2 4 0 0 Z " fill="#B9B9B9" transform="translate(68,25)"/>
<path d="M0 0 C3.54761884 0.8492063 6.96598363 1.93545866 10.4140625 3.12109375 C12.25347485 3.74627166 14.10393711 4.33933687 15.9609375 4.91015625 C17.43433594 5.38775391 17.43433594 5.38775391 18.9375 5.875 C20.31228516 6.30425781 20.31228516 6.30425781 21.71484375 6.7421875 C24 8 24 8 25.31640625 10.6328125 C25.54199219 11.41398438 25.76757812 12.19515625 26 13 C17.2994811 11.5525645 8.64342013 7.32646422 1 3 C0.67 2.01 0.34 1.02 0 0 Z " fill="#6F6F6F" transform="translate(65,138)"/>
<path d="M0 0 C0.66 0 1.32 0 2 0 C5.42857143 7.28571429 5.42857143 7.28571429 5 12 C4.34 11.67 3.68 11.34 3 11 C2.34 12.65 1.68 14.3 1 16 C0.34 15.34 -0.32 14.68 -1 14 C-1.33 14.66 -1.66 15.32 -2 16 C-2.66 16 -3.32 16 -4 16 C-2.98408579 10.53135543 -1.92908943 5.23609987 0 0 Z " fill="#939393" transform="translate(188,96)"/>
<path d="M0 0 C0.7940625 0.27457031 1.588125 0.54914062 2.40625 0.83203125 C7.05499008 2.37252283 11.71944849 3.67505039 16.4609375 4.8984375 C18.77833371 5.60550248 20.78035518 6.49259289 22.90625 7.64453125 C22.90625 8.30453125 22.90625 8.96453125 22.90625 9.64453125 C20.92625 9.64453125 18.94625 9.64453125 16.90625 9.64453125 C16.90625 8.98453125 16.90625 8.32453125 16.90625 7.64453125 C15.483125 7.48984375 15.483125 7.48984375 14.03125 7.33203125 C9.17133446 6.65343935 4.56821126 5.13598365 -0.09375 3.64453125 C-0.09375 2.98453125 -0.09375 2.32453125 -0.09375 1.64453125 C-1.74375 1.64453125 -3.39375 1.64453125 -5.09375 1.64453125 C-2.09375 -0.35546875 -2.09375 -0.35546875 0 0 Z " fill="#D7D7D7" transform="translate(40.09375,40.35546875)"/>
<path d="M0 0 C0.66 0 1.32 0 2 0 C2 4.29 2 8.58 2 13 C1.01 13 0.02 13 -1 13 C-1.66 12.01 -2.32 11.02 -3 10 C-3.33 11.98 -3.66 13.96 -4 16 C-4.66 16 -5.32 16 -6 16 C-6 11.71 -6 7.42 -6 3 C-5.01 3 -4.02 3 -3 3 C-2.01 4.485 -2.01 4.485 -1 6 C-0.67 4.02 -0.34 2.04 0 0 Z " fill="#989898" transform="translate(201,89)"/>
<path d="M0 0 C-0.25 3.375 -0.25 3.375 -1 7 C-3.0625 8.4375 -3.0625 8.4375 -5 9 C-5.33 8.67 -5.66 8.34 -6 8 C-6.33 8.99 -6.66 9.98 -7 11 C-7.66 11 -8.32 11 -9 11 C-9.375 7.75 -9.375 7.75 -9 4 C-5.87944243 1.29551677 -4.16725696 0 0 0 Z " fill="#828282" transform="translate(210,123)"/>
<path d="M0 0 C-0.66 1.32 -1.32 2.64 -2 4 C-2.33 3.34 -2.66 2.68 -3 2 C-3.598125 2.495 -4.19625 2.99 -4.8125 3.5 C-7 5 -7 5 -10 5 C-10 5.66 -10 6.32 -10 7 C-9.01 7.33 -8.02 7.66 -7 8 C-8.32 8 -9.64 8 -11 8 C-10.67 8.99 -10.34 9.98 -10 11 C-10.99 11.66 -11.98 12.32 -13 13 C-13.33 13.99 -13.66 14.98 -14 16 C-14.66 16 -15.32 16 -16 16 C-16.33 16.66 -16.66 17.32 -17 18 C-17.33 17.34 -17.66 16.68 -18 16 C-15.55184724 10.20174346 -12.63120707 4.17657835 -7 1 C-4.54792065 0.31569879 -2.53270033 0 0 0 Z " fill="#444444" transform="translate(82,29)"/>
<path d="M0 0 C0.66 0.33 1.32 0.66 2 1 C-2.7770162 5.75032896 -7.0482507 8.7118826 -13.3984375 10.953125 C-17.21264411 12.4879709 -20.53590216 14.68248037 -23.96875 16.92578125 C-24.6390625 17.28027344 -25.309375 17.63476562 -26 18 C-26.66 17.67 -27.32 17.34 -28 17 C-24.62102754 14.1309452 -21.38468642 12.06264985 -17.375 10.1875 C-12.00077399 7.59350477 -7.10480756 4.58458603 -2.1796875 1.22265625 C-1.46039063 0.81917969 -0.74109375 0.41570312 0 0 Z " fill="#808080" transform="translate(229,144)"/>
<path d="M0 0 C3.12270126 2.51830747 3.94523098 3.7261549 4.75 7.75 C4.87375 9.35875 4.87375 9.35875 5 11 C4.34 10.01 3.68 9.02 3 8 C3.33 9.65 3.66 11.3 4 13 C2.125 12.8125 2.125 12.8125 0 12 C-1.125 9.5 -1.125 9.5 -2 7 C-2.66 6.67 -3.32 6.34 -4 6 C-4 5.34 -4 4.68 -4 4 C-4.66 3.67 -5.32 3.34 -6 3 C-5.195625 2.87625 -4.39125 2.7525 -3.5625 2.625 C-2.716875 2.41875 -1.87125 2.2125 -1 2 C-0.67 1.34 -0.34 0.68 0 0 Z " fill="#4C4C4C" transform="translate(236,35)"/>
<path d="M0 0 C7.98694743 0.14642737 13.66156762 0.94789655 20 6 C19.67 6.66 19.34 7.32 19 8 C18.154375 7.505 17.30875 7.01 16.4375 6.5 C13.09043883 4.76669907 13.09043883 4.76669907 9.5 5 C5.52274644 5 3.3930098 3.98615208 0 2 C0 1.34 0 0.68 0 0 Z " fill="#5E5E5E" transform="translate(92,150)"/>
<path d="M0 0 C4.875 1.875 4.875 1.875 6 3 C6.14115161 5.67058851 6.04247107 8.32432238 6 11 C4.68 11 3.36 11 2 11 C-0.32590854 7.36576791 -0.16265833 4.22911669 0 0 Z " fill="#F7F7F5" transform="translate(44,50)"/>
<path d="M0 0 C0.99 0 1.98 0 3 0 C3.33 1.98 3.66 3.96 4 6 C3.34 6 2.68 6 2 6 C2.33 7.65 2.66 9.3 3 11 C2.01 11 1.02 11 0 11 C-0.33 10.34 -0.66 9.68 -1 9 C-1.99 9 -2.98 9 -4 9 C-4 7.68 -4 6.36 -4 5 C-2.68 4.67 -1.36 4.34 0 4 C0 2.68 0 1.36 0 0 Z " fill="#969694" transform="translate(40,52)"/>
<path d="M0 0 C3.82383555 0.50313626 7.52750165 1.31983377 11.25 2.3125 C12.10078125 2.53550781 12.9515625 2.75851563 13.828125 2.98828125 C16.47574218 4.22161371 17.00282635 5.31317099 18 8 C11.51292846 6.3186083 5.2322365 4.46937673 -1 2 C-0.67 1.34 -0.34 0.68 0 0 Z " fill="#666666" transform="translate(130,164)"/>
<path d="M0 0 C3.45924983 0.97594854 6.91723549 1.95630319 10.375 2.9375 C11.35984375 3.21529297 12.3446875 3.49308594 13.359375 3.77929688 C14.30039063 4.04677734 15.24140625 4.31425781 16.2109375 4.58984375 C17.51490479 4.95903931 17.51490479 4.95903931 18.84521484 5.33569336 C21 6 21 6 23 7 C23 7.66 23 8.32 23 9 C18.06786874 8.30095777 13.43755427 7.07724589 8.6875 5.625 C7.95982422 5.41617188 7.23214844 5.20734375 6.48242188 4.9921875 C4.62297177 4.4237815 2.80589186 3.72069041 1 3 C0.67 2.01 0.34 1.02 0 0 Z " fill="#272727" transform="translate(71,37)"/>
<path d="M0 0 C0.66 0 1.32 0 2 0 C3.33257403 9.41002278 3.33257403 9.41002278 2 14 C0.58622659 11.36095629 -0.37240135 8.92879371 -1 6 C-1.99 6 -2.98 6 -4 6 C-3.67 5.01 -3.34 4.02 -3 3 C-2.01 3 -1.02 3 0 3 C0 2.01 0 1.02 0 0 Z " fill="#2B2B2B" transform="translate(227,76)"/>
<path d="M0 0 C1.3921875 0.4640625 1.3921875 0.4640625 2.8125 0.9375 C7.77871546 2.3783156 12.86205306 2.64694036 18 3 C16.8046875 4.5390625 16.8046875 4.5390625 15 6 C9.65725639 5.90944502 4.2500285 4.25835519 0 1 C0 0.67 0 0.34 0 0 Z M21 0 C21.66 0.33 22.32 0.66 23 1 C21.35 1.66 19.7 2.32 18 3 C18 2.34 18 1.68 18 1 C18.99 0.67 19.98 0.34 21 0 Z " fill="#5B5B5B" transform="translate(88,32)"/>
<path d="M0 0 C7.11823485 -0.61897694 12.70088852 1.85044426 19 5 C19 5.66 19 6.32 19 7 C12.62267685 5.12275039 6.29304541 3.14328358 0 1 C0 0.67 0 0.34 0 0 Z " fill="#5E5E5E" transform="translate(148,172)"/>
<path d="M0 0 C0.33 0.99 0.66 1.98 1 3 C-0.65 3.66 -2.3 4.32 -4 5 C-4 7.64 -4 10.28 -4 13 C-2.35 12.67 -0.7 12.34 1 12 C1 12.66 1 13.32 1 14 C-0.98 14.66 -2.96 15.32 -5 16 C-5.13496251 13.89758397 -5.23197307 11.7927039 -5.3125 9.6875 C-5.37050781 8.51574219 -5.42851562 7.34398438 -5.48828125 6.13671875 C-5 3 -5 3 -2.48046875 1.08203125 C-1.66191406 0.72496094 -0.84335938 0.36789063 0 0 Z " fill="#9F9F9F" transform="translate(219,79)"/>
<path d="M0 0 C0 0.66 0 1.32 0 2 C-2.10019014 3.47309111 -4.17767729 4.81309635 -6.375 6.125 C-6.97828125 6.49753906 -7.5815625 6.87007812 -8.203125 7.25390625 C-12.72965316 10 -12.72965316 10 -15 10 C-14.75 8.125 -14.75 8.125 -14 6 C-12.375 5 -12.375 5 -10 4 C-8.80791412 3.29941194 -7.62073085 2.59044191 -6.4375 1.875 C-3 0 -3 0 0 0 Z " fill="#434343" transform="translate(231,142)"/>
<path d="M0 0 C1.32 0.33 2.64 0.66 4 1 C3.8125 2.8125 3.8125 2.8125 3 5 C-1.17857143 8 -1.17857143 8 -4 8 C-4 8.66 -4 9.32 -4 10 C-5.32 10 -6.64 10 -8 10 C-7.67 9.01 -7.34 8.02 -7 7 C-3.4375 5.8125 -3.4375 5.8125 0 5 C0 3.35 0 1.7 0 0 Z " fill="#31333F" transform="translate(202,135)"/>
<path d="M0 0 C1.75140143 0.45294865 3.50107344 0.91258748 5.25 1.375 C6.71179688 1.75785156 6.71179688 1.75785156 8.203125 2.1484375 C10.65837303 2.89598509 12.75617405 3.77123817 15 5 C15 5.66 15 6.32 15 7 C12.03 7 9.06 7 6 7 C6.33 5.68 6.66 4.36 7 3 C5.02 3 3.04 3 1 3 C0.67 2.01 0.34 1.02 0 0 Z " fill="#898989" transform="translate(141,5)"/>
<path d="M0 0 C0.99 0 1.98 0 3 0 C3.66 1.32 4.32 2.64 5 4 C4.01 4.33 3.02 4.66 2 5 C2 7.64 2 10.28 2 13 C1.34 13 0.68 13 0 13 C0 8.71 0 4.42 0 0 Z " fill="#929292" transform="translate(195,92)"/>
<path d="M0 0 C0.99 0.33 1.98 0.66 3 1 C-0.40712181 4.97497544 -4.32760855 6.86793788 -9 9 C-7.86085739 5.58257218 -6.93609692 4.87119402 -4.125 2.75 C-3.42632812 2.20859375 -2.72765625 1.6671875 -2.0078125 1.109375 C-1.34523437 0.74328125 -0.68265625 0.3771875 0 0 Z " fill="#04050C" transform="translate(203,140)"/>
<path d="M0 0 C0.33 0 0.66 0 1 0 C1 3.96 1 7.92 1 12 C2.32 12.66 3.64 13.32 5 14 C4.01 14.99 3.02 15.98 2 17 C1.01 16.67 0.02 16.34 -1 16 C-0.67 10.72 -0.34 5.44 0 0 Z " fill="#484848" transform="translate(194,93)"/>
<path d="M0 0 C0.66 0 1.32 0 2 0 C2 1.98 2 3.96 2 6 C2.66 6 3.32 6 4 6 C3.34 8.31 2.68 10.62 2 13 C1.34 13 0.68 13 0 13 C0 8.71 0 4.42 0 0 Z " fill="#999999" transform="translate(204,87)"/>
<path d="M0 0 C1.98 0 3.96 0 6 0 C6.33 1.65 6.66 3.3 7 5 C8.32 5.33 9.64 5.66 11 6 C10.67 6.66 10.34 7.32 10 8 C8.02 7.01 6.04 6.02 4 5 C4 4.34 4 3.68 4 3 C2.68 2.67 1.36 2.34 0 2 C0 1.34 0 0.68 0 0 Z " fill="#363636" transform="translate(153,168)"/>
<path d="M0 0 C3.3 0.66 6.6 1.32 10 2 C9.67 2.66 9.34 3.32 9 4 C7.68 4 6.36 4 5 4 C3.2488427 5.4166747 3.2488427 5.4166747 2 7 C1.67 6.01 1.34 5.02 1 4 C0.34 3.67 -0.32 3.34 -1 3 C-0.01 2.67 0.98 2.34 2 2 C1.34 1.34 0.68 0.68 0 0 Z " fill="#717171" transform="translate(206,25)"/>
<path d="M0 0 C8.57142857 1.85714286 8.57142857 1.85714286 12 5 C8.35839192 6.21386936 7.66834531 5.6674695 4.3125 4.0625 C3.10013672 3.49208984 3.10013672 3.49208984 1.86328125 2.91015625 C1.24839844 2.60980469 0.63351563 2.30945313 0 2 C0 1.34 0 0.68 0 0 Z " fill="#686868" transform="translate(117,159)"/>
<path d="M0 0 C2.64 0.66 5.28 1.32 8 2 C8 2.33 8 2.66 8 3 C0.5 4.5 0.5 4.5 -7 6 C-2.25 2 -2.25 2 0 2 C0 1.34 0 0.68 0 0 Z " fill="#5D5D5D" transform="translate(226,31)"/>
<path d="M0 0 C0.99 0 1.98 0 3 0 C3.25 2.3125 3.25 2.3125 3 5 C1 6.8125 1 6.8125 -1 8 C-1.66 7.67 -2.32 7.34 -3 7 C-2.01 4.69 -1.02 2.38 0 0 Z " fill="#070707" transform="translate(212,133)"/>
<path d="M0 0 C-0.66 1.32 -1.32 2.64 -2 4 C-2.33 3.34 -2.66 2.68 -3 2 C-4.11375 2.680625 -5.2275 3.36125 -6.375 4.0625 C-8.2734375 5.22265625 -8.2734375 5.22265625 -10 6 C-10.66 5.67 -11.32 5.34 -12 5 C-8.08072092 1.52863853 -5.248603 0 0 0 Z " fill="#565656" transform="translate(82,29)"/>
<path d="M0 0 C1.81495662 0.44850658 3.62693134 0.90909571 5.4375 1.375 C6.44683594 1.63023438 7.45617187 1.88546875 8.49609375 2.1484375 C11 3 11 3 12 5 C9.36 5.33 6.72 5.66 4 6 C4 5.01 4 4.02 4 3 C2.68 2.34 1.36 1.68 0 1 C0 0.67 0 0.34 0 0 Z " fill="#7A7A7A" transform="translate(160,10)"/>
<path d="M0 0 C0.66 0.33 1.32 0.66 2 1 C0.75803878 2.15454162 -0.49392845 3.29832562 -1.75 4.4375 C-2.79414063 5.39462891 -2.79414063 5.39462891 -3.859375 6.37109375 C-5.98792725 7.99081325 -7.39023405 8.58267256 -10 9 C-6.99482576 5.13620455 -4.54918935 2.09016808 0 0 Z " fill="#656565" transform="translate(229,144)"/>
<path d="M0 0 C0.66 0 1.32 0 2 0 C5.42857143 7.28571429 5.42857143 7.28571429 5 12 C4.34 11.67 3.68 11.34 3 11 C2.59270772 8.67843403 2.25561323 6.3431213 2 4 C1.34 4 0.68 4 0 4 C0 2.68 0 1.36 0 0 Z " fill="#9D9D9D" transform="translate(188,96)"/>
<path d="M0 0 C5.94 1.485 5.94 1.485 12 3 C12 3.66 12 4.32 12 5 C8.37 4.34 4.74 3.68 1 3 C0.67 2.01 0.34 1.02 0 0 Z " fill="#7C7C7C" transform="translate(188,19)"/>
<path d="M0 0 C0.66 0 1.32 0 2 0 C1.67 2.31 1.34 4.62 1 7 C-0.65 7.66 -2.3 8.32 -4 9 C-3.67 7.35 -3.34 5.7 -3 4 C-2.34 4 -1.68 4 -1 4 C-0.67 2.68 -0.34 1.36 0 0 Z " fill="#121418" transform="translate(208,135)"/>
<path d="M0 0 C0.66 0 1.32 0 2 0 C3.31223496 3.93670488 2.24296256 6.12488144 1 10 C0.34 9.34 -0.32 8.68 -1 8 C-0.96712417 5.27130593 -0.43602229 2.7033382 0 0 Z " fill="#6A6A6A" transform="translate(188,102)"/>
<path d="M0 0 C1.45947705 0.06006078 2.91779272 0.1488689 4.375 0.25 C5.59316406 0.31960937 5.59316406 0.31960937 6.8359375 0.390625 C9 1 9 1 10.2890625 3.046875 C10.64097656 4.01367188 10.64097656 4.01367188 11 5 C6.87248551 4.39301257 3.6678852 2.96189209 0 1 C0 0.67 0 0.34 0 0 Z " fill="#989898" transform="translate(80,146)"/>
<path d="M0 0 C0.33 0 0.66 0 1 0 C1 3.63 1 7.26 1 11 C0.34 10.67 -0.32 10.34 -1 10 C-1.86159454 6.76902047 -2.30597523 4.77513726 -1.0625 1.625 C-0.5365625 0.820625 -0.5365625 0.820625 0 0 Z " fill="#2C2C2C" transform="translate(212,84)"/>
<path d="M0 0 C0.99 0.66 1.98 1.32 3 2 C3.1875 4.625 3.1875 4.625 3 7 C0.5 5.6875 0.5 5.6875 -2 4 C-2 3.01 -2 2.02 -2 1 C-1.34 0.67 -0.68 0.34 0 0 Z " fill="#646464" transform="translate(218,85)"/>
<path d="M0 0 C0.33 0.66 0.66 1.32 1 2 C-0.97420135 4.52259061 -1.96745642 4.9929808 -5.1875 5.6875 C-6.5796875 5.8421875 -6.5796875 5.8421875 -8 6 C-8 5.34 -8 4.68 -8 4 C-5.36 2.68 -2.72 1.36 0 0 Z " fill="#838383" transform="translate(117,8)"/>
<path d="M0 0 C0 0.99 0 1.98 0 3 C-1.65 3.33 -3.3 3.66 -5 4 C-5 5.65 -5 7.3 -5 9 C-5.33 9 -5.66 9 -6 9 C-6 6.69 -6 4.38 -6 2 C-2.25 0 -2.25 0 0 0 Z " fill="#9E9E9E" transform="translate(227,76)"/>
<path d="M0 0 C1.65 0.33 3.3 0.66 5 1 C2.06171403 3.50298434 -0.17902761 4.46930939 -4 5 C-3.34 4.01 -2.68 3.02 -2 2 C-1.34 2 -0.68 2 0 2 C0 1.34 0 0.68 0 0 Z " fill="#444444" transform="translate(179,170)"/>
<path d="M0 0 C3.73669693 0.41518855 6.73738338 1.11772118 10 3 C8.741875 3.04125 7.48375 3.0825 6.1875 3.125 C5.47980469 3.14820313 4.77210938 3.17140625 4.04296875 3.1953125 C2 3 2 3 -1 1 C-0.67 0.67 -0.34 0.34 0 0 Z " fill="#5E5E5E" transform="translate(130,164)"/>
<path d="M0 0 C0.33 0 0.66 0 1 0 C0.67 2.64 0.34 5.28 0 8 C-0.33 7.01 -0.66 6.02 -1 5 C-1.99 5 -2.98 5 -4 5 C-3.67 4.01 -3.34 3.02 -3 2 C-2.01 2 -1.02 2 0 2 C0 1.34 0 0.68 0 0 Z " fill="#5E5E5E" transform="translate(227,77)"/>
<path d="M0 0 C0.2475 0.639375 0.495 1.27875 0.75 1.9375 C1.81562433 4.18741541 1.81562433 4.18741541 4.125 4.75 C4.74375 4.8325 5.3625 4.915 6 5 C3.69 5 1.38 5 -1 5 C-1.33 3.68 -1.66 2.36 -2 1 C-1.34 0.67 -0.68 0.34 0 0 Z " fill="#C9C9C7" transform="translate(44,57)"/>
<path d="M0 0 C1.875 0.625 1.875 0.625 4 2 C5.25 5.125 5.25 5.125 6 8 C4.68 7.67 3.36 7.34 2 7 C1.34 4.69 0.68 2.38 0 0 Z " fill="#454545" transform="translate(234,40)"/>
<path d="M0 0 C5.445 1.485 5.445 1.485 11 3 C7 4 7 4 3 4 C3 3.34 3 2.68 3 2 C2.01 1.67 1.02 1.34 0 1 C0 0.67 0 0.34 0 0 Z " fill="#878787" transform="translate(173,14)"/>
<path d="M0 0 C2.03125 0.05078125 2.03125 0.05078125 4.5 0.3125 C5.3146875 0.39113281 6.129375 0.46976563 6.96875 0.55078125 C7.97421875 0.77314453 7.97421875 0.77314453 9 1 C9.33 1.66 9.66 2.32 10 3 C5.91908529 3.11335874 2.67163473 2.83581737 -1 1 C-0.67 0.67 -0.34 0.34 0 0 Z " fill="#DBDBDB" transform="translate(68,25)"/>
<path d="M0 0 C-2.68841859 2.25245881 -4.64641875 3.88213958 -8 5 C-8.33 4.34 -8.66 3.68 -9 3 C-5.92807025 0.26939578 -4.09590633 -0.34132553 0 0 Z " fill="#444444" transform="translate(216,152)"/>
<path d="M0 0 C1.32 0.66 2.64 1.32 4 2 C3.67 2.99 3.34 3.98 3 5 C1.68 4.67 0.36 4.34 -1 4 C-0.67 2.68 -0.34 1.36 0 0 Z " fill="#AAAAA9" transform="translate(45,45)"/>
<path d="M0 0 C1.98 0 3.96 0 6 0 C6.33 2.31 6.66 4.62 7 7 C4.66666667 4.66666667 2.33333333 2.33333333 0 0 Z " fill="#535353" transform="translate(234,39)"/>
</svg>
