<?xml version="1.0" encoding="UTF-8"?>
<svg version="1.1" xmlns="http://www.w3.org/2000/svg" width="225" height="225">
<path d="M0 0 C74.25 0 148.5 0 225 0 C225 74.25 225 148.5 225 225 C150.75 225 76.5 225 0 225 C0 150.75 0 76.5 0 0 Z " fill="#FEFEFE" transform="translate(0,0)"/>
<path d="M0 0 C5.13585262 1.27218368 7.66954809 1.38818342 12.33984375 -0.90234375 C17.56307155 -2.80084065 24.44276782 -2.67422573 29.71484375 -0.97265625 C31.3115778 -0.21446962 32.90595079 0.54868476 34.5 1.3125 C37.36639765 1.10276359 39.41266416 0.34871242 42.0625 -0.75 C48.59098357 -2.53049552 55.61755192 -2.73932387 61.9375 -0.125 C65.70548721 1.39541589 66.76827928 1.55640691 70.5 0.3125 C79.3629526 -2.64181753 86.57929693 -2.46183961 95.2734375 0.8515625 C98.13256309 1.44345166 98.93314878 0.61205484 101.5 -0.6875 C104.99609375 -0.953125 104.99609375 -0.953125 108.9375 -0.9375 C110.23558594 -0.94265625 111.53367188 -0.9478125 112.87109375 -0.953125 C116.2355839 -0.70685446 118.49264047 -0.14772081 121.5 1.3125 C121.5 1.9725 121.5 2.6325 121.5 3.3125 C122.25152344 3.4053125 123.00304687 3.498125 123.77734375 3.59375 C128.47830955 4.83475101 130.7778966 8.45888093 133.5 12.3125 C136.87404335 18.51344453 138.60947156 24.06680775 138.67700195 31.1315918 C138.69625481 32.88943245 138.69625481 32.88943245 138.71589661 34.68278503 C138.72328354 35.94633316 138.73067047 37.20988129 138.73828125 38.51171875 C138.746353 39.81647659 138.75442474 41.12123444 138.76274109 42.4655304 C138.77774371 45.22856514 138.78759228 47.99157444 138.79516602 50.75463867 C138.80620127 54.27387321 138.84057685 57.79247038 138.88033772 61.31148052 C138.91296021 64.69069947 138.91729603 68.06985462 138.92578125 71.44921875 C138.94328934 72.70264572 138.96079742 73.95607269 138.97883606 75.2474823 C138.96085192 82.54826986 138.1373087 87.95003945 134.5 94.3125 C133.943125 95.364375 133.38625 96.41625 132.8125 97.5 C128.46921117 102.7823783 122.24859108 106.93523651 115.5 108.3125 C108.30044291 109.00355696 102.27012134 107.73245827 95.5 105.3125 C95.17 105.9725 94.84 106.6325 94.5 107.3125 C83.95061255 111.53225498 73.73186997 109.37622141 63.5 105.3125 C63.5 105.9725 63.5 106.6325 63.5 107.3125 C56.04668527 110.53555502 48.51737419 110.11583684 40.9375 107.625 C35.82812377 106.05957409 32.96364145 106.7216648 28.0390625 108.52734375 C22.07512316 110.3715773 15.88552072 110.09968608 10.125 107.75 C5.36653421 105.86302219 3.4048891 106.55940431 -1.1875 108.375 C-9.53577988 110.73772072 -16.95884927 109.49654271 -24.5 105.3125 C-32.30823441 99.91100684 -37.72662886 92.73853928 -39.5 83.3125 C-39.80291695 78.97266123 -39.80408121 74.6421104 -39.80078125 70.29296875 C-39.80506638 69.03921951 -39.8093515 67.78547028 -39.81376648 66.49372864 C-39.8194975 63.84683119 -39.82096039 61.20032522 -39.81567383 58.5534668 C-39.81104088 55.85635717 -39.81796439 53.15969807 -39.83618164 50.46264648 C-39.8607933 46.55178257 -39.86483273 42.64140077 -39.86328125 38.73046875 C-39.872491 37.53536179 -39.88170074 36.34025482 -39.89118958 35.1089325 C-39.83391092 24.64545993 -38.38301332 15.15772094 -30.67578125 7.5 C-21.05864396 -1.29281124 -12.49435349 -3.37333066 0 0 Z " fill="#E1CAC6" transform="translate(62.5,58.6875)"/>
<path d="M0 0 C2.85912559 0.59188916 3.65971128 -0.23950766 6.2265625 -1.5390625 C9.72265625 -1.8046875 9.72265625 -1.8046875 13.6640625 -1.7890625 C14.96214844 -1.79421875 16.26023438 -1.799375 17.59765625 -1.8046875 C20.9621464 -1.55841696 23.21920297 -0.99928331 26.2265625 0.4609375 C26.2265625 1.1209375 26.2265625 1.7809375 26.2265625 2.4609375 C26.97808594 2.55375 27.72960937 2.6465625 28.50390625 2.7421875 C33.20487205 3.98318851 35.5044591 7.60731843 38.2265625 11.4609375 C41.60060585 17.66188203 43.33603406 23.21524525 43.40356445 30.2800293 C43.42281731 32.03786995 43.42281731 32.03786995 43.44245911 33.83122253 C43.44984604 35.09477066 43.45723297 36.35831879 43.46484375 37.66015625 C43.4729155 38.96491409 43.48098724 40.26967194 43.48930359 41.6139679 C43.50430621 44.37700264 43.51415478 47.14001194 43.52172852 49.90307617 C43.53276377 53.42231071 43.56713935 56.94090788 43.60690022 60.45991802 C43.63952271 63.83913697 43.64385853 67.21829212 43.65234375 70.59765625 C43.66985184 71.85108322 43.68735992 73.10451019 43.70539856 74.3959198 C43.68741442 81.69670736 42.8638712 87.09847695 39.2265625 93.4609375 C38.6696875 94.5128125 38.1128125 95.5646875 37.5390625 96.6484375 C33.19577367 101.9308158 26.97515358 106.08367401 20.2265625 107.4609375 C13.02700541 108.15199446 6.99668384 106.88089577 0.2265625 104.4609375 C-0.1034375 105.1209375 -0.4334375 105.7809375 -0.7734375 106.4609375 C-7.51273898 109.15665809 -15.38596432 109.80027142 -22.37109375 107.66796875 C-24.59136299 106.70053925 -26.67345325 105.6661108 -28.7734375 104.4609375 C-29.60617188 104.02007812 -30.43890625 103.57921875 -31.296875 103.125 C-36.97844937 99.30741218 -41.35802197 92.11339051 -42.7734375 85.4609375 C-43.65337621 79.30727183 -43.92165779 73.23679919 -43.90625 67.02734375 C-43.90720673 66.15053452 -43.90816345 65.27372528 -43.90914917 64.37034607 C-43.90982562 62.52236865 -43.9080089 60.67438878 -43.90380859 58.82641602 C-43.89851131 56.06195432 -43.90374163 53.29765946 -43.91015625 50.53320312 C-43.91543735 41.78565288 -43.81794815 33.04134985 -43.453125 24.30078125 C-43.42014816 23.17549767 -43.42014816 23.17549767 -43.38650513 22.02748108 C-43.12841753 16.91634107 -43.12841753 16.91634107 -41.31152344 14.58544922 C-40.80395508 14.21436035 -40.29638672 13.84327148 -39.7734375 13.4609375 C-38.88555636 12.19907006 -38.01127664 10.92755868 -37.1484375 9.6484375 C-28.03739953 -2.62772532 -13.80341192 -5.2605837 0 0 Z " fill="#A9A4A1" transform="translate(157.7734375,59.5390625)"/>
<path d="M0 0 C0 0.99 0 1.98 0 3 C-1.299375 3.9590625 -1.299375 3.9590625 -2.625 4.9375 C-8.28302694 9.4661765 -11.42834717 16.45310623 -12.56433105 23.50146484 C-12.78758092 27.33102911 -12.83635596 31.1352485 -12.796875 34.96875 C-12.80093173 36.38017372 -12.80676718 37.79159332 -12.81427002 39.20300293 C-12.82304624 42.1414434 -12.81048971 45.07877929 -12.78222656 48.01708984 C-12.74804029 51.74939686 -12.76776179 55.47911419 -12.80366135 59.2113266 C-12.82553288 62.12004469 -12.818357 65.02816706 -12.80289459 67.93690491 C-12.79894409 69.31136903 -12.8036171 70.68589056 -12.81777191 72.06028748 C-12.89995432 82.27762972 -11.29354068 91.36884281 -4.05828857 99.06555176 C-1.98793432 100.92189248 -1.98793432 100.92189248 1 103 C-4.23838945 107.43248338 -9.63972885 108.47991683 -16.3515625 108.30859375 C-24.74739939 107.33031777 -31.37565682 103.16297738 -37 97 C-43.81954535 88.18491339 -44.30900985 79.82526168 -44.30078125 68.98046875 C-44.30506638 67.72671951 -44.3093515 66.47297028 -44.31376648 65.18122864 C-44.3194975 62.53433119 -44.32096039 59.88782522 -44.31567383 57.2409668 C-44.31104088 54.54385717 -44.31796439 51.84719807 -44.33618164 49.15014648 C-44.3607933 45.23928257 -44.36483273 41.32890077 -44.36328125 37.41796875 C-44.372491 36.22286179 -44.38170074 35.02775482 -44.39118958 33.7964325 C-44.33391092 23.33295993 -42.88301332 13.84522094 -35.17578125 6.1875 C-23.87012261 -4.14910219 -14.11913761 -4.36032191 0 0 Z " fill="#3F3E43" transform="translate(67,60)"/>
<path d="M0 0 C-1.051875 0.7734375 -1.051875 0.7734375 -2.125 1.5625 C-6.67837946 5.42297389 -10.47921082 9.55222812 -13 15 C-13.86625 14.690625 -13.86625 14.690625 -14.75 14.375 C-17.39517786 13.70744585 -17.39517786 13.70744585 -21 16 C-21 21.28 -21 26.56 -21 32 C-19.68 32.33 -18.36 32.66 -17 33 C-16.34 51.15 -15.68 69.3 -15 88 C-14.34 88 -13.68 88 -13 88 C-12.3503125 89.3921875 -12.3503125 89.3921875 -11.6875 90.8125 C-10.2554627 93.51745934 -9.14813084 94.9541611 -7 97 C-7 97.66 -7 98.32 -7 99 C-6.38125 99.28875 -5.7625 99.5775 -5.125 99.875 C-3 101 -3 101 -1 103 C-8.61906201 107.07531224 -16.92219651 108.61944684 -25.43359375 106.3515625 C-34.7970049 102.55426924 -40.40586956 96.45763966 -44.74499512 87.45678711 C-46.94207842 81.40513796 -46.86243135 75.39660652 -46.796875 69.03125 C-46.80093173 67.61982628 -46.80676718 66.20840668 -46.81427002 64.79699707 C-46.82304624 61.8585566 -46.81048971 58.92122071 -46.78222656 55.98291016 C-46.74804029 52.25060314 -46.76776179 48.52088581 -46.80366135 44.7886734 C-46.82553288 41.87995531 -46.818357 38.97183294 -46.80289459 36.06309509 C-46.79894409 34.68863097 -46.8036171 33.31410944 -46.81777191 31.93971252 C-46.9031932 21.31969563 -45.01371649 12.58656837 -37.75799561 4.50183105 C-26.91094727 -5.99603339 -13.32708584 -6.73875221 0 0 Z " fill="#E3E3E3" transform="translate(100,61)"/>
<path d="M0 0 C0 0.99 0 1.98 0 3 C-1.390625 4.32421875 -1.390625 4.32421875 -3.25 5.6875 C-6.77704659 8.51197594 -8.36385696 11.18238869 -9.98046875 15.36328125 C-11 17 -11 17 -13.11328125 17.73046875 C-13.73589844 17.81941406 -14.35851562 17.90835938 -15 18 C-15.02685095 20.47923801 -15.04676547 22.9581884 -15.0625 25.4375 C-15.07087891 26.14455078 -15.07925781 26.85160156 -15.08789062 27.58007812 C-15.09653588 29.38693559 -15.05220011 31.19387603 -15 33 C-14.505 33.495 -14.505 33.495 -14 34 C-13.89139746 35.46237027 -13.85097831 36.92989285 -13.83886719 38.39624023 C-13.82925964 39.33068466 -13.8196521 40.26512909 -13.80975342 41.22789001 C-13.80550354 42.24452225 -13.80125366 43.26115448 -13.796875 44.30859375 C-13.79117493 45.34564957 -13.78547485 46.38270538 -13.77960205 47.45118713 C-13.77013652 49.64949518 -13.76361193 51.84781752 -13.75976562 54.04614258 C-13.7500513 57.41968348 -13.7190386 60.79261767 -13.6875 64.16601562 C-13.68097128 66.29687136 -13.6757203 68.42773148 -13.671875 70.55859375 C-13.6595282 71.57320175 -13.6471814 72.58780975 -13.63446045 73.63316345 C-13.63746155 74.57076004 -13.64046265 75.50835663 -13.64355469 76.47436523 C-13.63990906 77.30185776 -13.63626343 78.12935028 -13.63250732 78.98191833 C-13.75377991 79.64788528 -13.87505249 80.31385223 -14 81 C-15.485 81.99 -15.485 81.99 -17 83 C-16.505 83.99 -16.505 83.99 -16 85 C-15.03707031 85.18175781 -15.03707031 85.18175781 -14.0546875 85.3671875 C-12 86 -12 86 -10.9453125 87.8203125 C-10.53925781 88.96113281 -10.53925781 88.96113281 -10.125 90.125 C-7.60762198 96.33915755 -4.23521759 101.21834043 2 104 C1 106 1 106 -1.8125 107.125 C-10.80612985 109.41495914 -18.98155871 108.60175421 -27 104 C-27.83273438 103.55914062 -28.66546875 103.11828125 -29.5234375 102.6640625 C-35.20501187 98.84647468 -39.58458447 91.65245301 -41 85 C-41.87993871 78.84633433 -42.14822029 72.77586169 -42.1328125 66.56640625 C-42.13376923 65.68959702 -42.13472595 64.81278778 -42.13571167 63.90940857 C-42.13638812 62.06143115 -42.1345714 60.21345128 -42.13037109 58.36547852 C-42.12507381 55.60101682 -42.13030413 52.83672196 -42.13671875 50.07226562 C-42.14199985 41.32471538 -42.04451065 32.58041235 -41.6796875 23.83984375 C-41.64671066 22.71456017 -41.64671066 22.71456017 -41.61306763 21.56654358 C-41.35498003 16.45540357 -41.35498003 16.45540357 -39.53808594 14.12451172 C-39.03051758 13.75342285 -38.52294922 13.38233398 -38 13 C-37.11211886 11.73813256 -36.23783914 10.46662118 -35.375 9.1875 C-27.4168937 -1.53520899 -12.04630316 -7.60819147 0 0 Z " fill="#647995" transform="translate(156,60)"/>
<path d="M0 0 C0 0.99 0 1.98 0 3 C-1.390625 4.359375 -1.390625 4.359375 -3.25 5.75 C-6.99221713 8.77110024 -8.8595075 11.71901499 -11 16 C-11.33 16 -11.66 16 -12 16 C-12 11.38 -12 6.76 -12 2 C-13.65 2.66 -15.3 3.32 -17 4 C-17 3.34 -17 2.68 -17 2 C-17.515625 2.309375 -18.03125 2.61875 -18.5625 2.9375 C-21 4 -21 4 -24.25 4 C-30.10058006 5.56015468 -32.77078757 10.06954395 -36 15 C-36.33 15.99 -36.66 16.98 -37 18 C-36.34 18 -35.68 18 -35 18 C-35 18.66 -35 19.32 -35 20 C-35.66 20 -36.32 20 -37 20 C-37.10661367 27.36818921 -36.99719432 34.64905468 -36.5 42 C-35.93984339 50.66336452 -35.88629373 59.32230526 -35.875 68 C-35.87250244 68.67836914 -35.87000488 69.35673828 -35.86743164 70.05566406 C-35.86155498 71.99543381 -35.86420016 73.93522365 -35.8671875 75.875 C-35.86831543 77.00679688 -35.86944336 78.13859375 -35.87060547 79.3046875 C-36 82 -36 82 -37 84 C-36.34 84.33 -35.68 84.66 -35 85 C-35.061875 86.11375 -35.12375 87.2275 -35.1875 88.375 C-35.125625 89.57125 -35.06375 90.7675 -35 92 C-34.01 92.66 -33.02 93.32 -32 94 C-32.33 94.99 -32.66 95.98 -33 97 C-36 96 -36 96 -38.0625 92.6875 C-43.00933528 81.92120393 -42.28483747 69.72224881 -42.20581055 58.13916016 C-42.18767402 55.40127063 -42.18530088 52.66372442 -42.18554688 49.92578125 C-42.16998047 41.23150579 -42.03582853 32.5387736 -41.67578125 23.8515625 C-41.65404343 23.10063324 -41.6323056 22.34970398 -41.60990906 21.57601929 C-41.35399548 16.45439373 -41.35399548 16.45439373 -39.53833008 14.1237793 C-39.03068115 13.75293213 -38.52303223 13.38208496 -38 13 C-37.11211886 11.73813256 -36.23783914 10.46662118 -35.375 9.1875 C-27.4168937 -1.53520899 -12.04630316 -7.60819147 0 0 Z " fill="#546785" transform="translate(156,60)"/>
<path d="M0 0 C0.33 0 0.66 0 1 0 C1.03738281 1.13179687 1.07476562 2.26359375 1.11328125 3.4296875 C1.17893082 4.91149205 1.24537851 6.39326139 1.3125 7.875 C1.33505859 8.62136719 1.35761719 9.36773437 1.38085938 10.13671875 C1.47811945 12.099604 1.73042294 14.05328322 2 16 C2.99 16.66 3.98 17.32 5 18 C5.34057617 20.73698425 5.34057617 20.73698425 5.29296875 24.26635742 C5.28305908 25.5850029 5.27314941 26.90364838 5.26293945 28.26225281 C5.25058258 28.96956732 5.23822571 29.67688183 5.22549438 30.40563011 C5.18722266 32.62152644 5.16766147 34.83688417 5.15307617 37.05305481 C5.11293616 42.56140782 5.04061667 48.06925445 4.96887207 53.57727051 C4.90950343 58.22399884 4.86263834 62.87053135 4.83218384 67.51754189 C4.81283279 69.6930556 4.77529895 71.8677631 4.73706055 74.04301453 C4.72615122 75.39089268 4.71609751 76.73877811 4.70703125 78.08666992 C4.6913208 79.25534103 4.67561035 80.42401215 4.65942383 81.62809753 C5.20609382 87.04044884 7.33372181 91.51200965 10.6875 95.8125 C13 99 13 99 13 101 C13.56203125 101.12246094 14.1240625 101.24492187 14.703125 101.37109375 C17.18986519 102.0519869 19.40514776 102.99352325 21.75 104.0625 C22.54921875 104.42472656 23.3484375 104.78695312 24.171875 105.16015625 C24.77515625 105.43730469 25.3784375 105.71445313 26 106 C26 106.33 26 106.66 26 107 C20.1141004 107.75139144 16.93708586 106.30192748 12.15625 102.85546875 C8.85693792 100.0163868 6.08504054 96.83483928 4 93 C4 92.01 4 91.02 4 90 C3.34 90 2.68 90 2 90 C1.11138187 86.90045298 0.81335335 84.01910454 0.68359375 80.80078125 C0.6206311 79.25076416 0.6206311 79.25076416 0.55639648 77.66943359 C0.51716064 76.56164551 0.4779248 75.45385742 0.4375 74.3125 C0.3950415 73.17377441 0.35258301 72.03504883 0.30883789 70.86181641 C-0.09936998 58.90797876 -0.10082221 46.95906521 0 35 C-1.65 34.67 -3.3 34.34 -5 34 C-5 28.72 -5 23.44 -5 18 C-3.68 17.34 -2.36 16.68 -1 16 C-0.53411453 13.17482275 -0.30384499 10.70920439 -0.25 7.875 C-0.22035156 7.12089844 -0.19070312 6.36679688 -0.16015625 5.58984375 C-0.08942068 3.72714047 -0.04245017 1.86356245 0 0 Z " fill="#B49F9D" transform="translate(83,59)"/>
<path d="M0 0 C0.66 0.33 1.32 0.66 2 1 C1.78515625 3.30859375 1.78515625 3.30859375 1 6 C-1.06640625 7.66015625 -1.06640625 7.66015625 -3.5625 9.0625 C-6.04839638 10.3773042 -6.04839638 10.3773042 -8 12 C-8 13.32 -8 14.64 -8 16 C-8.66 16 -9.32 16 -10 16 C-9.649375 16.763125 -9.29875 17.52625 -8.9375 18.3125 C-8 21 -8 21 -9 24 C-9.66 24.66 -10.32 25.32 -11 26 C-11.24525 28.37588498 -11.24525 28.37588498 -11.125 31.13671875 C-11.10824219 32.18287354 -11.09148437 33.22902832 -11.07421875 34.30688477 C-11.04972656 35.42248779 -11.02523437 36.53809082 -11 37.6875 C-10.87849114 47.34124089 -11.26940502 56.49717936 -13 66 C-12.34 66 -11.68 66 -11 66 C-11 68.64 -11 71.28 -11 74 C-11.66 74 -12.32 74 -13 74 C-12.67 76.64 -12.34 79.28 -12 82 C-11.34 82 -10.68 82 -10 82 C-10 82.66 -10 83.32 -10 84 C-9.01 84.33 -8.02 84.66 -7 85 C-7.99 85.99 -8.98 86.98 -10 88 C-9.01 89.32 -8.02 90.64 -7 92 C-8.485 92.495 -8.485 92.495 -10 93 C-13.5756959 87.00205849 -15.11144918 83.08758561 -15.17700195 76.01318359 C-15.18983719 74.80447601 -15.20267242 73.59576843 -15.21589661 72.35043335 C-15.22328354 71.04627472 -15.23067047 69.74211609 -15.23828125 68.3984375 C-15.24439454 67.39663389 -15.24439454 67.39663389 -15.25063133 66.37459183 C-15.27146131 62.83583134 -15.28577326 59.29710922 -15.29516602 55.75830078 C-15.30619242 52.12707277 -15.3405563 48.49646396 -15.38033772 44.86545372 C-15.4066569 42.05305957 -15.41487151 39.24080919 -15.41844749 36.42830276 C-15.4256075 34.44652783 -15.45198329 32.46485179 -15.47883606 30.48324585 C-15.4559873 20.89549664 -14.04541024 12.04541024 -7 5 C-4.7205737 3.22765989 -2.39866726 1.61448758 0 0 Z " fill="#87827E" transform="translate(159,62)"/>
<path d="M0 0 C0.598125 0.165 1.19625 0.33 1.8125 0.5 C4.30708782 1.2438266 4.30708782 1.2438266 8 0 C8.33 4.95 8.66 9.9 9 15 C7.68 15.33 6.36 15.66 5 16 C4.97308315 18.45840605 4.95320198 20.91651882 4.9375 23.375 C4.92912109 24.07367188 4.92074219 24.77234375 4.91210938 25.4921875 C4.8164558 29.37295376 4.8164558 29.37295376 6 33 C5.71758117 35.3400417 5.38749213 37.67504723 5 40 C4.67 40 4.34 40 4 40 C1.96079627 32.09808555 1.25545941 24.14614998 2 16 C2.66 15.34 3.32 14.68 4 14 C2.02 14.33 0.04 14.66 -2 15 C-2 15.99 -2 16.98 -2 18 C-4.64 18 -7.28 18 -10 18 C-9.34 15.36 -8.68 12.72 -8 10 C-10.53884453 11.15565651 -10.53884453 11.15565651 -13 13 C-13.88658466 15.59122743 -13.88658466 15.59122743 -14 18 C-14.33 17.34 -14.66 16.68 -15 16 C-15.66 16 -16.32 16 -17 16 C-16.39096941 12.90694578 -15.40131197 10.80360238 -13.5625 8.25 C-13.13066406 7.63640625 -12.69882813 7.0228125 -12.25390625 6.390625 C-11.63322266 5.70226562 -11.63322266 5.70226562 -11 5 C-10.34 5 -9.68 5 -9 5 C-8.67 4.01 -8.34 3.02 -8 2 C-6.2984375 1.7834375 -6.2984375 1.7834375 -4.5625 1.5625 C-1.19222799 1.38828522 -1.19222799 1.38828522 0 0 Z " fill="#60738D" transform="translate(136,62)"/>
<path d="M0 0 C1.32 0.33 2.64 0.66 4 1 C-1 6 -1 6 -3.5625 8.375 C-9.06349759 14.29915125 -11.10288729 19.98842229 -11.17700195 27.98681641 C-11.18983719 29.19552399 -11.20267242 30.40423157 -11.21589661 31.64956665 C-11.22328354 32.95372528 -11.23067047 34.25788391 -11.23828125 35.6015625 C-11.24235678 36.26943157 -11.2464323 36.93730064 -11.25063133 37.62540817 C-11.27146131 41.16416866 -11.28577326 44.70289078 -11.29516602 48.24169922 C-11.30619242 51.87292723 -11.3405563 55.50353604 -11.38033772 59.13454628 C-11.4066569 61.94694043 -11.41487151 64.75919081 -11.41844749 67.57169724 C-11.4256075 69.55347217 -11.45198329 71.53514821 -11.47883606 73.51675415 C-11.45002894 85.60473555 -8.51282503 93.26259479 -0.1875 101.875 C0.204375 102.24625 0.59625 102.6175 1 103 C-4.04693801 102.16066042 -6.10623198 98.96373266 -9 95 C-12 89.8 -12 89.8 -12 86 C-13.98 86 -15.96 86 -18 86 C-18 84.02 -18 82.04 -18 80 C-17.34 80.66 -16.68 81.32 -16 82 C-14.41318011 80.41318011 -14.87271464 78.78751654 -14.87060547 76.58789062 C-14.86745331 75.65021851 -14.86430115 74.71254639 -14.86105347 73.74645996 C-14.8630777 72.72669067 -14.86510193 71.70692139 -14.8671875 70.65625 C-14.86575241 69.09710876 -14.86575241 69.09710876 -14.86428833 67.50646973 C-14.86360637 65.30395446 -14.86546173 63.10143721 -14.86962891 60.89892578 C-14.87497692 57.51460281 -14.86968441 54.13041256 -14.86328125 50.74609375 C-14.86394203 48.61197887 -14.86522319 46.47786408 -14.8671875 44.34375 C-14.86516327 43.32398071 -14.86313904 42.30421143 -14.86105347 41.25354004 C-14.86420563 40.31586792 -14.86735779 39.3781958 -14.87060547 38.41210938 C-14.87140106 37.58239624 -14.87219666 36.75268311 -14.87301636 35.89782715 C-14.79157448 33.98898476 -14.79157448 33.98898476 -16 33 C-16.07313567 30.46950598 -16.09247527 27.96695163 -16.0625 25.4375 C-16.05798828 24.72658203 -16.05347656 24.01566406 -16.04882812 23.28320312 C-16.03700864 21.52209987 -16.01907263 19.76103964 -16 18 C-14.35 17.67 -12.7 17.34 -11 17 C-10.90460938 16.26007813 -10.80921875 15.52015625 -10.7109375 14.7578125 C-9.90065476 11.61462779 -8.81734664 10.23385398 -6.625 7.875 C-5.71621094 6.88113281 -5.71621094 6.88113281 -4.7890625 5.8671875 C-3.63738213 4.66521541 -2.46661793 3.48109889 -1.2734375 2.3203125 C0.1157024 1.1857649 0.1157024 1.1857649 0 0 Z " fill="#A3A3A5" transform="translate(156,60)"/>
<path d="M0 0 C0.33 0 0.66 0 1 0 C1.02578125 1.13179687 1.0515625 2.26359375 1.078125 3.4296875 C1.13439626 4.91149743 1.19174382 6.39326677 1.25 7.875 C1.26417969 8.62136719 1.27835938 9.36773437 1.29296875 10.13671875 C1.35986341 12.57138381 1.35986341 12.57138381 2 16 C3.32 16.66 4.64 17.32 6 18 C6 23.28 6 28.56 6 34 C3.525 34.495 3.525 34.495 1 35 C1 42.92 1 50.84 1 59 C0.67 59 0.34 59 0 59 C0 51.08 0 43.16 0 35 C-1.65 34.67 -3.3 34.34 -5 34 C-6 33 -6 33 -6.09765625 29.62109375 C-6.09098369 28.22652923 -6.07902532 26.83198257 -6.0625 25.4375 C-6.05798828 24.72658203 -6.05347656 24.01566406 -6.04882812 23.28320312 C-6.03700864 21.52209987 -6.01907263 19.76103964 -6 18 C-4.02 17.34 -2.04 16.68 0 16 C0 10.72 0 5.44 0 0 Z " fill="#45403D" transform="translate(172,60)"/>
<path d="M0 0 C0.99 0 1.98 0 3 0 C4.16923331 9.89115096 4.01639257 19.67011961 3.78515625 29.61328125 C3.68616507 38.24351271 4.27901864 43.87730018 9.6875 50.8125 C12 54 12 54 12 56 C12.84304687 56.18369141 12.84304687 56.18369141 13.703125 56.37109375 C16.18986519 57.0519869 18.40514776 57.99352325 20.75 59.0625 C21.54921875 59.42472656 22.3484375 59.78695312 23.171875 60.16015625 C23.77515625 60.43730469 24.3784375 60.71445313 25 61 C25 61.33 25 61.66 25 62 C19.1141004 62.75139144 15.93708586 61.30192748 11.15625 57.85546875 C7.85693792 55.0163868 5.08504054 51.83483928 3 48 C3 47.01 3 46.02 3 45 C2.34 45 1.68 45 1 45 C0.20178184 42.18806199 -0.12253632 39.70176715 -0.11352539 36.78222656 C-0.11344986 35.96167786 -0.11337433 35.14112915 -0.11329651 34.29571533 C-0.10813522 33.41953552 -0.10297394 32.54335571 -0.09765625 31.640625 C-0.0962413 30.73624695 -0.09482635 29.8318689 -0.09336853 28.90008545 C-0.08777911 26.01668973 -0.07522853 23.13337218 -0.0625 20.25 C-0.05748363 18.29296987 -0.05292096 16.33593853 -0.04882812 14.37890625 C-0.03781313 9.58590747 -0.02055574 4.79296698 0 0 Z " fill="#C8ADAD" transform="translate(84,104)"/>
<path d="M0 0 C-0.33 5.61 -0.66 11.22 -1 17 C-2.98 16.34 -4.96 15.68 -7 15 C-7 14.34 -7 13.68 -7 13 C-7.763125 13.165 -8.52625 13.33 -9.3125 13.5 C-12.70452174 14.13107381 -14.70543302 14.09818899 -18 13 C-16.625 11 -16.625 11 -15 9 C-14.34 9 -13.68 9 -13 9 C-13.185625 8.401875 -13.37125 7.80375 -13.5625 7.1875 C-14 5 -14 5 -13 2 C-8.27236924 -0.13869011 -5.47062126 0 0 0 Z " fill="#9C9794" transform="translate(173,59)"/>
<path d="M0 0 C0.33 0 0.66 0 1 0 C1.90933848 14.6793211 2.12375296 29.29434109 2 44 C2.66 44 3.32 44 4 44 C4 46.64 4 49.28 4 52 C3.34 52 2.68 52 2 52 C2.33 54.64 2.66 57.28 3 60 C3.66 60 4.32 60 5 60 C5 60.66 5 61.32 5 62 C5.99 62.33 6.98 62.66 8 63 C7.01 63.99 6.02 64.98 5 66 C5.99 67.32 6.98 68.64 8 70 C6.515 70.495 6.515 70.495 5 71 C1.42190079 64.99802713 -0.12841035 61.12332762 -0.11352539 54.03808594 C-0.11344986 52.83714294 -0.11337433 51.63619995 -0.11329651 50.39886475 C-0.10813522 49.10708313 -0.10297394 47.81530151 -0.09765625 46.484375 C-0.09579017 45.14487765 -0.09436716 43.80537962 -0.09336853 42.46588135 C-0.08955835 38.94777528 -0.07974091 35.42971079 -0.06866455 31.91162109 C-0.05841817 28.31869061 -0.053864 24.72575339 -0.04882812 21.1328125 C-0.03811725 14.08852471 -0.02105887 7.04426507 0 0 Z " fill="#6F6A67" transform="translate(144,84)"/>
<path d="M0 0 C5.26053849 4.53026415 5.35002222 9.36391958 6 16 C6.22835125 19.97128691 6.25868097 23.92140452 6.23046875 27.8984375 C6.23001053 28.97703033 6.22955231 30.05562317 6.2290802 31.16690063 C6.22608434 33.42394119 6.21827931 35.68098018 6.20581055 37.93798828 C6.18743544 41.38711879 6.18530215 44.83598163 6.18554688 48.28515625 C6.18063471 50.48958565 6.17480772 52.69401324 6.16796875 54.8984375 C6.16685593 55.9235141 6.1657431 56.9485907 6.16459656 58.00473022 C6.13292825 62.77917101 5.99627337 67.30633505 5 72 C4.67 72 4.34 72 4 72 C3.99413376 71.26830093 3.98826752 70.53660187 3.98222351 69.7827301 C3.92408384 62.85403326 3.85188691 55.92560661 3.76428509 48.99722385 C3.7197438 45.4360796 3.68045322 41.87504546 3.65356445 38.3137207 C3.62234345 34.21016331 3.56756222 30.10720301 3.51171875 26.00390625 C3.50532883 24.73793106 3.4989389 23.47195587 3.49235535 22.1676178 C3.38940746 15.92357061 3.00159037 10.58790931 0.63825989 4.76939392 C0 3 0 3 0 0 Z " fill="#EBEAE6" transform="translate(197,72)"/>
<path d="M0 0 C0.99 0 1.98 0 3 0 C3.32871094 0.85271484 3.32871094 0.85271484 3.6640625 1.72265625 C6.53121664 8.70406004 9.87415295 14.8210122 17 18 C16 20 16 20 13.1875 21.125 C6.0382659 22.98616425 -2.2076971 23.01880129 -9 20 C-8.34 19.34 -7.68 18.68 -7 18 C-4.66253478 18.30300475 -2.32914823 18.63858045 0 19 C2.32158065 18.65340705 2.32158065 18.65340705 4 18 C4.6878236 15.64632287 4.6878236 15.64632287 5 13 C4.34 12.01 3.68 11.02 3 10 C2.855625 8.989375 2.71125 7.97875 2.5625 6.9375 C2.376875 5.968125 2.19125 4.99875 2 4 C1.01 3.34 0.02 2.68 -1 2 C-0.67 1.34 -0.34 0.68 0 0 Z " fill="#748296" transform="translate(141,146)"/>
<path d="M0 0 C1.32 0.33 2.64 0.66 4 1 C4 5.62 4 10.24 4 15 C-2.75 16.125 -2.75 16.125 -5 15 C-5 12.03 -5 9.06 -5 6 C-4.01 5.67 -3.02 5.34 -2 5 C-0.78130071 2.49552484 -0.78130071 2.49552484 0 0 Z " fill="#8B8683" transform="translate(173,78)"/>
<path d="M0 0 C0.75 1.75 0.75 1.75 1 4 C-0.85055798 6.23343204 -2.40383083 7.70191542 -5 9 C-10.01485852 22.10758831 -8.56529199 37.61736745 -8.6875 51.375 C-8.7207239 53.96095428 -8.75521812 56.54689257 -8.79101562 59.1328125 C-8.87533664 65.42176534 -8.94392578 71.71073517 -9 78 C-9.33 78 -9.66 78 -10 78 C-10.2714743 70.25468066 -10.50809516 62.50911399 -10.70202446 54.76150894 C-10.79316423 51.16267239 -10.89563463 47.56495284 -11.02539062 43.96728516 C-11.15051737 40.48576619 -11.24406371 37.00461669 -11.31708145 33.52162933 C-11.36590182 31.56709728 -11.44618587 29.61343093 -11.52731323 27.65997314 C-11.6863672 18.17948049 -9.56510801 10.61258682 -3.49801636 3.15338135 C-2.125 1.75 -2.125 1.75 0 0 Z " fill="#B1B1B3" transform="translate(65,63)"/>
<path d="M0 0 C1.65 0 3.3 0 5 0 C3.68 0.33 2.36 0.66 1 1 C1 5.95 1 10.9 1 16 C1.66 16 2.32 16 3 16 C2.67 17.65 2.34 19.3 2 21 C0.68 21.33 -0.64 21.66 -2 22 C-2 25.96 -2 29.92 -2 34 C-1.34 34 -0.68 34 0 34 C-0.33 35.32 -0.66 36.64 -1 38 C-1.66 38 -2.32 38 -3 38 C-3 37.34 -3 36.68 -3 36 C-3.99 35.67 -4.98 35.34 -6 35 C-6.13501894 32.56065775 -6.23403897 30.12875896 -6.3125 27.6875 C-6.35439453 26.99720703 -6.39628906 26.30691406 -6.43945312 25.59570312 C-6.48828125 23.57421875 -6.48828125 23.57421875 -6 20 C-5.1853125 19.525625 -4.370625 19.05125 -3.53125 18.5625 C-0.86649708 17.31293577 -0.86649708 17.31293577 -0.49487305 15.1887207 C-0.2836873 12.88712804 -0.20456331 10.62363007 -0.1875 8.3125 C-0.16236328 7.51521484 -0.13722656 6.71792969 -0.11132812 5.89648438 C-0.05249685 3.9315198 -0.02337596 1.96570609 0 0 Z " fill="#323136" transform="translate(53,58)"/>
<path d="M0 0 C0.66 0 1.32 0 2 0 C2 19.47 2 38.94 2 59 C1.67 59 1.34 59 1 59 C0.67 51.08 0.34 43.16 0 35 C-0.33 35 -0.66 35 -1 35 C-1.0294985 31.22918364 -1.04696364 27.45839769 -1.0625 23.6875 C-1.07087891 22.63498047 -1.07925781 21.58246094 -1.08789062 20.49804688 C-1.10909421 13.60688314 -0.75671682 6.84969487 0 0 Z " fill="#42485B" transform="translate(115,83)"/>
<path d="M0 0 C6.13053511 -0.32712342 10.62669111 -0.39366878 16 3 C16 6 16 6 14.609375 7.4296875 C13.99578125 7.90664062 13.3821875 8.38359375 12.75 8.875 C9.48671494 11.42705626 7.74642256 13.5669718 5 17 C5 11.72 5 6.44 5 1 C3.35 1 1.7 1 0 1 C0 0.67 0 0.34 0 0 Z " fill="#687990" transform="translate(140,57)"/>
<path d="M0 0 C1.32 0.33 2.64 0.66 4 1 C-1 6 -1 6 -3.5625 8.375 C-9.29736045 14.55100356 -10.98451604 20.49308627 -11.5625 28.75 C-11.64628906 29.92046875 -11.73007813 31.0909375 -11.81640625 32.296875 C-11.87699219 33.18890625 -11.93757812 34.0809375 -12 35 C-12.33 34.34 -12.66 33.68 -13 33 C-13.99 33 -14.98 33 -16 33 C-16 28.05 -16 23.1 -16 18 C-14.35 17.67 -12.7 17.34 -11 17 C-10.90460938 16.26007813 -10.80921875 15.52015625 -10.7109375 14.7578125 C-9.90065476 11.61462779 -8.81734664 10.23385398 -6.625 7.875 C-5.71621094 6.88113281 -5.71621094 6.88113281 -4.7890625 5.8671875 C-3.63738213 4.66521541 -2.46661793 3.48109889 -1.2734375 2.3203125 C0.1157024 1.1857649 0.1157024 1.1857649 0 0 Z " fill="#B6B5B7" transform="translate(156,60)"/>
<path d="M0 0 C0.33 0 0.66 0 1 0 C1.33 18.48 1.66 36.96 2 56 C2.33 56 2.66 56 3 56 C3.12117188 56.58007812 3.24234375 57.16015625 3.3671875 57.7578125 C4.76414414 64.50475148 4.76414414 64.50475148 7 71 C7.99 71.33 8.98 71.66 10 72 C10 72.99 10 73.98 10 75 C4.88630065 73.0846288 3.46660305 69.22061804 1.23504639 64.50012207 C-0.87743528 58.51334798 -0.73894525 52.77097848 -0.5859375 46.484375 C-0.57471235 45.13391021 -0.56618791 43.78342058 -0.56021118 42.43292236 C-0.53757185 38.92081262 -0.478877 35.410251 -0.4119873 31.89874268 C-0.35001627 28.29859345 -0.3230808 24.69818792 -0.29296875 21.09765625 C-0.22909893 14.06448032 -0.127035 7.03234254 0 0 Z " fill="#CFCED3" transform="translate(54,84)"/>
<path d="M0 0 C2 1.25 2 1.25 4 3 C4 4.32 4 5.64 4 7 C6.475 7.99 6.475 7.99 9 9 C9 9.66 9 10.32 9 11 C9.55171875 10.67257813 10.1034375 10.34515625 10.671875 10.0078125 C13.38780923 8.83212285 15.30551759 8.79751362 18.25 8.875 C19.14203125 8.89304688 20.0340625 8.91109375 20.953125 8.9296875 C21.96632812 8.96449219 21.96632812 8.96449219 23 9 C23 9.66 23 10.32 23 11 C23.66 11.33 24.32 11.66 25 12 C24.34 12 23.68 12 23 12 C23 12.66 23 13.32 23 14 C13.60105363 14.5126698 6.95253656 12.1282145 -0.56640625 6.5 C-2 5 -2 5 -2 2 C-1.34 2.33 -0.68 2.66 0 3 C0 2.01 0 1.02 0 0 Z " fill="#A29E9A" transform="translate(153,153)"/>
<path d="M0 0 C0.66 0 1.32 0 2 0 C1.67 2.64 1.34 5.28 1 8 C2.65 8 4.3 8 6 8 C6 9.65 6 11.3 6 13 C5.34 13 4.68 13 4 13 C4 13.66 4 14.32 4 15 C4.66 15 5.32 15 6 15 C6.33 15.66 6.66 16.32 7 17 C7.99 17 8.98 17 10 17 C10.33 18.65 10.66 20.3 11 22 C11.66 22 12.32 22 13 22 C12.67 22.99 12.34 23.98 12 25 C7.68538629 24.26221973 6.00202639 22.33489888 3.328125 19.01953125 C-0.46298241 13.25481792 -0.27826203 6.67828864 0 0 Z " fill="#353538" transform="translate(25,136)"/>
<path d="M0 0 C0.66 0.33 1.32 0.66 2 1 C1.67 20.8 1.34 40.6 1 61 C0.67 61 0.34 61 0 61 C0 45.16 0 29.32 0 13 C-0.66 13 -1.32 13 -2 13 C-2.19573608 11.56359829 -2.38127816 10.12580496 -2.5625 8.6875 C-2.66691406 7.88699219 -2.77132812 7.08648437 -2.87890625 6.26171875 C-3 4 -3 4 -2 1 C-1.34 0.67 -0.68 0.34 0 0 Z " fill="#66656A" transform="translate(53,79)"/>
<path d="M0 0 C1.98 0 3.96 0 6 0 C5.34 5.28 4.68 10.56 4 16 C2.35 15.67 0.7 15.34 -1 15 C-1.02685412 12.68756208 -1.04632841 10.3750373 -1.0625 8.0625 C-1.07410156 6.77472656 -1.08570312 5.48695312 -1.09765625 4.16015625 C-1 1 -1 1 0 0 Z " fill="#E2DEE0" transform="translate(80,77)"/>
<path d="M0 0 C0.33 0 0.66 0 1 0 C1 10.56 1 21.12 1 32 C1.66 32 2.32 32 3 32 C5 34 5 34 6 37.5625 C6.33 38.696875 6.66 39.83125 7 41 C7.66 41.33 8.32 41.66 9 42 C8.67 42.99 8.34 43.98 8 45 C5 44 5 44 2.9375 40.6875 C-2.52790704 28.81437437 -2.52134695 12.70758864 0 0 Z " fill="#5C606F" transform="translate(115,112)"/>
<path d="M0 0 C1.65 0 3.3 0 5 0 C4.01 0.495 4.01 0.495 3 1 C2.67 1.99 2.34 2.98 2 4 C1.236875 4.5775 0.47375 5.155 -0.3125 5.75 C-2.78167094 7.81721288 -3.67566218 8.95110544 -5.125 11.6875 C-7 15 -7 15 -10 16 C-10.66 16.66 -11.32 17.32 -12 18 C-12.6640625 16.25 -12.6640625 16.25 -13 14 C-10.4917795 9.172147 -6.50460347 5.00306898 -2 2 C-1.34 2 -0.68 2 0 2 C0 1.34 0 0.68 0 0 Z " fill="#DABCBA" transform="translate(100,60)"/>
<path d="M0 0 C3.19199167 2.41556126 5.74716687 4.68003538 8 8 C2.87080814 10.10428384 -1.5610835 10.21755666 -7 10 C-7 8.02 -7 6.04 -7 4 C-5.35 4 -3.7 4 -2 4 C-1.34 2.68 -0.68 1.36 0 0 Z " fill="#E6D1CB" transform="translate(119,155)"/>
<path d="M0 0 C1.22589844 0.01353516 1.22589844 0.01353516 2.4765625 0.02734375 C3.41628906 0.04474609 3.41628906 0.04474609 4.375 0.0625 C3.385 0.5575 3.385 0.5575 2.375 1.0625 C2.375 6.6725 2.375 12.2825 2.375 18.0625 C0.725 18.3925 -0.925 18.7225 -2.625 19.0625 C-1.88830078 18.48048828 -1.88830078 18.48048828 -1.13671875 17.88671875 C0.88225753 15.45038304 0.68398805 13.99319328 0.5625 10.875 C0.53542969 9.97394531 0.50835937 9.07289062 0.48046875 8.14453125 C0.44566406 7.45746094 0.41085938 6.77039063 0.375 6.0625 C-1.275 6.0625 -2.925 6.0625 -4.625 6.0625 C-4.625 4.7425 -4.625 3.4225 -4.625 2.0625 C-5.285 1.7325 -5.945 1.4025 -6.625 1.0625 C-4.21954362 -0.14022819 -2.67503047 -0.03821472 0 0 Z " fill="#C2A5A6" transform="translate(112.625,57.9375)"/>
<path d="M0 0 C5.56862862 0.02685834 10.08052846 1.98272625 15.0625 4.3125 C13.21875 5.37109375 13.21875 5.37109375 11.0625 6.3125 C9.38173769 5.68221413 7.71454456 5.01461894 6.0625 4.3125 C3.25869802 4.6882455 3.25869802 4.6882455 1.0625 6.3125 C0.96355545 7.7471959 0.93279265 9.18690397 0.9375 10.625 C0.93492188 11.40488281 0.93234375 12.18476562 0.9296875 12.98828125 C1.05750088 15.22501539 1.44336131 17.16516979 2.0625 19.3125 C1.0725 18.9825 0.0825 18.6525 -0.9375 18.3125 C-0.9375 13.0325 -0.9375 7.7525 -0.9375 2.3125 C-2.2575 1.9825 -3.5775 1.6525 -4.9375 1.3125 C-3.9375 0.3125 -3.9375 0.3125 0 0 Z " fill="#DCDADA" transform="translate(84.9375,56.6875)"/>
<path d="M0 0 C0.33 0 0.66 0 1 0 C1 4.95 1 9.9 1 15 C1.99 15 2.98 15 4 15 C4.33 12.69 4.66 10.38 5 8 C5.33 8 5.66 8 6 8 C5.67 18.89 5.34 29.78 5 41 C4.67 41 4.34 41 4 41 C3.67 33.41 3.34 25.82 3 18 C2.01 17.67 1.02 17.34 0 17 C-1.49341703 14.01316593 -1.13175178 11.25600226 -1.125 7.9375 C-1.12757812 6.66777344 -1.13015625 5.39804688 -1.1328125 4.08984375 C-1 1 -1 1 0 0 Z " fill="#AB9A99" transform="translate(109,77)"/>
<path d="M0 0 C8.30085731 -0.51345509 14.51935975 0.29278005 22 4 C18.93882432 6.62386487 18.26826873 7 14 7 C14 6.34 14 5.68 14 5 C13.38125 5.350625 12.7625 5.70125 12.125 6.0625 C11.42375 6.371875 10.7225 6.68125 10 7 C9.34 6.67 8.68 6.34 8 6 C7.375 3.9375 7.375 3.9375 7 2 C4.69 1.67 2.38 1.34 0 1 C0 0.67 0 0.34 0 0 Z " fill="#DAC8C5" transform="translate(108,57)"/>
<path d="M0 0 C0.66 0 1.32 0 2 0 C2.02892857 3.95831809 2.04677427 7.91660917 2.0625 11.875 C2.07087891 13.00292969 2.07925781 14.13085938 2.08789062 15.29296875 C2.09111328 16.36933594 2.09433594 17.44570312 2.09765625 18.5546875 C2.10289307 19.54968262 2.10812988 20.54467773 2.11352539 21.56982422 C2 24 2 24 1 26 C1.66 26.33 2.32 26.66 3 27 C2.01 27.66 1.02 28.32 0 29 C0 28.01 0 27.02 0 26 C-0.66 26 -1.32 26 -2 26 C-1.34 17.42 -0.68 8.84 0 0 Z " fill="#4E6685" transform="translate(118,118)"/>
<path d="M0 0 C0.66 0.66 1.32 1.32 2 2 C4.1398632 2.318384 4.1398632 2.318384 6.5 2.25 C7.69109375 2.25773438 7.69109375 2.25773438 8.90625 2.265625 C11.21892751 2.18939909 11.21892751 2.18939909 13 0 C13.125 3.375 13.125 3.375 13 7 C12.34 7.66 11.68 8.32 11 9 C9.68 9 8.36 9 7 9 C6.67 8.34 6.34 7.68 6 7 C2.97065509 6.34227572 2.97065509 6.34227572 0 6 C0 4.02 0 2.04 0 0 Z " fill="#7C7774" transform="translate(166,140)"/>
<path d="M0 0 C0.33 0 0.66 0 1 0 C1.07476562 0.75023437 1.14953125 1.50046875 1.2265625 2.2734375 C2.53540854 12.46190567 6.26387078 20.17400363 14 27 C8.95306199 26.16066042 6.89376802 22.96373266 4 19 C1 13.8 1 13.8 1 10 C-0.98 10 -2.96 10 -5 10 C-5 8.02 -5 6.04 -5 4 C-4.34 4.66 -3.68 5.32 -3 6 C-2.01 6 -1.02 6 0 6 C0 4.02 0 2.04 0 0 Z " fill="#B9C0C7" transform="translate(143,136)"/>
<path d="M0 0 C0 8.25 0 16.5 0 25 C-0.99 24.34 -1.98 23.68 -3 23 C-2.814375 22.360625 -2.62875 21.72125 -2.4375 21.0625 C-2.2209375 20.0415625 -2.2209375 20.0415625 -2 19 C-2.33 18.67 -2.66 18.34 -3 18 C-3.07325168 15.13732433 -3.09238205 12.299281 -3.0625 9.4375 C-3.05798828 8.63119141 -3.05347656 7.82488281 -3.04882812 6.99414062 C-3.03700518 4.99606244 -3.01906914 2.99802217 -3 1 C-1 0 -1 0 0 0 Z " fill="#EAEDE9" transform="translate(83,94)"/>
<path d="M0 0 C0.99 1.32 1.98 2.64 3 4 C3.66 3.67 4.32 3.34 5 3 C9 8.75 9 8.75 9 11 C9.56203125 11.12246094 10.1240625 11.24492187 10.703125 11.37109375 C13.18986519 12.0519869 15.40514776 12.99352325 17.75 14.0625 C18.54921875 14.42472656 19.3484375 14.78695312 20.171875 15.16015625 C20.77515625 15.43730469 21.3784375 15.71445313 22 16 C22 16.33 22 16.66 22 17 C16.1141004 17.75139144 12.93708586 16.30192748 8.15625 12.85546875 C4.85693792 10.0163868 2.08504054 6.83483928 0 3 C0 2.01 0 1.02 0 0 Z " fill="#CEBAB8" transform="translate(87,149)"/>
<path d="M0 0 C0.99 0.33 1.98 0.66 3 1 C2.34 1.66 1.68 2.32 1 3 C0.2833793 5.31847874 -0.38242027 7.65319703 -1 10 C-1.33 10.99 -1.66 11.98 -2 13 C-3.32 13 -4.64 13 -6 13 C-6.50341475 7.7141451 -5.26910671 5.13445849 -2 1 C-1.34 0.67 -0.68 0.34 0 0 Z " fill="#616163" transform="translate(47,75)"/>
<path d="M0 0 C5 1 5 1 8 3 C6.68 3.33 5.36 3.66 4 4 C4 4.99 4 5.98 4 7 C4.66 7.33 5.32 7.66 6 8 C4.68 9.65 3.36 11.3 2 13 C1.34 12.67 0.68 12.34 0 12 C0 8.04 0 4.08 0 0 Z " fill="#48484A" transform="translate(54,62)"/>
<path d="M0 0 C0.33 0.66 0.66 1.32 1 2 C1.804375 2.309375 2.60875 2.61875 3.4375 2.9375 C6 4 6 4 8 7 C8.125 9.6875 8.125 9.6875 8 12 C9.32 12.33 10.64 12.66 12 13 C9 14 9 14 6.5 13.3125 C3.78259946 11.88586472 2.62495236 10.56571425 1 8 C1.33 7.34 1.66 6.68 2 6 C2.33 6.33 2.66 6.66 3 7 C3.33 6.34 3.66 5.68 4 5 C2.68 4.34 1.36 3.68 0 3 C0 2.01 0 1.02 0 0 Z " fill="#5C7089" transform="translate(120,149)"/>
<path d="M0 0 C0.66 0.33 1.32 0.66 2 1 C1.34 1.66 0.68 2.32 0 3 C-0.30059943 5.36509361 -0.49515012 7.74441881 -0.625 10.125 C-0.73714844 12.04699219 -0.73714844 12.04699219 -0.8515625 14.0078125 C-0.90054688 14.99523437 -0.94953125 15.98265625 -1 17 C-2.32 17.33 -3.64 17.66 -5 18 C-5.042721 16.33388095 -5.04063832 14.66617115 -5 13 C-4.67 12.67 -4.34 12.34 -4 12 C-3.82700019 8.79950343 -4.0902357 6.07045451 -5 3 C-2.625 1.4375 -2.625 1.4375 0 0 Z " fill="#E7D2CF" transform="translate(109,75)"/>
<path d="M0 0 C3.98381075 2.16264012 6.88983545 4.71211176 10 8 C9.01 8.33 8.02 8.66 7 9 C7 8.34 7 7.68 7 7 C5.39125 7.0928125 5.39125 7.0928125 3.75 7.1875 C-0.10866187 6.99456691 -1.28817788 6.60334924 -4 4 C-2.68 3.34 -1.36 2.68 0 2 C0 1.34 0 0.68 0 0 Z " fill="#4C4B4E" transform="translate(58,156)"/>
<path d="M0 0 C2 1.25 2 1.25 4 3 C4 4.32 4 5.64 4 7 C6.475 7.99 6.475 7.99 9 9 C9 9.66 9 10.32 9 11 C10.32 10.67 11.64 10.34 13 10 C13.33 10.99 13.66 11.98 14 13 C7.2342998 12.85604893 2.6709536 9.85101303 -2 5 C-2 4.01 -2 3.02 -2 2 C-1.34 2.33 -0.68 2.66 0 3 C0 2.01 0 1.02 0 0 Z " fill="#94908B" transform="translate(153,153)"/>
<path d="M0 0 C0.12117188 0.58007812 0.24234375 1.16015625 0.3671875 1.7578125 C1.76414414 8.50475148 1.76414414 8.50475148 4 15 C4.99 15.33 5.98 15.66 7 16 C7 16.99 7 17.98 7 19 C2.76741984 17.50939568 1.65397266 15.05795362 -0.25 11.125 C-1.03117187 9.55105469 -1.03117187 9.55105469 -1.828125 7.9453125 C-3 5 -3 5 -3 1 C-1 0 -1 0 0 0 Z " fill="#CACACB" transform="translate(57,140)"/>
<path d="M0 0 C0.33 0 0.66 0 1 0 C1 2.97 1 5.94 1 9 C1.99 9 2.98 9 4 9 C4 12.63 4 16.26 4 20 C2.68 19.67 1.36 19.34 0 19 C0 12.73 0 6.46 0 0 Z " fill="#E9EAE8" transform="translate(80,119)"/>
<path d="M0 0 C3.3 0 6.6 0 10 0 C10.33 0.99 10.66 1.98 11 3 C9.68 3.33 8.36 3.66 7 4 C7 5.98 7 7.96 7 10 C7.66 9.67 8.32 9.34 9 9 C8.44855089 13.08072342 8.08669204 13.91330796 5 17 C5 11.72 5 6.44 5 1 C3.35 1 1.7 1 0 1 C0 0.67 0 0.34 0 0 Z " fill="#727C94" transform="translate(140,57)"/>
<path d="M0 0 C2 3 2 3 2 6 C2.66 6 3.32 6 4 6 C4 6.66 4 7.32 4 8 C4.99 8.33 5.98 8.66 7 9 C6.01 9.99 5.02 10.98 4 12 C4.99 13.32 5.98 14.64 7 16 C6.01 16.33 5.02 16.66 4 17 C0.89647169 11.99430918 -1.68729875 7.73105034 -0.5625 1.625 C-0.376875 1.08875 -0.19125 0.5525 0 0 Z " fill="#847E7D" transform="translate(145,138)"/>
<path d="M0 0 C0.33 0 0.66 0 1 0 C1.33 9.57 1.66 19.14 2 29 C1.34 29.33 0.68 29.66 0 30 C-2.19819991 26.49176176 -2.11697469 23.99237984 -1.7578125 19.921875 C-1.66113281 18.76171875 -1.56445312 17.6015625 -1.46484375 16.40625 C-1.35269531 15.1996875 -1.24054688 13.993125 -1.125 12.75 C-1.02058594 11.52796875 -0.91617188 10.3059375 -0.80859375 9.046875 C-0.54934804 6.03019766 -0.27943561 3.01486311 0 0 Z " fill="#6B7F9C" transform="translate(139,113)"/>
<path d="M0 0 C0.66 0 1.32 0 2 0 C2 2.31 2 4.62 2 7 C3.98 7.66 5.96 8.32 8 9 C7.34 9.66 6.68 10.32 6 11 C2.375 10.625 2.375 10.625 -1 10 C-1.02689216 8.52093108 -1.04634621 7.04172517 -1.0625 5.5625 C-1.07410156 4.73878906 -1.08570313 3.91507812 -1.09765625 3.06640625 C-1 1 -1 1 0 0 Z " fill="#77726F" transform="translate(169,83)"/>
<path d="M0 0 C0.33 0 0.66 0 1 0 C1.03738281 1.13179687 1.07476562 2.26359375 1.11328125 3.4296875 C1.17893082 4.91149205 1.24537851 6.39326139 1.3125 7.875 C1.33505859 8.62136719 1.35761719 9.36773437 1.38085938 10.13671875 C1.47811945 12.099604 1.73042294 14.05328322 2 16 C2.99 16.66 3.98 17.32 5 18 C4.67 18.99 4.34 19.98 4 21 C3.67 20.34 3.34 19.68 3 19 C1.02 19 -0.96 19 -3 19 C-3.33 23.62 -3.66 28.24 -4 33 C-4.33 33 -4.66 33 -5 33 C-5 28.05 -5 23.1 -5 18 C-3.68 17.34 -2.36 16.68 -1 16 C-0.53411453 13.17482275 -0.30384499 10.70920439 -0.25 7.875 C-0.22035156 7.12089844 -0.19070312 6.36679688 -0.16015625 5.58984375 C-0.08942068 3.72714047 -0.04245017 1.86356245 0 0 Z " fill="#797676" transform="translate(83,59)"/>
<path d="M0 0 C0.66 0.33 1.32 0.66 2 1 C1.9375 3.25 1.9375 3.25 1 6 C-1.2308475 7.67849824 -3.47405906 8.75999263 -6 10 C-6.66 9.34 -7.32 8.68 -8 8 C-6.88333826 4.65001479 -6.25305075 4.20659778 -3.4375 2.3125 C-2.79683594 1.87550781 -2.15617188 1.43851563 -1.49609375 0.98828125 C-1.00238281 0.66214844 -0.50867188 0.33601563 0 0 Z " fill="#868783" transform="translate(159,62)"/>
<path d="M0 0 C0 0.66 0 1.32 0 2 C0.66 2.33 1.32 2.66 2 3 C1.38125 3.2475 0.7625 3.495 0.125 3.75 C-2.13746494 4.82143729 -2.13746494 4.82143729 -3 7 C-4.24508396 9.49016793 -5.46716796 9.98686718 -8 11 C-7.71915428 6.97454466 -7.21634296 5.25517374 -4.5625 2.125 C-2 0 -2 0 0 0 Z " fill="#383839" transform="translate(35,65)"/>
<path d="M0 0 C1.98 0.495 1.98 0.495 4 1 C4.82638376 3.89234315 5 5.88742431 5 9 C3.02 9 1.04 9 -1 9 C-1.125 2.25 -1.125 2.25 0 0 Z " fill="#636268" transform="translate(48,137)"/>
<path d="M0 0 C0.66 0 1.32 0 2 0 C1.67 3.3 1.34 6.6 1 10 C2.32 10 3.64 10 5 10 C4.34 11.98 3.68 13.96 3 16 C1.02 16.33 -0.96 16.66 -3 17 C-3 16.34 -3 15.68 -3 15 C-2.01 15 -1.02 15 0 15 C0 10.05 0 5.1 0 0 Z " fill="#9B9693" transform="translate(178,79)"/>
<path d="M0 0 C0 5.94 0 11.88 0 18 C-0.33 18 -0.66 18 -1 18 C-1 13.38 -1 8.76 -1 4 C-2.65 4.66 -4.3 5.32 -6 6 C-6 4.68 -6 3.36 -6 2 C-6.66 1.67 -7.32 1.34 -8 1 C-5 0 -5 0 0 0 Z " fill="#3B4960" transform="translate(145,58)"/>
<path d="M0 0 C0.99 0 1.98 0 3 0 C3.3125 2.3125 3.3125 2.3125 3 5 C1.34467377 6.01866229 -0.32260138 7.01810813 -2 8 C-2.88658466 10.59122743 -2.88658466 10.59122743 -3 13 C-3.33 12.34 -3.66 11.68 -4 11 C-4.66 11 -5.32 11 -6 11 C-5.39005934 7.93674247 -4.42271989 5.79949366 -2.625 3.25 C-2.20476562 2.63640625 -1.78453125 2.0228125 -1.3515625 1.390625 C-0.90554687 0.93171875 -0.45953125 0.4728125 0 0 Z " fill="#546883" transform="translate(125,67)"/>
<path d="M0 0 C0.66 0.33 1.32 0.66 2 1 C1.649375 1.763125 1.29875 2.52625 0.9375 3.3125 C-0.32360884 6.04759379 -0.32360884 6.04759379 1 9 C0.01 9.495 0.01 9.495 -1 10 C-2.13350534 12.01669827 -2.13350534 12.01669827 -3 14 C-3.66 13.67 -4.32 13.34 -5 13 C-4.48474397 7.71862571 -2.74522883 4.42778844 0 0 Z " fill="#7D7B76" transform="translate(150,69)"/>
<path d="M0 0 C1.65 0 3.3 0 5 0 C3.68 0.33 2.36 0.66 1 1 C1 5.95 1 10.9 1 16 C1.66 16 2.32 16 3 16 C3 16.99 3 17.98 3 19 C0.36 19.66 -2.28 20.32 -5 21 C-4.505 19.515 -4.505 19.515 -4 18 C-3.01 17.67 -2.02 17.34 -1 17 C-0.67 11.39 -0.34 5.78 0 0 Z " fill="#1D1D20" transform="translate(53,58)"/>
<path d="M0 0 C0.66 0 1.32 0 2 0 C1.67 2.64 1.34 5.28 1 8 C2.65 8 4.3 8 6 8 C6 9.65 6 11.3 6 13 C5.01 13.33 4.02 13.66 3 14 C1 13 1 13 0.37890625 11.234375 C-0.02399618 8.85849677 -0.09791478 6.65820483 -0.0625 4.25 C-0.05347656 3.45078125 -0.04445313 2.6515625 -0.03515625 1.828125 C-0.02355469 1.22484375 -0.01195313 0.6215625 0 0 Z " fill="#2A2A2C" transform="translate(25,136)"/>
<path d="M0 0 C0.99 0 1.98 0 3 0 C2.34 4.95 1.68 9.9 1 15 C0.34 15 -0.32 15 -1 15 C-1.02685412 12.68756208 -1.04632841 10.3750373 -1.0625 8.0625 C-1.07410156 6.77472656 -1.08570313 5.48695312 -1.09765625 4.16015625 C-1 1 -1 1 0 0 Z " fill="#DEDEDD" transform="translate(141,77)"/>
<path d="M0 0 C0 1.65 0 3.3 0 5 C-0.66 5 -1.32 5 -2 5 C-2.33 7.31 -2.66 9.62 -3 12 C-3.66 12 -4.32 12 -5 12 C-5.08131463 10.56344146 -5.13933559 9.1255517 -5.1875 7.6875 C-5.22230469 6.88699219 -5.25710937 6.08648437 -5.29296875 5.26171875 C-5 3 -5 3 -3.61328125 1.20703125 C-2 0 -2 0 0 0 Z " fill="#B6B1AE" transform="translate(166,77)"/>
<path d="M0 0 C3.47066162 3.00790673 4.95128136 5.51911126 6 10 C5.67 10.99 5.34 11.98 5 13 C2.26097751 10.63448058 1.06829908 8.45142779 0 5 C-0.125 2.1875 -0.125 2.1875 0 0 Z " fill="#D9D9D9" transform="translate(57,141)"/>
<path d="M0 0 C1.32 0.33 2.64 0.66 4 1 C3.2884375 2.3921875 3.2884375 2.3921875 2.5625 3.8125 C0.95511125 6.91196237 0.95511125 6.91196237 0 10 C-0.66 10 -1.32 10 -2 10 C-2.33 10.66 -2.66 11.32 -3 12 C-2.14285714 3.42857143 -2.14285714 3.42857143 0 0 Z " fill="#D7D7D9" transform="translate(60,72)"/>
<path d="M0 0 C0.33 0.66 0.66 1.32 1 2 C0.4225 2.515625 -0.155 3.03125 -0.75 3.5625 C-3.46936119 6.50847463 -5.10156592 9.47433671 -7 13 C-7.66 12.01 -8.32 11.02 -9 10 C-8.07265428 8.51444617 -7.13275187 7.03672494 -6.1875 5.5625 C-5.66542969 4.73878906 -5.14335938 3.91507812 -4.60546875 3.06640625 C-3 1 -3 1 0 0 Z " fill="#565C6C" transform="translate(126,65)"/>
<path d="M0 0 C0.33 0.99 0.66 1.98 1 3 C1.66 3 2.32 3 3 3 C3.33 4.98 3.66 6.96 4 9 C2 9 0 9 -2 9 C-2.25 3.375 -2.25 3.375 0 0 Z " fill="#E9E9E9" transform="translate(75,86)"/>
<path d="M0 0 C0.66 0 1.32 0 2 0 C3.013244 4.61588935 2.99847037 8.37072828 2 13 C1.01 13.495 1.01 13.495 0 14 C0 9.38 0 4.76 0 0 Z " fill="#29282C" transform="translate(24,82)"/>
<path d="M0 0 C0.99 0.33 1.98 0.66 3 1 C2.67 3.97 2.34 6.94 2 10 C1.01 9.67 0.02 9.34 -1 9 C-0.67 6.03 -0.34 3.06 0 0 Z " fill="#ECE3E4" transform="translate(82,79)"/>
<path d="M0 0 C3.19199167 2.41556126 5.74716687 4.68003538 8 8 C6.02 8.66 4.04 9.32 2 10 C1.67 9.34 1.34 8.68 1 8 C1.66 7.34 2.32 6.68 3 6 C2.01 5.34 1.02 4.68 0 4 C0 2.68 0 1.36 0 0 Z " fill="#E0D3D7" transform="translate(119,155)"/>
<path d="M0 0 C2.31 0.66 4.62 1.32 7 2 C6.67 3.32 6.34 4.64 6 6 C3.03 5.505 3.03 5.505 0 5 C0 3.35 0 1.7 0 0 Z " fill="#D4D4D3" transform="translate(77,140)"/>
<path d="M0 0 C-0.99 0.66 -1.98 1.32 -3 2 C-3.72382467 4.05925139 -3.72382467 4.05925139 -4 6 C-5.32 6.33 -6.64 6.66 -8 7 C-9 4 -9 4 -8 1 C-5.04059045 -1.0409721 -3.36242374 -1.20086562 0 0 Z " fill="#7D8DA8" transform="translate(142,76)"/>
<path d="M0 0 C0.66 0 1.32 0 2 0 C0.55049545 3.7910119 -1.15172566 7.3874638 -3 11 C-3.66 10.67 -4.32 10.34 -5 10 C-4.49890042 5.61537866 -3.01704885 3.1999003 0 0 Z " fill="#C5B0AD" transform="translate(92,67)"/>
<path d="M0 0 C0.33 0 0.66 0 1 0 C1.33 3.3 1.66 6.6 2 10 C3.32 10.33 4.64 10.66 6 11 C5.67 12.32 5.34 13.64 5 15 C4.34 15 3.68 15 3 15 C3 14.34 3 13.68 3 13 C2.01 12.67 1.02 12.34 0 12 C0 8.04 0 4.08 0 0 Z " fill="#1A1A1E" transform="translate(47,81)"/>
<path d="M0 0 C1.15837573 3.47512718 0.77265943 5.13670286 0.0625 8.6875 C-0.13214844 9.68136719 -0.32679687 10.67523438 -0.52734375 11.69921875 C-0.68332031 12.45847656 -0.83929688 13.21773437 -1 14 C-1.33 14 -1.66 14 -2 14 C-2.22245393 12.39773045 -2.42746669 10.79303233 -2.625 9.1875 C-2.74101563 8.29417969 -2.85703125 7.40085937 -2.9765625 6.48046875 C-3 4 -3 4 -1 1 C-0.67 0.67 -0.34 0.34 0 0 Z " fill="#B4B3B6" transform="translate(57,76)"/>
<path d="M0 0 C2.82738643 2.55376839 4.5736597 4.16293727 5 8 C5.06681953 10.67278133 5.04458147 13.32511163 5 16 C3.53508849 13.20392978 2.37754078 10.42993234 1.375 7.4375 C1.11460937 6.67308594 0.85421875 5.90867187 0.5859375 5.12109375 C0 3 0 3 0 0 Z " fill="#E2E1DD" transform="translate(197,72)"/>
<path d="M0 0 C3.96 0.33 7.92 0.66 12 1 C12 1.66 12 2.32 12 3 C8.37 3 4.74 3 1 3 C0.67 2.01 0.34 1.02 0 0 Z " fill="#DDDDDD" transform="translate(76,165)"/>
<path d="M0 0 C0.99 0.33 1.98 0.66 3 1 C3 2.65 3 4.3 3 6 C1.68 6.33 0.36 6.66 -1 7 C-1.625 5.1875 -1.625 5.1875 -2 3 C-1.34 2.01 -0.68 1.02 0 0 Z " fill="#CDC8C5" transform="translate(181,81)"/>
<path d="M0 0 C0.33 0 0.66 0 1 0 C1 3.3 1 6.6 1 10 C0.01 9.67 -0.98 9.34 -2 9 C-2.33 7.02 -2.66 5.04 -3 3 C-2.01 2.67 -1.02 2.34 0 2 C0 1.34 0 0.68 0 0 Z " fill="#9E9996" transform="translate(176,80)"/>
<path d="M0 0 C0.99 0 1.98 0 3 0 C3 0.66 3 1.32 3 2 C3.99 2 4.98 2 6 2 C6 2.66 6 3.32 6 4 C5.34 4 4.68 4 4 4 C4 4.99 4 5.98 4 7 C2.68 7 1.36 7 0 7 C0 4.69 0 2.38 0 0 Z " fill="#59647B" transform="translate(115,76)"/>
<path d="M0 0 C1.65 0 3.3 0 5 0 C4.01 0.495 4.01 0.495 3 1 C2.67 1.99 2.34 2.98 2 4 C0.8553125 4.1546875 0.8553125 4.1546875 -0.3125 4.3125 C-3.17059424 5.04364039 -4.15742885 5.76951913 -6 8 C-6 7.01 -6 6.02 -6 5 C-2.66666667 2 -2.66666667 2 0 2 C0 1.34 0 0.68 0 0 Z " fill="#CBB9B5" transform="translate(100,60)"/>
<path d="M0 0 C0.886875 0.598125 1.77375 1.19625 2.6875 1.8125 C5.42215231 3.61840247 8.17623048 5.33895911 11 7 C8 8 8 8 5.5 7.3125 C2.75375201 5.87071981 1.57198636 4.64755597 0 2 C0 1.34 0 0.68 0 0 Z " fill="#6A6E7E" transform="translate(121,155)"/>
<path d="M0 0 C0.66 0 1.32 0 2 0 C2 3.3 2 6.6 2 10 C1.01 9.67 0.02 9.34 -1 9 C-0.67 6.03 -0.34 3.06 0 0 Z " fill="#A19C99" transform="translate(164,82)"/>
<path d="M0 0 C1.1446875 0.2475 1.1446875 0.2475 2.3125 0.5 C5.03596236 1.09145396 5.03596236 1.09145396 8 1 C7.835 1.598125 7.67 2.19625 7.5 2.8125 C6.8885876 5.11344336 6.8885876 5.11344336 7 8 C5.83035398 6.8572081 4.66435444 5.71068285 3.5 4.5625 C2.8503125 3.92441406 2.200625 3.28632812 1.53125 2.62890625 C0 1 0 1 0 0 Z " fill="#E6E1DE" transform="translate(189,64)"/>
<path d="M0 0 C0.33 0.66 0.66 1.32 1 2 C-0.27057182 2.47985967 -1.54146848 2.9588593 -2.8125 3.4375 C-3.87404297 3.83775391 -3.87404297 3.83775391 -4.95703125 4.24609375 C-6.62672396 4.86225186 -8.31157704 5.43719235 -10 6 C-10 5.01 -10 4.02 -10 3 C-6.73454239 1.11608215 -3.71888239 0.50712033 0 0 Z " fill="#D1D1D1" transform="translate(78,58)"/>
<path d="M0 0 C0.99 0 1.98 0 3 0 C3 2.64 3 5.28 3 8 C2.01 8 1.02 8 0 8 C0 5.36 0 2.72 0 0 Z " fill="#85807D" transform="translate(145,128)"/>
<path d="M0 0 C0.66 0 1.32 0 2 0 C2 3.63 2 7.26 2 11 C1.01 10.34 0.02 9.68 -1 9 C-0.67 6.03 -0.34 3.06 0 0 Z " fill="#E7D1CE" transform="translate(112,82)"/>
<path d="M0 0 C1.98 0 3.96 0 6 0 C6 0.66 6 1.32 6 2 C8.64 2 11.28 2 14 2 C14 2.33 14 2.66 14 3 C12.41676312 3.027193 10.83338938 3.04648306 9.25 3.0625 C7.92742188 3.07990234 7.92742188 3.07990234 6.578125 3.09765625 C4.2181162 3.00826198 2.25501476 2.66912821 0 2 C0 1.34 0 0.68 0 0 Z " fill="#5F5F61" transform="translate(44,165)"/>
<path d="M0 0 C0.66 0.33 1.32 0.66 2 1 C1.34 1.66 0.68 2.32 0 3 C-0.6425235 5.06874034 -0.6425235 5.06874034 -1 7 C-2.32 6.67 -3.64 6.34 -5 6 C-5 5.01 -5 4.02 -5 3 C-2.625 1.25 -2.625 1.25 0 0 Z " fill="#F8E7E2" transform="translate(109,75)"/>
<path d="M0 0 C-3.12488567 2.52394612 -6.31314387 4.39701907 -10 6 C-10.66 5.67 -11.32 5.34 -12 5 C-4.88610478 -0.74031891 -4.88610478 -0.74031891 0 0 Z " fill="#626A7D" transform="translate(136,60)"/>
<path d="M0 0 C3 0 3 0 5 1 C4.67 2.32 4.34 3.64 4 5 C3.67 5 3.34 5 3 5 C2.67 5.66 2.34 6.32 2 7 C0.4375 5.1875 0.4375 5.1875 -1 3 C-0.67 2.01 -0.34 1.02 0 0 Z " fill="#E4D7D5" transform="translate(113,150)"/>
<path d="M0 0 C0.33 2.97 0.66 5.94 1 9 C0.01 8.67 -0.98 8.34 -2 8 C-2.33 5.69 -2.66 3.38 -3 1 C-1 0 -1 0 0 0 Z " fill="#BEBEC1" transform="translate(57,140)"/>
<path d="M0 0 C0.33 0 0.66 0 1 0 C1 2.97 1 5.94 1 9 C-0.65 8.67 -2.3 8.34 -4 8 C-4 7.01 -4 6.02 -4 5 C-2.68 5 -1.36 5 0 5 C0 3.35 0 1.7 0 0 Z " fill="#CAB7B7" transform="translate(114,136)"/>
<path d="M0 0 C0.99 0.33 1.98 0.66 3 1 C1.75 3.5 1.75 3.5 0 6 C-1.32 6 -2.64 6 -4 6 C-2.25 1.125 -2.25 1.125 0 0 Z " fill="#B3B3B5" transform="translate(47,75)"/>
<path d="M0 0 C3.3 0 6.6 0 10 0 C10.33 0.99 10.66 1.98 11 3 C9.02 3 7.04 3 5 3 C5 2.34 5 1.68 5 1 C3.35 1 1.7 1 0 1 C0 0.67 0 0.34 0 0 Z " fill="#868F9D" transform="translate(140,57)"/>
<path d="M0 0 C0.99 0 1.98 0 3 0 C3 1.65 3 3.3 3 5 C1.68 5.33 0.36 5.66 -1 6 C-1.042721 4.33388095 -1.04063832 2.66617115 -1 1 C-0.67 0.67 -0.34 0.34 0 0 Z " fill="#596E8D" transform="translate(125,67)"/>
<path d="M0 0 C2.64 0 5.28 0 8 0 C7.01 0.33 6.02 0.66 5 1 C4.67 1.99 4.34 2.98 4 4 C4 3.34 4 2.68 4 2 C1.69 2.33 -0.62 2.66 -3 3 C-2.01 2.67 -1.02 2.34 0 2 C0 1.34 0 0.68 0 0 Z " fill="#49484D" transform="translate(48,57)"/>
<path d="M0 0 C1.98 0.99 1.98 0.99 4 2 C3.67 3.65 3.34 5.3 3 7 C1.5 5.75 1.5 5.75 0 4 C0 2.68 0 1.36 0 0 Z " fill="#D8BDBC" transform="translate(88,144)"/>
<path d="M0 0 C0.99 0.33 1.98 0.66 3 1 C5.14255793 0.61067144 5.14255793 0.61067144 7 0 C7.33 1.65 7.66 3.3 8 5 C5.36 4.34 2.72 3.68 0 3 C0 2.01 0 1.02 0 0 Z " fill="#737D96" transform="translate(137,72)"/>
<path d="M0 0 C0.99 0.33 1.98 0.66 3 1 C1.7260411 3.03833424 0.38938077 5.03852126 -1 7 C-1.66 7 -2.32 7 -3 7 C-3 3 -3 3 -1.5 1.25 C-1.005 0.8375 -0.51 0.425 0 0 Z " fill="#D5C7CA" transform="translate(118,69)"/>
<path d="M0 0 C0.66 0.33 1.32 0.66 2 1 C2 1.99 2 2.98 2 4 C-0.5 5.6875 -0.5 5.6875 -3 7 C-3.33 6.01 -3.66 5.02 -4 4 C-3.01 3.67 -2.02 3.34 -1 3 C-0.67 2.01 -0.34 1.02 0 0 Z " fill="#918D87" transform="translate(158,64)"/>
<path d="M0 0 C0.66 0 1.32 0 2 0 C2 0.66 2 1.32 2 2 C2.66 2.33 3.32 2.66 4 3 C2.125 4.0625 2.125 4.0625 0 5 C-0.66 4.67 -1.32 4.34 -2 4 C-1.34 2.68 -0.68 1.36 0 0 Z " fill="#313133" transform="translate(33,65)"/>
<path d="M0 0 C-2.35438733 1.42944945 -3.48032433 2.08661261 -6.25 1.625 C-6.8275 1.41875 -7.405 1.2125 -8 1 C-8 0.34 -8 -0.32 -8 -1 C-4.37673261 -2.2077558 -3.35853631 -1.54311128 0 0 Z " fill="#3A3A3A" transform="translate(48,164)"/>
<path d="M0 0 C1.5 1.3125 1.5 1.3125 3 3 C3 3.99 3 4.98 3 6 C1.68 6 0.36 6 -1 6 C-1.042721 4.33388095 -1.04063832 2.66617115 -1 1 C-0.67 0.67 -0.34 0.34 0 0 Z " fill="#8A8582" transform="translate(174,143)"/>
<path d="M0 0 C1.32 0.33 2.64 0.66 4 1 C3.67 1.99 3.34 2.98 3 4 C1.35 4.33 -0.3 4.66 -2 5 C-1.34 3.35 -0.68 1.7 0 0 Z " fill="#7E7976" transform="translate(173,78)"/>
<path d="M0 0 C0.66 0 1.32 0 2 0 C2 1.65 2 3.3 2 5 C0.68 5 -0.64 5 -2 5 C-1.125 1.125 -1.125 1.125 0 0 Z " fill="#D2CDCA" transform="translate(164,77)"/>
</svg>
