<?xml version="1.0" encoding="UTF-8"?>
<svg version="1.1" xmlns="http://www.w3.org/2000/svg" width="225" height="225">
<path d="M0 0 C74.25 0 148.5 0 225 0 C225 74.25 225 148.5 225 225 C150.75 225 76.5 225 0 225 C0 150.75 0 76.5 0 0 Z " fill="#FDFDFD" transform="translate(0,0)"/>
<path d="M0 0 C1.60293085 0.04234573 3.20571762 0.09037064 4.80834961 0.14282227 C6.07140175 0.17823875 6.07140175 0.17823875 7.35997009 0.21437073 C10.06037467 0.29119796 12.76050607 0.37513964 15.46069336 0.45922852 C17.28685168 0.51243015 19.1130235 0.56517066 20.93920898 0.61743164 C25.42576111 0.7459686 29.91187364 0.88411135 34.39819336 1.02172852 C34.39819336 13.23172852 34.39819336 25.44172852 34.39819336 38.02172852 C35.71819336 38.35172852 37.03819336 38.68172852 38.39819336 39.02172852 C38.4234594 46.69384054 38.44102459 54.36594191 38.453125 62.03808594 C38.45816713 64.6503947 38.46500061 67.26270063 38.47363281 69.875 C38.48570372 73.6205312 38.49142271 77.36602523 38.49584961 81.11157227 C38.50101089 82.28759506 38.50617218 83.46361786 38.51148987 84.67527771 C38.5115654 85.75632278 38.51164093 86.83736786 38.51171875 87.95117188 C38.51393936 88.90825546 38.51615997 89.86533905 38.51844788 90.85142517 C38.39819336 93.02172852 38.39819336 93.02172852 37.39819336 94.02172852 C32.72974108 94.16599466 28.06953383 94.06381266 23.39819336 94.02172852 C23.39819336 99.96172852 23.39819336 105.90172852 23.39819336 112.02172852 C22.73819336 112.02172852 22.07819336 112.02172852 21.39819336 112.02172852 C21.39819336 113.01172852 21.39819336 114.00172852 21.39819336 115.02172852 C22.05819336 115.02172852 22.71819336 115.02172852 23.39819336 115.02172852 C23.39819336 117.99172852 23.39819336 120.96172852 23.39819336 124.02172852 C21.91319336 124.51672852 21.91319336 124.51672852 20.39819336 125.02172852 C20.23030963 126.64660323 20.06392549 128.27163294 19.89819336 129.89672852 C19.80538086 130.80165039 19.71256836 131.70657227 19.61694336 132.63891602 C19.37235461 135.30318632 19.42753251 137.17662197 19.92944336 139.82641602 C20.9357448 146.68273042 20.07829145 153.73636037 19.71459961 160.62329102 C19.39313827 167.58567321 19.5156502 174.30590633 20.20458984 181.24462891 C20.44531743 184.69768855 20.10474677 187.64597332 19.39819336 191.02172852 C16.09819336 191.02172852 12.79819336 191.02172852 9.39819336 191.02172852 C9.39819336 168.58172852 9.39819336 146.14172852 9.39819336 123.02172852 C8.07819336 123.02172852 6.75819336 123.02172852 5.39819336 123.02172852 C5.10522461 116.96704102 5.10522461 116.96704102 5.39819336 115.02172852 C6.88319336 114.03172852 6.88319336 114.03172852 8.39819336 113.02172852 C6.91319336 112.03172852 6.91319336 112.03172852 5.39819336 111.02172852 C5.17733696 108.07108704 5.11758346 105.33804621 5.21069336 102.39672852 C5.22422852 101.59493164 5.23776367 100.79313477 5.25170898 99.96704102 C5.28710285 97.98498474 5.34091102 96.003273 5.39819336 94.02172852 C0.77819336 94.02172852 -3.84180664 94.02172852 -8.60180664 94.02172852 C-8.60180664 75.54172852 -8.60180664 57.06172852 -8.60180664 38.02172852 C-7.28180664 38.02172852 -5.96180664 38.02172852 -4.60180664 38.02172852 C-4.60704346 36.90612549 -4.61228027 35.79052246 -4.61767578 34.64111328 C-4.63572439 30.51693519 -4.64723813 26.39276061 -4.65673828 22.26855469 C-4.66177882 20.48078831 -4.66861118 18.69302607 -4.67724609 16.90527344 C-4.68932394 14.34121683 -4.69503758 11.77721454 -4.69946289 9.21313477 C-4.70462418 8.40896622 -4.70978546 7.60479767 -4.71510315 6.77626038 C-4.71529879 4.85771137 -4.66382647 2.93927483 -4.60180664 1.02172852 C-3.60180664 0.02172852 -3.60180664 0.02172852 0 0 Z " fill="#8F9092" transform="translate(33.601806640625,33.978271484375)"/>
<path d="M0 0 C11.22 0 22.44 0 34 0 C34 18.81 34 37.62 34 57 C31.36 57 28.72 57 26 57 C26 62.61 26 68.22 26 74 C25.34 74 24.68 74 24 74 C24 74.66 24 75.32 24 76 C24.66 76 25.32 76 26 76 C26.33 78.97 26.66 81.94 27 85 C25.515 85.495 25.515 85.495 24 86 C22.89161754 99.50552151 22.88294964 112.95710212 22.9375 126.5 C22.94252839 128.69140522 22.94708891 130.88281156 22.95117188 133.07421875 C22.96206364 138.38284088 22.97925334 143.69140762 23 149 C19.37 149 15.74 149 12 149 C12 128.21 12 107.42 12 86 C10.68 85.67 9.36 85.34 8 85 C7.8046875 78.9453125 7.8046875 78.9453125 8 77 C8.99 76.01 8.99 76.01 10 75 C9.34 74.67 8.68 74.34 8 74 C6.67578012 70.5020607 6.90054471 66.94552923 6.9375 63.25 C6.94652344 62.07953125 6.95554687 60.9090625 6.96484375 59.703125 C6.97644531 58.81109375 6.98804687 57.9190625 7 57 C4.69 57 2.38 57 0 57 C0 38.19 0 19.38 0 0 Z " fill="#8F8F91" transform="translate(91,76)"/>
<path d="M0 0 C1.60293085 0.04234573 3.20571762 0.09037064 4.80834961 0.14282227 C6.07140175 0.17823875 6.07140175 0.17823875 7.35997009 0.21437073 C10.06037467 0.29119796 12.76050607 0.37513964 15.46069336 0.45922852 C17.28685168 0.51243015 19.1130235 0.56517066 20.93920898 0.61743164 C25.42576111 0.7459686 29.91187364 0.88411135 34.39819336 1.02172852 C34.39819336 13.23172852 34.39819336 25.44172852 34.39819336 38.02172852 C35.38819336 38.35172852 36.37819336 38.68172852 37.39819336 39.02172852 C22.21819336 39.02172852 7.03819336 39.02172852 -8.60180664 39.02172852 C-6.62180664 38.52672852 -6.62180664 38.52672852 -4.60180664 38.02172852 C-4.60704346 36.90612549 -4.61228027 35.79052246 -4.61767578 34.64111328 C-4.63572439 30.51693519 -4.64723813 26.39276061 -4.65673828 22.26855469 C-4.66177882 20.48078831 -4.66861118 18.69302607 -4.67724609 16.90527344 C-4.68932394 14.34121683 -4.69503758 11.77721454 -4.69946289 9.21313477 C-4.70462418 8.40896622 -4.70978546 7.60479767 -4.71510315 6.77626038 C-4.71529879 4.85771137 -4.66382647 2.93927483 -4.60180664 1.02172852 C-3.60180664 0.02172852 -3.60180664 0.02172852 0 0 Z " fill="#C1BFBA" transform="translate(33.601806640625,33.978271484375)"/>
<path d="M0 0 C0.33 0 0.66 0 1 0 C1 2.64 1 5.28 1 8 C1.66 8 2.32 8 3 8 C3.309375 7.38125 3.61875 6.7625 3.9375 6.125 C4.625 4.75 5.3125 3.375 6 2 C10.27587998 1.91615922 13.76358987 2.15271797 18 3 C18 7.95 18 12.9 18 18 C17.34 18 16.68 18 16 18 C16 18.99 16 19.98 16 21 C16.66 21 17.32 21 18 21 C18 23.97 18 26.94 18 30 C17.01 30.33 16.02 30.66 15 31 C14.83211627 32.62487471 14.66573213 34.24990442 14.5 35.875 C14.4071875 36.77992188 14.314375 37.68484375 14.21875 38.6171875 C13.97416125 41.2814578 14.02933915 43.15489345 14.53125 45.8046875 C15.53755144 52.66100191 14.68009809 59.71463185 14.31640625 66.6015625 C13.99494491 73.56394469 14.11745684 80.28417782 14.80639648 87.22290039 C15.04712407 90.67596003 14.70655341 93.6242448 14 97 C10.7 97 7.4 97 4 97 C4 74.56 4 52.12 4 29 C2.68 29 1.36 29 0 29 C-0.29296875 22.9453125 -0.29296875 22.9453125 0 21 C0.99 20.34 1.98 19.68 3 19 C2.01 18.34 1.02 17.68 0 17 C-0.2208564 14.04935852 -0.28060989 11.31631769 -0.1875 8.375 C-0.17396484 7.57320312 -0.16042969 6.77140625 -0.14648438 5.9453125 C-0.11109051 3.96325622 -0.05728234 1.98154449 0 0 Z " fill="#C6C6C9" transform="translate(39,128)"/>
<path d="M0 0 C4.29 0 8.58 0 13 0 C13 5.61 13 11.22 13 17 C12.34 17 11.68 17 11 17 C11 17.66 11 18.32 11 19 C11.66 19 12.32 19 13 19 C13.33 21.97 13.66 24.94 14 28 C13.01 28.33 12.02 28.66 11 29 C9.89161754 42.50552151 9.88294964 55.95710212 9.9375 69.5 C9.94252839 71.69140522 9.94708891 73.88281156 9.95117188 76.07421875 C9.96206364 81.38284088 9.97925334 86.69140762 10 92 C6.37 92 2.74 92 -1 92 C-1 71.21 -1 50.42 -1 29 C-2.32 28.67 -3.64 28.34 -5 28 C-5.1953125 21.9453125 -5.1953125 21.9453125 -5 20 C-4.34 19.34 -3.68 18.68 -3 18 C-3.66 17.67 -4.32 17.34 -5 17 C-4.67 15.68 -4.34 14.36 -4 13 C1.28 13 6.56 13 12 13 C12 12.34 12 11.68 12 11 C11.15695313 10.97421875 10.31390625 10.9484375 9.4453125 10.921875 C7.80175781 10.83679688 7.80175781 10.83679688 6.125 10.75 C5.03445312 10.70359375 3.94390625 10.6571875 2.8203125 10.609375 C0 10 0 10 -1.5078125 8.328125 C-2 6 -2 6 0 0 Z " fill="#A09FA3" transform="translate(104,133)"/>
<path d="M0 0 C1.65 0 3.3 0 5 0 C7.04655469 9.62134505 7.24141623 18.97542941 7.125 28.75 C7.11493973 30.23697307 7.10581932 31.72395281 7.09765625 33.2109375 C7.075908 36.80743323 7.04155018 40.403672 7 44 C7.99 44 8.98 44 10 44 C10 46.64 10 49.28 10 52 C11.32 52 12.64 52 14 52 C13.67 52.66 13.34 53.32 13 54 C12.01 53.67 11.02 53.34 10 53 C10 53.66 10 54.32 10 55 C15.14778942 55.30281114 17.71392365 54.78015763 22 52 C23.32 52 24.64 52 26 52 C25.7525 50.948125 25.7525 50.948125 25.5 49.875 C24.97588284 46.86132635 25 44.05245985 25 41 C24.67 40.01 24.34 39.02 24 38 C24.1670767 35.69434159 24.5083689 33.44293934 24.84375 31.15625 C25.15203422 28.81615906 25.15203422 28.81615906 24 26 C24.30532615 24.32797583 24.64403003 22.66197902 25 21 C25.257828 17.42724062 25.44164667 13.85483132 25.62109375 10.27734375 C25.96603346 7.29379304 26.44588464 5.52307798 28 3 C28.99 3 29.98 3 31 3 C31 8.61 31 14.22 31 20 C31.66 20 32.32 20 33 20 C33.97941411 32.36510316 34.08160783 44.59560979 34 57 C27.07 57 20.14 57 13 57 C11.5527864 63.40371521 11.5527864 63.40371521 13 67 C14.85625 66.9690625 14.85625 66.9690625 16.75 66.9375 C19.6640825 66.93233319 22.20953327 67.06984442 25 68 C25 68.66 25 69.32 25 70 C22.3753399 70.19430855 19.75053235 70.38073238 17.125 70.5625 C16.00544922 70.64661133 16.00544922 70.64661133 14.86328125 70.73242188 C9.2265625 71.11328125 9.2265625 71.11328125 7 70 C7 65.71 7 61.42 7 57 C4.69 57 2.38 57 0 57 C0 38.19 0 19.38 0 0 Z " fill="#7D7D7F" transform="translate(91,76)"/>
<path d="M0 0 C4.78767045 0.09692673 9.57447297 0.19964748 14.36157227 0.31738281 C15.99007549 0.35566618 17.61866309 0.39052024 19.24731445 0.421875 C21.58836014 0.46754002 23.9288253 0.52553077 26.26953125 0.5859375 C26.99775589 0.59748871 27.72598053 0.60903992 28.47627258 0.62094116 C32.16961374 0.72878512 33.84826414 0.89884276 37 3 C36.67 3.66 36.34 4.32 36 5 C35.77141886 7.0374763 35.58975722 9.08040303 35.4375 11.125 C35.35371094 12.22070312 35.26992187 13.31640625 35.18359375 14.4453125 C35.09271484 15.70988281 35.09271484 15.70988281 35 17 C31.37 16.67 27.74 16.34 24 16 C24 18.31 24 20.62 24 23 C25.98 23.33 27.96 23.66 30 24 C29.34 24.66 28.68 25.32 28 26 C25.9765625 25.9765625 25.9765625 25.9765625 23.625 25.625 C20.6488658 25.19699408 18.03991846 25 15 25 C14.54625 25.639375 14.0925 26.27875 13.625 26.9375 C12 29 12 29 9.0625 29.9375 C6 30 6 30 3.625 28.5625 C3.08875 28.046875 2.5525 27.53125 2 27 C2.33 25.68 2.66 24.36 3 23 C5.31 23 7.62 23 10 23 C10 22.34 10 21.68 10 21 C10.66 21 11.32 21 12 21 C12.33 19.35 12.66 17.7 13 16 C11.3739713 16.06000106 9.74898451 16.1487885 8.125 16.25 C7.22007813 16.29640625 6.31515625 16.3428125 5.3828125 16.390625 C4.59648438 16.59171875 3.81015625 16.7928125 3 17 C2.34 18.32 1.68 19.64 1 21 C0.67 14.07 0.34 7.14 0 0 Z " fill="#CDCCC7" transform="translate(30,34)"/>
<path d="M0 0 C0.99 0 1.98 0 3 0 C3 5.61 3 11.22 3 17 C3.66 17 4.32 17 5 17 C5.97815251 29.3491755 6.11739981 41.61702895 6 54 C5.39003174 54.02505615 4.78006348 54.0501123 4.15161133 54.07592773 C1.37172102 54.1924058 -1.4078734 54.31489632 -4.1875 54.4375 C-5.14720703 54.47681641 -6.10691406 54.51613281 -7.09570312 54.55664062 C-8.02705078 54.59853516 -8.95839844 54.64042969 -9.91796875 54.68359375 C-10.77156982 54.72025146 -11.6251709 54.75690918 -12.50463867 54.79467773 C-15.06454594 55.00531094 -17.49333243 55.44841536 -20 56 C-20 55.01 -20 54.02 -20 53 C-19.11248047 52.94392578 -19.11248047 52.94392578 -18.20703125 52.88671875 C-13.2814234 52.47692103 -10.19342255 51.75567767 -6 49 C-4.68 49 -3.36 49 -2 49 C-2.2475 47.948125 -2.2475 47.948125 -2.5 46.875 C-3.02411716 43.86132635 -3 41.05245985 -3 38 C-3.33 37.01 -3.66 36.02 -4 35 C-3.8329233 32.69434159 -3.4916311 30.44293934 -3.15625 28.15625 C-2.84796578 25.81615906 -2.84796578 25.81615906 -4 23 C-3.69467385 21.32797583 -3.35596997 19.66197902 -3 18 C-2.742172 14.42724062 -2.55835333 10.85483132 -2.37890625 7.27734375 C-2.03396654 4.29379304 -1.55411536 2.52307798 0 0 Z " fill="#777777" transform="translate(119,79)"/>
<path d="M0 0 C0.99 0 1.98 0 3 0 C3.02526605 7.67211202 3.04283123 15.3442134 3.05493164 23.01635742 C3.05997377 25.62866619 3.06680725 28.24097211 3.07543945 30.85327148 C3.08751036 34.59880268 3.09322935 38.34429672 3.09765625 42.08984375 C3.10281754 43.26586655 3.10797882 44.44188934 3.11329651 45.65354919 C3.11337204 46.73459427 3.11344757 47.81563934 3.11352539 48.92944336 C3.115746 49.88652695 3.11796661 50.84361053 3.12025452 51.82969666 C3 54 3 54 2 55 C-0.35313555 55.07271741 -2.70833668 55.08370868 -5.0625 55.0625 C-6.35285156 55.05347656 -7.64320312 55.04445312 -8.97265625 55.03515625 C-9.97167969 55.02355469 -10.97070312 55.01195312 -12 55 C-12.33 56.32 -12.66 57.64 -13 59 C-16.63 58.34 -20.26 57.68 -24 57 C-24.66 58.32 -25.32 59.64 -26 61 C-26.33 61.66 -26.66 62.32 -27 63 C-27.66 63 -28.32 63 -29 63 C-29 60.03 -29 57.06 -29 54 C-26.03 53.505 -26.03 53.505 -23 53 C-23 52.34 -23 51.68 -23 51 C-20.69 51 -18.38 51 -16 51 C-15.67 49.68 -15.34 48.36 -15 47 C-8.9453125 46.8046875 -8.9453125 46.8046875 -7 47 C-5 49 -5 49 -5 53 C-2.73964131 51.23834829 -2.05050938 50.38915012 -1.67529297 47.49829102 C-1.70840576 46.01607056 -1.70840576 46.01607056 -1.7421875 44.50390625 C-1.75709229 43.39660156 -1.77199707 42.28929687 -1.78735352 41.1484375 C-1.81627686 39.96507812 -1.8452002 38.78171875 -1.875 37.5625 C-1.90623626 35.11593202 -1.93354311 32.66931089 -1.95703125 30.22265625 C-1.96943848 29.00594238 -1.9818457 27.78922852 -1.99462891 26.53564453 C-2.00225691 21.5143364 -1.82318843 16.51378204 -1.5625 11.5 C-1.52302246 10.67701416 -1.48354492 9.85402832 -1.44287109 9.00610352 C-1.26570114 5.80165317 -1.01982301 3.05946903 0 0 Z " fill="#828282" transform="translate(69,73)"/>
<path d="M0 0 C0.66 0 1.32 0 2 0 C3.55464382 7.84180633 2.73539913 15.66744193 2.31640625 23.6015625 C1.99494491 30.56394469 2.11745684 37.28417782 2.80639648 44.22290039 C3.04712407 47.67596003 2.70655341 50.6242448 2 54 C-0.97 54 -3.94 54 -7 54 C-7 46.08 -7 38.16 -7 30 C-6.34 30 -5.68 30 -5 30 C-4.34 30.99 -3.68 31.98 -3 33 C-3.33 31.35 -3.66 29.7 -4 28 C-4.99 28 -5.98 28 -7 28 C-7 21.4 -7 14.8 -7 8 C-6.34 7.67 -5.68 7.34 -5 7 C-5 10.3 -5 13.6 -5 17 C-4.34 17 -3.68 17 -3 17 C-3 16.01 -3 15.02 -3 14 C-2.34 14.33 -1.68 14.66 -1 15 C-0.67 16.32 -0.34 17.64 0 19 C0 12.73 0 6.46 0 0 Z " fill="#B0AFB6" transform="translate(51,171)"/>
<path d="M0 0 C1.72590975 2.99981205 2.24642679 5.13603199 2.22705078 8.58496094 C2.22689972 9.48559265 2.22674866 10.38622437 2.22659302 11.31414795 C2.21627045 12.27782288 2.20594788 13.2414978 2.1953125 14.234375 C2.1924826 15.22753723 2.18965271 16.22069946 2.18673706 17.24395752 C2.17555143 20.41276144 2.15044962 23.58128165 2.125 26.75 C2.11496812 28.8997355 2.10584263 31.04947543 2.09765625 33.19921875 C2.07561741 38.46624246 2.04215584 43.73310096 2 49 C2.66 49 3.32 49 4 49 C3.83628906 48.25492188 3.67257813 47.50984375 3.50390625 46.7421875 C2.8017028 41.52737426 2.89543577 36.37979269 2.9375 31.125 C2.94201172 30.05507812 2.94652344 28.98515625 2.95117188 27.8828125 C2.96290251 25.25515014 2.97931772 22.62760462 3 20 C3.99 20.99 4.98 21.98 6 23 C6.33 20.36 6.66 17.72 7 15 C7.66 15 8.32 15 9 15 C9 30.51 9 46.02 9 62 C6.03 62 3.06 62 0 62 C0 58.7 0 55.4 0 52 C0.99 52.33 1.98 52.66 3 53 C2.505 55.475 2.505 55.475 2 58 C5.04913228 59.01111093 5.04913228 59.01111093 8 58 C7.835 57.46375 7.67 56.9275 7.5 56.375 C6.90339788 53.54113991 6.9343632 50.8880194 7 48 C6.67 48.66 6.34 49.32 6 50 C2.9375 50.625 2.9375 50.625 0 51 C-1.16291757 42.05661012 -1.15247843 33.17698492 -1.13037109 24.17504883 C-1.12496274 21.54437632 -1.13036743 18.91387077 -1.13671875 16.28320312 C-1.13605877 14.60677046 -1.13477928 12.93033789 -1.1328125 11.25390625 C-1.13483673 10.46955704 -1.13686096 9.68520782 -1.13894653 8.87709045 C-1.12500389 5.65573791 -1.02608304 3.07824913 0 0 Z " fill="#A8A7AE" transform="translate(105,163)"/>
<path d="M0 0 C0.99 0.495 0.99 0.495 2 1 C2 2.98 2 4.96 2 7 C7.94 7.33 13.88 7.66 20 8 C20 5.36 20 2.72 20 0 C20.33 0 20.66 0 21 0 C21 6.6 21 13.2 21 20 C14.07 20 7.14 20 0 20 C0 13.4 0 6.8 0 0 Z " fill="#BCB8B0" transform="translate(97,55)"/>
<path d="M0 0 C2.31 0.33 4.62 0.66 7 1 C6.34 1.66 5.68 2.32 5 3 C4.01 3 3.02 3 2 3 C2.01160156 4.05960938 2.02320313 5.11921875 2.03515625 6.2109375 C2.04453476 7.59895658 2.05363489 8.98697755 2.0625 10.375 C2.07087891 11.07367188 2.07925781 11.77234375 2.08789062 12.4921875 C2.11328125 17.7734375 2.11328125 17.7734375 1 20 C1.66 20 2.32 20 3 20 C2.7215625 18.2675 2.7215625 18.2675 2.4375 16.5 C1.8764276 12.13610352 2.30367814 8.33266935 3 4 C3.66 4 4.32 4 5 4 C5.02894547 7.45831586 5.04678 10.91660072 5.0625 14.375 C5.07087891 15.35984375 5.07925781 16.3446875 5.08789062 17.359375 C5.09111328 18.30039063 5.09433594 19.24140625 5.09765625 20.2109375 C5.10289307 21.08024902 5.10812988 21.94956055 5.11352539 22.84521484 C5 25 5 25 4 27 C4.66 27 5.32 27 6 27 C6 20.07 6 13.14 6 6 C6.66 6 7.32 6 8 6 C9.01894076 11.84888043 9.11798453 17.50919169 9.0625 23.4375 C9.05798828 24.35982422 9.05347656 25.28214844 9.04882812 26.23242188 C9.03713938 28.48835048 9.02075455 30.74413967 9 33 C8.01 33 7.02 33 6 33 C5.67 31.35 5.34 29.7 5 28 C5 28.99 5 29.98 5 31 C4.34 31 3.68 31 3 31 C2.67 28.69 2.34 26.38 2 24 C2 29.94 2 35.88 2 42 C2.33 42 2.66 42 3 42 C3 40.35 3 38.7 3 37 C3.66 37.33 4.32 37.66 5 38 C5.4140625 40.28515625 5.4140625 40.28515625 5.625 43.0625 C5.69976562 43.98160156 5.77453125 44.90070313 5.8515625 45.84765625 C5.90054688 46.55792969 5.94953125 47.26820313 6 48 C5.01 47.67 4.02 47.34 3 47 C3 46.01 3 45.02 3 44 C1.62981966 49.32139805 1.97687697 54.58171931 2.12695312 60.02539062 C2.1565252 62.01715711 2.08526288 64.00983958 2 66 C1.01 66.99 1.01 66.99 0 68 C0 45.56 0 23.12 0 0 Z " fill="#7A7980" transform="translate(43,157)"/>
<path d="M0 0 C6.0546875 -0.1953125 6.0546875 -0.1953125 8 0 C10 2 10 2 10 6 C12.31 6.33 14.62 6.66 17 7 C17 7.33 17 7.66 17 8 C12.38 8 7.76 8 3 8 C2.67 9.32 2.34 10.64 2 12 C-1.63 11.34 -5.26 10.68 -9 10 C-9.66 11.32 -10.32 12.64 -11 14 C-11.33 14.66 -11.66 15.32 -12 16 C-12.66 16 -13.32 16 -14 16 C-14 13.03 -14 10.06 -14 7 C-12.02 6.67 -10.04 6.34 -8 6 C-8 5.34 -8 4.68 -8 4 C-5.69 4 -3.38 4 -1 4 C-0.67 2.68 -0.34 1.36 0 0 Z " fill="#868789" transform="translate(54,120)"/>
<path d="M0 0 C4.27587998 -0.08384078 7.76358987 0.15271797 12 1 C12 4.63 12 8.26 12 12 C6.39 12 0.78 12 -5 12 C-5 10.02 -5 8.04 -5 6 C-4.34 6 -3.68 6 -3 6 C-2.690625 5.38125 -2.38125 4.7625 -2.0625 4.125 C-1.375 2.75 -0.6875 1.375 0 0 Z " fill="#B4B3B7" transform="translate(45,130)"/>
<path d="M0 0 C6.93 0 13.86 0 21 0 C20.67 2.97 20.34 5.94 20 9 C17.02077407 9.02683987 14.04178705 9.04676037 11.0625 9.0625 C9.78729492 9.07506836 9.78729492 9.07506836 8.48632812 9.08789062 C7.67744141 9.09111328 6.86855469 9.09433594 6.03515625 9.09765625 C5.2862915 9.10289307 4.53742676 9.10812988 3.76586914 9.11352539 C2 9 2 9 1 8 C1 6 1 4 1 2 C0.67 1.34 0.34 0.68 0 0 Z " fill="#E9E9E9" transform="translate(97,54)"/>
<path d="M0 0 C1.32 0.33 2.64 0.66 4 1 C4 19.15 4 37.3 4 56 C2.68 56 1.36 56 0 56 C0 37.52 0 19.04 0 0 Z " fill="#525252" transform="translate(92,76)"/>
<path d="M0 0 C0.66 0 1.32 0 2 0 C1.67 0.99 1.34 1.98 1 3 C2.32 3.66 3.64 4.32 5 5 C5.05395478 6.62463842 5.09277195 8.24978541 5.125 9.875 C5.14820313 10.77992188 5.17140625 11.68484375 5.1953125 12.6171875 C5 15 5 15 3 17 C-0.05723893 17.55111518 -2.94114255 17.53683787 -6 17 C-8.125 14.9375 -8.125 14.9375 -9 12 C-8.6875 8.1875 -8.6875 8.1875 -8 5 C-6.576875 4.87625 -6.576875 4.87625 -5.125 4.75 C-1.89538209 4.34925077 -1.89538209 4.34925077 -0.625 1.9375 C-0.41875 1.298125 -0.2125 0.65875 0 0 Z " fill="#151515" transform="translate(190,159)"/>
<path d="M0 0 C1.65 0.33 3.3 0.66 5 1 C5 1.99 5 2.98 5 4 C7.64 4 10.28 4 13 4 C13.33 6.97 13.66 9.94 14 13 C10 14 10 14 8 13 C5.7927077 12.92907158 3.58332548 12.91584975 1.375 12.9375 C-0.40777344 12.95103516 -0.40777344 12.95103516 -2.2265625 12.96484375 C-3.59941406 12.98224609 -3.59941406 12.98224609 -5 13 C-5 10.36 -5 7.72 -5 5 C-0.25 4 -0.25 4 2 4 C2 3.01 2 2.02 2 1 C1.34 0.67 0.68 0.34 0 0 Z " fill="#B5B5B7" transform="translate(104,148)"/>
<path d="M0 0 C0.99 0 1.98 0 3 0 C3.33 17.82 3.66 35.64 4 54 C2.68 54 1.36 54 0 54 C0 36.18 0 18.36 0 0 Z " fill="#505050" transform="translate(25,73)"/>
<path d="M0 0 C1.33417969 0.01740234 1.33417969 0.01740234 2.6953125 0.03515625 C4.02175781 0.04869141 4.02175781 0.04869141 5.375 0.0625 C6.18195312 0.07410156 6.98890625 0.08570313 7.8203125 0.09765625 C8.8103125 0.09765625 9.8003125 0.09765625 10.8203125 0.09765625 C14.48697917 0.09765625 18.15364583 0.09765625 21.8203125 0.09765625 C21.8203125 0.75765625 21.8203125 1.41765625 21.8203125 2.09765625 C20.5003125 2.09765625 19.1803125 2.09765625 17.8203125 2.09765625 C17.8203125 3.74765625 17.8203125 5.39765625 17.8203125 7.09765625 C17.4903125 5.77765625 17.1603125 4.45765625 16.8203125 3.09765625 C16.1603125 3.09765625 15.5003125 3.09765625 14.8203125 3.09765625 C14.4903125 4.08765625 14.1603125 5.07765625 13.8203125 6.09765625 C10.23749015 8.48620449 8.50638217 8.36664427 4.2578125 8.34765625 C2.52337891 8.35539062 2.52337891 8.35539062 0.75390625 8.36328125 C-2.1796875 8.09765625 -2.1796875 8.09765625 -4.1796875 6.09765625 C-3.45494791 0.15479157 -3.45494791 0.15479157 0 0 Z " fill="#707070" transform="translate(36.1796875,7.90234375)"/>
<path d="M0 0 C1.32 0 2.64 0 4 0 C3.67 12.21 3.34 24.42 3 37 C2.34 37 1.68 37 1 37 C0.67 30.73 0.34 24.46 0 18 C-0.33 19.32 -0.66 20.64 -1 22 C-3.97 22 -6.94 22 -10 22 C-10 19.69 -10 17.38 -10 15 C-6.7 15 -3.4 15 0 15 C0.06058594 14.22914062 0.12117188 13.45828125 0.18359375 12.6640625 C0.26738281 11.66117188 0.35117188 10.65828125 0.4375 9.625 C0.51871094 8.62726562 0.59992188 7.62953125 0.68359375 6.6015625 C1 4 1 4 2 2 C1.34 1.34 0.68 0.68 0 0 Z " fill="#B9B7B2" transform="translate(64,35)"/>
<path d="M0 0 C0.33 0 0.66 0 1 0 C1.22567411 3.77000648 1.42755846 7.54091787 1.625 11.3125 C1.68945312 12.38435547 1.75390625 13.45621094 1.8203125 14.56054688 C1.871875 15.58857422 1.9234375 16.61660156 1.9765625 17.67578125 C2.02893066 18.62364502 2.08129883 19.57150879 2.13525391 20.5480957 C2 23 2 23 0 26 C0 24.68 0 23.36 0 22 C-0.144375 22.721875 -0.28875 23.44375 -0.4375 24.1875 C-0.95833333 26.79166667 -1.47916667 29.39583333 -2 32 C-1.01 31.67 -0.02 31.34 1 31 C1 31.66 1 32.32 1 33 C-1.31 33 -3.62 33 -6 33 C-6 25.08 -6 17.16 -6 9 C-5.34 9 -4.68 9 -4 9 C-3.01 10.485 -3.01 10.485 -2 12 C-2 11.01 -2 10.02 -2 9 C-1.34 9 -0.68 9 0 9 C-0.185625 7.700625 -0.37125 6.40125 -0.5625 5.0625 C-0.87890625 2.84765625 -0.87890625 2.84765625 -1 1 C-0.67 0.67 -0.34 0.34 0 0 Z " fill="#85848E" transform="translate(50,192)"/>
<path d="M0 0 C2.475 0.495 2.475 0.495 5 1 C4.67 3.64 4.34 6.28 4 9 C4.66 9 5.32 9 6 9 C6 7.68 6 6.36 6 5 C6.99 5.33 7.98 5.66 9 6 C8.67 7.98 8.34 9.96 8 12 C7.34 12 6.68 12 6 12 C6 11.34 6 10.68 6 10 C5.34 10 4.68 10 4 10 C4.33 10.99 4.66 11.98 5 13 C4.72230092 15.3406065 4.39460023 17.67624308 4 20 C4.66 19.34 5.32 18.68 6 18 C6.66 17.34 7.32 16.68 8 16 C8 20.62 8 25.24 8 30 C7.34 29.67 6.68 29.34 6 29 C5.67 26.69 5.34 24.38 5 22 C5 31.24 5 40.48 5 50 C4.34 50 3.68 50 3 50 C1.88451668 44.63487263 1.87141739 39.458154 1.90234375 34.0078125 C1.9037587 33.06187225 1.90517365 32.11593201 1.90663147 31.1413269 C1.91220516 28.13585171 1.9247528 25.13045247 1.9375 22.125 C1.9425184 20.08073025 1.94708071 18.03645932 1.95117188 15.9921875 C1.96216597 10.99476264 1.97941243 5.99739417 2 1 C1.34 0.67 0.68 0.34 0 0 Z " fill="#75737D" transform="translate(104,162)"/>
<path d="M0 0 C0.66 0 1.32 0 2 0 C1.46148032 5.27749285 0.22656164 9.25645564 -2 14 C-2.99 13.34 -3.98 12.68 -5 12 C-5.66 12.66 -6.32 13.32 -7 14 C-7.66 12.68 -8.32 11.36 -9 10 C-9.99 10.33 -10.98 10.66 -12 11 C-12 11.66 -12 12.32 -12 13 C-11.34 13.33 -10.68 13.66 -10 14 C-11.32 14 -12.64 14 -14 14 C-14 13.01 -14 12.02 -14 11 C-14.66 11 -15.32 11 -16 11 C-16.33 11.99 -16.66 12.98 -17 14 C-17 12.02 -17 10.04 -17 8 C-17.66 7.67 -18.32 7.34 -19 7 C-18.360625 6.87625 -17.72125 6.7525 -17.0625 6.625 C-14.49541069 6.10110422 -11.93448861 5.55949669 -9.375 5 C-8.61960938 4.835 -7.86421875 4.67 -7.0859375 4.5 C-4.82663041 3.99019964 -4.82663041 3.99019964 -2 3 C-1.34 3 -0.68 3 0 3 C0 2.01 0 1.02 0 0 Z " fill="#969696" transform="translate(198,24)"/>
<path d="M0 0 C2.64 0 5.28 0 8 0 C7.67 1.32 7.34 2.64 7 4 C9.87459975 5.43729988 12.91054295 6.14181749 16 7 C16 8.32 16 9.64 16 11 C10.72 11 5.44 11 0 11 C-0.33 9.35 -0.66 7.7 -1 6 C-0.01 5.34 0.98 4.68 2 4 C1.34 2.68 0.68 1.36 0 0 Z " fill="#B3B3B7" transform="translate(40,143)"/>
<path d="M0 0 C4.29 0.33 8.58 0.66 13 1 C13 5.29 13 9.58 13 14 C12.34 14 11.68 14 11 14 C11 12.02 11 10.04 11 8 C10.34 8 9.68 8 9 8 C9.08378906 8.67804688 9.16757812 9.35609375 9.25390625 10.0546875 C9.96469466 16.55075374 9.9120608 22.53138414 9 29 C8.34 29 7.68 29 7 29 C6.97105453 25.54168414 6.95322 22.08339928 6.9375 18.625 C6.92912109 17.64015625 6.92074219 16.6553125 6.91210938 15.640625 C6.90888672 14.69960937 6.90566406 13.75859375 6.90234375 12.7890625 C6.89710693 11.91975098 6.89187012 11.05043945 6.88647461 10.15478516 C7 8 7 8 8 6 C7.34 6 6.68 6 6 6 C6 11.28 6 16.56 6 22 C5.34 22 4.68 22 4 22 C3.97308315 19.54159395 3.95320198 17.08348118 3.9375 14.625 C3.92912109 13.92632812 3.92074219 13.22765625 3.91210938 12.5078125 C3.88671875 7.2265625 3.88671875 7.2265625 5 5 C5.99 4.34 6.98 3.68 8 3 C5.36 2.67 2.72 2.34 0 2 C0 1.34 0 0.68 0 0 Z " fill="#A3A2A8" transform="translate(40,155)"/>
<path d="M0 0 C0.66 0 1.32 0 2 0 C2 0.66 2 1.32 2 2 C2.99 2.33 3.98 2.66 5 3 C4.01 3 3.02 3 2 3 C2 3.99 2 4.98 2 6 C2.99 6 3.98 6 5 6 C5 12.27 5 18.54 5 25 C3.68 25 2.36 25 1 25 C1.185625 25.61875 1.37125 26.2375 1.5625 26.875 C2 29 2 29 1 31 C1.99 31.33 2.98 31.66 4 32 C2.68 32 1.36 32 0 32 C0 29.36 0 26.72 0 24 C-0.66 24 -1.32 24 -2 24 C-2 23.34 -2 22.68 -2 22 C-0.35 22 1.3 22 3 22 C2.67 21.34 2.34 20.68 2 20 C1.34 20.33 0.68 20.66 0 21 C0.185625 20.030625 0.37125 19.06125 0.5625 18.0625 C0.7790625 16.5465625 0.7790625 16.5465625 1 15 C0.67 14.67 0.34 14.34 0 14 C-0.07271741 11.64686445 -0.08370868 9.29166332 -0.0625 6.9375 C-0.05347656 5.64714844 -0.04445313 4.35679688 -0.03515625 3.02734375 C-0.02355469 2.02832031 -0.01195313 1.02929688 0 0 Z " fill="#C5C5C7" transform="translate(105,88)"/>
<path d="M0 0 C0.66 0 1.32 0 2 0 C2.02894547 3.45831586 2.04678 6.91660072 2.0625 10.375 C2.07087891 11.35984375 2.07925781 12.3446875 2.08789062 13.359375 C2.09111328 14.30039063 2.09433594 15.24140625 2.09765625 16.2109375 C2.10289307 17.08024902 2.10812988 17.94956055 2.11352539 18.84521484 C2 21 2 21 1 23 C1.66 23 2.32 23 3 23 C3 16.07 3 9.14 3 2 C3.66 2 4.32 2 5 2 C6.01894076 7.84888043 6.11798453 13.50919169 6.0625 19.4375 C6.05798828 20.35982422 6.05347656 21.28214844 6.04882812 22.23242188 C6.03713938 24.48835048 6.02075455 26.74413967 6 29 C5.01 29 4.02 29 3 29 C2.67 27.35 2.34 25.7 2 24 C2 24.99 2 25.98 2 27 C1.34 27 0.68 27 0 27 C-0.06058594 26.37351563 -0.12117188 25.74703125 -0.18359375 25.1015625 C-0.30927734 23.87566406 -0.30927734 23.87566406 -0.4375 22.625 C-0.51871094 21.81289062 -0.59992187 21.00078125 -0.68359375 20.1640625 C-0.89090114 17.95727195 -0.89090114 17.95727195 -2 16 C-1.34 16 -0.68 16 0 16 C-0.185625 14.845 -0.37125 13.69 -0.5625 12.5 C-1.1235724 8.13610352 -0.69632186 4.33266935 0 0 Z " fill="#86848E" transform="translate(46,161)"/>
<path d="M0 0 C1.72590975 2.99981205 2.24642679 5.13603199 2.22705078 8.58496094 C2.22689972 9.48559265 2.22674866 10.38622437 2.22659302 11.31414795 C2.21627045 12.27782288 2.20594788 13.2414978 2.1953125 14.234375 C2.1924826 15.22753723 2.18965271 16.22069946 2.18673706 17.24395752 C2.17555143 20.41276144 2.15044962 23.58128165 2.125 26.75 C2.11496812 28.8997355 2.10584263 31.04947543 2.09765625 33.19921875 C2.07561741 38.46624246 2.04215584 43.73310096 2 49 C2.66 49 3.32 49 4 49 C3.67 47.68 3.34 46.36 3 45 C3.99 45.33 4.98 45.66 6 46 C6 47.32 6 48.64 6 50 C3.03 50.495 3.03 50.495 0 51 C-1.16291757 42.05661012 -1.15247843 33.17698492 -1.13037109 24.17504883 C-1.12496274 21.54437632 -1.13036743 18.91387077 -1.13671875 16.28320312 C-1.13605877 14.60677046 -1.13477928 12.93033789 -1.1328125 11.25390625 C-1.13483673 10.46955704 -1.13686096 9.68520782 -1.13894653 8.87709045 C-1.12500389 5.65573791 -1.02608304 3.07824913 0 0 Z " fill="#D1D0D8" transform="translate(105,163)"/>
<path d="M0 0 C0.33 0 0.66 0 1 0 C1 10.56 1 21.12 1 32 C1.99 32.33 2.98 32.66 4 33 C-8.87 33 -21.74 33 -35 33 C-35 32.67 -35 32.34 -35 32 C-30.38 31.67 -25.76 31.34 -21 31 C-21.33 29.35 -21.66 27.7 -22 26 C-19.69 26 -17.38 26 -15 26 C-15.33 26.66 -15.66 27.32 -16 28 C-16.66 28 -17.32 28 -18 28 C-18.33 29.32 -18.66 30.64 -19 32 C-18.01 32 -17.02 32 -16 32 C-15.67 31.34 -15.34 30.68 -15 30 C-15 30.66 -15 31.32 -15 32 C-10.05 32 -5.1 32 0 32 C0 21.44 0 10.88 0 0 Z " fill="#D4D4D1" transform="translate(67,40)"/>
<path d="M0 0 C0.7734375 0.495 0.7734375 0.495 1.5625 1 C4.84447094 2.34644962 7.48432783 2.25568525 11 2 C11.99 1.34 12.98 0.68 14 0 C17 3.625 17 3.625 17 7 C12.71702469 8.05619003 8.57014354 8.11702092 4.1875 8.0625 C3.49462891 8.05798828 2.80175781 8.05347656 2.08789062 8.04882812 C0.39188932 8.03713156 -1.30406703 8.01919924 -3 8 C-2.01 7.34 -1.02 6.68 0 6 C0.2502157 2.91634129 0.2502157 2.91634129 0 0 Z " fill="#8A8A8C" transform="translate(28,120)"/>
<path d="M0 0 C2.31 0 4.62 0 7 0 C7 11.88 7 23.76 7 36 C6.67 36 6.34 36 6 36 C6 30.72 6 25.44 6 20 C5.34 20 4.68 20 4 20 C4 14.39 4 8.78 4 3 C3.01 3 2.02 3 1 3 C0.34 4.32 -0.32 5.64 -1 7 C-1.04254356 5.00045254 -1.04080783 2.99958364 -1 1 C-0.67 0.67 -0.34 0.34 0 0 Z " fill="#878686" transform="translate(118,76)"/>
<path d="M0 0 C0.66 0 1.32 0 2 0 C2 10.56 2 21.12 2 32 C-0.97 32 -3.94 32 -7 32 C-7 28.7 -7 25.4 -7 22 C-6.01 22.33 -5.02 22.66 -4 23 C-4.33 24.65 -4.66 26.3 -5 28 C-1.95086772 29.01111093 -1.95086772 29.01111093 1 28 C0.83701416 27.45633789 0.67402832 26.91267578 0.50610352 26.35253906 C-0.08049219 23.62584529 -0.11249248 21.14858707 -0.09765625 18.359375 C-0.09443359 17.28945312 -0.09121094 16.21953125 -0.08789062 15.1171875 C-0.07951172 14.00601563 -0.07113281 12.89484375 -0.0625 11.75 C-0.05798828 10.62335938 -0.05347656 9.49671875 -0.04882812 8.3359375 C-0.03705397 5.55723783 -0.0206084 2.77864591 0 0 Z " fill="#B9B9BC" transform="translate(112,193)"/>
<path d="M0 0 C5.94 0 11.88 0 18 0 C17.34 1.65 16.68 3.3 16 5 C12.37 4.34 8.74 3.68 5 3 C4.34 4.32 3.68 5.64 3 7 C2.67 7.66 2.34 8.32 2 9 C1.34 9 0.68 9 0 9 C0 6.03 0 3.06 0 0 Z " fill="#666668" transform="translate(40,127)"/>
<path d="M0 0 C0.66 0.33 1.32 0.66 2 1 C2 1.66 2 2.32 2 3 C5.04913228 4.01111093 5.04913228 4.01111093 8 3 C7.34 5.31 6.68 7.62 6 10 C4 9 4 9 3 8 C1.33382885 7.95936168 -0.33388095 7.957279 -2 8 C-2 7.01 -2 6.02 -2 5 C-2.99 6.485 -2.99 6.485 -4 8 C-5.32 8 -6.64 8 -8 8 C-8 5.69 -8 3.38 -8 1 C-3.25 1.875 -3.25 1.875 -1 3 C-0.67 2.01 -0.34 1.02 0 0 Z " fill="#959595" transform="translate(181,102)"/>
<path d="M0 0 C0.99 0 1.98 0 3 0 C3.66 1.32 4.32 2.64 5 4 C6.32 4 7.64 4 9 4 C9 6.31 9 8.62 9 11 C8.67 11 8.34 11 8 11 C8 9.02 8 7.04 8 5 C7.34 5 6.68 5 6 5 C6 6.65 6 8.3 6 10 C2.93109813 11.53445094 0.29905734 10.54984289 -3 10 C-3 7.36 -3 4.72 -3 2 C-2.34 2 -1.68 2 -1 2 C-0.67 1.34 -0.34 0.68 0 0 Z " fill="#D2D2D2" transform="translate(171,51)"/>
<path d="M0 0 C0.33 0 0.66 0 1 0 C1.33 2.31 1.66 4.62 2 7 C2 6.01 2 5.02 2 4 C3.32 4 4.64 4 6 4 C6 4.99 6 5.98 6 7 C5.34 7 4.68 7 4 7 C3.855625 7.804375 3.71125 8.60875 3.5625 9.4375 C3 12 3 12 2 13 C1.92820036 14.51928038 1.91607993 16.04167482 1.9375 17.5625 C1.94652344 18.38878906 1.95554687 19.21507813 1.96484375 20.06640625 C1.97644531 20.70449219 1.98804688 21.34257813 2 22 C0.68 22 -0.64 22 -2 22 C-1.95875 21.05125 -1.9175 20.1025 -1.875 19.125 C-1.65026182 15.89755144 -1.65026182 15.89755144 -4 14 C-4.39764263 12.01178687 -4.73775349 10.01055661 -5 8 C-4.01 8 -3.02 8 -2 8 C-2.020625 8.804375 -2.04125 9.60875 -2.0625 10.4375 C-2.29633621 12.93354885 -2.29633621 12.93354885 -1 14 C-1.01160156 13.07316406 -1.02320313 12.14632812 -1.03515625 11.19140625 C-1.04417969 9.99386719 -1.05320313 8.79632813 -1.0625 7.5625 C-1.07410156 6.36753906 -1.08570313 5.17257813 -1.09765625 3.94140625 C-1 1 -1 1 0 0 Z " fill="#CECFD2" transform="translate(48,89)"/>
<path d="M0 0 C0.33 0 0.66 0 1 0 C1.0809723 2.43816585 1.14046972 4.87364384 1.1875 7.3125 C1.22520508 8.34793945 1.22520508 8.34793945 1.26367188 9.40429688 C1.33848823 14.56662558 1.33848823 14.56662558 -0.44921875 16.85546875 C-0.96097656 17.23316406 -1.47273438 17.61085937 -2 18 C-2.33 18.66 -2.66 19.32 -3 20 C-3.66 20 -4.32 20 -5 20 C-5 16.7 -5 13.4 -5 10 C-4.34 10 -3.68 10 -3 10 C-3 10.66 -3 11.32 -3 12 C-2.34 12 -1.68 12 -1 12 C-1 10.02 -1 8.04 -1 6 C-1.66 5.67 -2.32 5.34 -3 5 C-3 6.32 -3 7.64 -3 9 C-3.66 9 -4.32 9 -5 9 C-5 6.69 -5 4.38 -5 2 C-3.02 2.99 -3.02 2.99 -1 4 C-0.67 2.68 -0.34 1.36 0 0 Z " fill="#BABABC" transform="translate(113,162)"/>
<path d="M0 0 C2.64 0 5.28 0 8 0 C8 1.32 8 2.64 8 4 C7.34 4 6.68 4 6 4 C6 6.97 6 9.94 6 13 C3 12 3 12 1 10 C0.01 10 -0.98 10 -2 10 C-2.125 7.625 -2.125 7.625 -2 5 C-1.34 4.34 -0.68 3.68 0 3 C0 2.01 0 1.02 0 0 Z " fill="#EFEFEF" transform="translate(176,160)"/>
<path d="M0 0 C6.6 0 13.2 0 20 0 C19.67 0.99 19.34 1.98 19 3 C13.39 3.66 7.78 4.32 2 5 C2 4.01 2 3.02 2 2 C1.34 2 0.68 2 0 2 C0 1.34 0 0.68 0 0 Z " fill="#9A9B9D" transform="translate(28,73)"/>
<path d="M0 0 C0.66 0 1.32 0 2 0 C2 3.3 2 6.6 2 10 C5.3 10 8.6 10 12 10 C12.33 8.68 12.66 7.36 13 6 C13 7.65 13 9.3 13 11 C8.38 11 3.76 11 -1 11 C-1 9.35 -1 7.7 -1 6 C-2.98 6 -4.96 6 -7 6 C-7.33 6.66 -7.66 7.32 -8 8 C-8 7.34 -8 6.68 -8 6 C-9.65 6 -11.3 6 -13 6 C-13 7.65 -13 9.3 -13 11 C-13.33 11 -13.66 11 -14 11 C-14 9.02 -14 7.04 -14 5 C-9.38 5 -4.76 5 0 5 C0 3.35 0 1.7 0 0 Z " fill="#4C4C4C" transform="translate(18,4)"/>
<path d="M0 0 C0.99 0.66 1.98 1.32 3 2 C5.67145537 1.19838209 5.67145537 1.19838209 8 0 C7.67 1.093125 7.34 2.18625 7 3.3125 C5.86913351 6.84578884 5.86913351 6.84578884 6 10 C5.67 10.33 5.34 10.66 5 11 C5.33 11.66 5.66 12.32 6 13 C4.68 13.33 3.36 13.66 2 14 C1.97421875 13.38511719 1.9484375 12.77023438 1.921875 12.13671875 C1.7185352 7.00745409 1.7185352 7.00745409 -1.0625 2.9375 C-1.701875 2.628125 -2.34125 2.31875 -3 2 C-2.01 1.34 -1.02 0.68 0 0 Z " fill="#EAEAEA" transform="translate(193,160)"/>
<path d="M0 0 C0.66 0 1.32 0 2 0 C1.46148032 5.27749285 0.22656164 9.25645564 -2 14 C-2.66 13.34 -3.32 12.68 -4 12 C-4 11.01 -4 10.02 -4 9 C-4.66 9 -5.32 9 -6 9 C-6.33 9.66 -6.66 10.32 -7 11 C-7 9.02 -7 7.04 -7 5 C-4.35261084 3.5393715 -3.10551666 3 0 3 C0 2.01 0 1.02 0 0 Z " fill="#BCBCBC" transform="translate(198,24)"/>
<path d="M0 0 C2.31 0.33 4.62 0.66 7 1 C6.34 1.66 5.68 2.32 5 3 C4.01 3 3.02 3 2 3 C2 14.55 2 26.1 2 38 C1.34 38 0.68 38 0 38 C0 25.46 0 12.92 0 0 Z " fill="#727176" transform="translate(43,157)"/>
<path d="M0 0 C2.64 0 5.28 0 8 0 C8 2.31 8 4.62 8 7 C5.36 7 2.72 7 0 7 C0 4.69 0 2.38 0 0 Z " fill="#908B85" transform="translate(54,50)"/>
<path d="M0 0 C1.76923828 0.01353516 1.76923828 0.01353516 3.57421875 0.02734375 C4.47785156 0.03894531 5.38148437 0.05054688 6.3125 0.0625 C6.3125 1.0525 6.3125 2.0425 6.3125 3.0625 C0.92759359 3.97907981 -4.22980189 4.17388159 -9.6875 4.0625 C-9.6875 3.0725 -9.6875 2.0825 -9.6875 1.0625 C-6.26517028 -0.07827657 -3.60076783 -0.03565117 0 0 Z " fill="#57575A" transform="translate(109.6875,154.9375)"/>
<path d="M0 0 C0.33 0 0.66 0 1 0 C1 3.3 1 6.6 1 10 C0.34 10 -0.32 10 -1 10 C-1 8.02 -1 6.04 -1 4 C-1.66 4 -2.32 4 -3 4 C-2.91621094 4.67804688 -2.83242188 5.35609375 -2.74609375 6.0546875 C-2.03530534 12.55075374 -2.0879392 18.53138414 -3 25 C-3.66 25 -4.32 25 -5 25 C-5.05789006 21.54173658 -5.09355821 18.08359707 -5.125 14.625 C-5.14175781 13.64015625 -5.15851562 12.6553125 -5.17578125 11.640625 C-5.18222656 10.69960937 -5.18867187 9.75859375 -5.1953125 8.7890625 C-5.20578613 7.91975098 -5.21625977 7.05043945 -5.22705078 6.15478516 C-5 4 -5 4 -3 2 C-2.34 2 -1.68 2 -1 2 C-0.67 1.34 -0.34 0.68 0 0 Z " fill="#BAB8C2" transform="translate(52,159)"/>
<path d="M0 0 C0.66 0 1.32 0 2 0 C2.22245393 1.60226955 2.42746669 3.20696767 2.625 4.8125 C2.74101563 5.70582031 2.85703125 6.59914062 2.9765625 7.51953125 C3 10 3 10 1 13 C0.01 12.34 -0.98 11.68 -2 11 C-2.33 11.66 -2.66 12.32 -3 13 C-3.33 10.69 -3.66 8.38 -4 6 C-3.01 6 -2.02 6 -1 6 C-1.309375 5.071875 -1.309375 5.071875 -1.625 4.125 C-1.810625 3.073125 -1.810625 3.073125 -2 2 C-1.34 1.34 -0.68 0.68 0 0 Z " fill="#92909B" transform="translate(110,211)"/>
<path d="M0 0 C0.33 0 0.66 0 1 0 C1 3.3 1 6.6 1 10 C1.66 10 2.32 10 3 10 C3 9.01 3 8.02 3 7 C3.66 7.33 4.32 7.66 5 8 C4.67 9.32 4.34 10.64 4 12 C3.34 12 2.68 12 2 12 C2 15.3 2 18.6 2 22 C1.01 21.67 0.02 21.34 -1 21 C-1.02888146 17.68751813 -1.04675799 14.37506833 -1.0625 11.0625 C-1.07087891 10.11697266 -1.07925781 9.17144531 -1.08789062 8.19726562 C-1.09111328 7.29814453 -1.09433594 6.39902344 -1.09765625 5.47265625 C-1.10289307 4.64000244 -1.10812988 3.80734863 -1.11352539 2.94946289 C-1 1 -1 1 0 0 Z " fill="#C4C3CB" transform="translate(45,178)"/>
<path d="M0 0 C2.64 0 5.28 0 8 0 C8 1.98 8 3.96 8 6 C7.01 5.67 6.02 5.34 5 5 C5 5.66 5 6.32 5 7 C3.35 7 1.7 7 0 7 C0 4.69 0 2.38 0 0 Z " fill="#707068" transform="translate(35,50)"/>
<path d="M0 0 C5.28 0 10.56 0 16 0 C16.33 0.99 16.66 1.98 17 3 C11.39 3 5.78 3 0 3 C0 2.01 0 1.02 0 0 Z " fill="#565558" transform="translate(40,139)"/>
<path d="M0 0 C1.98 0 3.96 0 6 0 C6.21398437 0.64453125 6.42796875 1.2890625 6.6484375 1.953125 C7.8473523 4.27839115 7.8473523 4.27839115 10.6015625 4.609375 C11.59929688 4.65578125 12.59703125 4.7021875 13.625 4.75 C15.12933594 4.83507812 15.12933594 4.83507812 16.6640625 4.921875 C17.43492188 4.94765625 18.20578125 4.9734375 19 5 C19 5.33 19 5.66 19 6 C12.4 6 5.8 6 -1 6 C-0.67 4.02 -0.34 2.04 0 0 Z " fill="#CCCCCC" transform="translate(11,10)"/>
<path d="M0 0 C1.5 1.1875 1.5 1.1875 3 3 C3.1875 5.6875 3.1875 5.6875 3 8 C2.67 7.34 2.34 6.68 2 6 C1.34 6 0.68 6 0 6 C-0.33 6.66 -0.66 7.32 -1 8 C-2.65 8 -4.3 8 -6 8 C-6.33 6.35 -6.66 4.7 -7 3 C-5.35 2.34 -3.7 1.68 -2 1 C-1.67 1.66 -1.34 2.32 -1 3 C-0.67 2.01 -0.34 1.02 0 0 Z " fill="#9B9B9B" transform="translate(199,102)"/>
<path d="M0 0 C0.66 0 1.32 0 2 0 C2.33 0.99 2.66 1.98 3 3 C4.49985609 4.66710346 4.49985609 4.66710346 6 6 C5.01 6.33 4.02 6.66 3 7 C3 12.61 3 18.22 3 24 C2.01 24 1.02 24 0 24 C0 16.08 0 8.16 0 0 Z " fill="#C9C7D0" transform="translate(44,201)"/>
<path d="M0 0 C1.95803507 -0.05389087 3.91648909 -0.09274217 5.875 -0.125 C7.51082031 -0.15980469 7.51082031 -0.15980469 9.1796875 -0.1953125 C12 0 12 0 14 2 C13.34 3.32 12.68 4.64 12 6 C11.01 5.67 10.02 5.34 9 5 C8.67 4.34 8.34 3.68 8 3 C7.01 3 6.02 3 5 3 C5 3.99 5 4.98 5 6 C4.34 6 3.68 6 3 6 C3 4.68 3 3.36 3 2 C2.01 2 1.02 2 0 2 C0 1.34 0 0.68 0 0 Z " fill="#939298" transform="translate(100,160)"/>
<path d="M0 0 C2.29160319 -0.02692484 4.58329546 -0.04636124 6.875 -0.0625 C8.15117188 -0.07410156 9.42734375 -0.08570313 10.7421875 -0.09765625 C14 0 14 0 16 1 C16 1.66 16 2.32 16 3 C10.72 3 5.44 3 0 3 C0 2.01 0 1.02 0 0 Z " fill="#4A494E" transform="translate(40,151)"/>
<path d="M0 0 C1.32 0 2.64 0 4 0 C4.33 2.64 4.66 5.28 5 8 C3.68 8 2.36 8 1 8 C1.2784375 8.928125 1.2784375 8.928125 1.5625 9.875 C2 12 2 12 1 14 C1.99 14.33 2.98 14.66 4 15 C2.68 15 1.36 15 0 15 C0 12.36 0 9.72 0 7 C-0.66 7 -1.32 7 -2 7 C-2 6.34 -2 5.68 -2 5 C-0.35 5 1.3 5 3 5 C2.67 4.34 2.34 3.68 2 3 C1.01 3.495 1.01 3.495 0 4 C0 2.68 0 1.36 0 0 Z " fill="#B3B4B6" transform="translate(105,105)"/>
<path d="M0 0 C1.4540625 0.0309375 1.4540625 0.0309375 2.9375 0.0625 C2.9375 2.7025 2.9375 5.3425 2.9375 8.0625 C2.6075 7.0725 2.2775 6.0825 1.9375 5.0625 C0.6175 5.0625 -0.7025 5.0625 -2.0625 5.0625 C-2.0625 6.0525 -2.0625 7.0425 -2.0625 8.0625 C-2.7225 8.0625 -3.3825 8.0625 -4.0625 8.0625 C-4.10491723 5.72955225 -4.10342937 3.39547433 -4.0625 1.0625 C-3.0625 0.0625 -3.0625 0.0625 0 0 Z " fill="#B9B9B9" transform="translate(193.0625,185.9375)"/>
<path d="M0 0 C0.66 0 1.32 0 2 0 C2.125 2.875 2.125 2.875 2 6 C1.34 6.66 0.68 7.32 0 8 C0.66 8.66 1.32 9.32 2 10 C1.01 10.495 1.01 10.495 0 11 C-0.68931344 13.34907875 -0.68931344 13.34907875 -1.125 16.0625 C-1.29257812 16.98160156 -1.46015625 17.90070313 -1.6328125 18.84765625 C-1.75398438 19.55792969 -1.87515625 20.26820312 -2 21 C-2.33 21 -2.66 21 -3 21 C-2.88588196 18.24915453 -2.75914051 15.49988053 -2.625 12.75 C-2.5940625 11.97269531 -2.563125 11.19539063 -2.53125 10.39453125 C-2.16618114 3.27568856 -2.16618114 3.27568856 0 0 Z " fill="#BEBEB9" transform="translate(33,51)"/>
<path d="M0 0 C4.16138263 -0.08159574 7.9472484 0.01751476 12 1 C12 2.65 12 4.3 12 6 C11.67 5.34 11.34 4.68 11 4 C9.34080104 3.63128912 7.67225729 3.30404678 6 3 C4.3207762 2.36562656 2.64991582 1.70710678 1 1 C-0.07525194 3.65228812 -1.09456151 6.28368454 -2 9 C-2.99 9 -3.98 9 -5 9 C-5 8.01 -5 7.02 -5 6 C-4.34 6 -3.68 6 -3 6 C-2.690625 5.38125 -2.38125 4.7625 -2.0625 4.125 C-1.375 2.75 -0.6875 1.375 0 0 Z " fill="#98989A" transform="translate(45,130)"/>
<path d="M0 0 C0.33 0 0.66 0 1 0 C1.33 5.94 1.66 11.88 2 18 C0.35 17.67 -1.3 17.34 -3 17 C-3.33 16.01 -3.66 15.02 -4 14 C-3.01 14 -2.02 14 -1 14 C-1.33 12.35 -1.66 10.7 -2 9 C-1.34 9 -0.68 9 0 9 C-0.185625 7.700625 -0.37125 6.40125 -0.5625 5.0625 C-0.87890625 2.84765625 -0.87890625 2.84765625 -1 1 C-0.67 0.67 -0.34 0.34 0 0 Z " fill="#93919A" transform="translate(50,192)"/>
<path d="M0 0 C0.33 0 0.66 0 1 0 C1 1.98 1 3.96 1 6 C-2.75 7.125 -2.75 7.125 -5 6 C-7.2072923 5.92907158 -9.41667452 5.91584975 -11.625 5.9375 C-13.40777344 5.95103516 -13.40777344 5.95103516 -15.2265625 5.96484375 C-16.59941406 5.98224609 -16.59941406 5.98224609 -18 6 C-17.67 5.01 -17.34 4.02 -17 3 C-16.43152344 3.01160156 -15.86304687 3.02320313 -15.27734375 3.03515625 C-10.40562235 3.09208789 -5.77955935 2.99574153 -1 2 C-0.67 1.34 -0.34 0.68 0 0 Z " fill="#C6C6C8" transform="translate(117,155)"/>
<path d="M0 0 C5.61 0 11.22 0 17 0 C17 0.66 17 1.32 17 2 C9.08 2.495 9.08 2.495 1 3 C0.67 2.01 0.34 1.02 0 0 Z " fill="#4D4C4F" transform="translate(99,144)"/>
<path d="M0 0 C2.64 0 5.28 0 8 0 C8 1.65 8 3.3 8 5 C4.625 5.1875 4.625 5.1875 1 5 C0.34 4.01 -0.32 3.02 -1 2 C-0.67 1.34 -0.34 0.68 0 0 Z " fill="#D4D4D4" transform="translate(22,9)"/>
<path d="M0 0 C0.33 0 0.66 0 1 0 C1.03758423 1.0058313 1.03758423 1.0058313 1.07592773 2.03198242 C1.19230801 5.0839959 1.31484348 8.13573258 1.4375 11.1875 C1.47681641 12.24259766 1.51613281 13.29769531 1.55664062 14.38476562 C1.59853516 15.40634766 1.64042969 16.42792969 1.68359375 17.48046875 C1.72025146 18.41785889 1.75690918 19.35524902 1.79467773 20.32104492 C1.99625599 22.95114982 2.42678321 25.42766414 3 28 C1.68 28 0.36 28 -1 28 C-0.67 18.76 -0.34 9.52 0 0 Z " fill="#484848" transform="translate(93,104)"/>
<path d="M0 0 C0.66 0 1.32 0 2 0 C3.41030314 6.73811499 2.66561666 13.19022959 2 20 C1.34 19.67 0.68 19.34 0 19 C0 12.73 0 6.46 0 0 Z " fill="#C4C3C8" transform="translate(51,171)"/>
<path d="M0 0 C1.32 0 2.64 0 4 0 C4 2.31 4 4.62 4 7 C2.68 7.33 1.36 7.66 0 8 C-1.09658936 4.71023192 -0.79953138 3.28696233 0 0 Z " fill="#A9A9A9" transform="translate(206,55)"/>
<path d="M0 0 C3.63 0 7.26 0 11 0 C11 0.66 11 1.32 11 2 C9.68 2 8.36 2 7 2 C7 3.65 7 5.3 7 7 C6.67 5.68 6.34 4.36 6 3 C5.34 3 4.68 3 4 3 C3.67 3.99 3.34 4.98 3 6 C2.34 6 1.68 6 1 6 C0.67 4.02 0.34 2.04 0 0 Z " fill="#9E9E9E" transform="translate(47,8)"/>
<path d="M0 0 C4.75 0.75 4.75 0.75 7 3 C5.02 3.33 3.04 3.66 1 4 C1 5.32 1 6.64 1 8 C-0.32 8 -1.64 8 -3 8 C-2.45276317 4.62537285 -1.9451 2.91765 0 0 Z " fill="#ADADAE" transform="translate(46,131)"/>
<path d="M0 0 C1.98 0.66 3.96 1.32 6 2 C5.67 4.64 5.34 7.28 5 10 C4.34 10 3.68 10 3 10 C2.896875 9.401875 2.79375 8.80375 2.6875 8.1875 C1.91123545 5.71756736 0.92911079 4.67748765 -1 3 C-0.67 2.01 -0.34 1.02 0 0 Z " fill="#D2D2D2" transform="translate(180,113)"/>
<path d="M0 0 C6.6 0 13.2 0 20 0 C20 0.33 20 0.66 20 1 C14.49983036 2.30267176 9.52967941 1.71033431 4 1 C3.67 1.99 3.34 2.98 3 4 C2.01 4.33 1.02 4.66 0 5 C0 3.35 0 1.7 0 0 Z " fill="#A5A3A4" transform="translate(98,76)"/>
<path d="M0 0 C2.31 0 4.62 0 7 0 C7 2.31 7 4.62 7 7 C6.67 7 6.34 7 6 7 C6 5.02 6 3.04 6 1 C5.34 1 4.68 1 4 1 C4 2.65 4 4.3 4 6 C3.01 6.495 3.01 6.495 2 7 C1.34 6.67 0.68 6.34 0 6 C0 4.02 0 2.04 0 0 Z " fill="#989898" transform="translate(173,55)"/>
<path d="M0 0 C0.33 0.66 0.66 1.32 1 2 C0.67 2.66 0.34 3.32 0 4 C-0.99 4 -1.98 4 -3 4 C-2.67 4.66 -2.34 5.32 -2 6 C-2.66 6 -3.32 6 -4 6 C-4 6.66 -4 7.32 -4 8 C-4.66 8 -5.32 8 -6 8 C-6.33 6.68 -6.66 5.36 -7 4 C-7.66 4 -8.32 4 -9 4 C-9 3.34 -9 2.68 -9 2 C-6.94921875 1.77213542 -4.8984375 1.54427083 -2.84765625 1.31640625 C-0.98859771 1.18113386 -0.98859771 1.18113386 0 0 Z " fill="#DEDEDE" transform="translate(194,174)"/>
<path d="M0 0 C0.33 0 0.66 0 1 0 C1 7.59 1 15.18 1 23 C-1.41778902 19.37331648 -2.20115622 17.22081042 -1.66015625 12.98828125 C-1.56669922 12.23095703 -1.47324219 11.47363281 -1.37695312 10.69335938 C-1.27318359 9.90767578 -1.16941406 9.12199219 -1.0625 8.3125 C-0.96259766 7.51521484 -0.86269531 6.71792969 -0.75976562 5.89648438 C-0.51251153 3.93022565 -0.25704363 1.96500294 0 0 Z " fill="#818182" transform="translate(117,85)"/>
<path d="M0 0 C0.33 1.32 0.66 2.64 1 4 C-1.64738916 5.4606285 -2.89448334 6 -6 6 C-6.33 4.68 -6.66 3.36 -7 2 C-4.69 1.34 -2.38 0.68 0 0 Z " fill="#9F9EA2" transform="translate(56,142)"/>
<path d="M0 0 C2.475 0.495 2.475 0.495 5 1 C5 2.98 5 4.96 5 7 C3.35 6.67 1.7 6.34 0 6 C0 4.02 0 2.04 0 0 Z " fill="#BDBDBD" transform="translate(199,55)"/>
<path d="M0 0 C3.375 -0.1875 3.375 -0.1875 7 0 C9 3 9 3 8.625 5.6875 C8.41875 6.450625 8.2125 7.21375 8 8 C6 7 6 7 5 4 C4.01 4 3.02 4 2 4 C2.33 3.01 2.66 2.02 3 1 C2.01 1.33 1.02 1.66 0 2 C0 1.34 0 0.68 0 0 Z " fill="#747474" transform="translate(184,30)"/>
<path d="M0 0 C0.66 0 1.32 0 2 0 C2 0.66 2 1.32 2 2 C2.66 2 3.32 2 4 2 C3.67 4.31 3.34 6.62 3 9 C2.01 9.33 1.02 9.66 0 10 C0 6.7 0 3.4 0 0 Z " fill="#AAA8B3" transform="translate(108,172)"/>
<path d="M0 0 C1.32 0.66 2.64 1.32 4 2 C3.01 3.485 3.01 3.485 2 5 C1.67 4.67 1.34 4.34 1 4 C0.01 4.66 -0.98 5.32 -2 6 C-2.99 5.67 -3.98 5.34 -5 5 C-5 3.68 -5 2.36 -5 1 C-3.68 1 -2.36 1 -1 1 C-0.67 0.67 -0.34 0.34 0 0 Z " fill="#F0F0F0" transform="translate(193,24)"/>
<path d="M0 0 C2.59224676 5.18449351 3.67767557 9.35690944 2 15 C1.34 15.99 0.68 16.98 0 18 C0 12.06 0 6.12 0 0 Z " fill="#F3F3F4" transform="translate(53,180)"/>
<path d="M0 0 C0.66 0 1.32 0 2 0 C2 5.28 2 10.56 2 16 C1.34 16 0.68 16 0 16 C-0.91397824 10.31302429 -0.91397824 5.68697571 0 0 Z " fill="#72707B" transform="translate(46,161)"/>
<path d="M0 0 C1.32 0 2.64 0 4 0 C4 2.31 4 4.62 4 7 C2.68 7 1.36 7 0 7 C0 4.69 0 2.38 0 0 Z " fill="#B5B5B5" transform="translate(173,103)"/>
<path d="M0 0 C0.33 0 0.66 0 1 0 C1 4.62 1 9.24 1 14 C0.34 13.67 -0.32 13.34 -1 13 C-1.38063221 10.6739143 -1.71269945 8.33944736 -2 6 C-2.33 5.34 -2.66 4.68 -3 4 C-2.34 3.34 -1.68 2.68 -1 2 C-0.67 1.34 -0.34 0.68 0 0 Z " fill="#858390" transform="translate(111,178)"/>
<path d="M0 0 C0.33 0.66 0.66 1.32 1 2 C-0.32064453 2.09087891 -0.32064453 2.09087891 -1.66796875 2.18359375 C-3.41013672 2.30927734 -3.41013672 2.30927734 -5.1875 2.4375 C-6.91033203 2.55931641 -6.91033203 2.55931641 -8.66796875 2.68359375 C-11.51598171 2.95403812 -14.21210482 3.37521747 -17 4 C-17 3.01 -17 2.02 -17 1 C-8.585 0.505 -8.585 0.505 0 0 Z " fill="#5C5C5D" transform="translate(116,131)"/>
<path d="M0 0 C0.66 0 1.32 0 2 0 C2.04241723 2.33294775 2.04092937 4.66702567 2 7 C1.67 7.33 1.34 7.66 1 8 C0.63239269 10.32817964 0.29758419 12.6618385 0 15 C-0.33 15 -0.66 15 -1 15 C-1.02703381 13.06257659 -1.04641125 11.12504521 -1.0625 9.1875 C-1.07410156 8.10855469 -1.08570312 7.02960938 -1.09765625 5.91796875 C-1 3 -1 3 0 0 Z " fill="#787878" transform="translate(69,73)"/>
<path d="M0 0 C1.65 0 3.3 0 5 0 C4.67 1.65 4.34 3.3 4 5 C3.34 4.67 2.68 4.34 2 4 C2 3.34 2 2.68 2 2 C1.34 2 0.68 2 0 2 C0 1.34 0 0.68 0 0 Z M-2 4 C-0.35 4.33 1.3 4.66 3 5 C-0.75 7 -0.75 7 -3 7 C-2.67 6.01 -2.34 5.02 -2 4 Z " fill="#D5D5CE" transform="translate(39,57)"/>
<path d="M0 0 C2.31 0 4.62 0 7 0 C7 1.98 7 3.96 7 6 C5.66666667 6 4.33333333 6 3 6 C3 4.35 3 2.7 3 1 C2.34 1 1.68 1 1 1 C0.67 2.32 0.34 3.64 0 5 C0 3.35 0 1.7 0 0 Z " fill="#979797" transform="translate(191,55)"/>
<path d="M0 0 C0.66 0 1.32 0 2 0 C2.33 4.62 2.66 9.24 3 14 C2.01 14 1.02 14 0 14 C0 9.38 0 4.76 0 0 Z " fill="#C2C0CC" transform="translate(108,192)"/>
<path d="M0 0 C3.465 1.485 3.465 1.485 7 3 C7 3.99 7 4.98 7 6 C5.1875 6.6875 5.1875 6.6875 3 7 C1.25 5.8125 1.25 5.8125 0 4 C0 2.68 0 1.36 0 0 Z " fill="#8A8A8B" transform="translate(99,146)"/>
<path d="M0 0 C3.3 0 6.6 0 10 0 C10 0.66 10 1.32 10 2 C7.36 2 4.72 2 2 2 C2 2.66 2 3.32 2 4 C1.01 3.67 0.02 3.34 -1 3 C-0.67 2.01 -0.34 1.02 0 0 Z " fill="#F6F6F6" transform="translate(34,10)"/>
<path d="M0 0 C1.78409802 3.06246747 2.22880021 5.22079273 2.125 8.75 C2.10695313 9.54921875 2.08890625 10.3484375 2.0703125 11.171875 C2.04710938 11.77515625 2.02390625 12.3784375 2 13 C1.01 13.495 1.01 13.495 0 14 C-0.91297308 9.02936879 -0.91297308 4.97063121 0 0 Z " fill="#C3C2C8" transform="translate(105,163)"/>
<path d="M0 0 C0 1.98 0 3.96 0 6 C-1.98 6 -3.96 6 -6 6 C-5.6875 4.125 -5.6875 4.125 -5 2 C-2 0 -2 0 0 0 Z " fill="#CBCAC7" transform="translate(54,66)"/>
<path d="M0 0 C1.65 0 3.3 0 5 0 C5 1.65 5 3.3 5 5 C3.35 5 1.7 5 0 5 C0 3.35 0 1.7 0 0 Z " fill="#C2C2C2" transform="translate(104,56)"/>
<path d="M0 0 C1 3 1 3 1 7 C-0.32 7 -1.64 7 -3 7 C-3 5.02 -3 3.04 -3 1 C-2.01 0.67 -1.02 0.34 0 0 Z " fill="#ADAEB0" transform="translate(108,95)"/>
<path d="M0 0 C1.65 0 3.3 0 5 0 C5 1.65 5 3.3 5 5 C3.35 5 1.7 5 0 5 C0 3.35 0 1.7 0 0 Z " fill="#BDBDBD" transform="translate(110,56)"/>
<path d="M0 0 C1.32 0 2.64 0 4 0 C4 1.98 4 3.96 4 6 C2.68 6 1.36 6 0 6 C0 4.02 0 2.04 0 0 Z " fill="#514B41" transform="translate(58,51)"/>
<path d="M0 0 C2.31 0.33 4.62 0.66 7 1 C7 1.99 7 2.98 7 4 C5.02 4 3.04 4 1 4 C0.67 2.68 0.34 1.36 0 0 Z " fill="#828285" transform="translate(108,148)"/>
<path d="M0 0 C0.66 0.33 1.32 0.66 2 1 C2 3.31 2 5.62 2 8 C1.01 8 0.02 8 -1 8 C-1.33 5.69 -1.66 3.38 -2 1 C-1.34 0.67 -0.68 0.34 0 0 Z " fill="#86878C" transform="translate(45,104)"/>
<path d="M0 0 C2 0 2 0 3.625 1.5 C4.07875 1.995 4.5325 2.49 5 3 C4.67 3.99 4.34 4.98 4 6 C1.9375 6.6875 1.9375 6.6875 0 7 C0 4.69 0 2.38 0 0 Z " fill="#989898" transform="translate(181,187)"/>
<path d="M0 0 C2.60018816 3.90028225 2.15085514 7.47434569 2 12 C1.01 12 0.02 12 -1 12 C-1.02698189 10.37509046 -1.04638757 8.75005367 -1.0625 7.125 C-1.07410156 6.22007812 -1.08570313 5.31515625 -1.09765625 4.3828125 C-1 2 -1 2 0 0 Z " fill="#BFBEC7" transform="translate(45,213)"/>
<path d="M0 0 C0 1.32 0 2.64 0 4 C-0.66 4 -1.32 4 -2 4 C-2.33 4.66 -2.66 5.32 -3 6 C-3.99 4.35 -4.98 2.7 -6 1 C-4 0 -4 0 0 0 Z " fill="#E7E7E7" transform="translate(184,160)"/>
<path d="M0 0 C2.31 0 4.62 0 7 0 C7 0.99 7 1.98 7 3 C4.69 3 2.38 3 0 3 C0 2.01 0 1.02 0 0 Z " fill="#B6B7B9" transform="translate(46,121)"/>
<path d="M0 0 C0.66 0 1.32 0 2 0 C2.125 2.875 2.125 2.875 2 6 C1.34 6.66 0.68 7.32 0 8 C0 7.34 0 6.68 0 6 C-1.32 6 -2.64 6 -4 6 C-4 5.34 -4 4.68 -4 4 C-3.01 3.34 -2.02 2.68 -1 2 C-0.67 1.34 -0.34 0.68 0 0 Z " fill="#848587" transform="translate(110,109)"/>
<path d="M0 0 C0.66 0.33 1.32 0.66 2 1 C2 2.65 2 4.3 2 6 C0.35 6 -1.3 6 -3 6 C-3 3 -3 3 -1.5 1.3125 C-0.7575 0.6628125 -0.7575 0.6628125 0 0 Z " fill="#969698" transform="translate(110,88)"/>
<path d="M0 0 C0.99 0.33 1.98 0.66 3 1 C3 2.32 3 3.64 3 5 C1.02 5.33 -0.96 5.66 -3 6 C-3 5.01 -3 4.02 -3 3 C-1.68 3.33 -0.36 3.66 1 4 C0.67 2.68 0.34 1.36 0 0 Z " fill="#B7B6C1" transform="translate(108,208)"/>
<path d="M0 0 C0.66 0 1.32 0 2 0 C2.62457273 3.43515002 3 6.49064814 3 10 C2.34 10 1.68 10 1 10 C0.83266843 8.5209084 0.66615314 7.04172444 0.5 5.5625 C0.4071875 4.73878906 0.314375 3.91507813 0.21875 3.06640625 C0 1 0 1 0 0 Z " fill="#B8B6C1" transform="translate(47,191)"/>
<path d="M0 0 C2.31 0.33 4.62 0.66 7 1 C7 1.66 7 2.32 7 3 C4.36 3 1.72 3 -1 3 C-0.67 2.01 -0.34 1.02 0 0 Z " fill="#5A595E" transform="translate(49,151)"/>
<path d="M0 0 C2.475 0.495 2.475 0.495 5 1 C5.33 2.32 5.66 3.64 6 5 C5.01 5 4.02 5 3 5 C3 4.34 3 3.68 3 3 C2.01 2.67 1.02 2.34 0 2 C0 1.34 0 0.68 0 0 Z " fill="#818084" transform="translate(40,143)"/>
<path d="M0 0 C2.31 0 4.62 0 7 0 C7 0.99 7 1.98 7 3 C6.01 3.33 5.02 3.66 4 4 C3.34 3.67 2.68 3.34 2 3 C2 2.34 2 1.68 2 1 C1.34 0.67 0.68 0.34 0 0 Z " fill="#8D8D8D" transform="translate(110,133)"/>
<path d="M0 0 C0.66 1.32 1.32 2.64 2 4 C-0.31 4 -2.62 4 -5 4 C-3 1 -3 1 0 0 Z " fill="#828283" transform="translate(113,128)"/>
<path d="M0 0 C0.66 0 1.32 0 2 0 C2 0.66 2 1.32 2 2 C2.66 2.33 3.32 2.66 4 3 C3.34 3 2.68 3 2 3 C2 4.65 2 6.3 2 8 C1.34 8 0.68 8 0 8 C0 5.36 0 2.72 0 0 Z " fill="#AAAAAA" transform="translate(181,53)"/>
<path d="M0 0 C0.99 0.33 1.98 0.66 3 1 C2.67 2.98 2.34 4.96 2 7 C1.34 7 0.68 7 0 7 C0 6.34 0 5.68 0 5 C-0.66 4.67 -1.32 4.34 -2 4 C-1.34 4 -0.68 4 0 4 C0 2.68 0 1.36 0 0 Z " fill="#87868D" transform="translate(110,167)"/>
<path d="M0 0 C2.31 0.33 4.62 0.66 7 1 C5 3 5 3 2.375 3.125 C1.59125 3.08375 0.8075 3.0425 0 3 C0 2.01 0 1.02 0 0 Z " fill="#55545A" transform="translate(43,157)"/>
<path d="M0 0 C0.66 0 1.32 0 2 0 C2 1.98 2 3.96 2 6 C1.01 6.495 1.01 6.495 0 7 C0 6.34 0 5.68 0 5 C-0.66 4.67 -1.32 4.34 -2 4 C-1.34 2.68 -0.68 1.36 0 0 Z " fill="#BABAB0" transform="translate(33,51)"/>
<path d="M0 0 C1.32 0.33 2.64 0.66 4 1 C4 1.66 4 2.32 4 3 C3.34 3 2.68 3 2 3 C1.34 4.32 0.68 5.64 0 7 C0 4.69 0 2.38 0 0 Z " fill="#C5C6BD" transform="translate(31,48)"/>
</svg>
