<?xml version="1.0" encoding="UTF-8"?>
<svg version="1.1" xmlns="http://www.w3.org/2000/svg" width="225" height="225">
<path d="M0 0 C74.25 0 148.5 0 225 0 C225 74.25 225 148.5 225 225 C150.75 225 76.5 225 0 225 C0 150.75 0 76.5 0 0 Z " fill="#FDFDFD" transform="translate(0,0)"/>
<path d="M0 0 C3.63 0 7.26 0 11 0 C12.2263757 2.45275141 12.11415314 4.0505781 12.09765625 6.7890625 C12.09443359 7.73007813 12.09121094 8.67109375 12.08789062 9.640625 C12.07951172 10.62546875 12.07113281 11.6103125 12.0625 12.625 C12.05798828 13.61757812 12.05347656 14.61015625 12.04882812 15.6328125 C12.03702145 18.0886016 12.020554 20.54427104 12 23 C11.01 23 10.02 23 9 23 C9 34.55 9 46.1 9 58 C10.32 54.7 11.64 51.4 13 48 C20.39264521 35.5569338 30.24215601 28.11340944 44 24 C44.99 23.67 45.98 23.34 47 23 C63.01330026 21.4196743 76.49477177 23.6439456 89.453125 33.74609375 C94.87104611 38.54078774 99.75174099 43.50348198 103 50 C103.495 45.05 103.495 45.05 104 40 C103.34 40 102.68 40 102 40 C102 35.05 102 30.1 102 25 C101.34 25 100.68 25 100 25 C100 17.41 100 9.82 100 2 C103.63 2 107.26 2 111 2 C112 3 112 3 112.11352539 5.04125977 C112.10567017 6.35308228 112.10567017 6.35308228 112.09765625 7.69140625 C112.09282227 9.10776367 112.09282227 9.10776367 112.08789062 10.55273438 C112.07532227 12.04256836 112.07532227 12.04256836 112.0625 13.5625 C112.05798828 14.55958984 112.05347656 15.55667969 112.04882812 16.58398438 C112.03700007 19.05604849 112.02051849 21.52799518 112 24 C111.01 24 110.02 24 109 24 C108.96936289 27.7499825 108.95139414 31.49991912 108.9375 35.25 C108.92928223 36.98769653 108.92928223 36.98769653 108.92089844 38.76049805 C108.91586123 45.0221671 109.02719205 51.25068462 109.36328125 57.50390625 C109.42588135 58.72625977 109.48848145 59.94861328 109.55297852 61.20800781 C109.68076031 63.54576541 109.82725802 65.88260414 109.99584961 68.21777344 C110.80591747 83.41244428 104.50818226 98.9954929 94.625 110.5 C84.96782557 120.46764196 73.19886427 126.02039888 59.31176758 126.24121094 C51.42667205 126.2689401 44.33989095 126.23736635 37 123 C36.32195313 122.7215625 35.64390625 122.443125 34.9453125 122.15625 C20.8405539 115.78989982 11.23547607 103.85286846 5 90 C2.44437438 83.18714757 2.65119818 76.40208514 2.5859375 69.19140625 C2.56720174 67.85618424 2.54762658 66.52097377 2.5272522 65.18577576 C2.47617881 61.69246257 2.43642153 58.19911109 2.39910889 54.70562744 C2.35891262 51.1324333 2.30789202 47.55939499 2.2578125 43.98632812 C2.16134743 36.99099961 2.07684969 29.99557078 2 23 C1.01 23 0.02 23 -1 23 C-1.02894547 19.54168414 -1.04678 16.08339928 -1.0625 12.625 C-1.07087891 11.64015625 -1.07925781 10.6553125 -1.08789062 9.640625 C-1.09111328 8.69960937 -1.09433594 7.75859375 -1.09765625 6.7890625 C-1.10289307 5.91975098 -1.10812988 5.05043945 -1.11352539 4.15478516 C-1 2 -1 2 0 0 Z " fill="#1B1B1B" transform="translate(9,86)"/>
<path d="M0 0 C9.11385789 5.38167477 16.30206351 12.22335425 20.13671875 22.26171875 C20.88671875 25.51171875 20.88671875 25.51171875 21.13671875 29.26171875 C21.19988281 30.15890625 21.26304688 31.05609375 21.328125 31.98046875 C21.75243813 42.60198464 18.96233219 51.07351123 12.125 59.2578125 C4.54154482 66.90086261 -5.24681235 71.26960993 -15.98828125 71.57421875 C-25.78821416 71.48164179 -34.2939095 67.49674622 -41.42578125 60.88671875 C-42.63234375 59.58734375 -42.63234375 59.58734375 -43.86328125 58.26171875 C-44.70890625 57.41609375 -45.55453125 56.57046875 -46.42578125 55.69921875 C-51.96385894 48.84672389 -53.52661391 39.72425576 -53.1796875 31.140625 C-51.9544295 19.99228984 -46.839276 10.88510079 -38.09765625 3.8359375 C-27.02931824 -3.96220973 -12.49472205 -6.04583325 0 0 Z " fill="#FCFCFC" transform="translate(82.86328125,125.73828125)"/>
<path d="M0 0 C3.63 0 7.26 0 11 0 C12.2263757 2.45275141 12.11415314 4.0505781 12.09765625 6.7890625 C12.09443359 7.73007813 12.09121094 8.67109375 12.08789062 9.640625 C12.07951172 10.62546875 12.07113281 11.6103125 12.0625 12.625 C12.05798828 13.61757812 12.05347656 14.61015625 12.04882812 15.6328125 C12.03702145 18.0886016 12.020554 20.54427104 12 23 C11.01 23 10.02 23 9 23 C9 34.55 9 46.1 9 58 C10.32 54.7 11.64 51.4 13 48 C19.10823987 37.71880419 27.35922637 29.44280567 39 26 C39.495 27.485 39.495 27.485 40 29 C38.02805885 30.97194115 36.49095467 31.832365 34 33 C33.01 33.495 33.01 33.495 32 34 C34.66694669 36.25322947 34.66694669 36.25322947 36.87890625 35.75390625 C39.27312949 34.90292083 41.59443783 33.92052909 43.9375 32.9375 C52.93501974 29.63840943 61.90060138 30.36299838 71.07421875 32.66015625 C73.07549283 33.21052313 73.07549283 33.21052313 75 32 C79.87110712 33.86553039 81.42154573 35.63646201 84 40 C85.99007158 41.87058488 88.05166599 43.61608262 90.16015625 45.3515625 C92 47 92 47 94 50 C94.639375 50.103125 95.27875 50.20625 95.9375 50.3125 C98 51 98 51 99.6875 53.4375 C101.32388841 57.87912568 102.17167033 62.2504542 102 67 C101.34 67.99 100.68 68.98 100 70 C100.66 70 101.32 70 102 70 C102 70.66 102 71.32 102 72 C104.31 72.33 106.62 72.66 109 73 C109 73.66 109 74.32 109 75 C104.38 75 99.76 75 95 75 C94.505 76.485 94.505 76.485 94 78 C94.04640625 77.24976563 94.0928125 76.49953125 94.140625 75.7265625 C94.49076393 65.79762275 92.28062058 57.85077572 86 50 C79.37120101 43.12960469 71.37400872 38.48659667 61.76953125 37.46484375 C60.96708984 37.37783203 60.16464844 37.29082031 59.33789062 37.20117188 C58.08782227 37.0706543 58.08782227 37.0706543 56.8125 36.9375 C55.96751953 36.84662109 55.12253906 36.75574219 54.25195312 36.66210938 C52.16828515 36.4384388 50.08418205 36.21882849 48 36 C49.32 35.34 50.64 34.68 52 34 C43.15711716 34 35.19530711 39.06185658 29 45 C20.43701502 54.26268414 17.72081611 63.68569146 17.83984375 76.18359375 C18.15837857 81.78514509 19.22606256 88.06855567 22 93 C24.04105639 93.88693303 24.04105639 93.88693303 26 94 C26 98 26 98 25 100 C26.32 101.65 27.64 103.3 29 105 C26 105 26 105 23.5625 102.875 C21.03936188 100.04416211 18.98943213 97.22425207 17 94 C16.3503125 92.948125 16.3503125 92.948125 15.6875 91.875 C14.83305924 89.54470702 15.17801229 88.30156558 16 86 C16.33 86 16.66 86 17 86 C16.67 84.68 16.34 83.36 16 82 C15.34 82.99 14.68 83.98 14 85 C10.47859296 74.43577887 13.03745717 63.01393056 16.90625 52.9765625 C18.17245303 50.05920695 18.17245303 50.05920695 18 47 C12.4150787 58.2265423 9.11875995 70.06410975 11.75 82.5625 C12.1625 83.696875 12.575 84.83125 13 86 C13.25652344 86.76957031 13.51304688 87.53914063 13.77734375 88.33203125 C16.4341872 95.75522905 20.33327887 102.55551925 27 107 C27 107.66 27 108.32 27 109 C28.32 109.33 29.64 109.66 31 110 C31 110.66 31 111.32 31 112 C31.825 112.268125 32.65 112.53625 33.5 112.8125 C36.67088432 113.88833575 39.76968968 115.06781272 42.875 116.31640625 C55.66195148 120.42985571 67.0033791 117.82713638 79 113 C80.32509076 112.63527632 81.65556597 112.28528234 83 112 C81.625 113.5 81.625 113.5 80 115 C79.34 115 78.68 115 78 115 C78 115.66 78 116.32 78 117 C63.9041714 122.40661919 50.07276911 123.17828888 36 117 C26.64424565 111.98331851 20.58615641 106.12084956 14.6484375 97.40234375 C13.15248786 95.22222757 11.60241974 93.10256893 10 91 C15.16464709 103.19791022 23.17725343 111.92466162 35 118 C36.98583987 118.70773191 38.98326168 119.38582493 41 120 C41 121.32 41 122.64 41 124 C33.01258833 121.9049412 27.38072 118.18615598 21 113 C20.02353516 112.21496094 20.02353516 112.21496094 19.02734375 111.4140625 C10.65473718 103.89969579 3.78376795 91.1501022 2.70004272 79.88085938 C2.55908242 76.25039257 2.50661934 72.62924718 2.48828125 68.99609375 C2.47033005 67.67706558 2.45237885 66.35803741 2.43388367 64.9990387 C2.38672609 61.5221749 2.35669701 58.04537441 2.33044434 54.56829834 C2.30046408 51.00829571 2.25399464 47.44851058 2.20898438 43.88867188 C2.12334215 36.92590592 2.05582491 29.96306722 2 23 C1.01 23 0.02 23 -1 23 C-1.02894547 19.54168414 -1.04678 16.08339928 -1.0625 12.625 C-1.07087891 11.64015625 -1.07925781 10.6553125 -1.08789062 9.640625 C-1.09111328 8.69960937 -1.09433594 7.75859375 -1.09765625 6.7890625 C-1.10289307 5.91975098 -1.10812988 5.05043945 -1.11352539 4.15478516 C-1 2 -1 2 0 0 Z " fill="#363636" transform="translate(9,86)"/>
<path d="M0 0 C0.75410156 -0.00773437 1.50820312 -0.01546875 2.28515625 -0.0234375 C6.12917457 -0.00978202 7.98120282 0.07080188 11.25 2.25 C5.64 2.25 0.03 2.25 -5.75 2.25 C-5.255 3.24 -5.255 3.24 -4.75 4.25 C-5.595625 4.54132813 -6.44125 4.83265625 -7.3125 5.1328125 C-18.72872392 9.25822069 -26.95044879 14.17584849 -32.75 25.140625 C-37.34192626 35.29584653 -36.85947747 46.2017082 -33.00390625 56.4921875 C-28.53993456 66.31014392 -21.20987797 71.61248203 -11.375 75.625 C-2.62173508 78.56717133 6.24062769 77.34441399 15.25 76.25 C15.58 77.24 15.91 78.23 16.25 79.25 C12.62 80.24 8.99 81.23 5.25 82.25 C14.25418347 81.5573705 20.79649291 78.68121247 28.5 74.1875 C29.11101562 73.83623047 29.72203125 73.48496094 30.3515625 73.12304688 C33.0419031 71.56934581 35.66406157 69.97395895 38.25 68.25 C35.415944 76.51599667 29.52830421 80.85004955 22.25 85.25 C21.59 85.25 20.93 85.25 20.25 85.25 C20.58 86.24 20.91 87.23 21.25 88.25 C20.02493102 88.90357278 18.79470484 89.54748233 17.5625 90.1875 C16.53576172 90.72697266 16.53576172 90.72697266 15.48828125 91.27734375 C10.09119051 93.62267638 4.59676571 93.43304714 -1.1875 93.4375 C-2.02087891 93.44974609 -2.85425781 93.46199219 -3.71289062 93.47460938 C-8.46699654 93.48588393 -12.28191689 93.08808947 -16.75 91.25 C-16.75 90.59 -16.75 89.93 -16.75 89.25 C-17.31332031 88.97414063 -17.87664063 88.69828125 -18.45703125 88.4140625 C-26.47942659 84.34136436 -33.31938463 79.5530238 -39.75 73.25 C-40.2553125 72.75757813 -40.760625 72.26515625 -41.28125 71.7578125 C-45.15120404 67.58109381 -46.88421088 62.52424186 -48.75 57.25 C-47.76 56.755 -47.76 56.755 -46.75 56.25 C-46.18732422 57.35408203 -46.18732422 57.35408203 -45.61328125 58.48046875 C-42.81106455 63.82373838 -40.29334979 68.18489755 -35.75 72.25 C-35.193125 73.054375 -34.63625 73.85875 -34.0625 74.6875 C-26.82900967 82.70298928 -15.31771356 86.89449469 -4.71484375 87.59765625 C2.26865021 87.84251814 8.71927585 87.36469263 15.33203125 84.90625 C17.25 84.25 17.25 84.25 20.25 84.25 C20.25 83.59 20.25 82.93 20.25 82.25 C20.58 81.92 20.91 81.59 21.25 81.25 C20.40179688 81.6109375 19.55359375 81.971875 18.6796875 82.34375 C5.65274231 87.49726678 -6.28003091 87.63599811 -19.75 83.25 C-22.29196644 82.07968872 -24.42249164 80.81971494 -26.75 79.25 C-26.75 78.59 -26.75 77.93 -26.75 77.25 C-28.07 76.92 -29.39 76.59 -30.75 76.25 C-30.75 75.59 -30.75 74.93 -30.75 74.25 C-31.3275 74.023125 -31.905 73.79625 -32.5 73.5625 C-39.40496694 69.53460262 -44.07741814 59.56315582 -46.75 52.25 C-49.77226746 39.55647668 -47.17081757 25.52434896 -40.75 14.25 C-40.09 13.92 -39.43 13.59 -38.75 13.25 C-39.15985776 17.75843538 -40.1663219 21.40194239 -41.8125 25.625 C-44.55818876 33.41601576 -44.09709096 41.11264521 -43.75 49.25 C-43.42 47.6 -43.09 45.95 -42.75 44.25 C-42.42 44.25 -42.09 44.25 -41.75 44.25 C-41.09 48.21 -40.43 52.17 -39.75 56.25 C-40.41 55.59 -41.07 54.93 -41.75 54.25 C-40.60195738 60.21982163 -37.49473237 64.60136672 -33.75 69.25 C-33.75 69.91 -33.75 70.57 -33.75 71.25 C-32.76 71.25 -31.77 71.25 -30.75 71.25 C-32.07 69.93 -33.39 68.61 -34.75 67.25 C-33.75 65.25 -33.75 65.25 -32.75 64.25 C-32.09 64.25 -31.43 64.25 -30.75 64.25 C-32.35532286 61.09549812 -32.35532286 61.09549812 -34.76953125 60.79296875 C-36.75 60.25 -36.75 60.25 -37.76171875 58.61328125 C-41.15449317 48.31728953 -42.35708682 37.67510642 -38.75 27.25 C-38.51667969 26.54359375 -38.28335938 25.8371875 -38.04296875 25.109375 C-34.06392155 14.71661246 -25.8099723 6.80313731 -15.75 2.25 C-10.36757305 0.36550519 -5.62620405 -0.05891313 0 0 Z " fill="#202020" transform="translate(66.75,118.75)"/>
<path d="M0 0 C3.63 0 7.26 0 11 0 C12 1 12 1 12.11352539 3.04125977 C12.10828857 3.91580811 12.10305176 4.79035645 12.09765625 5.69140625 C12.09443359 6.63564453 12.09121094 7.57988281 12.08789062 8.55273438 C12.07532227 10.04256836 12.07532227 10.04256836 12.0625 11.5625 C12.05798828 12.55958984 12.05347656 13.55667969 12.04882812 14.58398438 C12.03700007 17.05604849 12.02051849 19.52799518 12 22 C11.01 22 10.02 22 9 22 C9.00523682 22.97759277 9.01047363 23.95518555 9.01586914 24.96240234 C9.03414501 28.63394229 9.04551349 32.30547832 9.05493164 35.97705078 C9.05992073 37.55778686 9.06671438 39.13851841 9.07543945 40.71923828 C9.1211381 49.21918732 9.07516124 57.55109515 8 66 C7.34 66 6.68 66 6 66 C5.87625 65.030625 5.7525 64.06125 5.625 63.0625 C5.41875 62.051875 5.2125 61.04125 5 60 C4.01 59.505 4.01 59.505 3 59 C2.356137 57.5249684 1.78418114 56.01819903 1.25 54.5 C-2.21695425 45.42937317 -2.21695425 45.42937317 -9 39 C-9 38.34 -9 37.68 -9 37 C-9.66 36.79375 -10.32 36.5875 -11 36.375 C-13.71646337 35.12995429 -15.40609621 33.92742034 -17.6875 32.0625 C-21.56246925 29.02316343 -25.23914962 27.77357658 -29.99609375 26.640625 C-30.65738281 26.42921875 -31.31867188 26.2178125 -32 26 C-32.33 25.34 -32.66 24.68 -33 24 C-27.95231597 22.44686645 -24.96348792 23.40811166 -20.421875 25.6484375 C-10.76605843 31.0370061 -2.02646218 37.94707563 3 48 C3.495 43.05 3.495 43.05 4 38 C3.34 38 2.68 38 2 38 C2 33.05 2 28.1 2 23 C1.34 23 0.68 23 0 23 C0 15.41 0 7.82 0 0 Z " fill="#453C3F" transform="translate(109,88)"/>
<path d="M0 0 C2.00127408 0.55036688 2.00127408 0.55036688 3.92578125 -0.66015625 C8.79688837 1.20537414 10.34732698 2.97630576 12.92578125 7.33984375 C14.91585283 9.21042863 16.97744724 10.95592637 19.0859375 12.69140625 C20.92578125 14.33984375 20.92578125 14.33984375 22.92578125 17.33984375 C23.56515625 17.44296875 24.20453125 17.54609375 24.86328125 17.65234375 C26.92578125 18.33984375 26.92578125 18.33984375 28.61328125 20.77734375 C30.24966966 25.21896943 31.09745158 29.59029795 30.92578125 34.33984375 C30.26578125 35.32984375 29.60578125 36.31984375 28.92578125 37.33984375 C29.58578125 37.33984375 30.24578125 37.33984375 30.92578125 37.33984375 C30.92578125 37.99984375 30.92578125 38.65984375 30.92578125 39.33984375 C33.23578125 39.66984375 35.54578125 39.99984375 37.92578125 40.33984375 C37.92578125 40.99984375 37.92578125 41.65984375 37.92578125 42.33984375 C33.30578125 42.33984375 28.68578125 42.33984375 23.92578125 42.33984375 C23.59578125 43.32984375 23.26578125 44.31984375 22.92578125 45.33984375 C22.9721875 44.58960938 23.01859375 43.839375 23.06640625 43.06640625 C23.41654518 33.1374665 21.20640183 25.19061947 14.92578125 17.33984375 C8.29698226 10.46944844 0.29978997 5.82644042 -9.3046875 4.8046875 C-10.10712891 4.71767578 -10.90957031 4.63066406 -11.73632812 4.54101562 C-12.98639648 4.41049805 -12.98639648 4.41049805 -14.26171875 4.27734375 C-15.10669922 4.18646484 -15.95167969 4.09558594 -16.82226562 4.00195312 C-18.9059336 3.77828255 -20.9900367 3.55867224 -23.07421875 3.33984375 C-21.75421875 2.67984375 -20.43421875 2.01984375 -19.07421875 1.33984375 C-27.8882505 1.33984375 -35.92014799 6.38205667 -42.07421875 12.33984375 C-44.56784701 15.23448062 -46.87278597 18.21819791 -49.07421875 21.33984375 C-49.40421875 20.67984375 -49.73421875 20.01984375 -50.07421875 19.33984375 C-37.92285463 1.61910441 -21.21373835 -5.31211451 0 0 Z " fill="#6A6A6A" transform="translate(80.07421875,118.66015625)"/>
<path d="M0 0 C1.51953125 1.20703125 1.51953125 1.20703125 3 3 C3.07421875 5.26171875 3.07421875 5.26171875 2.6875 7.6875 C2.56761719 8.49574219 2.44773438 9.30398437 2.32421875 10.13671875 C2.21722656 10.75160156 2.11023438 11.36648437 2 12 C3.7824918 8.66688525 4.48792856 5.75519057 5 2 C5.66 2 6.32 2 7 2 C7 1.34 7 0.68 7 0 C7.99 0.33 8.98 0.66 10 1 C7.31728087 16.46844437 -0.64946591 29.46904121 -13 39 C-15.6171875 40.8125 -15.6171875 40.8125 -18 42 C-19.485 41.505 -19.485 41.505 -21 41 C-21 40.34 -21 39.68 -21 39 C-18.94136747 37.53932287 -16.87607937 36.16773014 -14.75 34.8125 C-9.67346699 31.46652582 -6.30810668 28.70952706 -4 23 C-4.68449219 23.57492188 -5.36898437 24.14984375 -6.07421875 24.7421875 C-17.36890564 33.45824761 -27.69716551 37.47325555 -42 37 C-42 36.67 -42 36.34 -42 36 C-36.39 35.01 -30.78 34.02 -25 33 C-25.99 31.68 -26.98 30.36 -28 29 C-26.59248779 28.13083113 -25.1735479 27.28014851 -23.75 26.4375 C-22.96109375 25.96183594 -22.1721875 25.48617187 -21.359375 24.99609375 C-18.69155375 23.86977849 -17.65498232 23.9830687 -15 25 C-15.99 25.33 -16.98 25.66 -18 26 C-18 26.66 -18 27.32 -18 28 C-18.99 28.66 -19.98 29.32 -21 30 C-18.69 29.34 -16.38 28.68 -14 28 C-14 27.34 -14 26.68 -14 26 C-12.67811096 24.65531977 -11.34289091 23.32370675 -10 22 C-5.0884357 15.22204127 -2.33290072 7.98675422 0 0 Z " fill="#252525" transform="translate(108,165)"/>
<path d="M0 0 C0.66 0 1.32 0 2 0 C2.33 14.19 2.66 28.38 3 43 C3.33 43 3.66 43 4 43 C4.07476563 44.23234375 4.14953125 45.4646875 4.2265625 46.734375 C5.2429963 60.4576198 8.46440927 71.58296811 18 82 C19.485 82.99 19.485 82.99 21 84 C21 84.66 21 85.32 21 86 C22.32 86.33 23.64 86.66 25 87 C25 87.66 25 88.32 25 89 C25.825 89.268125 26.65 89.53625 27.5 89.8125 C30.67088432 90.88833575 33.76968968 92.06781272 36.875 93.31640625 C49.66195148 97.42985571 61.0033791 94.82713638 73 90 C74.32509076 89.63527632 75.65556597 89.28528234 77 89 C75.625 90.5 75.625 90.5 74 92 C73.34 92 72.68 92 72 92 C72 92.66 72 93.32 72 94 C57.9041714 99.40661919 44.07276911 100.17828888 30 94 C18.4733638 87.81926242 12.1251258 79.6876887 5 69 C5 68.01 5 67.02 5 66 C4.01 66 3.02 66 2 66 C0.28440789 61.50334278 -0.29093835 57.65340451 -0.4140625 52.8515625 C-0.43342865 52.19417084 -0.4527948 51.53677917 -0.4727478 50.85946655 C-0.53202461 48.78143865 -0.57871794 46.70335376 -0.625 44.625 C-0.66322778 43.2070085 -0.70228223 41.78903903 -0.7421875 40.37109375 C-0.83768171 36.91426539 -0.92190189 33.45727017 -1 30 C-1.33 30 -1.66 30 -2 30 C-2.31578947 4.63157895 -2.31578947 4.63157895 0 0 Z " fill="#393939" transform="translate(15,109)"/>
<path d="M0 0 C0.88429688 -0.01160156 1.76859375 -0.02320312 2.6796875 -0.03515625 C9.09728956 -0.00607346 9.09728956 -0.00607346 12.359375 1.8984375 C13.04773438 2.62933594 13.04773438 2.62933594 13.75 3.375 C12.76 3.705 11.77 4.035 10.75 4.375 C13.225 4.87 13.225 4.87 15.75 5.375 C16.245 8.345 16.245 8.345 16.75 11.375 C16.10675781 11.230625 15.46351562 11.08625 14.80078125 10.9375 C2.78910048 8.4700506 -6.9222625 8.52554375 -18.25 13.375 C-20.24659018 14.05181023 -22.24464622 14.72461499 -24.25 15.375 C-24.25 14.715 -24.25 14.055 -24.25 13.375 C-25.24 13.375 -26.23 13.375 -27.25 13.375 C-27.91 13.045 -28.57 12.715 -29.25 12.375 C-27.24210066 10.72565411 -25.73684933 9.49302408 -23.1875 8.875 C-20.77456709 8.25230764 -19.79193844 7.30242305 -18.25 5.375 C-18.25 4.715 -18.25 4.055 -18.25 3.375 C-11.96748911 0.61361731 -6.82839322 -0.09118032 0 0 Z " fill="#2D2D2D" transform="translate(66.25,108.625)"/>
<path d="M0 0 C1.07765625 0.01804688 2.1553125 0.03609375 3.265625 0.0546875 C4.49539062 0.08949219 4.49539062 0.08949219 5.75 0.125 C5.75 0.785 5.75 1.445 5.75 2.125 C4.1 2.455 2.45 2.785 0.75 3.125 C0.95625 4.218125 1.1625 5.31125 1.375 6.4375 C1.75 10.125 1.75 10.125 -0.25 13.125 C-1.89142963 14.1659066 -3.55712215 15.17004326 -5.25 16.125 C-5.58 16.455 -5.91 16.785 -6.25 17.125 C-12.48076923 17.58653846 -12.48076923 17.58653846 -15.125 16 C-16.70228903 13.37118495 -17.0596754 11.17019365 -17.25 8.125 C-16.59 7.135 -15.93 6.145 -15.25 5.125 C-18.22 4.63 -18.22 4.63 -21.25 4.125 C-21.25 3.795 -21.25 3.465 -21.25 3.125 C-20.50234375 3.07601562 -19.7546875 3.02703125 -18.984375 2.9765625 C-17.99953125 2.90179688 -17.0146875 2.82703125 -16 2.75 C-14.53820312 2.64558594 -14.53820312 2.64558594 -13.046875 2.5390625 C-10.30100629 2.28940569 -10.30100629 2.28940569 -8.28125 1.09375 C-5.46134937 -0.25112569 -3.10273228 -0.0674507 0 0 Z " fill="#989898" transform="translate(188.25,158.875)"/>
<path d="M0 0 C3.63 0 7.26 0 11 0 C11 6.6 11 13.2 11 20 C7.37 19.67 3.74 19.34 0 19 C0 12.73 0 6.46 0 0 Z " fill="#313031" transform="translate(9,86)"/>
<path d="M0 0 C0 0.66 0 1.32 0 2 C1.65 2 3.3 2 5 2 C5 2.66 5 3.32 5 4 C3.37373596 5.38232443 1.7074998 6.71937515 0 8 C-0.33 7.67 -0.66 7.34 -1 7 C-3.18639453 6.92741054 -5.37500389 6.91626217 -7.5625 6.9375 C-8.76003906 6.94652344 -9.95757812 6.95554687 -11.19140625 6.96484375 C-12.58166016 6.98224609 -12.58166016 6.98224609 -14 7 C-14 8.32 -14 9.64 -14 11 C-17.62326739 12.2077558 -18.64146369 11.54311128 -22 10 C-22.33 6.7 -22.66 3.4 -23 0 C-22.01 0.495 -22.01 0.495 -21 1 C-20.67 1.99 -20.34 2.98 -20 4 C-19.34 2.68 -18.68 1.36 -18 0 C-17.31292969 0.01160156 -16.62585938 0.02320312 -15.91796875 0.03515625 C-15.01691406 0.04417969 -14.11585938 0.05320312 -13.1875 0.0625 C-11.84751953 0.07990234 -11.84751953 0.07990234 -10.48046875 0.09765625 C-1.11445783 -0.27108434 -1.11445783 -0.27108434 0 0 Z " fill="#B7B7B7" transform="translate(186,119)"/>
<path d="M0 0 C0.66 0 1.32 0 2 0 C3.1577506 3.47325181 3.06866652 6.36067448 3 10 C2.01 9.67 1.02 9.34 0 9 C-0.33 8.01 -0.66 7.02 -1 6 C-2.65 6 -4.3 6 -6 6 C-4.15811388 8.05270463 -4.15811388 8.05270463 -2 9 C-3.16703028 12.50109084 -3.8149643 13.23984869 -7 15 C-10.75 15.1875 -10.75 15.1875 -14 15 C-14.98248524 10.9472484 -15.08159574 7.16138263 -15 3 C-15.99 3 -16.98 3 -18 3 C-18 5.31 -18 7.62 -18 10 C-18.66 10 -19.32 10 -20 10 C-20 7.36 -20 4.72 -20 2 C-13.4 2 -6.8 2 0 2 C0 1.34 0 0.68 0 0 Z " fill="#B6B4B6" transform="translate(191,188)"/>
<path d="M0 0 C1.68112237 4.07697342 0.13305464 6.75047278 -1.4375 10.6875 C-4.58805521 19.14659759 -4.49098779 27.08584381 -4 36 C-3.67 34.35 -3.34 32.7 -3 31 C-2.67 31 -2.34 31 -2 31 C-1.34 34.96 -0.68 38.92 0 43 C-0.66 42.34 -1.32 41.68 -2 41 C-0.85195738 46.96982163 2.25526763 51.35136672 6 56 C6 56.66 6 57.32 6 58 C6.598125 58.2475 7.19625 58.495 7.8125 58.75 C10.28647521 60.16370012 11.43370255 61.65055383 13 64 C11.68 63.67 10.36 63.34 9 63 C9 62.34 9 61.68 9 61 C8.4225 60.773125 7.845 60.54625 7.25 60.3125 C0.34503306 56.28460262 -4.32741814 46.31315582 -7 39 C-10.06156691 26.14141896 -7.26461345 12.4822641 -1 1 C-0.67 0.67 -0.34 0.34 0 0 Z " fill="#1B1B1B" transform="translate(27,132)"/>
<path d="M0 0 C2.64 0 5.28 0 8 0 C8 0.66 8 1.32 8 2 C8.66 2 9.32 2 10 2 C10 5.3 10 8.6 10 12 C9.34 12 8.68 12 8 12 C8 12.66 8 13.32 8 14 C4.7 14 1.4 14 -2 14 C-2 12.68 -2 11.36 -2 10 C-2.66 10 -3.32 10 -4 10 C-4 7.36 -4 4.72 -4 2 C-2.68 2 -1.36 2 0 2 C0 1.34 0 0.68 0 0 Z " fill="#EEF9A2" transform="translate(208,206)"/>
<path d="M0 0 C7.34407043 5.0954646 15.81057452 11.82026039 19.21875 20.3671875 C19.21875 21.3571875 19.21875 22.3471875 19.21875 23.3671875 C19.87875 23.3671875 20.53875 23.3671875 21.21875 23.3671875 C21.71375 21.8821875 21.71375 21.8821875 22.21875 20.3671875 C22.30034574 24.52857013 22.20123524 28.3144359 21.21875 32.3671875 C18.49397952 31.00480226 18.46800904 29.70718687 17.46875 26.8671875 C14.00179575 17.79656067 14.00179575 17.79656067 7.21875 11.3671875 C7.21875 10.7071875 7.21875 10.0471875 7.21875 9.3671875 C6.55875 9.1609375 5.89875 8.9546875 5.21875 8.7421875 C2.50228663 7.49714179 0.81265379 6.29460784 -1.46875 4.4296875 C-5.34371925 1.39035093 -9.02039962 0.14076408 -13.77734375 -0.9921875 C-14.43863281 -1.20359375 -15.09992188 -1.415 -15.78125 -1.6328125 C-16.11125 -2.2928125 -16.44125 -2.9528125 -16.78125 -3.6328125 C-10.75643523 -5.59533758 -5.25442541 -3.08476099 0 0 Z " fill="#323232" transform="translate(92.78125,115.6328125)"/>
<path d="M0 0 C2 1.5625 2 1.5625 3 4 C3.4375 7.5625 3.4375 7.5625 3 11 C0.78774156 13.63769276 -0.59385968 13.94923246 -4 14.375 C-7.44058039 13.94492745 -8.80287161 13.70415801 -11 11 C-11.65964122 7.44238446 -11.63041883 4.26083766 -10 1 C-6.73582328 -0.63208836 -3.56124386 -0.65289471 0 0 Z " fill="#CB2C36" transform="translate(192,206)"/>
<path d="M0 0 C1.98 0 3.96 0 6 0 C6.33 1.32 6.66 2.64 7 4 C7.66 4 8.32 4 9 4 C9.33 6.31 9.66 8.62 10 11 C9.01 11.495 9.01 11.495 8 12 C8 11.01 8 10.02 8 9 C6.35 9.33 4.7 9.66 3 10 C3 10.66 3 11.32 3 12 C2.319375 12.391875 1.63875 12.78375 0.9375 13.1875 C-2.95679506 15.59036291 -5.86162112 18.69882337 -9 22 C-9 18.42424104 -7.91159393 16.94704065 -6 14 C-7.32 13.67 -8.64 13.34 -10 13 C-9.52949219 12.56429687 -9.05898437 12.12859375 -8.57421875 11.6796875 C-4.7848786 8.05510127 -2.04329447 4.92794549 0 0 Z " fill="#EBEBEB" transform="translate(184,20)"/>
<path d="M0 0 C1.32 0 2.64 0 4 0 C4 0.66 4 1.32 4 2 C4.66 2 5.32 2 6 2 C6 2.66 6 3.32 6 4 C5.34 4 4.68 4 4 4 C3.91363281 4.61746094 3.82726562 5.23492187 3.73828125 5.87109375 C2.17451835 15.29671051 -2.13883309 22.55473392 -8 30 C-8.66 30 -9.32 30 -10 30 C-10 30.66 -10 31.32 -10 32 C-12.30368736 33.06652192 -14.64018187 34.06421005 -17 35 C-17.66 34.67 -18.32 34.34 -19 34 C-18.34 33.34 -17.68 32.68 -17 32 C-16.01 32 -15.02 32 -14 32 C-14 31.34 -14 30.68 -14 30 C-13.34 29.67 -12.68 29.34 -12 29 C-12 28.01 -12 27.02 -12 26 C-10.609375 24.125 -10.609375 24.125 -8.75 22 C-3.58931322 15.59615183 -0.88419062 8.17876321 0 0 Z " fill="#373737" transform="translate(104,161)"/>
<path d="M0 0 C0.33 0 0.66 0 1 0 C0.72876813 8.13695602 -2.08916501 13.93179365 -6 21 C-5.34 20.34 -4.68 19.68 -4 19 C-3.34 19.33 -2.68 19.66 -2 20 C-5.71270283 24.98871914 -9.36865023 27.81042355 -14.8125 30.75 C-15.82280273 31.32814453 -15.82280273 31.32814453 -16.85351562 31.91796875 C-23.33078982 35.50061419 -29.50694512 37.31232637 -37 37.125 C-38.423125 37.09792969 -38.423125 37.09792969 -39.875 37.0703125 C-40.57625 37.04710937 -41.2775 37.02390625 -42 37 C-42 36.67 -42 36.34 -42 36 C-36.39 35.01 -30.78 34.02 -25 33 C-25.99 31.68 -26.98 30.36 -28 29 C-26.59248779 28.13083113 -25.1735479 27.28014851 -23.75 26.4375 C-22.96109375 25.96183594 -22.1721875 25.48617187 -21.359375 24.99609375 C-18.69155375 23.86977849 -17.65498232 23.9830687 -15 25 C-15.99 25.33 -16.98 25.66 -18 26 C-18 26.66 -18 27.32 -18 28 C-18.99 28.66 -19.98 29.32 -21 30 C-18.69 29.34 -16.38 28.68 -14 28 C-14 27.34 -14 26.68 -14 26 C-12.67811096 24.65531977 -11.34289091 23.32370675 -10 22 C-5.0884357 15.22204127 -2.33290072 7.98675422 0 0 Z " fill="#3D3D3D" transform="translate(108,165)"/>
<path d="M0 0 C3.3 0 6.6 0 10 0 C10 6.27 10 12.54 10 19 C7.36 18.67 4.72 18.34 2 18 C0.92042623 14.76127868 0.86673216 12.33971795 0.875 8.9375 C0.87242188 7.87402344 0.86984375 6.81054688 0.8671875 5.71484375 C1 3 1 3 2 1 C1.34 0.67 0.68 0.34 0 0 Z " fill="#232424" transform="translate(110,88)"/>
<path d="M0 0 C0.99 0.66 1.98 1.32 3 2 C2.67 2.33 2.34 2.66 2 3 C1.67539739 7.03083011 1.67539739 7.03083011 2 11 C5.46998729 13.31332486 6.92509248 13.33957563 11 13 C11.99 12.34 12.98 11.68 14 11 C14.36362818 8.79274927 14.36362818 8.79274927 14.1875 6.375 C14.16042969 5.55773437 14.13335937 4.74046875 14.10546875 3.8984375 C14.05326172 2.95871094 14.05326172 2.95871094 14 2 C14.99 2 15.98 2 17 2 C16.67 4.64 16.34 7.28 16 10 C16.66 10 17.32 10 18 10 C18 13.10359391 17.98334755 15.14829211 17 18 C13.69005287 19.65497356 10.00877 19.10084335 6.375 19.0625 C5.57320312 19.05798828 4.77140625 19.05347656 3.9453125 19.04882812 C1.96350994 19.03703168 -0.01825433 19.01909605 -2 19 C-2.33 17.02 -2.66 15.04 -3 13 C-2.34 13 -1.68 13 -1 13 C-1.33 12.01 -1.66 11.02 -2 10 C-1.34 10 -0.68 10 0 10 C-0.185625 8.72125 -0.37125 7.4425 -0.5625 6.125 C-1.125 2.25 -1.125 2.25 0 0 Z " fill="#F9F4F3" transform="translate(180,206)"/>
<path d="M0 0 C2.62506802 -0.02690844 5.24986173 -0.04679404 7.875 -0.0625 C8.62136719 -0.07087891 9.36773437 -0.07925781 10.13671875 -0.08789062 C15.7734375 -0.11328125 15.7734375 -0.11328125 18 1 C17.125 5.875 17.125 5.875 16 7 C14.27460337 7.18517885 12.54402373 7.32299978 10.8125 7.4375 C5.13828886 7.90851104 0.79092488 8.80605008 -4 12 C-4.125 6.25 -4.125 6.25 -3 4 C-2.34 4 -1.68 4 -1 4 C-0.67 2.68 -0.34 1.36 0 0 Z " fill="#9E9E9E" transform="translate(172,94)"/>
<path d="M0 0 C3.99419736 1.71302861 5.84731004 4.05585904 8.4375 7.44140625 C10.27247235 9.27179117 11.52334055 9.43505935 14 10 C17.28372653 14.74316055 18.20617889 20.2957175 18 26 C17.34 26.99 16.68 27.98 16 29 C16.66 29 17.32 29 18 29 C18 29.66 18 30.32 18 31 C20.31 31.33 22.62 31.66 25 32 C25 32.66 25 33.32 25 34 C20.38 34 15.76 34 11 34 C10.67 34.99 10.34 35.98 10 37 C10 34.03 10 31.06 10 28 C10.66 28 11.32 28 12 28 C12.33 27.34 12.66 26.68 13 26 C13 26.66 13 27.32 13 28 C13.66 28 14.32 28 15 28 C12.74021377 19.04507071 9.77769106 12.21205984 4 5 C3.195625 3.96875 2.39125 2.9375 1.5625 1.875 C1.046875 1.25625 0.53125 0.6375 0 0 Z " fill="#747474" transform="translate(93,127)"/>
<path d="M0 0 C0 0.66 0 1.32 0 2 C2.31 2.33 4.62 2.66 7 3 C6.67 3.99 6.34 4.98 6 6 C5.25234375 6.04898438 4.5046875 6.09796875 3.734375 6.1484375 C2.74953125 6.22320312 1.7646875 6.29796875 0.75 6.375 C-0.22453125 6.44460937 -1.1990625 6.51421875 -2.203125 6.5859375 C-4.95216507 6.83896553 -4.95216507 6.83896553 -7 8.03125 C-9.67177699 9.32539198 -11.80026162 9.19523187 -14.75 9.125 C-15.73484375 9.10695312 -16.7196875 9.08890625 -17.734375 9.0703125 C-18.85585937 9.03550781 -18.85585937 9.03550781 -20 9 C-15.56428048 -0.52255384 -9.71978193 -0.70775111 0 0 Z " fill="#EEEEEE" transform="translate(187,153)"/>
<path d="M0 0 C0.99 0 1.98 0 3 0 C3 3.3 3 6.6 3 10 C3.99 9.67 4.98 9.34 6 9 C6.33 6.03 6.66 3.06 7 0 C7.99 0 8.98 0 10 0 C10 2.64 10 5.28 10 8 C11.32 8 12.64 8 14 8 C14 8.66 14 9.32 14 10 C14.99 10 15.98 10 17 10 C17 9.01 17 8.02 17 7 C14.03 6.505 14.03 6.505 11 6 C11.875 1.125 11.875 1.125 13 0 C15.33944736 0.28730055 17.6739143 0.61936779 20 1 C20 1.99 20 2.98 20 4 C18.02 3.34 16.04 2.68 14 2 C14 2.99 14 3.98 14 5 C16.97 5.495 16.97 5.495 20 6 C20.042721 7.66611905 20.04063832 9.33382885 20 11 C19 12 19 12 15.5625 12.1875 C12 12 12 12 10 10 C9.34 10.66 8.68 11.32 8 12 C5 12.25 5 12.25 2 12 C0 10 0 10 -0.1953125 7.6171875 C-0.17210937 6.71226563 -0.14890625 5.80734375 -0.125 4.875 C-0.10695312 3.96492188 -0.08890625 3.05484375 -0.0703125 2.1171875 C-0.04710937 1.41851563 -0.02390625 0.71984375 0 0 Z " fill="#211F20" transform="translate(60,19)"/>
<path d="M0 0 C0.99 0.33 1.98 0.66 3 1 C3 1.66 3 2.32 3 3 C3.495 3.391875 3.99 3.78375 4.5 4.1875 C6.79457145 6.96010717 6.19631249 9.5318126 6 13 C1.93631321 13.77403558 -1.86425173 14.0984702 -6 14 C-6 11.36 -6 8.72 -6 6 C-6.66 5.67 -7.32 5.34 -8 5 C-6 3 -6 3 -3.375 2.875 C-2.59125 2.91625 -1.8075 2.9575 -1 3 C-0.67 2.01 -0.34 1.02 0 0 Z " fill="#949494" transform="translate(173,50)"/>
<path d="M0 0 C1.24153433 3.724603 0.47452539 4.47752269 -1 8 C-3.29873725 17.65469645 -2.97645027 30.15297729 2 39 C4.04105639 39.88693303 4.04105639 39.88693303 6 40 C6 44 6 44 5 46 C6.32 47.65 7.64 49.3 9 51 C6 51 6 51 3.5625 48.875 C1.03936188 46.04416211 -1.01056787 43.22425207 -3 40 C-3.6496875 38.948125 -3.6496875 38.948125 -4.3125 37.875 C-5.16694076 35.54470702 -4.82198771 34.30156558 -4 32 C-3.67 32 -3.34 32 -3 32 C-3.16008545 31.4220166 -3.3201709 30.8440332 -3.48510742 30.24853516 C-5.73948546 20.40366948 -4.96109502 8.81480276 0 0 Z " fill="#757575" transform="translate(29,140)"/>
<path d="M0 0 C2.05078125 0.03255208 4.1015625 0.06510417 6.15234375 0.09765625 C1.65234375 4.09765625 1.65234375 4.09765625 -2.84765625 4.09765625 C-3.19134724 7.70734623 -3.19134724 7.70734623 -1.53515625 10.78515625 C-0.02491477 11.95978851 1.56040945 13.03636672 3.15234375 14.09765625 C1.15234375 16.09765625 1.15234375 16.09765625 -2.28515625 16.41015625 C-5.84765625 16.09765625 -5.84765625 16.09765625 -7.72265625 14.97265625 C-9.29994528 12.3438412 -9.65733165 10.1428499 -9.84765625 7.09765625 C-9.18765625 6.10765625 -8.52765625 5.11765625 -7.84765625 4.09765625 C-10.81765625 3.60265625 -10.81765625 3.60265625 -13.84765625 3.09765625 C-13.84765625 2.76765625 -13.84765625 2.43765625 -13.84765625 2.09765625 C-13.06519531 2.03707031 -12.28273437 1.97648438 -11.4765625 1.9140625 C-10.46464844 1.83027344 -9.45273438 1.74648437 -8.41015625 1.66015625 C-7.40082031 1.57894531 -6.39148438 1.49773437 -5.3515625 1.4140625 C-2.80714549 1.09253711 -2.3783836 0.12570738 0 0 Z " fill="#7D7D7D" transform="translate(180.84765625,159.90234375)"/>
<path d="M0 0 C4.74820521 0.50969434 8.01771568 2.73419211 11.8125 5.4375 C12.7087207 6.04948242 12.7087207 6.04948242 13.62304688 6.67382812 C15.12385238 7.72524958 16.56765923 8.85706337 18 10 C18 10.66 18 11.32 18 12 C18.99 12.33 19.98 12.66 21 13 C24.11875512 17.12121212 24.11875512 17.12121212 23.6875 20.3125 C23.460625 20.869375 23.23375 21.42625 23 22 C19.9350908 20.66198588 18.14639067 19.29092019 16.0625 16.6875 C14.17171204 14.38400197 12.30510666 12.30510666 10.1875 10.1875 C8 8 8 8 7 6 C4.69034152 4.94647157 2.3570226 3.94280904 0 3 C0 2.01 0 1.02 0 0 Z " fill="#1F1F1F" transform="translate(82,115)"/>
<path d="M0 0 C0.66 0 1.32 0 2 0 C2 20.46 2 40.92 2 62 C2.66 62 3.32 62 4 62 C4 63.32 4 64.64 4 66 C3.34 66 2.68 66 2 66 C0.28440789 61.50334278 -0.29093835 57.65340451 -0.4140625 52.8515625 C-0.43342865 52.19417084 -0.4527948 51.53677917 -0.4727478 50.85946655 C-0.53202461 48.78143865 -0.57871794 46.70335376 -0.625 44.625 C-0.66322778 43.2070085 -0.70228223 41.78903903 -0.7421875 40.37109375 C-0.83768171 36.91426539 -0.92190189 33.45727017 -1 30 C-1.33 30 -1.66 30 -2 30 C-2.31578947 4.63157895 -2.31578947 4.63157895 0 0 Z " fill="#1C1C1C" transform="translate(15,109)"/>
<path d="M0 0 C0.33 0 0.66 0 1 0 C1 5.61 1 11.22 1 17 C2.44375 16.979375 3.8875 16.95875 5.375 16.9375 C9.75 16.875 9.75 16.875 12 18 C12 12.06 12 6.12 12 0 C12.33 0 12.66 0 13 0 C13 6.93 13 13.86 13 21 C12.01 21 11.02 21 10 21 C10 25.95 10 30.9 10 36 C9.67 36 9.34 36 9 36 C9 31.05 9 26.1 9 21 C7.35 21 5.7 21 4 21 C4 25.95 4 30.9 4 36 C3.67 36 3.34 36 3 36 C3 31.05 3 26.1 3 21 C2.01 21 1.02 21 0 21 C0 14.07 0 7.14 0 0 Z " fill="#9B6376" transform="translate(8,88)"/>
<path d="M0 0 C2.35038198 3.0270071 4.37281831 6.17149775 6.375 9.4375 C13.50196414 20.60110566 23.62532267 26.67825802 36 31 C36 31.33 36 31.66 36 32 C24.11652369 31.61666205 16.24909059 25.08541815 8 17 C7.4946875 16.50757813 6.989375 16.01515625 6.46875 15.5078125 C2.59879596 11.33109381 0.86578912 6.27424186 -1 1 C-0.67 0.67 -0.34 0.34 0 0 Z " fill="#171717" transform="translate(19,175)"/>
<path d="M0 0 C6.8359375 -0.1953125 6.8359375 -0.1953125 9 0 C9.66 0.66 10.32 1.32 11 2 C10.625 4.625 10.625 4.625 10 7 C9.34 6.67 8.68 6.34 8 6 C8 5.01 8 4.02 8 3 C6.35 3 4.7 3 3 3 C3 4.32 3 5.64 3 7 C4.32 7.33 5.64 7.66 7 8 C5.68 8 4.36 8 3 8 C3 9.65 3 11.3 3 13 C4.65 12.67 6.3 12.34 8 12 C8.33 11.01 8.66 10.02 9 9 C9.66 9 10.32 9 11 9 C11.042721 10.66611905 11.04063832 12.33382885 11 14 C10 15 10 15 7.71484375 15.09765625 C5.14322917 15.06510417 2.57161458 15.03255208 0 15 C0 10.05 0 5.1 0 0 Z " fill="#3D3C3D" transform="translate(14,16)"/>
<path d="M0 0 C-1.98 0.99 -1.98 0.99 -4 2 C-4 2.66 -4 3.32 -4 4 C-9.6751451 5.93000886 -14.71571625 6.30568097 -20.6875 6.25 C-21.94916992 6.26160156 -21.94916992 6.26160156 -23.23632812 6.2734375 C-24.04908203 6.27085937 -24.86183594 6.26828125 -25.69921875 6.265625 C-26.79496216 6.26224121 -26.79496216 6.26224121 -27.9128418 6.25878906 C-30.33079036 5.95898494 -31.93279322 5.2774083 -34 4 C-34.33 3.34 -34.66 2.68 -35 2 C-33.95658447 2.01571045 -33.95658447 2.01571045 -32.89208984 2.03173828 C-29.71976377 2.07348637 -26.54749569 2.09938585 -23.375 2.125 C-22.28058594 2.14175781 -21.18617187 2.15851563 -20.05859375 2.17578125 C-13.10054865 2.21795122 -6.71847787 -0.39520458 0 0 Z " fill="#3B3B3B" transform="translate(86,206)"/>
<path d="M0 0 C0.99 0.33 1.98 0.66 3 1 C3 6.61 3 12.22 3 18 C4.98 18 6.96 18 9 18 C8.67 19.32 8.34 20.64 8 22 C6.35 22 4.7 22 3 22 C3.33 27.28 3.66 32.56 4 38 C3.34 38 2.68 38 2 38 C2 33.05 2 28.1 2 23 C1.34 23 0.68 23 0 23 C0 15.41 0 7.82 0 0 Z " fill="#45393D" transform="translate(109,88)"/>
<path d="M0 0 C1.8125 1.25 1.8125 1.25 3 3 C3 4.32 3 5.64 3 7 C0.36 7 -2.28 7 -5 7 C-4.67 7.66 -4.34 8.32 -4 9 C-2.02 8.67 -0.04 8.34 2 8 C2 8.99 2 9.98 2 11 C-0.31 11.33 -2.62 11.66 -5 12 C-6.97538528 9.77769156 -7.93956032 8.41300448 -8.375 5.4375 C-8 3 -8 3 -6.8125 1.1875 C-4.35092224 -0.42525784 -2.88934264 -0.4334014 0 0 Z " fill="#807E7F" transform="translate(56,19)"/>
<path d="M0 0 C2.31 0.33 4.62 0.66 7 1 C7 4.63 7 8.26 7 12 C0.84765625 12.09765625 0.84765625 12.09765625 -1 12 C-2 11 -2 11 -2.125 8.5 C-2 6 -2 6 -1 5 C0.66617115 4.95936168 2.33388095 4.957279 4 5 C4 4.01 4 3.02 4 2 C3.01 2 2.02 2 1 2 C1 2.66 1 3.32 1 4 C0.01 4 -0.98 4 -2 4 C-1.34 2.68 -0.68 1.36 0 0 Z " fill="#141313" transform="translate(29,19)"/>
<path d="M0 0 C1.65 0 3.3 0 5 0 C5.125 2.875 5.125 2.875 5 6 C4.34 6.66 3.68 7.32 3 8 C2.34 7.67 1.68 7.34 1 7 C1 7.66 1 8.32 1 9 C0.34 9 -0.32 9 -1 9 C-0.938125 9.886875 -0.87625 10.77375 -0.8125 11.6875 C-1.01951982 15.34485017 -1.916074 17.04777151 -4 20 C-5.09658936 16.71023192 -4.79953138 15.28696233 -4 12 C-4.33 12 -4.66 12 -5 12 C-4.67 9.69 -4.34 7.38 -4 5 C-4.66 5 -5.32 5 -6 5 C-6 4.34 -6 3.68 -6 3 C-2.7 3 0.6 3 4 3 C4 2.34 4 1.68 4 1 C2.68 0.67 1.36 0.34 0 0 Z " fill="#2B2B2B" transform="translate(114,158)"/>
<path d="M0 0 C0.66 0.33 1.32 0.66 2 1 C1.46375 2.093125 0.9275 3.18625 0.375 4.3125 C-0.07875 5.529375 -0.5325 6.74625 -1 8 C0.66954819 11.22404978 0.66954819 11.22404978 3.625 11.6875 C4.800625 11.8421875 4.800625 11.8421875 6 12 C6 11.34 6 10.68 6 10 C6.99 10 7.98 10 9 10 C8.67 8.68 8.34 7.36 8 6 C7.34 6 6.68 6 6 6 C6 4.02 6 2.04 6 0 C9.875 1.75 9.875 1.75 11 4 C11.3125 7.4375 11.3125 7.4375 11 11 C8.78774156 13.63769276 7.40614032 13.94923246 4 14.375 C0.55941961 13.94492745 -0.80287161 13.70415801 -3 11 C-3.50958491 8.25167689 -3.49834501 5.74948973 -3 3 C-1.5 1 -1.5 1 0 0 Z " fill="#B23F43" transform="translate(184,206)"/>
<path d="M0 0 C0.33 0 0.66 0 1 0 C1.33 8.25 1.66 16.5 2 25 C2.33 25 2.66 25 3 25 C3.05534912 25.54938232 3.11069824 26.09876465 3.16772461 26.66479492 C3.42181253 29.17262423 3.67962299 31.68005761 3.9375 34.1875 C4.02451172 35.05181641 4.11152344 35.91613281 4.20117188 36.80664062 C4.6267231 40.9203025 5.07203814 44.96211191 6 49 C4.5 47.625 4.5 47.625 3 46 C3 45.34 3 44.68 3 44 C2.34 44 1.68 44 1 44 C0.08964496 41.26893489 -0.12215713 39.70106761 -0.11352539 36.89575195 C-0.11344986 36.07512772 -0.11337433 35.25450348 -0.11329651 34.40901184 C-0.10813522 33.52767075 -0.10297394 32.64632965 -0.09765625 31.73828125 C-0.0962413 30.83248825 -0.09482635 29.92669525 -0.09336853 28.99345398 C-0.08777001 26.09976909 -0.07521781 23.20616151 -0.0625 20.3125 C-0.05748481 18.35091258 -0.05292193 16.38932394 -0.04882812 14.42773438 C-0.03780107 9.61845979 -0.02053747 4.809243 0 0 Z " fill="#606060" transform="translate(16,127)"/>
<path d="M0 0 C1.32 0.66 2.64 1.32 4 2 C4 2.66 4 3.32 4 4 C6.43387753 5.21693876 8.41838846 5.31959896 11.125 5.5625 C12.03507813 5.64628906 12.94515625 5.73007813 13.8828125 5.81640625 C14.58148438 5.87699219 15.28015625 5.93757813 16 6 C16 5.34 16 4.68 16 4 C16.66 4 17.32 4 18 4 C18.33 3.34 18.66 2.68 19 2 C19.33 2.99 19.66 3.98 20 5 C20.66 5 21.32 5 22 5 C22 5.99 22 6.98 22 8 C21.44014404 7.98952637 20.88028809 7.97905273 20.3034668 7.96826172 C17.76485693 7.92666674 15.2263188 7.90066315 12.6875 7.875 C11.80642578 7.85824219 10.92535156 7.84148437 10.01757812 7.82421875 C8.74624023 7.81455078 8.74624023 7.81455078 7.44921875 7.8046875 C6.27879028 7.78897705 6.27879028 7.78897705 5.0847168 7.77294922 C2.6934152 7.87119141 2.6934152 7.87119141 0 10 C-1.125 2.25 -1.125 2.25 0 0 Z M20 1 C21.32 1.33 22.64 1.66 24 2 C22.68 2.33 21.36 2.66 20 3 C20 2.34 20 1.68 20 1 Z " fill="#E3E3E3" transform="translate(169,87)"/>
<path d="M0 0 C0.99 0 1.98 0 3 0 C3.12036664 5.77759884 2.8320582 11.27959989 2 17 C2.33 17 2.66 17 3 17 C3 22.94 3 28.88 3 35 C2.01 35 1.02 35 0 35 C0 23.45 0 11.9 0 0 Z " fill="#4C4C4C" transform="translate(12,109)"/>
<path d="M0 0 C5.9075506 4.88900739 7.23844217 11.68904482 8 19 C6.68 19 5.36 19 4 19 C-0.22323462 7.47835991 -0.22323462 7.47835991 -2 2 C-1.34 2 -0.68 2 0 2 C0 1.34 0 0.68 0 0 Z " fill="#3B3B3B" transform="translate(100,136)"/>
<path d="M0 0 C0.99 0.33 1.98 0.66 3 1 C2.67 2.65 2.34 4.3 2 6 C1.34 6 0.68 6 0 6 C-0.2475 6.680625 -0.495 7.36125 -0.75 8.0625 C-2.24197908 11.56865083 -4.06835511 14.71620368 -6 18 C-6.66 18 -7.32 18 -8 18 C-7.67 16.68 -7.34 15.36 -7 14 C-7.99 13.67 -8.98 13.34 -10 13 C-9.01 10.36 -8.02 7.72 -7 5 C-6.34 5 -5.68 5 -5 5 C-4.67 4.34 -4.34 3.68 -4 3 C-4.33 5.97 -4.66 8.94 -5 12 C-3.19669467 8.39338934 -2.53400897 5.91606575 -2 2 C-1.34 2 -0.68 2 0 2 C0 1.34 0 0.68 0 0 Z " fill="#414141" transform="translate(115,165)"/>
<path d="M0 0 C0 3.10551666 -0.5393715 4.35261084 -2 7 C-0.68 7.33 0.64 7.66 2 8 C-1.63 11.63 -5.26 15.26 -9 19 C-9 15.42424104 -7.91159393 13.94704065 -6 11 C-7.32 10.67 -8.64 10.34 -10 10 C-6.7 6.7 -3.4 3.4 0 0 Z " fill="#262626" transform="translate(184,23)"/>
<path d="M0 0 C3.99419736 1.71302861 5.84731004 4.05585904 8.4375 7.44140625 C10.27247235 9.27179117 11.52334055 9.43505935 14 10 C17.43052949 14.95520927 17.66523862 20.1589911 18 26 C17.67 25.01 17.34 24.02 17 23 C16.34 23 15.68 23 15 23 C14.67 21.02 14.34 19.04 14 17 C13.34 17 12.68 17 12 17 C10.82638506 15.33861059 9.73574737 13.61820517 8.6875 11.875 C6.0460103 7.59224996 3.34485883 3.75029626 0 0 Z " fill="#353535" transform="translate(93,127)"/>
<path d="M0 0 C2.97 0 5.94 0 9 0 C9 2.64 9 5.28 9 8 C6.03 8 3.06 8 0 8 C0 5.36 0 2.72 0 0 Z " fill="#BFBFBF" transform="translate(110,80)"/>
<path d="M0 0 C2.64 0 5.28 0 8 0 C8.66 1.98 9.32 3.96 10 6 C10.33 4.35 10.66 2.7 11 1 C11.66 1 12.32 1 13 1 C12.34 4.3 11.68 7.6 11 11 C10.34 11 9.68 11 9 11 C8.34 9.35 7.68 7.7 7 6 C5.68 7.65 4.36 9.3 3 11 C2.49632243 9.54293274 1.99717444 8.08429904 1.5 6.625 C1.2215625 5.81289063 0.943125 5.00078125 0.65625 4.1640625 C0 2 0 2 0 0 Z " fill="#737373" transform="translate(189,53)"/>
<path d="M0 0 C0.46148438 0.36351562 0.92296875 0.72703125 1.3984375 1.1015625 C7.85766823 6.08002097 14.65919352 10.43061703 22 14 C22 14.99 22 15.98 22 17 C14.29890699 14.98004118 7.74947592 11.61188162 2 6 C0.68359375 2.73828125 0.68359375 2.73828125 0 0 Z " fill="#383838" transform="translate(28,193)"/>
<path d="M0 0 C1.875 0.8125 1.875 0.8125 2.875 2.8125 C3.0625 5.8125 3.0625 5.8125 2.875 8.8125 C2.215 9.4725 1.555 10.1325 0.875 10.8125 C-1.75 10.4375 -1.75 10.4375 -4.125 9.8125 C-5.46054084 3.37762141 -5.46054084 3.37762141 -3.9375 0.8125 C-2.125 -0.1875 -2.125 -0.1875 0 0 Z " fill="#959595" transform="translate(185.125,53.1875)"/>
<path d="M0 0 C3.63 0 7.26 0 11 0 C10.67 0.66 10.34 1.32 10 2 C7.69 2 5.38 2 3 2 C3 7.28 3 12.56 3 18 C4.32 18.33 5.64 18.66 7 19 C4.69 19 2.38 19 0 19 C0 12.73 0 6.46 0 0 Z " fill="#414242" transform="translate(9,86)"/>
<path d="M0 0 C0.60585938 0.39832031 1.21171875 0.79664063 1.8359375 1.20703125 C12.1672144 7.7395771 21.95341572 9.5245538 34 11 C34 11.33 34 11.66 34 12 C21.62961032 12.65877815 11.9005944 10.80016523 1.328125 4.24609375 C0.88984375 3.83488281 0.4515625 3.42367187 0 3 C0 2.01 0 1.02 0 0 Z " fill="#383838" transform="translate(38,191)"/>
<path d="M0 0 C0.66 1.32 1.32 2.64 2 4 C1.01 4 0.02 4 -1 4 C-1 3.34 -1 2.68 -1 2 C-1.99 2 -2.98 2 -4 2 C-4 2.99 -4 3.98 -4 5 C-2.35 5.33 -0.7 5.66 1 6 C1.625 7.875 1.625 7.875 2 10 C0 12 0 12 -3.125 12.125 C-4.07375 12.08375 -5.0225 12.0425 -6 12 C-6.33 10.68 -6.66 9.36 -7 8 C-5.02 8.66 -3.04 9.32 -1 10 C-1 9.01 -1 8.02 -1 7 C-3.97 6.505 -3.97 6.505 -7 6 C-7.33 5.01 -7.66 4.02 -8 3 C-5.53387212 -0.1151089 -3.89156016 -0.31553191 0 0 Z " fill="#1C1A1B" transform="translate(45,19)"/>
<path d="M0 0 C0.99 0.99 1.98 1.98 3 3 C1.44233138 4.44273385 -0.12135957 5.87896708 -1.6875 7.3125 C-2.55761719 8.11300781 -3.42773438 8.91351563 -4.32421875 9.73828125 C-6.81146611 11.8406407 -9.07142181 13.57699269 -12 15 C-12.99 14.67 -13.98 14.34 -15 14 C-15 13.34 -15 12.68 -15 12 C-12.90241344 10.44305899 -10.80887109 8.98846646 -8.625 7.5625 C-3.75340447 4.40477739 -3.75340447 4.40477739 0 0 Z " fill="#383838" transform="translate(102,192)"/>
<path d="M0 0 C0.99 0 1.98 0 3 0 C3 6.93 3 13.86 3 21 C2.34 21 1.68 21 1 21 C0.67 22.32 0.34 23.64 0 25 C0 16.75 0 8.5 0 0 Z " fill="#313131" transform="translate(12,144)"/>
<path d="M0 0 C0.66 0.33 1.32 0.66 2 1 C2.4140625 3.06640625 2.4140625 3.06640625 2.625 5.5625 C2.69976562 6.38878906 2.77453125 7.21507812 2.8515625 8.06640625 C2.90054688 8.70449219 2.94953125 9.34257812 3 10 C3.33 10 3.66 10 4 10 C3.67 15.94 3.34 21.88 3 28 C2.34 28 1.68 28 1 28 C0.92652344 26.39318359 0.92652344 26.39318359 0.8515625 24.75390625 C0.77654706 23.35674361 0.7009987 21.9596095 0.625 20.5625 C0.5940625 19.85544922 0.563125 19.14839844 0.53125 18.41992188 C0.42719371 16.60760812 0.22080108 14.80182012 0 13 C-0.66 12.67 -1.32 12.34 -2 12 C-1.34 8.04 -0.68 4.08 0 0 Z " fill="#444444" transform="translate(114,126)"/>
<path d="M0 0 C4.95 0 9.9 0 15 0 C15 1.32 15 2.64 15 4 C9.72 4 4.44 4 -1 4 C-0.67 2.68 -0.34 1.36 0 0 Z " fill="#D0D0D0" transform="translate(173,95)"/>
<path d="M0 0 C0.99 0 1.98 0 3 0 C3 3.3 3 6.6 3 10 C3.99 9.67 4.98 9.34 6 9 C6.33 6.03 6.66 3.06 7 0 C7.66 0 8.32 0 9 0 C9.02687279 1.81242052 9.04633715 3.62495233 9.0625 5.4375 C9.07410156 6.44683594 9.08570312 7.45617187 9.09765625 8.49609375 C9 11 9 11 8 12 C5.0625 12.1875 5.0625 12.1875 2 12 C0 10 0 10 -0.1953125 7.6171875 C-0.17210937 6.71226563 -0.14890625 5.80734375 -0.125 4.875 C-0.10695312 3.96492188 -0.08890625 3.05484375 -0.0703125 2.1171875 C-0.04710937 1.41851563 -0.02390625 0.71984375 0 0 Z " fill="#201E1F" transform="translate(60,19)"/>
<path d="M0 0 C2.97 0 5.94 0 9 0 C9 2.31 9 4.62 9 7 C6.03 7 3.06 7 0 7 C0 4.69 0 2.38 0 0 Z " fill="#BDBDBD" transform="translate(10,79)"/>
<path d="M0 0 C0.99 0.33 1.98 0.66 3 1 C2.01 2.0209375 2.01 2.0209375 1 3.0625 C-1.43885872 6.64457375 -1.33292585 8.75519536 -1 13 C-2.65 13.33 -4.3 13.66 -6 14 C-6 11.36 -6 8.72 -6 6 C-6.66 5.67 -7.32 5.34 -8 5 C-6 3 -6 3 -3.375 2.875 C-2.59125 2.91625 -1.8075 2.9575 -1 3 C-0.67 2.01 -0.34 1.02 0 0 Z " fill="#F5F5F5" transform="translate(173,50)"/>
<path d="M0 0 C1.07121094 0.24363281 1.07121094 0.24363281 2.1640625 0.4921875 C8.03248097 1.54300623 14.1949821 1.40827359 20.0625 0.375 C21.031875 0.25125 22.00125 0.1275 23 0 C23.66 0.66 24.32 1.32 25 2 C20.18536681 4.51155092 15.59849309 4.2631849 10.3125 4.1875 C9.44560547 4.18685547 8.57871094 4.18621094 7.68554688 4.18554688 C1.28138566 4.14069283 1.28138566 4.14069283 -1 3 C-0.67 2.01 -0.34 1.02 0 0 Z " fill="#2D2D2D" transform="translate(56,195)"/>
<path d="M0 0 C0.99 0.495 0.99 0.495 2 1 C2.33 1.99 2.66 2.98 3 4 C3.66 2.68 4.32 1.36 5 0 C5.99 0 6.98 0 8 0 C8.33 3.63 8.66 7.26 9 11 C5.37673261 12.2077558 4.35853631 11.54311128 1 10 C0.67 6.7 0.34 3.4 0 0 Z " fill="#A4A4A4" transform="translate(163,119)"/>
<path d="M0 0 C0.78375 0.04125 1.5675 0.0825 2.375 0.125 C3.035 1.445 3.695 2.765 4.375 4.125 C3.125 5.6875 3.125 5.6875 1.375 7.125 C-0.8125 6.8125 -0.8125 6.8125 -2.625 6.125 C-2.295 6.785 -1.965 7.445 -1.625 8.125 C0.39963255 8.77713292 0.39963255 8.77713292 2.375 9.125 C2.375 8.465 2.375 7.805 2.375 7.125 C3.035 7.125 3.695 7.125 4.375 7.125 C4.045 8.115 3.715 9.105 3.375 10.125 C0.5 10.25 0.5 10.25 -2.625 10.125 C-4.625 8.125 -4.625 8.125 -4.875 5.125 C-4.55416156 1.2749387 -3.94115238 0.18767392 0 0 Z " fill="#959595" transform="translate(197.625,115.875)"/>
<path d="M0 0 C0.74950928 -0.00515625 1.49901855 -0.0103125 2.27124023 -0.015625 C6.07032617 0.03250277 7.8949438 0.1591292 11.125 2.3125 C5.515 2.3125 -0.095 2.3125 -5.875 2.3125 C-5.545 2.9725 -5.215 3.6325 -4.875 4.3125 C-9.63552962 6.28637813 -12.83988101 6.3195238 -17.875 5.3125 C-17.875 4.6525 -17.875 3.9925 -17.875 3.3125 C-11.8137625 0.66759637 -6.53517886 0.011059 0 0 Z " fill="#1F1F1F" transform="translate(66.875,118.6875)"/>
<path d="M0 0 C3.0625 0.1875 3.0625 0.1875 5.0625 2.1875 C4.0725 2.5175 3.0825 2.8475 2.0625 3.1875 C3.3825 3.8475 4.7025 4.5075 6.0625 5.1875 C-2.1875 4.8575 -10.4375 4.5275 -18.9375 4.1875 C-15.15454222 2.29602111 -13.32658136 1.88080684 -9.25 1.625 C-5.67190944 1.39277955 -3.33839255 0.21308889 0 0 Z " fill="#191919" transform="translate(74.9375,109.8125)"/>
<path d="M0 0 C1.65 0.33 3.3 0.66 5 1 C4.67 1.7425 4.34 2.485 4 3.25 C2.77217129 6.13883312 2.77217129 6.13883312 3 10 C2.01 10.495 2.01 10.495 1 11 C0.67 11.66 0.34 12.32 0 13 C-0.99 12.67 -1.98 12.34 -3 12 C-3.33 9.36 -3.66 6.72 -4 4 C-3.01 3.67 -2.02 3.34 -1 3 C-0.67 2.01 -0.34 1.02 0 0 Z " fill="#EAEAEA" transform="translate(173,33)"/>
<path d="M0 0 C0.66 0 1.32 0 2 0 C3.1577506 3.47325181 3.06866652 6.36067448 3 10 C2.01 9.67 1.02 9.34 0 9 C-0.33 8.01 -0.66 7.02 -1 6 C-2.65 6 -4.3 6 -6 6 C-4.15811388 8.05270463 -4.15811388 8.05270463 -2 9 C-3.875 9.625 -3.875 9.625 -6 10 C-6.66 9.34 -7.32 8.68 -8 8 C-7.44444444 3.44444444 -7.44444444 3.44444444 -6 2 C-4.00041636 1.95919217 -1.99954746 1.95745644 0 2 C0 1.34 0 0.68 0 0 Z " fill="#464647" transform="translate(191,188)"/>
<path d="M0 0 C1.32 0 2.64 0 4 0 C4.1953125 6.0546875 4.1953125 6.0546875 4 8 C2 10 2 10 -0.625 10.125 C-1.40875 10.08375 -2.1925 10.0425 -3 10 C-3.33 7.36 -3.66 4.72 -4 2 C-3.01 3.485 -3.01 3.485 -2 5 C-1.34 3.35 -0.68 1.7 0 0 Z " fill="#EBFE78" transform="translate(211,208)"/>
<path d="M0 0 C0.33 0 0.66 0 1 0 C1.33 6.27 1.66 12.54 2 19 C1.34 19 0.68 19 0 19 C-0.33 19.66 -0.66 20.32 -1 21 C-2.69832609 15.16200408 -3.25287193 10.06892629 -3 4 C-2.67 5.32 -2.34 6.64 -2 8 C-1.34 8 -0.68 8 0 8 C0 5.36 0 2.72 0 0 Z " fill="#1D1D1D" transform="translate(29,152)"/>
<path d="M0 0 C0.33 0 0.66 0 1 0 C1 6.93 1 13.86 1 21 C0.01 21 -0.98 21 -2 21 C-2 25.95 -2 30.9 -2 36 C-2.33 36 -2.66 36 -3 36 C-3.19430855 33.3753399 -3.38073238 30.75053235 -3.5625 28.125 C-3.61857422 27.37863281 -3.67464844 26.63226563 -3.73242188 25.86328125 C-4.11328125 20.2265625 -4.11328125 20.2265625 -3 18 C-5.64 18 -8.28 18 -11 18 C-11 17.67 -11 17.34 -11 17 C-9.54176788 16.9729957 -8.08339325 16.95360213 -6.625 16.9375 C-5.81289062 16.92589844 -5.00078125 16.91429688 -4.1640625 16.90234375 C-2 17 -2 17 0 18 C0 12.06 0 6.12 0 0 Z " fill="#7C636B" transform="translate(20,88)"/>
<path d="M0 0 C1.65 0 3.3 0 5 0 C7.21538462 5.41538462 7.21538462 5.41538462 6.125 8.375 C5.75375 8.91125 5.3825 9.4475 5 10 C3.35 10 1.7 10 0 10 C0 6.7 0 3.4 0 0 Z " fill="#858384" transform="translate(17,19)"/>
<path d="M0 0 C4.875 1.875 4.875 1.875 6 3 C6.04092937 5.33297433 6.04241723 7.66705225 6 10 C2.76939581 9.44299928 0.9341777 8.70784878 -1 6 C-1.25 3.375 -1.25 3.375 -1 1 C-0.67 0.67 -0.34 0.34 0 0 Z " fill="#E6E6E6" transform="translate(178,163)"/>
<path d="M0 0 C2.05078125 0.03255208 4.1015625 0.06510417 6.15234375 0.09765625 C1.65234375 4.09765625 1.65234375 4.09765625 -2.84765625 4.09765625 C-3.17765625 5.74765625 -3.50765625 7.39765625 -3.84765625 9.09765625 C-5.49765625 8.76765625 -7.14765625 8.43765625 -8.84765625 8.09765625 C-8.51765625 6.77765625 -8.18765625 5.45765625 -7.84765625 4.09765625 C-10.81765625 3.60265625 -10.81765625 3.60265625 -13.84765625 3.09765625 C-13.84765625 2.76765625 -13.84765625 2.43765625 -13.84765625 2.09765625 C-13.06519531 2.03707031 -12.28273437 1.97648438 -11.4765625 1.9140625 C-10.46464844 1.83027344 -9.45273438 1.74648437 -8.41015625 1.66015625 C-7.40082031 1.57894531 -6.39148438 1.49773437 -5.3515625 1.4140625 C-2.80714549 1.09253711 -2.3783836 0.12570738 0 0 Z " fill="#656565" transform="translate(180.84765625,159.90234375)"/>
<path d="M0 0 C2.97 0 5.94 0 9 0 C9.33 1.65 9.66 3.3 10 5 C9.01 5 8.02 5 7 5 C7 4.01 7 3.02 7 2 C5.35 2 3.7 2 2 2 C2 3.32 2 4.64 2 6 C3.32 6.33 4.64 6.66 6 7 C4.68 7 3.36 7 2 7 C2 8.32 2 9.64 2 11 C1.34 11 0.68 11 0 11 C0 7.37 0 3.74 0 0 Z " fill="#121111" transform="translate(15,17)"/>
<path d="M0 0 C3.3 0 6.6 0 10 0 C10 6.27 10 12.54 10 19 C8.35 18.67 6.7 18.34 5 18 C5.99 17.67 6.98 17.34 8 17 C8 11.72 8 6.44 8 1 C5.36 1 2.72 1 0 1 C0 0.67 0 0.34 0 0 Z " fill="#1B191A" transform="translate(110,88)"/>
<path d="M0 0 C1.65 0 3.3 0 5 0 C5 0.66 5 1.32 5 2 C4.01 2.495 4.01 2.495 3 3 C2.60697555 5.75069134 2.60697555 5.75069134 2.5 8.9375 C2.22152691 14.77847309 2.22152691 14.77847309 0 17 C-1.07957377 13.76127868 -1.13326784 11.33971795 -1.125 7.9375 C-1.12757812 6.87402344 -1.13015625 5.81054688 -1.1328125 4.71484375 C-1 2 -1 2 0 0 Z " fill="#333333" transform="translate(112,89)"/>
<path d="M0 0 C6.6 0 13.2 0 20 0 C18.02 0.99 18.02 0.99 16 2 C15.67 2.33 15.34 2.66 15 3 C12.30345146 3.07319621 9.63308542 3.09242537 6.9375 3.0625 C6.17888672 3.05798828 5.42027344 3.05347656 4.63867188 3.04882812 C2.75908129 3.0370068 0.87953101 3.01907078 -1 3 C-0.67 2.01 -0.34 1.02 0 0 Z " fill="#464646" transform="translate(56,109)"/>
<path d="M0 0 C-0.99 0.495 -0.99 0.495 -2 1 C-2.34153937 2.66500443 -2.67449498 4.33178677 -3 6 C-5.1385485 8.1385485 -6.13275314 8.42655063 -9 9 C-9 6.36 -9 3.72 -9 1 C-5.92677456 0.08941469 -3.19902639 -0.08886184 0 0 Z " fill="#EBFB96" transform="translate(213,207)"/>
<path d="M0 0 C1.65 0 3.3 0 5 0 C5.66 0.66 6.32 1.32 7 2 C6.625 4.625 6.625 4.625 6 7 C4.35 7 2.7 7 1 7 C0.67 7.99 0.34 8.98 0 10 C0 6.7 0 3.4 0 0 Z " fill="#2F2F2F" transform="translate(171,119)"/>
<path d="M0 0 C0.33 0.99 0.66 1.98 1 3 C-2.10028822 6.10028822 -5.90137426 7.52869845 -10 9 C-10.99 9 -11.98 9 -13 9 C-11.56356879 5.34646845 -9.94164969 4.06021834 -6.5 2.25 C-5.7059375 1.82203125 -4.911875 1.3940625 -4.09375 0.953125 C-2 0 -2 0 0 0 Z " fill="#3E3E3E" transform="translate(48,112)"/>
<path d="M0 0 C1.32 0.66 2.64 1.32 4 2 C3.01 2.33 2.02 2.66 1 3 C1 5.97 1 8.94 1 12 C-0.32 12.33 -1.64 12.66 -3 13 C-3.08121924 11.39667209 -3.13929134 9.79215974 -3.1875 8.1875 C-3.22230469 7.29417969 -3.25710937 6.40085937 -3.29296875 5.48046875 C-2.95081002 2.58352485 -2.24606427 1.77444972 0 0 Z " fill="#E0DEDF" transform="translate(66,16)"/>
<path d="M0 0 C0.89203125 0.29648438 1.7840625 0.59296875 2.703125 0.8984375 C3.37859375 1.13820313 4.0540625 1.37796875 4.75 1.625 C4.75 2.285 4.75 2.945 4.75 3.625 C6.04233607 4.99810707 7.37437146 6.33534824 8.75 7.625 C5.91264605 6.50725451 3.10807406 5.34488686 0.3125 4.125 C-2.84400592 2.79594488 -5.98732077 1.65950805 -9.25 0.625 C-5.71808845 -1.66909208 -3.91045087 -1.33778582 0 0 Z " fill="#3B3B3B" transform="translate(85.25,112.375)"/>
<path d="M0 0 C0.33 0 0.66 0 1 0 C0.72138983 8.35830505 -1.93715642 16.56270079 -7.6953125 22.8515625 C-8.12585938 23.23054688 -8.55640625 23.60953125 -9 24 C-9.66 23.67 -10.32 23.34 -11 23 C-10.60167969 22.43152344 -10.20335938 21.86304688 -9.79296875 21.27734375 C-5.09383708 14.42873093 -2.12954729 8.02675517 0 0 Z " fill="#B9B9B9" transform="translate(108,165)"/>
<path d="M0 0 C2.64 0 5.28 0 8 0 C7.67 0.99 7.34 1.98 7 3 C5.35 3 3.7 3 2 3 C2.33 8.28 2.66 13.56 3 19 C2.34 19 1.68 19 1 19 C1 14.05 1 9.1 1 4 C0.34 3.67 -0.32 3.34 -1 3 C-0.67 2.01 -0.34 1.02 0 0 Z " fill="#A7969C" transform="translate(110,107)"/>
<path d="M0 0 C4.47400242 -0.36275695 4.47400242 -0.36275695 6.8125 1.25 C8 3 8 3 8 7 C5.36 7 2.72 7 0 7 C0 6.34 0 5.68 0 5 C1.65 5 3.3 5 5 5 C4.67 4.34 4.34 3.68 4 3 C2.02 3.33 0.04 3.66 -2 4 C-1.34 2.68 -0.68 1.36 0 0 Z " fill="#131112" transform="translate(51,19)"/>
<path d="M0 0 C0.66 0.33 1.32 0.66 2 1 C2 6.94 2 12.88 2 19 C0.68 18.67 -0.64 18.34 -2 18 C-2 17.34 -2 16.68 -2 16 C-1.34 16 -0.68 16 0 16 C0 10.72 0 5.44 0 0 Z " fill="#21171A" transform="translate(18,87)"/>
<path d="M0 0 C6.26638478 1.0845666 6.26638478 1.0845666 8.35546875 3.69140625 C9.32087881 5.41659751 10.16943988 7.20599015 11 9 C6.50202887 7.31326082 2.27113698 5.18326108 -2 3 C-1.34 2.01 -0.68 1.02 0 0 Z " fill="#616161" transform="translate(82,118)"/>
<path d="M0 0 C0.66 0.33 1.32 0.66 2 1 C1.46375 2.093125 0.9275 3.18625 0.375 4.3125 C-0.07875 5.529375 -0.5325 6.74625 -1 8 C1.40436026 11.60654039 2.94679607 11.85452932 7 13 C7 13.33 7 13.66 7 14 C3.85288821 14.2145758 1.55382336 14.23318878 -1.375 13 C-3.57756285 10.28915342 -3.49680935 8.29057136 -3.33984375 4.875 C-3 3 -3 3 -1.5 1 C-1.005 0.67 -0.51 0.34 0 0 Z " fill="#AD3841" transform="translate(184,206)"/>
<path d="M0 0 C3.625 -0.1875 3.625 -0.1875 7 0 C5.35 2.64 3.7 5.28 2 8 C1.01 7.67 0.02 7.34 -1 7 C-1.8125 5.125 -1.8125 5.125 -2 3 C-1.34 2.01 -0.68 1.02 0 0 Z " fill="#E5E5E5" transform="translate(167,163)"/>
<path d="M0 0 C1.32 0.66 2.64 1.32 4 2 C4 2.66 4 3.32 4 4 C4.66 4.33 5.32 4.66 6 5 C3.03 7.475 3.03 7.475 0 10 C-1.125 2.25 -1.125 2.25 0 0 Z " fill="#EAEAEA" transform="translate(169,87)"/>
<path d="M0 0 C0.9214475 2.48790824 1.01296223 3.93356855 0.5 6.5625 C-1.65635804 10.06658181 -4.16660347 10.76783683 -8 12 C-8.66 11.67 -9.32 11.34 -10 11 C-9.34 10.34 -8.68 9.68 -8 9 C-7.01 9 -6.02 9 -5 9 C-5 8.34 -5 7.68 -5 7 C-4.34 6.67 -3.68 6.34 -3 6 C-3 5.01 -3 4.02 -3 3 C-1.5 1.3125 -1.5 1.3125 0 0 Z " fill="#1F1F1F" transform="translate(95,184)"/>
<path d="M0 0 C1.31622874 3.94868623 0.30180315 5.35071376 -1.3125 9.125 C-1.98732422 10.73761719 -1.98732422 10.73761719 -2.67578125 12.3828125 C-4 15 -4 15 -6 16 C-6.71484375 14.390625 -6.71484375 14.390625 -7 12 C-5.56640625 8.984375 -5.56640625 8.984375 -3.5625 5.75 C-2.90378906 4.67234375 -2.24507813 3.5946875 -1.56640625 2.484375 C-1.04949219 1.66453125 -0.53257813 0.8446875 0 0 Z " fill="#1D1D1D" transform="translate(115,171)"/>
<path d="M0 0 C1.07765625 0.01804687 2.1553125 0.03609375 3.265625 0.0546875 C4.49539062 0.08949219 4.49539062 0.08949219 5.75 0.125 C5.42 1.115 5.09 2.105 4.75 3.125 C-5.80808656 3.30951025 -5.80808656 3.30951025 -10.25 2.125 C-6.7733662 -0.01836161 -4.03770805 -0.08777626 0 0 Z " fill="#3C3C3C" transform="translate(67.25,119.875)"/>
<path d="M0 0 C5.44208234 0.34013015 8.93668198 3.70296528 13 7 C12.01 7.495 12.01 7.495 11 8 C8.3984375 7.00390625 8.3984375 7.00390625 5.375 5.5625 C4.37210937 5.08941406 3.36921875 4.61632812 2.3359375 4.12890625 C1.56507812 3.75636719 0.79421875 3.38382812 0 3 C0 2.01 0 1.02 0 0 Z " fill="#1B1B1B" transform="translate(82,115)"/>
<path d="M0 0 C3.94949704 0.62816498 7.19892028 1.8645529 10.8125 3.5625 C12.27623047 4.24505859 12.27623047 4.24505859 13.76953125 4.94140625 C14.87361328 5.46541016 14.87361328 5.46541016 16 6 C16 6.66 16 7.32 16 8 C9.87903309 6.94513949 5.24493326 5.34782974 0 2 C0 1.34 0 0.68 0 0 Z " fill="#1F1F1F" transform="translate(40,196)"/>
<path d="M0 0 C2.18975773 3.28463659 2.99806563 6.20696275 4 10 C2.35 9.67 0.7 9.34 -1 9 C-1.66 7.02 -2.32 5.04 -3 3 C-2.01 2.01 -1.02 1.02 0 0 Z " fill="#2B2B2B" transform="translate(31,170)"/>
<path d="M0 0 C0.33 0 0.66 0 1 0 C1 2.64 1 5.28 1 8 C2.32 8 3.64 8 5 8 C5 8.66 5 9.32 5 10 C5.99 10 6.98 10 8 10 C8.33 9.34 8.66 8.68 9 8 C9.99 9.485 9.99 9.485 11 11 C10 12 10 12 6.625 12.1875 C3 12 3 12 0 10 C-0.29296875 7.6171875 -0.29296875 7.6171875 -0.1875 4.875 C-0.16042969 3.96492188 -0.13335937 3.05484375 -0.10546875 2.1171875 C-0.07066406 1.41851563 -0.03585938 0.71984375 0 0 Z " fill="#434142" transform="translate(69,19)"/>
<path d="M0 0 C4.03167286 1.72412792 5.91302696 4.13098994 8.53515625 7.5390625 C10.00921817 9.35308104 10.00921817 9.35308104 13 9 C13 11.64 13 14.28 13 17 C9.54873643 12.752291 6.27048158 8.38680595 3 4 C2.00037113 2.6663884 1.00047494 1.332977 0 0 Z " fill="#9D9D9D" transform="translate(93,127)"/>
<path d="M0 0 C0 0.66 0 1.32 0 2 C1.32 2.66 2.64 3.32 4 4 C1.03 4.66 -1.94 5.32 -5 6 C-4.34 5.34 -3.68 4.68 -3 4 C-5.97 3.505 -5.97 3.505 -9 3 C-6.01800145 0.01800145 -4.21244839 0 0 0 Z " fill="#212121" transform="translate(54,114)"/>
<path d="M0 0 C1.98 0.66 3.96 1.32 6 2 C3.702779 3.74271938 1.40133271 5.39911152 -1 7 C-3.1875 6.625 -3.1875 6.625 -5 6 C-3.35 4.02 -1.7 2.04 0 0 Z " fill="#323232" transform="translate(47,123)"/>
<path d="M0 0 C0.99 0 1.98 0 3 0 C3.10251672 5.12583611 3.03590199 9.94997778 2 15 C1.34 15 0.68 15 0 15 C0 10.05 0 5.1 0 0 Z " fill="#3C393A" transform="translate(12,109)"/>
<path d="M0 0 C1.44977894 2.34112451 2.04314411 3.5796929 1.7578125 6.359375 C1.54898437 7.14828125 1.34015625 7.9371875 1.125 8.75 C0.92132812 9.54921875 0.71765625 10.3484375 0.5078125 11.171875 C0.34023438 11.77515625 0.17265625 12.3784375 0 13 C-0.66 13 -1.32 13 -2 13 C-2.92311745 8.69211856 -3.09771253 5.29105809 -2 1 C-1.34 0.67 -0.68 0.34 0 0 Z " fill="#323232" transform="translate(29,147)"/>
<path d="M0 0 C0.66 0.33 1.32 0.66 2 1 C2 7.6 2 14.2 2 21 C1.67 21 1.34 21 1 21 C0.67 15.72 0.34 10.44 0 5 C-0.66 6.32 -1.32 7.64 -2 9 C-2.25 3.375 -2.25 3.375 0 0 Z " fill="#181818" transform="translate(115,122)"/>
<path d="M0 0 C0.99 0.495 0.99 0.495 2 1 C2 1.99 2 2.98 2 4 C4.97 4.495 4.97 4.495 8 5 C8 5.99 8 6.98 8 8 C5.83125748 7.49396008 4.00032373 7.00016187 2 6 C1.34 7.32 0.68 8.64 0 10 C0 6.7 0 3.4 0 0 Z " fill="#BCBABB" transform="translate(36,21)"/>
<path d="M0 0 C0.99 0 1.98 0 3 0 C3 0.66 3 1.32 3 2 C3.99 2 4.98 2 6 2 C6 1.34 6 0.68 6 0 C6.66 0.33 7.32 0.66 8 1 C8 3.31 8 5.62 8 8 C6.02 8.99 6.02 8.99 4 10 C4.33 8.35 4.66 6.7 5 5 C2.525 4.01 2.525 4.01 0 3 C0 2.01 0 1.02 0 0 Z " fill="#D9D7D8" transform="translate(41,21)"/>
<path d="M0 0 C0.99 0 1.98 0 3 0 C3 0.99 3 1.98 3 3 C1.35 3.33 -0.3 3.66 -2 4 C-2.33 5.32 -2.66 6.64 -3 8 C-3.66 8 -4.32 8 -5 8 C-5.33 5.69 -5.66 3.38 -6 1 C-3.03 1.495 -3.03 1.495 0 2 C0 1.34 0 0.68 0 0 Z " fill="#D2D0D1" transform="translate(30,21)"/>
<path d="M0 0 C0.66 1.32 1.32 2.64 2 4 C1.01 4 0.02 4 -1 4 C-1 3.34 -1 2.68 -1 2 C-1.99 2 -2.98 2 -4 2 C-4 2.99 -4 3.98 -4 5 C-4.99 5.33 -5.98 5.66 -7 6 C-7.33 5.01 -7.66 4.02 -8 3 C-5.53387212 -0.1151089 -3.89156016 -0.31553191 0 0 Z " fill="#282627" transform="translate(45,19)"/>
<path d="M0 0 C2.475 0.99 2.475 0.99 5 2 C5 2.99 5 3.98 5 5 C0.545 5.495 0.545 5.495 -4 6 C-4 4 -4 4 -2 1.875 C-1.34 1.25625 -0.68 0.6375 0 0 Z " fill="#F6EBE4" transform="translate(187,201)"/>
<path d="M0 0 C0.33 0 0.66 0 1 0 C0.67 3.63 0.34 7.26 0 11 C-1.65 11 -3.3 11 -5 11 C-4.01 8.03 -3.02 5.06 -2 2 C-1.34 2 -0.68 2 0 2 C0 1.34 0 0.68 0 0 Z " fill="#343434" transform="translate(110,168)"/>
<path d="M0 0 C3.2542015 2.83430453 4.5206753 4.68607774 5 9 C2.0625 7.75 2.0625 7.75 -1 6 C-1.875 3.8125 -1.875 3.8125 -2 2 C-1.34 2 -0.68 2 0 2 C0 1.34 0 0.68 0 0 Z " fill="#272727" transform="translate(100,136)"/>
<path d="M0 0 C0.66 0 1.32 0 2 0 C2 3.96 2 7.92 2 12 C-1 9 -1 9 -1.25 5.4375 C-1 2 -1 2 0 0 Z " fill="#201E1E" transform="translate(15,109)"/>
<path d="M0 0 C0.33 0 0.66 0 1 0 C1 5.94 1 11.88 1 18 C1.99 18 2.98 18 4 18 C3.67 18.99 3.34 19.98 3 21 C2.01 21 1.02 21 0 21 C0 14.07 0 7.14 0 0 Z " fill="#B89AA4" transform="translate(8,88)"/>
<path d="M0 0 C1.98 0 3.96 0 6 0 C5.34 1.32 4.68 2.64 4 4 C3.34 3.67 2.68 3.34 2 3 C2 3.66 2 4.32 2 5 C1.34 5 0.68 5 0 5 C-0.33 6.32 -0.66 7.64 -1 9 C-0.67 6.03 -0.34 3.06 0 0 Z " fill="#151515" transform="translate(113,162)"/>
<path d="M0 0 C1.32 0.66 2.64 1.32 4 2 C3.34 3.32 2.68 4.64 2 6 C-0.31 5.67 -2.62 5.34 -5 5 C-3.35 3.35 -1.7 1.7 0 0 Z " fill="#434343" transform="translate(40,120)"/>
<path d="M0 0 C0.33 0 0.66 0 1 0 C1 2.97 1 5.94 1 9 C-0.98 9.33 -2.96 9.66 -5 10 C-5 9.01 -5 8.02 -5 7 C-3.68 7 -2.36 7 -1 7 C-0.67 4.69 -0.34 2.38 0 0 Z " fill="#242E2A" transform="translate(17,94)"/>
<path d="M0 0 C0.33 0 0.66 0 1 0 C1.33 5.94 1.66 11.88 2 18 C1.01 17.67 0.02 17.34 -1 17 C-0.67 11.39 -0.34 5.78 0 0 Z " fill="#242424" transform="translate(21,154)"/>
<path d="M0 0 C0.33 0.66 0.66 1.32 1 2 C2.32 2 3.64 2 5 2 C5.33 1.34 5.66 0.68 6 0 C6 1.98 6 3.96 6 6 C4.33388095 6.042721 2.66617115 6.04063832 1 6 C0 5 0 5 -0.0625 2.4375 C-0.041875 1.633125 -0.02125 0.82875 0 0 Z " fill="#636363" transform="translate(179,120)"/>
<path d="M0 0 C0.33 0 0.66 0 1 0 C1 1.65 1 3.3 1 5 C2.32 5.66 3.64 6.32 5 7 C4.01 8.485 4.01 8.485 3 10 C1.68 9.34 0.36 8.68 -1 8 C-0.67 5.36 -0.34 2.72 0 0 Z " fill="#9D9D9D" transform="translate(175,164)"/>
<path d="M0 0 C2.64752004 2.57784846 4.94432065 4.91648098 7 8 C5.68 8 4.36 8 3 8 C1.25 6.25 1.25 6.25 0 4 C0 2.68 0 1.36 0 0 Z " fill="#303030" transform="translate(99,128)"/>
<path d="M0 0 C0.66 0 1.32 0 2 0 C2 2.31 2 4.62 2 7 C1.01 7.495 1.01 7.495 0 8 C0 7.34 0 6.68 0 6 C-0.99 6.66 -1.98 7.32 -3 8 C-5.1875 7.625 -5.1875 7.625 -7 7 C-7 6.34 -7 5.68 -7 5 C-4.36 5 -1.72 5 1 5 C0.67 3.35 0.34 1.7 0 0 Z " fill="#CFCDCE" transform="translate(58,21)"/>
<path d="M0 0 C0 3.63 0 7.26 0 11 C-0.66 11 -1.32 11 -2 11 C-2.22786458 8.98177083 -2.45572917 6.96354167 -2.68359375 4.9453125 C-2.91292961 2.92595684 -2.91292961 2.92595684 -4 1 C-2 0 -2 0 0 0 Z " fill="#636363" transform="translate(169,187)"/>
<path d="M0 0 C0.99 0 1.98 0 3 0 C1.40109514 5.19644079 -0.74138003 10.06612142 -3 15 C-4.39852912 10.80441263 -2.77263136 8.95433149 -1 5 C-0.30859478 2.22111387 -0.30859478 2.22111387 0 0 Z " fill="#242424" transform="translate(29,134)"/>
<path d="M0 0 C1.65 0.33 3.3 0.66 5 1 C4.25 3.4375 4.25 3.4375 3 6 C0.875 6.8125 0.875 6.8125 -1 7 C-0.34 6.67 0.32 6.34 1 6 C0.01 5.34 -0.98 4.68 -2 4 C-1.34 2.68 -0.68 1.36 0 0 Z " fill="#D9D9D9" transform="translate(173,33)"/>
<path d="M0 0 C0.33 1.98 0.66 3.96 1 6 C-0.65 6 -2.3 6 -4 6 C-4.33 4.35 -4.66 2.7 -5 1 C-3 0 -3 0 0 0 Z " fill="#898788" transform="translate(34,25)"/>
<path d="M0 0 C0.99 0.33 1.98 0.66 3 1 C2.34 2.65 1.68 4.3 1 6 C3.97 6.495 3.97 6.495 7 7 C7 7.99 7 8.98 7 10 C6.01 10 5.02 10 4 10 C4 9.34 4 8.68 4 8 C2.68 8 1.36 8 0 8 C0 5.36 0 2.72 0 0 Z " fill="#DBDADB" transform="translate(70,19)"/>
<path d="M0 0 C1 3 1 3 0.109375 5.19140625 C-0.33921875 5.97386719 -0.7878125 6.75632813 -1.25 7.5625 C-1.90742187 8.74005859 -1.90742187 8.74005859 -2.578125 9.94140625 C-4 12 -4 12 -7 14 C-6.47985572 10.1509323 -5.74828063 8.64257753 -3 6 C-1.95377125 4.02379014 -0.94560065 2.0262871 0 0 Z " fill="#1B1B1B" transform="translate(105,172)"/>
<path d="M0 0 C0.66 0.33 1.32 0.66 2 1 C1.505 1.433125 1.01 1.86625 0.5 2.3125 C-1.33218192 3.99740483 -1.33218192 3.99740483 -1 7 C-3.33333333 7 -5.66666667 7 -8 7 C-5.36 4.69 -2.72 2.38 0 0 Z " fill="#1B1B1B" transform="translate(44,125)"/>
<path d="M0 0 C1.65 0 3.3 0 5 0 C5 1.65 5 3.3 5 5 C3.35 5 1.7 5 0 5 C0 3.35 0 1.7 0 0 Z " fill="#C6C6C6" transform="translate(110,81)"/>
<path d="M0 0 C0.66 0 1.32 0 2 0 C1.125 4.875 1.125 4.875 0 6 C-1.66617115 6.04063832 -3.33388095 6.042721 -5 6 C-3.38405168 3.95880212 -1.7143618 1.95927063 0 0 Z " fill="#090909" transform="translate(179,28)"/>
<path d="M0 0 C0.99 0.66 1.98 1.32 3 2 C2.67 2.33 2.34 2.66 2 3 C1.92820036 4.51928038 1.91607993 6.04167482 1.9375 7.5625 C1.94652344 8.38878906 1.95554688 9.21507812 1.96484375 10.06640625 C1.97644531 10.70449219 1.98804688 11.34257812 2 12 C0.68 11.67 -0.64 11.34 -2 11 C-1.34 10.67 -0.68 10.34 0 10 C-0.185625 8.72125 -0.37125 7.4425 -0.5625 6.125 C-1.125 2.25 -1.125 2.25 0 0 Z " fill="#FAD5D7" transform="translate(180,206)"/>
<path d="M0 0 C2.97 0 5.94 0 9 0 C9.33 1.32 9.66 2.64 10 4 C9.34 4 8.68 4 8 4 C8 3.34 8 2.68 8 2 C5.36 2 2.72 2 0 2 C0 1.34 0 0.68 0 0 Z " fill="#FDFFDC" transform="translate(208,204)"/>
<path d="M0 0 C0.33 0 0.66 0 1 0 C1.33 2.31 1.66 4.62 2 7 C1.01 7.33 0.02 7.66 -1 8 C-1.66 7.34 -2.32 6.68 -3 6 C-3.66 5.67 -4.32 5.34 -5 5 C-5 4.34 -5 3.68 -5 3 C-3.35 3 -1.7 3 0 3 C0 2.01 0 1.02 0 0 Z " fill="#E7E7E9" transform="translate(190,191)"/>
<path d="M0 0 C3.465 1.485 3.465 1.485 7 3 C7 3.99 7 4.98 7 6 C2.25 5.25 2.25 5.25 0 3 C0 2.01 0 1.02 0 0 Z " fill="#313131" transform="translate(47,191)"/>
<path d="M0 0 C0.99 0 1.98 0 3 0 C3 3.3 3 6.6 3 10 C2.34 10 1.68 10 1 10 C1 7.36 1 4.72 1 2 C0.34 1.67 -0.32 1.34 -1 1 C-0.67 0.67 -0.34 0.34 0 0 Z " fill="#5B5B5B" transform="translate(166,54)"/>
<path d="M0 0 C-3.37097383 1.49821059 -5.20442119 2 -9 2 C-9 1.01 -9 0.02 -9 -1 C-5.22102349 -2.0497157 -3.35080929 -2.10976881 0 0 Z " fill="#363636" transform="translate(81,197)"/>
<path d="M0 0 C2.64 1.98 5.28 3.96 8 6 C7.67 6.66 7.34 7.32 7 8 C5.1875 7.8125 5.1875 7.8125 3 7 C0 2.82142857 0 2.82142857 0 0 Z " fill="#404040" transform="translate(28,193)"/>
<path d="M0 0 C2.475 0.495 2.475 0.495 5 1 C5 5 5 5 4 7 C0 2.25 0 2.25 0 0 Z " fill="#4B4B4B" transform="translate(30,179)"/>
<path d="M0 0 C2.75 0.25 2.75 0.25 5 1 C4.01 2.485 4.01 2.485 3 4 C-0.625 4.1875 -0.625 4.1875 -4 4 C-2.3125 1.9375 -2.3125 1.9375 0 0 Z " fill="#656565" transform="translate(179,172)"/>
<path d="M0 0 C2.97 0.495 2.97 0.495 6 1 C6 1.66 6 2.32 6 3 C4.37373596 4.38232443 2.7074998 5.71937515 1 7 C0.67 4.69 0.34 2.38 0 0 Z " fill="#BFBFBF" transform="translate(185,120)"/>
<path d="M0 0 C1.3921875 0.2784375 1.3921875 0.2784375 2.8125 0.5625 C6.01343771 1.24123881 6.01343771 1.24123881 9 0 C9 0.99 9 1.98 9 3 C6.69 3.33 4.38 3.66 2 4 C1.34 2.68 0.68 1.36 0 0 Z " fill="#222021" transform="translate(49,27)"/>
<path d="M0 0 C1.9375 0.8125 1.9375 0.8125 4 2 C4.33 2.99 4.66 3.98 5 5 C3.35 5.33 1.7 5.66 0 6 C0 4.02 0 2.04 0 0 Z " fill="#C03C4C" transform="translate(190,206)"/>
<path d="M0 0 C0 0.66 0 1.32 0 2 C0.66 2.33 1.32 2.66 2 3 C0.906875 2.979375 -0.18625 2.95875 -1.3125 2.9375 C-4.94384191 2.81455548 -4.94384191 2.81455548 -8 4 C-8 3.34 -8 2.68 -8 2 C-8.66 1.67 -9.32 1.34 -10 1 C-3.375 0 -3.375 0 0 0 Z " fill="#242424" transform="translate(58,206)"/>
<path d="M0 0 C3.3 0 6.6 0 10 0 C9.67 0.66 9.34 1.32 9 2 C6.93359375 2.4140625 6.93359375 2.4140625 4.4375 2.625 C3.61121094 2.69976562 2.78492188 2.77453125 1.93359375 2.8515625 C0.97646484 2.92503906 0.97646484 2.92503906 0 3 C0 2.01 0 1.02 0 0 Z " fill="#E9FEF9" transform="translate(176,203)"/>
<path d="M0 0 C0.99 0.66 1.98 1.32 3 2 C-1.43076923 5.07692308 -1.43076923 5.07692308 -4.3125 4.6875 C-4.869375 4.460625 -5.42625 4.23375 -6 4 C-4.03617993 2.49440461 -2.21736634 1.10868317 0 0 Z " fill="#282828" transform="translate(94,194)"/>
<path d="M0 0 C0.66 0 1.32 0 2 0 C2 0.66 2 1.32 2 2 C2.66 2.33 3.32 2.66 4 3 C5.125 5.0625 5.125 5.0625 6 7 C3.69 6.01 1.38 5.02 -1 4 C-1 1 -1 1 0 0 Z " fill="#242424" transform="translate(34,183)"/>
<path d="M0 0 C0.33 0 0.66 0 1 0 C0.67 2.31 0.34 4.62 0 7 C-1.65 7.66 -3.3 8.32 -5 9 C-5 8.01 -5 7.02 -5 6 C-4.34 6 -3.68 6 -3 6 C-3 5.34 -3 4.68 -3 4 C-2.01 4 -1.02 4 0 4 C0 2.68 0 1.36 0 0 Z " fill="#666666" transform="translate(189,164)"/>
<path d="M0 0 C0.99 0.33 1.98 0.66 3 1 C2.67 2.65 2.34 4.3 2 6 C0.68 5.67 -0.64 5.34 -2 5 C-2 4.01 -2 3.02 -2 2 C-1.34 2 -0.68 2 0 2 C0 1.34 0 0.68 0 0 Z " fill="#353535" transform="translate(115,165)"/>
<path d="M0 0 C1.37562854 1.28965176 2.70766393 2.62689293 4 4 C4 4.66 4 5.32 4 6 C3.01 6.33 2.02 6.66 1 7 C-1.1875 5.5625 -1.1875 5.5625 -3 4 C-2.01 2.68 -1.02 1.36 0 0 Z " fill="#2A2A2A" transform="translate(28,126)"/>
<path d="M0 0 C0.66 0.99 1.32 1.98 2 3 C0.75 4.5625 0.75 4.5625 -1 6 C-3.1875 5.6875 -3.1875 5.6875 -5 5 C-5 4.34 -5 3.68 -5 3 C-2.5 1.375 -2.5 1.375 0 0 Z " fill="#ECECEC" transform="translate(190,98)"/>
<path d="M0 0 C-0.33 1.65 -0.66 3.3 -1 5 C-1.66 4.67 -2.32 4.34 -3 4 C-3 3.01 -3 2.02 -3 1 C-4.65 1 -6.3 1 -8 1 C-4.93251126 -0.86240388 -3.40254489 -1.2151946 0 0 Z " fill="#252324" transform="translate(25,18)"/>
<path d="M0 0 C0.33 0.66 0.66 1.32 1 2 C3.02463255 2.65213292 3.02463255 2.65213292 5 3 C3.68 3 2.36 3 1 3 C2.84188612 5.05270463 2.84188612 5.05270463 5 6 C3.125 6.625 3.125 6.625 1 7 C0.34 6.34 -0.32 5.68 -1 5 C-0.625 2.375 -0.625 2.375 0 0 Z " fill="#323435" transform="translate(184,191)"/>
<path d="M0 0 C0.99 0.33 1.98 0.66 3 1 C3 2.32 3 3.64 3 5 C3.66 5.33 4.32 5.66 5 6 C3.35 6.33 1.7 6.66 0 7 C0.33 6.34 0.66 5.68 1 5 C0.01 3.68 -0.98 2.36 -2 1 C-1.34 0.67 -0.68 0.34 0 0 Z " fill="#313131" transform="translate(82,193)"/>
<path d="M0 0 C2.475 0.495 2.475 0.495 5 1 C5.33 2.32 5.66 3.64 6 5 C3.5625 4.1875 3.5625 4.1875 1 3 C0.67 2.01 0.34 1.02 0 0 Z " fill="#2C2C2C" transform="translate(40,188)"/>
<path d="M0 0 C2.76223278 2.76223278 2.57856291 5.20706617 3 9 C1.68 9 0.36 9 -1 9 C-0.67 6.03 -0.34 3.06 0 0 Z " fill="#1D1D1D" transform="translate(105,146)"/>
<path d="M0 0 C1.65 0 3.3 0 5 0 C5 1.32 5 2.64 5 4 C3.35 4 1.7 4 0 4 C0 2.68 0 1.36 0 0 Z " fill="#CFCECF" transform="translate(17,25)"/>
<path d="M0 0 C-1.65 1.65 -3.3 3.3 -5 5 C-5.33 3.35 -5.66 1.7 -6 0 C-3 -1 -3 -1 0 0 Z " fill="#E4E4E4" transform="translate(182,25)"/>
<path d="M0 0 C1.65 0 3.3 0 5 0 C5 1.65 5 3.3 5 5 C4.67 4.01 4.34 3.02 4 2 C3.01 2 2.02 2 1 2 C1 2.66 1 3.32 1 4 C0.01 4 -0.98 4 -2 4 C-1.34 2.68 -0.68 1.36 0 0 Z " fill="#312F30" transform="translate(29,19)"/>
<path d="M0 0 C1.65 0 3.3 0 5 0 C5.33 1.32 5.66 2.64 6 4 C5.236875 3.814375 4.47375 3.62875 3.6875 3.4375 C0.91032625 2.77180827 0.91032625 2.77180827 -2 4 C-1.34 2.68 -0.68 1.36 0 0 Z " fill="#1A1819" transform="translate(51,19)"/>
<path d="M0 0 C0.33 0 0.66 0 1 0 C1 2.64 1 5.28 1 8 C1.66 8 2.32 8 3 8 C3 9.32 3 10.64 3 12 C2.01 11.67 1.02 11.34 0 11 C0 7.37 0 3.74 0 0 Z " fill="#FBFED8" transform="translate(203,208)"/>
<path d="M0 0 C0.99 0 1.98 0 3 0 C3 2.97 3 5.94 3 9 C1.02 9.99 1.02 9.99 -1 11 C-0.67 10.34 -0.34 9.68 0 9 C0.06950541 7.45976004 0.08452357 5.91665012 0.0625 4.375 C0.05347656 3.55773437 0.04445312 2.74046875 0.03515625 1.8984375 C0.02355469 1.27195313 0.01195312 0.64546875 0 0 Z " fill="#FAE1D9" transform="translate(194,208)"/>
<path d="M0 0 C-1.98 0.99 -1.98 0.99 -4 2 C-4 2.66 -4 3.32 -4 4 C-5.65 3.67 -7.3 3.34 -9 3 C-5.92807025 0.26939578 -4.09590633 -0.34132553 0 0 Z " fill="#353535" transform="translate(86,206)"/>
<path d="M0 0 C0.66 0.33 1.32 0.66 2 1 C2.625 4.0625 2.625 4.0625 3 7 C2.01 7.495 2.01 7.495 1 8 C0.01 7.67 -0.98 7.34 -2 7 C-2 5.02 -2 3.04 -2 1 C-1.34 0.67 -0.68 0.34 0 0 Z " fill="#C8CBCC" transform="translate(182,191)"/>
<path d="M0 0 C0.99 0.495 0.99 0.495 2 1 C2 1.66 2 2.32 2 3 C2.66 3 3.32 3 4 3 C4.66 4.65 5.32 6.3 6 8 C5.01 8 4.02 8 3 8 C0 2.25 0 2.25 0 0 Z " fill="#323232" transform="translate(19,173)"/>
<path d="M0 0 C0.66 0.33 1.32 0.66 2 1 C0.32482761 4.53647504 -0.49280817 5.7911563 -4.1875 7.3125 C-5.5796875 7.6528125 -5.5796875 7.6528125 -7 8 C-6.02133662 6.85373678 -5.04205413 5.70800212 -4.0625 4.5625 C-3.51722656 3.92441406 -2.97195312 3.28632813 -2.41015625 2.62890625 C-1.63204305 1.73008851 -0.84063472 0.84063472 0 0 Z " fill="#E5E5E5" transform="translate(44,130)"/>
<path d="M0 0 C2.375 0.25 2.375 0.25 5 1 C6.3125 3.0625 6.3125 3.0625 7 5 C4.625 4.75 4.625 4.75 2 4 C0.6875 1.9375 0.6875 1.9375 0 0 Z " fill="#363636" transform="translate(90,122)"/>
<path d="M0 0 C-2.05233685 2.2477975 -3.00667261 3.0022242 -6 4 C-8.1875 3.5625 -8.1875 3.5625 -10 3 C-6.68152292 -0.06320961 -4.44849969 -0.3033068 0 0 Z " fill="#262626" transform="translate(47,118)"/>
<path d="M0 0 C2.875 -0.125 2.875 -0.125 6 0 C6.66 0.66 7.32 1.32 8 2 C5.36 2.33 2.72 2.66 0 3 C0 2.01 0 1.02 0 0 Z " fill="#2A2A2A" transform="translate(72,110)"/>
<path d="M0 0 C2.12508244 3.18762365 2.5020163 5.26512223 3 9 C2.01 9.33 1.02 9.66 0 10 C0 6.7 0 3.4 0 0 Z " fill="#F9FED6" transform="translate(218,208)"/>
<path d="M0 0 C0.99 0.99 1.98 1.98 3 3 C2.67 3.66 2.34 4.32 2 5 C2.99 4.67 3.98 4.34 5 4 C5 4.99 5 5.98 5 7 C3.125 6.75 3.125 6.75 1 6 C-0.3125 4.0625 -0.3125 4.0625 -1 2 C-0.67 1.34 -0.34 0.68 0 0 Z " fill="#E6E6E6" transform="translate(189,169)"/>
<path d="M0 0 C1.2065625 0.0309375 1.2065625 0.0309375 2.4375 0.0625 C1.4375 3.0625 1.4375 3.0625 -0.5625 4.0625 C-0.5625 4.7225 -0.5625 5.3825 -0.5625 6.0625 C-1.2225 6.0625 -1.8825 6.0625 -2.5625 6.0625 C-2.94468767 4.40635343 -3.27645102 2.73792976 -3.5625 1.0625 C-2.5625 0.0625 -2.5625 0.0625 0 0 Z " fill="#E8E8E8" transform="translate(192.5625,161.9375)"/>
<path d="M0 0 C1.32 0.66 2.64 1.32 4 2 C3.34 3.65 2.68 5.3 2 7 C1.01 6.34 0.02 5.68 -1 5 C-0.67 3.35 -0.34 1.7 0 0 Z " fill="#202020" transform="translate(29,144)"/>
<path d="M0 0 C0.99 0 1.98 0 3 0 C3 1.65 3 3.3 3 5 C1.68 4.67 0.36 4.34 -1 4 C-0.67 2.68 -0.34 1.36 0 0 Z " fill="#F3F3F3" transform="translate(173,120)"/>
<path d="M0 0 C1.9451 2.91765 2.45276317 4.62537285 3 8 C1.35 8 -0.3 8 -2 8 C-1.34 5.36 -0.68 2.72 0 0 Z " fill="#DCDCDC" transform="translate(195,56)"/>
<path d="M0 0 C2.31 0 4.62 0 7 0 C7 0.99 7 1.98 7 3 C5.02 3 3.04 3 1 3 C0.67 2.01 0.34 1.02 0 0 Z " fill="#232122" transform="translate(61,28)"/>
<path d="M0 0 C0 3.10551666 -0.5393715 4.35261084 -2 7 C-0.68 7.33 0.64 7.66 2 8 C1.01 8.495 1.01 8.495 0 9 C-3 8 -3 8 -3.9375 6.1875 C-4 4 -4 4 -2.0625 1.75 C-1.381875 1.1725 -0.70125 0.595 0 0 Z " fill="#3F3F3F" transform="translate(184,23)"/>
<path d="M0 0 C1.98 0 3.96 0 6 0 C5.34 1.32 4.68 2.64 4 4 C2.68 3.67 1.36 3.34 0 3 C0 2.01 0 1.02 0 0 Z " fill="#8A8D8B" transform="translate(185,190)"/>
<path d="M0 0 C0.66 0 1.32 0 2 0 C2.33 2.64 2.66 5.28 3 8 C2.34 8 1.68 8 1 8 C0.34 5.69 -0.32 3.38 -1 1 C-0.67 0.67 -0.34 0.34 0 0 Z " fill="#818181" transform="translate(183,162)"/>
<path d="M0 0 C1.98 0 3.96 0 6 0 C5.67 0.99 5.34 1.98 5 3 C3.35 3 1.7 3 0 3 C0 2.01 0 1.02 0 0 Z " fill="#BF3866" transform="translate(112,107)"/>
<path d="M0 0 C0.99 1.32 1.98 2.64 3 4 C1.02 4.99 1.02 4.99 -1 6 C-0.67 4.02 -0.34 2.04 0 0 Z " fill="#F0F0F0" transform="translate(169,87)"/>
<path d="M0 0 C0.99 0.33 1.98 0.66 3 1 C1.3125 3.0625 1.3125 3.0625 -1 5 C-3.75 4.75 -3.75 4.75 -6 4 C-6 3.67 -6 3.34 -6 3 C-4.35 3 -2.7 3 -1 3 C-0.67 2.01 -0.34 1.02 0 0 Z " fill="#E4E4E4" transform="translate(173,50)"/>
<path d="M0 0 C1.65 0 3.3 0 5 0 C4.625 2.4375 4.625 2.4375 4 5 C3.01 5.495 3.01 5.495 2 6 C2 5.34 2 4.68 2 4 C1.34 3.67 0.68 3.34 0 3 C0 2.01 0 1.02 0 0 Z " fill="#F1F1F1" transform="translate(169,37)"/>
<path d="M0 0 C2.16874252 0.50603992 3.99967627 0.99983813 6 2 C6.33 1.34 6.66 0.68 7 0 C7 0.99 7 1.98 7 3 C3.86650268 4.04449911 3.01031744 3.93423645 0 3 C0 2.01 0 1.02 0 0 Z " fill="#D6D4D5" transform="translate(74,21)"/>
<path d="M0 0 C1.65 0 3.3 0 5 0 C4.67 0.99 4.34 1.98 4 3 C0.9375 4.1875 0.9375 4.1875 -2 5 C-1.34 3.35 -0.68 1.7 0 0 Z " fill="#E3E3E3" transform="translate(184,20)"/>
</svg>
