<?xml version="1.0" encoding="UTF-8"?>
<svg version="1.1" xmlns="http://www.w3.org/2000/svg" width="225" height="225">
<path d="M0 0 C74.25 0 148.5 0 225 0 C225 74.25 225 148.5 225 225 C150.75 225 76.5 225 0 225 C0 150.75 0 76.5 0 0 Z " fill="#FDFDFD" transform="translate(0,0)"/>
<path d="M0 0 C0.66 0.33 1.32 0.66 2 1 C4.86148115 1.46324973 7.71963111 1.88727013 10.58984375 2.2890625 C21.57934988 3.88740627 32.50730402 5.7649593 43.42456055 7.796875 C45.54533776 8.18760094 47.6678128 8.5692048 49.79174805 8.94238281 C52.90825953 9.49064264 56.01856653 10.06631006 59.12890625 10.6484375 C60.07874893 10.81008392 61.02859161 10.97173035 62.00721741 11.13827515 C62.88341232 11.30840118 63.75960724 11.47852722 64.66235352 11.65380859 C65.43031754 11.79354095 66.19828156 11.93327332 66.98951721 12.07723999 C70.03899053 13.47686999 70.70703446 14.91110041 72 18 C72.42596931 21.09817161 72.42021034 24.16128848 72.40405273 27.28491211 C72.41091599 28.21234726 72.41777924 29.13978241 72.42485046 30.09532166 C72.44312767 33.15615213 72.43927957 36.21647049 72.43359375 39.27734375 C72.43815512 41.40816922 72.44346057 43.53899321 72.44947815 45.66981506 C72.45841109 50.13434834 72.45598399 54.59870275 72.44604492 59.06323242 C72.43455557 64.78096634 72.45476564 70.49808265 72.48396206 76.21573544 C72.50231919 80.61584894 72.50203253 85.01581431 72.49632454 89.4159565 C72.49617126 91.52385894 72.50222077 93.63177138 72.51461601 95.73963737 C72.52951453 98.68871539 72.5188569 101.63665079 72.50170898 104.58569336 C72.51621094 105.88805939 72.51621094 105.88805939 72.53100586 107.21673584 C72.4651371 112.63392724 71.57100834 115.68400941 68 120 C61.66803118 126.13696253 51.83021817 134.67239011 42.78051758 135.1809082 C38.83116814 134.99192093 35.3879478 134.31463957 31.5546875 133.35546875 C30.51708786 133.09978874 30.51708786 133.09978874 29.45852661 132.83894348 C27.26204705 132.29605718 25.06852838 131.74217699 22.875 131.1875 C21.42727504 130.82670385 19.97935939 130.46667194 18.53125 130.10742188 C16.39151228 129.5765346 14.25185223 129.04537944 12.11277771 128.51182556 C2.67955671 126.16263913 -6.78844683 124.00970008 -16.3125 122.0625 C-52.69591926 114.45612111 -52.69591926 114.45612111 -57 108 C-57.20035367 105.01118294 -57.28328274 102.11529145 -57.2746582 99.12573242 C-57.27976913 98.21809647 -57.28488007 97.31046051 -57.29014587 96.37532043 C-57.30406908 93.36863649 -57.30308272 90.36218114 -57.30078125 87.35546875 C-57.30466735 85.26662612 -57.30900184 83.17778429 -57.31376648 81.08894348 C-57.32123505 76.70664919 -57.32093328 72.32443543 -57.31567383 67.94213867 C-57.30988553 62.32982601 -57.32679176 56.71784405 -57.3500185 51.10558605 C-57.36476257 46.78955664 -57.36562649 42.47360667 -57.36250877 38.15755653 C-57.36302188 36.08873147 -57.36825765 34.01990195 -57.37832069 31.9511013 C-57.39067741 29.05466742 -57.38389727 26.15887503 -57.37231445 23.26245117 C-57.37995819 22.40976654 -57.38760193 21.55708191 -57.39547729 20.67855835 C-57.351623 15.70910751 -56.72820361 12.32031101 -54 8 C-52.30175781 6.63208008 -52.30175781 6.63208008 -50.453125 5.76953125 C-49.7725 5.44146484 -49.091875 5.11339844 -48.390625 4.77539062 C-47.33101562 4.29875977 -47.33101562 4.29875977 -46.25 3.8125 C-45.21359375 3.3184668 -45.21359375 3.3184668 -44.15625 2.81445312 C-42.11535325 1.8496307 -40.05917287 0.92500827 -38 0 C-36.81792969 -0.56589844 -35.63585937 -1.13179687 -34.41796875 -1.71484375 C-23.78873529 -5.71143553 -10.75222706 -2.5587914 0 0 Z " fill="#2E2E2E" transform="translate(82,46)"/>
<path d="M0 0 C3.18908598 3.05043007 3.9709991 4.24238637 4.14717102 8.84466553 C4.16233988 10.54451707 4.17181397 12.24442463 4.17700195 13.94433594 C4.18357315 14.87133301 4.19014435 15.79833008 4.19691467 16.75341797 C4.21667356 19.83040441 4.22831645 22.90734198 4.23828125 25.984375 C4.24235678 27.03417793 4.2464323 28.08398087 4.25063133 29.16559601 C4.27150379 34.72270004 4.28580004 40.27977929 4.29516602 45.83691406 C4.30622884 51.57821728 4.34062417 57.31913276 4.38033772 63.06029892 C4.40648018 67.4732536 4.41485579 71.88611562 4.41844749 76.29914093 C4.4233201 78.41543444 4.43495318 80.53172362 4.45348549 82.64794159 C4.47782456 85.61163554 4.47692122 88.57432271 4.4699707 91.53808594 C4.48278076 92.41104309 4.49559082 93.28400024 4.50878906 94.18341064 C4.46237843 99.61806594 3.59450994 102.67608694 0 107 C-5.79093902 112.45143673 -12.73294138 118.65588237 -20.875 119.3125 C-24 119 -24 119 -25 118 C-25.11647531 115.25738998 -25.16801324 112.53962622 -25.17700195 109.79589844 C-25.18357315 108.93571609 -25.19014435 108.07553375 -25.19691467 107.18928528 C-25.21670036 104.3293144 -25.2283228 101.46939619 -25.23828125 98.609375 C-25.24235678 97.63463478 -25.2464323 96.65989456 -25.25063133 95.65561676 C-25.27151598 90.49518544 -25.28580649 85.33478089 -25.29516602 80.17431641 C-25.30622696 74.83979652 -25.34061645 69.50569418 -25.38033772 64.17132187 C-25.40647067 60.07408873 -25.41485497 55.97695546 -25.41844749 51.8796463 C-25.42332317 49.91324295 -25.43496494 47.94684434 -25.45348549 45.98052216 C-25.47780315 43.22723776 -25.47692528 40.47503834 -25.4699707 37.72167969 C-25.48278076 36.90901138 -25.49559082 36.09634308 -25.50878906 35.25904846 C-25.47281275 31.35103974 -25.2868426 29.45133234 -23.139328 26.07232666 C-17.62507599 20.73077481 -6.02976277 13 2 13 C1.48041715 8.62065881 0.94324258 4.31196609 0 0 Z " fill="#717171" transform="translate(150,59)"/>
<path d="M0 0 C2.6875 0.875 2.6875 0.875 5 2 C4.01 2.495 4.01 2.495 3 3 C3.12568359 4.43666016 3.12568359 4.43666016 3.25390625 5.90234375 C3.89687337 14.01877321 3.9612256 21.84301988 3.33398438 29.96118164 C2.96789455 35.06682728 3.18246428 39.84404048 3.94140625 44.8984375 C4 47 4 47 2 50 C-0.625 50.1875 -0.625 50.1875 -3 50 C-3.33 51.32 -3.66 52.64 -4 54 C-6.31 54.66 -8.62 55.32 -11 56 C-10.67 55.01 -10.34 54.02 -10 53 C-9.34 53 -8.68 53 -8 53 C-8 52.34 -8 51.68 -8 51 C-7.34 51 -6.68 51 -6 51 C-6 50.34 -6 49.68 -6 49 C-4.02 48.34 -2.04 47.68 0 47 C0.495 44.03 0.495 44.03 1 41 C0.29875 41.78375 -0.4025 42.5675 -1.125 43.375 C-4.13652555 46.12465376 -6.17195679 46.83494337 -10 48 C-10.99 48.99 -11.98 49.98 -13 51 C-13 37.8 -13 24.6 -13 11 C-10.525 11.495 -10.525 11.495 -8 12 C-7.01 12 -6.02 12 -5 12 C-5.66 12 -6.32 12 -7 12 C-6.67 10.35 -6.34 8.7 -6 7 C-7.65 7.33 -9.3 7.66 -11 8 C-10.375 5.5625 -10.375 5.5625 -9 3 C-6.0625 2.3125 -6.0625 2.3125 -3 2 C-2.01 1.34 -1.02 0.68 0 0 Z " fill="#676869" transform="translate(147,85)"/>
<path d="M0 0 C1.65 0 3.3 0 5 0 C5 7.92 5 15.84 5 24 C1.885625 23.360625 -1.22875 22.72125 -4.4375 22.0625 C-5.42032959 21.86277588 -6.40315918 21.66305176 -7.41577148 21.45727539 C-8.56928101 21.21738892 -8.56928101 21.21738892 -9.74609375 20.97265625 C-10.53685303 20.81031494 -11.3276123 20.64797363 -12.14233398 20.48071289 C-14 20 -14 20 -15 19 C-15.07244053 16.98035801 -15.08377188 14.95832876 -15.0625 12.9375 C-15.05347656 11.83277344 -15.04445313 10.72804688 -15.03515625 9.58984375 C-15.02355469 8.73519531 -15.01195312 7.88054687 -15 7 C-11.20431539 6.02201279 -8.4994001 6.07346931 -4.6875 6.9375 C-3.80449219 7.13214844 -2.92148437 7.32679687 -2.01171875 7.52734375 C-1.01591797 7.76130859 -1.01591797 7.76130859 0 8 C0 5.36 0 2.72 0 0 Z " fill="#C4C4C4" transform="translate(20,69)"/>
<path d="M0 0 C0.721875 0.185625 1.44375 0.37125 2.1875 0.5625 C5.12826973 1.01995307 7.14103058 0.73516357 10 0 C10.66 1.98 11.32 3.96 12 6 C13.29633621 4.93354885 13.29633621 4.93354885 13.0625 2.4375 C13.041875 1.633125 13.02125 0.82875 13 0 C19.15234375 -0.09765625 19.15234375 -0.09765625 21 0 C22.73956658 1.73956658 22.37190386 4.1936622 22.5625 6.5625 C22.68818359 8.08037109 22.68818359 8.08037109 22.81640625 9.62890625 C22.87699219 10.41136719 22.93757813 11.19382812 23 12 C22.01 12.33 21.02 12.66 20 13 C20 13.99 20 14.98 20 16 C21.32 16.33 22.64 16.66 24 17 C19.94568308 18.15837626 17.78187881 17.83691257 14 16 C13.67 16.66 13.34 17.32 13 18 C11.68 18 10.36 18 9 18 C9.0825 17.113125 9.165 16.22625 9.25 15.3125 C8.94530814 11.27533282 7.77959995 9.86135289 5 7 C4.34 6.67 3.68 6.34 3 6 C3 4.35 3 2.7 3 1 C2.34 1 1.68 1 1 1 C0.67 2.32 0.34 3.64 0 5 C0 3.35 0 1.7 0 0 Z " fill="#DDDDDD" transform="translate(183,98)"/>
<path d="M0 0 C2.6875 0.875 2.6875 0.875 5 2 C4.01 2.495 4.01 2.495 3 3 C3.08378906 3.969375 3.16757813 4.93875 3.25390625 5.9375 C4.0244895 15.74178484 3.84645482 25.20716882 3 35 C2.67 35 2.34 35 2 35 C1.67 28.4 1.34 21.8 1 15 C0.34 15 -0.32 15 -1 15 C-1 15.66 -1 16.32 -1 17 C-7.75 21 -7.75 21 -10 21 C-9.5206753 16.68607774 -8.2542015 14.83430453 -5 12 C-5.66 12 -6.32 12 -7 12 C-6.67 10.35 -6.34 8.7 -6 7 C-7.65 7.33 -9.3 7.66 -11 8 C-10.375 5.5625 -10.375 5.5625 -9 3 C-6.0625 2.3125 -6.0625 2.3125 -3 2 C-2.01 1.34 -1.02 0.68 0 0 Z " fill="#626262" transform="translate(147,85)"/>
<path d="M0 0 C2.0625 0.4375 2.0625 0.4375 4 1 C4 1.66 4 2.32 4 3 C4.66 3 5.32 3 6 3 C6 3.99 6 4.98 6 6 C6.66 6 7.32 6 8 6 C8.33 5.01 8.66 4.02 9 3 C8.67 4.65 8.34 6.3 8 8 C6.35 8.33 4.7 8.66 3 9 C3 9.99 3 10.98 3 12 C3.7425 11.979375 4.485 11.95875 5.25 11.9375 C7.78335343 11.99507621 9.58946025 12.29101772 12 13 C13.2375 13.350625 14.475 13.70125 15.75 14.0625 C16.8225 14.371875 17.895 14.68125 19 15 C18.67 16.65 18.34 18.3 18 20 C17.01 20 16.02 20 15 20 C14.67 20.66 14.34 21.32 14 22 C13.67 20.68 13.34 19.36 13 18 C12.34 19.32 11.68 20.64 11 22 C10.34 21.67 9.68 21.34 9 21 C9 19.02 9 17.04 9 15 C8.34 15 7.68 15 7 15 C6.67 16.65 6.34 18.3 6 20 C5.67 20 5.34 20 5 20 C5 18.02 5 16.04 5 14 C4.01 14 3.02 14 2 14 C0.29467677 15.94009522 0.29467677 15.94009522 -1 18 C-0.67 18.66 -0.34 19.32 0 20 C-1.32 20 -2.64 20 -4 20 C-2.5 17 -2.5 17 -1 14 C-1.99 14.33 -2.98 14.66 -4 15 C-4 14.01 -4 13.02 -4 12 C-3.360625 11.87625 -2.72125 11.7525 -2.0625 11.625 C-1.381875 11.41875 -0.70125 11.2125 0 11 C0.33 10.34 0.66 9.68 1 9 C0.67 8.67 0.34 8.34 0 8 C-0.66 7.34 -1.32 6.68 -2 6 C-1.44444444 1.44444444 -1.44444444 1.44444444 0 0 Z " fill="#AEAEAE" transform="translate(172,96)"/>
<path d="M0 0 C0.99 0 1.98 0 3 0 C3.33 0.99 3.66 1.98 4 3 C4.391875 2.505 4.78375 2.01 5.1875 1.5 C7 0 7 0 9.5625 -0.3125 C12 0 12 0 14 2 C14.1953125 4.3828125 14.1953125 4.3828125 14.125 7.125 C14.10695312 8.03507813 14.08890625 8.94515625 14.0703125 9.8828125 C14.04710937 10.58148438 14.02390625 11.28015625 14 12 C8.46153846 11.38461538 8.46153846 11.38461538 6.125 9.4375 C5.75375 8.963125 5.3825 8.48875 5 8 C4.67 8.99 4.34 9.98 4 11 C2.68 11 1.36 11 0 11 C0 10.01 0 9.02 0 8 C-1.32 8.99 -2.64 9.98 -4 11 C-4 10.34 -4 9.68 -4 9 C-4.66 9 -5.32 9 -6 9 C-6.125 6.625 -6.125 6.625 -6 4 C-5.34 3.34 -4.68 2.68 -4 2 C-3.01 2 -2.02 2 -1 2 C-0.67 1.34 -0.34 0.68 0 0 Z " fill="#454545" transform="translate(182,170)"/>
<path d="M0 0 C0.33 0.66 0.66 1.32 1 2 C1.99 1.67 2.98 1.34 4 1 C4.0825 1.61875 4.165 2.2375 4.25 2.875 C4.81258459 5.18437567 4.81258459 5.18437567 7.0625 6.25 C7.701875 6.4975 8.34125 6.745 9 7 C9.33 6.34 9.66 5.68 10 5 C10 5.66 10 6.32 10 7 C11.65 7 13.3 7 15 7 C15.33 7.66 15.66 8.32 16 9 C16.99 9 17.98 9 19 9 C19.33 9.33 19.66 9.66 20 10 C20.66 9.34 21.32 8.68 22 8 C21.625 10.9375 21.625 10.9375 21 14 C20.01 14.495 20.01 14.495 19 15 C18.67 14.34 18.34 13.68 18 13 C17.67 13.66 17.34 14.32 17 15 C14.93359375 15.4140625 14.93359375 15.4140625 12.4375 15.625 C11.61121094 15.69976562 10.78492188 15.77453125 9.93359375 15.8515625 C8.97646484 15.92503906 8.97646484 15.92503906 8 16 C7.34 14.35 6.68 12.7 6 11 C6 12.32 6 13.64 6 15 C5.34 14.67 4.68 14.34 4 14 C4.33 13.34 4.66 12.68 5 12 C4.01 12 3.02 12 2 12 C2.33 12.99 2.66 13.98 3 15 C2.34 15 1.68 15 1 15 C0.83126522 13.56274129 0.66509263 12.12518162 0.5 10.6875 C0.4071875 9.88699219 0.314375 9.08648437 0.21875 8.26171875 C-0.04828663 5.50075073 0 2.77296326 0 0 Z " fill="#EAEAEA" transform="translate(176,15)"/>
<path d="M0 0 C1.98 0 3.96 0 6 0 C6.33 0.99 6.66 1.98 7 3 C7.66 2.01 8.32 1.02 9 0 C11.3828125 -0.29296875 11.3828125 -0.29296875 14.125 -0.1875 C15.03507812 -0.16042969 15.94515625 -0.13335938 16.8828125 -0.10546875 C17.58148438 -0.07066406 18.28015625 -0.03585938 19 0 C19 0.66 19 1.32 19 2 C17.35 2 15.7 2 14 2 C14 3.98 14 5.96 14 8 C15.65 8 17.3 8 19 8 C19 8.33 19 8.66 19 9 C11.61538462 10.35384615 11.61538462 10.35384615 8.5 8.5625 C8.005 8.046875 7.51 7.53125 7 7 C6.01 8.485 6.01 8.485 5 10 C3.68 10 2.36 10 1 10 C-1.25 7 -1.25 7 -3 4 C-3.33 5.65 -3.66 7.3 -4 9 C-4.33 9 -4.66 9 -5 9 C-5 6.36 -5 3.72 -5 1 C-2.525 1.99 -2.525 1.99 0 3 C0 2.01 0 1.02 0 0 Z " fill="#626262" transform="translate(20,6)"/>
<path d="M0 0 C0.66 0 1.32 0 2 0 C2.33 0.66 2.66 1.32 3 2 C3.33 1.67 3.66 1.34 4 1 C9.23757909 1.14334427 14.10657161 2.11791216 19 4 C19.144375 4.7425 19.28875 5.485 19.4375 6.25 C19.90187492 8.52027739 20.41863569 10.75759479 21 13 C20.01 12.67 19.02 12.34 18 12 C17.67 11.34 17.34 10.68 17 10 C16.67 10.66 16.34 11.32 16 12 C15.34 12 14.68 12 14 12 C14 9.36 14 6.72 14 4 C13.01 4.33 12.02 4.66 11 5 C11.66 5.33 12.32 5.66 13 6 C13 7.65 13 9.3 13 11 C7.5388601 10.64766839 7.5388601 10.64766839 5 10 C3.5 7.9375 3.5 7.9375 3 6 C2.01 6.99 1.02 7.98 0 9 C0 6.03 0 3.06 0 0 Z " fill="#979797" transform="translate(72,114)"/>
<path d="M0 0 C-1.28965176 1.37562854 -2.62689293 2.70766393 -4 4 C-4.66 4 -5.32 4 -6 4 C-6.33 4.99 -6.66 5.98 -7 7 C-7.33 6.34 -7.66 5.68 -8 5 C-8.598125 5.825 -9.19625 6.65 -9.8125 7.5 C-10.534375 8.325 -11.25625 9.15 -12 10 C-12.99 10 -13.98 10 -15 10 C-15.33 10.66 -15.66 11.32 -16 12 C-16.66 12 -17.32 12 -18 12 C-18.33 13.65 -18.66 15.3 -19 17 C-19.33 17 -19.66 17 -20 17 C-20.34198476 11.30025408 -20.47253841 6.81674683 -17 2 C-11.09700532 -2.81877116 -7.08507666 -2.10984174 0 0 Z " fill="#393939" transform="translate(45,52)"/>
<path d="M0 0 C0.66 0.33 1.32 0.66 2 1 C2.484375 3.3984375 2.484375 3.3984375 2.75 6.375 C2.89695313 7.84066406 2.89695313 7.84066406 3.046875 9.3359375 C3 12 3 12 1 15 C-1.625 15.1875 -1.625 15.1875 -4 15 C-4.33 16.32 -4.66 17.64 -5 19 C-7.31 19.66 -9.62 20.32 -12 21 C-11.505 19.515 -11.505 19.515 -11 18 C-10.34 18 -9.68 18 -9 18 C-9 17.34 -9 16.68 -9 16 C-8.34 16 -7.68 16 -7 16 C-7 15.34 -7 14.68 -7 14 C-5.02 13.34 -3.04 12.68 -1 12 C-0.67 10.02 -0.34 8.04 0 6 C-0.70125 6.78375 -1.4025 7.5675 -2.125 8.375 C-5.09157086 11.08360818 -7.1582516 12.01722715 -11 13 C-10.65930765 9.84859577 -10.41923159 8.39218439 -8.0625 6.1875 C-6 5 -6 5 -4 5 C-2.61767557 3.37373596 -1.28062485 1.7074998 0 0 Z " fill="#5F5F5F" transform="translate(148,120)"/>
<path d="M0 0 C2 1 2 1 5 3 C7.67145537 2.19838209 7.67145537 2.19838209 10 1 C11 2 11 2 11.0625 5.5625 C11.041875 6.696875 11.02125 7.83125 11 9 C8.6875 9.625 8.6875 9.625 6 10 C5.01 9.34 4.02 8.68 3 8 C1.32706064 8.30027117 -0.33985384 8.63557767 -2 9 C-4.3125 8.5625 -4.3125 8.5625 -6 8 C-5.8125 5.6875 -5.8125 5.6875 -5 3 C-2.5625 1.125 -2.5625 1.125 0 0 Z " fill="#B9B9B9" transform="translate(180,194)"/>
<path d="M0 0 C1.32 0.33 2.64 0.66 4 1 C4 2.65 4 4.3 4 6 C4.99 6.33 5.98 6.66 7 7 C9.25 8.625 9.25 8.625 11 11 C10.75 14.75 10.75 14.75 10 18 C9.34 17.67 8.68 17.34 8 17 C8 15.68 8 14.36 8 13 C7.41992188 12.95101562 6.83984375 12.90203125 6.2421875 12.8515625 C1.56076908 12.40350595 -2.57485459 11.701979 -7 10 C-7 9.01 -7 8.02 -7 7 C-5.824375 6.6596875 -5.824375 6.6596875 -4.625 6.3125 C-1.78125 5.21875 -1.78125 5.21875 -0.6875 2.375 C-0.460625 1.59125 -0.23375 0.8075 0 0 Z " fill="#F5F5F5" transform="translate(182,98)"/>
<path d="M0 0 C2.49609375 -0.36328125 2.49609375 -0.36328125 5.4375 -0.3125 C6.40558594 -0.30863281 7.37367188 -0.30476562 8.37109375 -0.30078125 C11 0 11 0 14 2 C13.34 2.66 12.68 3.32 12 4 C12.66 4.33 13.32 4.66 14 5 C14.33 4.34 14.66 3.68 15 3 C16.32 3.99 17.64 4.98 19 6 C18.67 6.66 18.34 7.32 18 8 C17.01 8.33 16.02 8.66 15 9 C14.34 9.66 13.68 10.32 13 11 C12.34 10.01 11.68 9.02 11 8 C10.34 9.32 9.68 10.64 9 12 C9 10.02 9 8.04 9 6 C7.741875 6.061875 6.48375 6.12375 5.1875 6.1875 C1.27768014 6.20826011 1.27768014 6.20826011 -1 4.5 C-1.33 4.005 -1.66 3.51 -2 3 C-1.34 2.01 -0.68 1.02 0 0 Z " fill="#EFEFEF" transform="translate(182,16)"/>
<path d="M0 0 C0.33 0 0.66 0 1 0 C1.33 28.05 1.66 56.1 2 85 C0.02 85.99 0.02 85.99 -2 87 C-2 86.01 -2 85.02 -2 84 C-1.34 84 -0.68 84 0 84 C0 56.28 0 28.56 0 0 Z " fill="#191919" transform="translate(37,72)"/>
<path d="M0 0 C1.32 0.33 2.64 0.66 4 1 C4 1.66 4 2.32 4 3 C4.99 3.33 5.98 3.66 7 4 C7 5.65 7 7.3 7 9 C6.67 7.68 6.34 6.36 6 5 C5.34 5 4.68 5 4 5 C4 6.32 4 7.64 4 9 C2.68 9 1.36 9 0 9 C0 7.68 0 6.36 0 5 C-0.66 5 -1.32 5 -2 5 C-2 6.32 -2 7.64 -2 9 C-2.66 9 -3.32 9 -4 9 C-4 8.34 -4 7.68 -4 7 C-4.66 7 -5.32 7 -6 7 C-6 7.66 -6 8.32 -6 9 C-7.65 8.67 -9.3 8.34 -11 8 C-10.67 6.35 -10.34 4.7 -10 3 C-6.7 3 -3.4 3 0 3 C0 2.01 0 1.02 0 0 Z " fill="#C0C0C0" transform="translate(186,45)"/>
<path d="M0 0 C1.39456452 0.00667256 2.78911118 0.01863093 4.18359375 0.03515625 C4.89451172 0.03966797 5.60542969 0.04417969 6.33789062 0.04882812 C8.09899388 0.06064761 9.86005411 0.07858362 11.62109375 0.09765625 C11.62109375 0.42765625 11.62109375 0.75765625 11.62109375 1.09765625 C10.71359375 1.20078125 9.80609375 1.30390625 8.87109375 1.41015625 C5.67447874 1.84769855 5.67447874 1.84769855 3.7109375 3.53125 C-1.26127999 7.25808965 -7.40461569 8.46927889 -13.50390625 7.78515625 C-14.78265625 7.55828125 -16.06140625 7.33140625 -17.37890625 7.09765625 C-14.64736617 5.27662953 -12.29627329 4.20154478 -9.25390625 3.03515625 C-1.4609914 0.04222519 -1.4609914 0.04222519 0 0 Z " fill="#696969" transform="translate(54.37890625,42.90234375)"/>
<path d="M0 0 C0.99 0 1.98 0 3 0 C4.62950412 4.12168689 5.26264601 6.70700357 4 11 C2.68 11 1.36 11 0 11 C0 10.01 0 9.02 0 8 C-1.32 8.99 -2.64 9.98 -4 11 C-4 10.34 -4 9.68 -4 9 C-4.66 9 -5.32 9 -6 9 C-6.125 6.625 -6.125 6.625 -6 4 C-5.34 3.34 -4.68 2.68 -4 2 C-3.01 2 -2.02 2 -1 2 C-0.67 1.34 -0.34 0.68 0 0 Z " fill="#8B8B8B" transform="translate(182,170)"/>
<path d="M0 0 C0.66 0 1.32 0 2 0 C2 0.66 2 1.32 2 2 C2.99 2.33 3.98 2.66 5 3 C5.12375 3.969375 5.2475 4.93875 5.375 5.9375 C5.58125 6.948125 5.7875 7.95875 6 9 C6.66 9.33 7.32 9.66 8 10 C8 10.99 8 11.98 8 13 C0.125 12.125 0.125 12.125 -1 11 C-1.09823937 9.33570949 -1.12973631 7.66718069 -1.125 6 C-1.12757813 5.0925 -1.13015625 4.185 -1.1328125 3.25 C-1 1 -1 1 0 0 Z " fill="#BBBBBB" transform="translate(6,77)"/>
<path d="M0 0 C1.98 0 3.96 0 6 0 C6.33 1.65 6.66 3.3 7 5 C6.01 5.495 6.01 5.495 5 6 C5 7.32 5 8.64 5 10 C3.68 10 2.36 10 1 10 C-1.25 7 -1.25 7 -3 4 C-3.33 5.65 -3.66 7.3 -4 9 C-4.33 9 -4.66 9 -5 9 C-5 6.36 -5 3.72 -5 1 C-2.525 1.99 -2.525 1.99 0 3 C0 2.01 0 1.02 0 0 Z " fill="#C6C6C6" transform="translate(20,6)"/>
<path d="M0 0 C0.66 0 1.32 0 2 0 C2.33 0.66 2.66 1.32 3 2 C3.33 1.67 3.66 1.34 4 1 C5.66617115 0.95936168 7.33388095 0.957279 9 1 C8.67 3.97 8.34 6.94 8 10 C7.01 10 6.02 10 5 10 C4.34 8.68 3.68 7.36 3 6 C2.01 6.99 1.02 7.98 0 9 C0 6.03 0 3.06 0 0 Z " fill="#5D5D5D" transform="translate(72,114)"/>
<path d="M0 0 C1.65 0 3.3 0 5 0 C5.75 3.25 5.75 3.25 6 7 C4.3125 9.5 4.3125 9.5 2 11 C-0.25 10.75 -0.25 10.75 -2 10 C-1.34 10 -0.68 10 0 10 C-0.185625 9.46375 -0.37125 8.9275 -0.5625 8.375 C-1.11419324 5.38009386 -0.60597444 2.96254171 0 0 Z " fill="#F0F0F0" transform="translate(196,172)"/>
<path d="M0 0 C8.44532805 0.75404715 16.68741223 2.37828042 25 4 C25 4.99 25 5.98 25 7 C24.443125 6.855625 23.88625 6.71125 23.3125 6.5625 C22.549375 6.376875 21.78625 6.19125 21 6 C20.21625 5.79375 19.4325 5.5875 18.625 5.375 C15.53963899 4.93423414 13.03508131 5.36475042 10 6 C10 5.34 10 4.68 10 4 C8.906875 3.896875 7.81375 3.79375 6.6875 3.6875 C2.94024845 2.98885988 2.34037259 2.68602762 0 0 Z " fill="#6A6A6A" transform="translate(89,48)"/>
<path d="M0 0 C2.125 0.375 2.125 0.375 4 1 C4 1.66 4 2.32 4 3 C4.66 3 5.32 3 6 3 C6 3.99 6 4.98 6 6 C6.66 6 7.32 6 8 6 C8.33 5.01 8.66 4.02 9 3 C8.67 4.65 8.34 6.3 8 8 C6.88625 7.7525 6.88625 7.7525 5.75 7.5 C2.80993422 6.88074304 2.80993422 6.88074304 -1 7 C-1.625 4.625 -1.625 4.625 -2 2 C-1.34 1.34 -0.68 0.68 0 0 Z " fill="#A3A3A3" transform="translate(172,96)"/>
<path d="M0 0 C0.721875 0.185625 1.44375 0.37125 2.1875 0.5625 C5.12826973 1.01995307 7.14103058 0.73516357 10 0 C10 2.31 10 4.62 10 7 C8.1875 7.625 8.1875 7.625 6 8 C5.01 7.34 4.02 6.68 3 6 C2.8125 3.375 2.8125 3.375 3 1 C2.34 1 1.68 1 1 1 C0.67 2.32 0.34 3.64 0 5 C0 3.35 0 1.7 0 0 Z " fill="#878787" transform="translate(183,98)"/>
<path d="M0 0 C4 0 8 0 12 0 C12 0.66 12 1.32 12 2 C8.535 3.485 8.535 3.485 5 5 C5 4.01 5 3.02 5 2 C4.34 2 3.68 2 3 2 C3.33 5.63 3.66 9.26 4 13 C3.01 13.66 2.02 14.32 1 15 C0.67 14.01 0.34 13.02 0 12 C-0.66 11.67 -1.32 11.34 -2 11 C-0.68 10.67 0.64 10.34 2 10 C2 7.03 2 4.06 2 1 C1.34 0.67 0.68 0.34 0 0 Z " fill="#1E1E1E" transform="translate(69,112)"/>
<path d="M0 0 C0.99 0.33 1.98 0.66 3 1 C2.67 1.66 2.34 2.32 2 3 C1.34 3 0.68 3 0 3 C0 3.99 0 4.98 0 6 C1.65 6 3.3 6 5 6 C5 6.33 5 6.66 5 7 C4.071875 7.0825 3.14375 7.165 2.1875 7.25 C-1.08509879 7.70257552 -1.08509879 7.70257552 -2.875 10.0625 C-3.431875 11.0215625 -3.431875 11.0215625 -4 12 C-3.67 12.66 -3.34 13.32 -3 14 C-4.32 14 -5.64 14 -7 14 C-5.5 11 -5.5 11 -4 8 C-4.99 8.33 -5.98 8.66 -7 9 C-7 8.01 -7 7.02 -7 6 C-6.38125 5.9175 -5.7625 5.835 -5.125 5.75 C-2.82618538 5.19392091 -2.82618538 5.19392091 -1.8125 3 C-1.544375 2.34 -1.27625 1.68 -1 1 C-0.67 0.67 -0.34 0.34 0 0 Z " fill="#C9C9C9" transform="translate(175,102)"/>
<path d="M0 0 C0.99 0 1.98 0 3 0 C3 7.26 3 14.52 3 22 C2.67 22 2.34 22 2 22 C2 17.71 2 13.42 2 9 C1.01 9.33 0.02 9.66 -1 10 C-1.02689216 8.52093108 -1.04634621 7.04172517 -1.0625 5.5625 C-1.07410156 4.73878906 -1.08570312 3.91507812 -1.09765625 3.06640625 C-1 1 -1 1 0 0 Z " fill="#B8B8B8" transform="translate(22,69)"/>
<path d="M0 0 C1.98 0 3.96 0 6 0 C6.144375 0.7425 6.28875 1.485 6.4375 2.25 C6.90187492 4.52027739 7.41863569 6.75759479 8 9 C5.00667261 8.0022242 4.05233685 7.2477975 2 5 C2 6.32 2 7.64 2 9 C1.34 9 0.68 9 0 9 C0 6.03 0 3.06 0 0 Z " fill="#4C4C4C" transform="translate(40,6)"/>
<path d="M0 0 C0 1.98 0 3.96 0 6 C-6.75 10 -6.75 10 -9 10 C-8.52153935 5.69385411 -7.34073619 3.75119451 -4 1 C-1 0 -1 0 0 0 Z " fill="#101316" transform="translate(146,96)"/>
<path d="M0 0 C0.99 0.33 1.98 0.66 3 1 C3.99 1 4.98 1 6 1 C6.33 1.33 6.66 1.66 7 2 C7.66 1.34 8.32 0.68 9 0 C8.625 2.9375 8.625 2.9375 8 6 C7.01 6.495 7.01 6.495 6 7 C5.67 6.34 5.34 5.68 5 5 C4.67 5.66 4.34 6.32 4 7 C1.69 7 -0.62 7 -3 7 C-3 5.68 -3 4.36 -3 3 C-2.01 3.33 -1.02 3.66 0 4 C0 2.68 0 1.36 0 0 Z " fill="#727272" transform="translate(189,23)"/>
<path d="M0 0 C0.33 0 0.66 0 1 0 C1 1.98 1 3.96 1 6 C-5.75 10 -5.75 10 -8 10 C-7.65930765 6.84859577 -7.41923159 5.39218439 -5.0625 3.1875 C-3 2 -3 2 -1 2 C-0.67 1.34 -0.34 0.68 0 0 Z " fill="#161616" transform="translate(145,123)"/>
<path d="M0 0 C2.64 0 5.28 0 8 0 C8 1.98 8 3.96 8 6 C7.236875 5.835 6.47375 5.67 5.6875 5.5 C2.96403764 4.90854604 2.96403764 4.90854604 0 5 C0 3.35 0 1.7 0 0 Z " fill="#BCBCBC" transform="translate(196,98)"/>
<path d="M0 0 C2.475 0.99 2.475 0.99 5 2 C5.33 1.34 5.66 0.68 6 0 C7.32 0.99 8.64 1.98 10 3 C9.67 3.66 9.34 4.32 9 5 C8.01 5.33 7.02 5.66 6 6 C5.34 6.66 4.68 7.32 4 8 C3.34 7.01 2.68 6.02 2 5 C1.34 6.32 0.68 7.64 0 9 C0 6.03 0 3.06 0 0 Z " fill="#EAEAEA" transform="translate(191,19)"/>
<path d="M0 0 C2.125 0.375 2.125 0.375 4 1 C4 2.98 4 4.96 4 7 C2.35 7.33 0.7 7.66 -1 8 C-1.625 5.125 -1.625 5.125 -2 2 C-1.34 1.34 -0.68 0.68 0 0 Z " fill="#B5B5B5" transform="translate(202,195)"/>
<path d="M0 0 C0.99 0.33 1.98 0.66 3 1 C3 3.31 3 5.62 3 8 C1.35 8.33 -0.3 8.66 -2 9 C-3 6 -3 6 -3 2 C-2.01 1.34 -1.02 0.68 0 0 Z " fill="#C4C4C4" transform="translate(188,195)"/>
<path d="M0 0 C2.21538462 5.41538462 2.21538462 5.41538462 1.125 8.375 C0.75375 8.91125 0.3825 9.4475 0 10 C0 9.34 0 8.68 0 8 C-1.65 8 -3.3 8 -5 8 C-4.67 6.35 -4.34 4.7 -4 3 C-4.66 2.67 -5.32 2.34 -6 2 C-3 0 -3 0 0 0 Z " fill="#5D5D5D" transform="translate(144,117)"/>
<path d="M0 0 C0.89203125 0.20367187 1.7840625 0.40734375 2.703125 0.6171875 C3.37859375 0.78476562 4.0540625 0.95234375 4.75 1.125 C3.16464797 2.99769708 2.25528954 4.02108965 -0.1875 4.5234375 C-5.80384615 4.45961538 -5.80384615 4.45961538 -8.25 2.625 C-8.58 2.13 -8.91 1.635 -9.25 1.125 C-5.82794357 -1.03377391 -3.8855015 -0.92025036 0 0 Z " fill="#565656" transform="translate(40.25,50.875)"/>
<path d="M0 0 C0.66 0 1.32 0 2 0 C2.66 1.32 3.32 2.64 4 4 C4.33 3.01 4.66 2.02 5 1 C5.66 1 6.32 1 7 1 C7 3.97 7 6.94 7 10 C6.34 10 5.68 10 5 10 C3.375 7.5 3.375 7.5 2 5 C1.34 6.32 0.68 7.64 0 9 C0 6.03 0 3.06 0 0 Z " fill="#ADADAD" transform="translate(64,112)"/>
<path d="M0 0 C0.66 0 1.32 0 2 0 C3.21676146 2.57667134 4.05184833 4.37782003 3.8125 7.25 C3.544375 7.8275 3.27625 8.405 3 9 C2.01 9.33 1.02 9.66 0 10 C-0.33 9.34 -0.66 8.68 -1 8 C-1.66 8 -2.32 8 -3 8 C-1.125 2.25 -1.125 2.25 0 0 Z " fill="#9C9C9C" transform="translate(58,111)"/>
<path d="M0 0 C1.0528418 0.01353516 1.0528418 0.01353516 2.12695312 0.02734375 C3.85561525 0.05086296 5.58410145 0.08673287 7.3125 0.125 C7.3125 0.455 7.3125 0.785 7.3125 1.125 C6.405 1.228125 5.4975 1.33125 4.5625 1.4375 C1.31924086 1.87292931 1.31924086 1.87292931 -0.75 3.75 C-2.6875 5.125 -2.6875 5.125 -5.25 4.9375 C-7.6875 4.125 -7.6875 4.125 -10.6875 2.125 C-7.00662647 -0.32891569 -4.24394412 -0.10302759 0 0 Z " fill="#797979" transform="translate(58.6875,42.875)"/>
<path d="M0 0 C0.33 0 0.66 0 1 0 C0.51344743 7.54156479 0.51344743 7.54156479 -1.75 9.5625 C-4.447665 10.08704597 -6.36877173 9.73089674 -9 9 C-4.25 5 -4.25 5 -2 5 C-1.34 3.35 -0.68 1.7 0 0 Z " fill="#666666" transform="translate(148,124)"/>
<path d="M0 0 C2.43189168 0.85116209 4.69691285 1.84845643 7 3 C6.67 3.66 6.34 4.32 6 5 C5.01 4.67 4.02 4.34 3 4 C3 6.31 3 8.62 3 11 C1.0549 8.08235 0.54723683 6.37462715 0 3 C-0.99 3.33 -1.98 3.66 -3 4 C-2.67 3.01 -2.34 2.02 -2 1 C-1.34 0.67 -0.68 0.34 0 0 Z " fill="#222222" transform="translate(60,108)"/>
<path d="M0 0 C1.32 0.66 2.64 1.32 4 2 C3.67 4.31 3.34 6.62 3 9 C2.67 9 2.34 9 2 9 C1.67 7.35 1.34 5.7 1 4 C0.01 4.33 -0.98 4.66 -2 5 C-2 6.32 -2 7.64 -2 9 C-2.66 9 -3.32 9 -4 9 C-4.25 6.1875 -4.25 6.1875 -4 3 C-2 1.125 -2 1.125 0 0 Z " fill="#C2C2C2" transform="translate(196,194)"/>
<path d="M0 0 C2.97 0.495 2.97 0.495 6 1 C5.67 2.65 5.34 4.3 5 6 C2.125 6.125 2.125 6.125 -1 6 C-1.66 5.34 -2.32 4.68 -3 4 C-2.34 3.34 -1.68 2.68 -1 2 C-0.67 1.34 -0.34 0.68 0 0 Z " fill="#262628" transform="translate(97,169)"/>
<path d="M0 0 C0.66 0 1.32 0 2 0 C5 5.75 5 5.75 5 8 C3.35 8.33 1.7 8.66 0 9 C0 7.68 0 6.36 0 5 C0.66 5 1.32 5 2 5 C1.67 4.34 1.34 3.68 1 3 C-0.485 5.475 -0.485 5.475 -2 8 C-2.66 7.67 -3.32 7.34 -4 7 C-2.68 4.69 -1.36 2.38 0 0 Z " fill="#393939" transform="translate(8,7)"/>
<path d="M0 0 C1.98 0 3.96 0 6 0 C6 1.32 6 2.64 6 4 C5.34 4 4.68 4 4 4 C4 4.66 4 5.32 4 6 C2.35 5.67 0.7 5.34 -1 5 C-0.67 3.35 -0.34 1.7 0 0 Z " fill="#CACACA" transform="translate(176,48)"/>
<path d="M0 0 C1.32 0.33 2.64 0.66 4 1 C4.33 3.64 4.66 6.28 5 9 C4.01 8.67 3.02 8.34 2 8 C1.67 7.34 1.34 6.68 1 6 C0.67 6.66 0.34 7.32 0 8 C-0.66 8 -1.32 8 -2 8 C-2 6.35 -2 4.7 -2 3 C-0.68 2.67 0.64 2.34 2 2 C1.34 1.34 0.68 0.68 0 0 Z " fill="#B1B1B1" transform="translate(88,118)"/>
<path d="M0 0 C0.98613281 0.20882812 1.97226562 0.41765625 2.98828125 0.6328125 C3.98214844 0.83648437 4.97601563 1.04015625 6 1.25 C6.75925781 1.41757812 7.51851562 1.58515625 8.30078125 1.7578125 C7.31078125 2.2528125 7.31078125 2.2528125 6.30078125 2.7578125 C5.97078125 3.7478125 5.64078125 4.7378125 5.30078125 5.7578125 C4.97078125 5.0978125 4.64078125 4.4378125 4.30078125 3.7578125 C3.31078125 4.2528125 3.31078125 4.2528125 2.30078125 4.7578125 C2.30078125 4.0978125 2.30078125 3.4378125 2.30078125 2.7578125 C1.31078125 2.7578125 0.32078125 2.7578125 -0.69921875 2.7578125 C-1.02921875 3.4178125 -1.35921875 4.0778125 -1.69921875 4.7578125 C-1.69921875 4.0978125 -1.69921875 3.4378125 -1.69921875 2.7578125 C-3.01921875 2.4278125 -4.33921875 2.0978125 -5.69921875 1.7578125 C-2.69921875 -0.2421875 -2.69921875 -0.2421875 0 0 Z " fill="#434343" transform="translate(32.69921875,53.2421875)"/>
<path d="M0 0 C1 2 1 2 0.5 4 C-1.75069493 7.00092657 -4.44640878 7.21031306 -8 8 C-7.67 7.01 -7.34 6.02 -7 5 C-6.34 5 -5.68 5 -5 5 C-5 4.34 -5 3.68 -5 3 C-4.34 3 -3.68 3 -3 3 C-3 2.34 -3 1.68 -3 1 C-2.01 0.67 -1.02 0.34 0 0 Z " fill="#585858" transform="translate(144,133)"/>
<path d="M0 0 C0.33 0.66 0.66 1.32 1 2 C1.66 2 2.32 2 3 2 C3 4.64 3 7.28 3 10 C2.34 10 1.68 10 1 10 C-0.625 7.25 -0.625 7.25 -2 4 C-1.1875 1.625 -1.1875 1.625 0 0 Z " fill="#D2D2D2" transform="translate(12,5)"/>
<path d="M0 0 C0.99 0.33 1.98 0.66 3 1 C3 2.65 3 4.3 3 6 C-0.3 6 -3.6 6 -7 6 C-6.67 5.34 -6.34 4.68 -6 4 C-5.01 4.33 -4.02 4.66 -3 5 C-2.67 4.34 -2.34 3.68 -2 3 C-1.34 2.01 -0.68 1.02 0 0 Z " fill="#939393" transform="translate(171,48)"/>
<path d="M0 0 C3.875 1.875 3.875 1.875 5 3 C5.66 2.01 6.32 1.02 7 0 C7 2.64 7 5.28 7 8 C5.35 6.35 3.7 4.7 2 3 C1.67 4.65 1.34 6.3 1 8 C0.67 8 0.34 8 0 8 C0 5.36 0 2.72 0 0 Z " fill="#0F0F0F" transform="translate(15,7)"/>
<path d="M0 0 C0.99 0.66 1.98 1.32 3 2 C1.42210402 3.15330947 -0.1625482 4.29737927 -1.75 5.4375 C-2.63171875 6.07558594 -3.5134375 6.71367187 -4.421875 7.37109375 C-6.72699125 8.8275081 -8.34349572 9.55931821 -11 10 C-9.99382318 7.32423308 -9.45785454 6.2214892 -6.8359375 4.953125 C-6.02382812 4.72109375 -5.21171875 4.4890625 -4.375 4.25 C-3.14910156 3.88648438 -3.14910156 3.88648438 -1.8984375 3.515625 C-1.27195313 3.34546875 -0.64546875 3.1753125 0 3 C0 2.01 0 1.02 0 0 Z " fill="#585858" transform="translate(142,168)"/>
<path d="M0 0 C0.66 0 1.32 0 2 0 C2.33 0.66 2.66 1.32 3 2 C3.99 1.67 4.98 1.34 6 1 C4.55746343 4.36591866 2.66735273 6.51047079 0 9 C0 6.03 0 3.06 0 0 Z " fill="#ADADAD" transform="translate(72,114)"/>
<path d="M0 0 C1.65 0 3.3 0 5 0 C4.67 2.31 4.34 4.62 4 7 C3.01 7.33 2.02 7.66 1 8 C0 7 0 7 -0.0625 3.4375 C-0.041875 2.303125 -0.02125 1.16875 0 0 Z " fill="#9D9D9D" transform="translate(183,23)"/>
<path d="M0 0 C2.97 0.495 2.97 0.495 6 1 C6 3.31 6 5.62 6 8 C5.67 6.68 5.34 5.36 5 4 C3.68 4.33 2.36 4.66 1 5 C0.67 3.35 0.34 1.7 0 0 Z " fill="#EFEFEF" transform="translate(176,168)"/>
<path d="M0 0 C1.95803507 -0.05389087 3.91648909 -0.09274217 5.875 -0.125 C7.51082031 -0.15980469 7.51082031 -0.15980469 9.1796875 -0.1953125 C12 0 12 0 14 2 C11.69 2.66 9.38 3.32 7 4 C6.67 3.34 6.34 2.68 6 2 C2.97065509 1.34227572 2.97065509 1.34227572 0 1 C0 0.67 0 0.34 0 0 Z " fill="#434343" transform="translate(52,44)"/>
<path d="M0 0 C-1.125 1.5 -1.125 1.5 -3 3 C-6.1875 3.1875 -6.1875 3.1875 -9 3 C-9 2.01 -9 1.02 -9 0 C-5.93109813 -1.53445094 -3.29905734 -0.54984289 0 0 Z " fill="#333333" transform="translate(131,178)"/>
<path d="M0 0 C2.475 0.495 2.475 0.495 5 1 C5 2.65 5 4.3 5 6 C3.68 6 2.36 6 1 6 C0.67 4.02 0.34 2.04 0 0 Z " fill="#F1F1F1" transform="translate(10,80)"/>
<path d="M0 0 C2.0625 0.4375 2.0625 0.4375 4 1 C4 2.98 4 4.96 4 7 C3.34 6.67 2.68 6.34 2 6 C2.33 5.34 2.66 4.68 3 4 C2.01 4 1.02 4 0 4 C0.33 4.99 0.66 5.98 1 7 C0.34 7 -0.32 7 -1 7 C-1.04254356 5.00045254 -1.04080783 2.99958364 -1 1 C-0.67 0.67 -0.34 0.34 0 0 Z " fill="#7A7A7A" transform="translate(178,23)"/>
<path d="M0 0 C1.65 0 3.3 0 5 0 C5 1.32 5 2.64 5 4 C4.01 4.33 3.02 4.66 2 5 C1.34 5.66 0.68 6.32 0 7 C0 4.69 0 2.38 0 0 Z " fill="#A7A7A7" transform="translate(168,196)"/>
<path d="M0 0 C0 0.66 0 1.32 0 2 C-3 4 -3 4 -6.1875 3.625 C-7.115625 3.41875 -8.04375 3.2125 -9 3 C-8.67 2.01 -8.34 1.02 -8 0 C-5.13822943 -1.43088528 -3.06624227 -0.59991697 0 0 Z " fill="#1F1F1F" transform="translate(91,113)"/>
<path d="M0 0 C0.33 0 0.66 0 1 0 C1.33 2.31 1.66 4.62 2 7 C2.66 7 3.32 7 4 7 C4 7.66 4 8.32 4 9 C2.02 9.33 0.04 9.66 -2 10 C-1.34 9.67 -0.68 9.34 0 9 C-0.185625 8.443125 -0.37125 7.88625 -0.5625 7.3125 C-1.07551165 4.600867 -0.6640724 2.65628961 0 0 Z " fill="#CFCFCF" transform="translate(196,173)"/>
<path d="M0 0 C0.33 0 0.66 0 1 0 C1.33 3.3 1.66 6.6 2 10 C1.01 10 0.02 10 -1 10 C-1 10.66 -1 11.32 -1 12 C-1.99 12.33 -2.98 12.66 -4 13 C-2.125 8.125 -2.125 8.125 -1 7 C-0.63239269 4.67182036 -0.29758419 2.3381615 0 0 Z " fill="#454545" transform="translate(63,112)"/>
<path d="M0 0 C0.66 0 1.32 0 2 0 C2 0.66 2 1.32 2 2 C2.99 2.33 3.98 2.66 5 3 C5 4.65 5 6.3 5 8 C4.34 8 3.68 8 3 8 C3 6.68 3 5.36 3 4 C2.34 4 1.68 4 1 4 C0.34 4.66 -0.32 5.32 -1 6 C-1.042721 4.33388095 -1.04063832 2.66617115 -1 1 C-0.67 0.67 -0.34 0.34 0 0 Z " fill="#A3A3A3" transform="translate(6,77)"/>
<path d="M0 0 C1.98 0.495 1.98 0.495 4 1 C4 2.65 4 4.3 4 6 C2.35 6 0.7 6 -1 6 C-0.67 5.01 -0.34 4.02 0 3 C-0.33 2.67 -0.66 2.34 -1 2 C-0.67 1.34 -0.34 0.68 0 0 Z " fill="#A4A4A4" transform="translate(195,48)"/>
<path d="M0 0 C0.33 0.66 0.66 1.32 1 2 C2.65 2 4.3 2 6 2 C5.34 4.31 4.68 6.62 4 9 C3.38125 8.21625 2.7625 7.4325 2.125 6.625 C0.10141339 4.03162353 0.10141339 4.03162353 -2 2 C-1.34 2 -0.68 2 0 2 C0 1.34 0 0.68 0 0 Z " fill="#E4E4E4" transform="translate(185,20)"/>
<path d="M0 0 C0.598125 0.61875 1.19625 1.2375 1.8125 1.875 C4.00811144 4.13676954 4.00811144 4.13676954 7 6 C5.0085944 6.38133299 3.00720923 6.71325582 1 7 C0 6 0 6 -0.0625 2.9375 C-0.041875 1.968125 -0.02125 0.99875 0 0 Z " fill="#E8E8E8" transform="translate(186,176)"/>
<path d="M0 0 C1.32 0.33 2.64 0.66 4 1 C3.67 2.65 3.34 4.3 3 6 C2.01 6 1.02 6 0 6 C0 4.02 0 2.04 0 0 Z " fill="#D9D9D9" transform="translate(190,172)"/>
<path d="M0 0 C2.97 0.33 5.94 0.66 9 1 C8.01 2.485 8.01 2.485 7 4 C4.69 3.34 2.38 2.68 0 2 C0 1.34 0 0.68 0 0 Z " fill="#B4B4B4" transform="translate(8,77)"/>
<path d="M0 0 C2.475 0.495 2.475 0.495 5 1 C5 2.65 5 4.3 5 6 C4.67 4.68 4.34 3.36 4 2 C3.34 2 2.68 2 2 2 C2 3.32 2 4.64 2 6 C1.34 6 0.68 6 0 6 C0 4.02 0 2.04 0 0 Z " fill="#A4A4A4" transform="translate(182,48)"/>
<path d="M0 0 C3.875 0.875 3.875 0.875 5 2 C5.04080783 3.99958364 5.04254356 6.00045254 5 8 C4.34 8 3.68 8 3 8 C2.87625 7.195625 2.7525 6.39125 2.625 5.5625 C2.315625 4.2940625 2.315625 4.2940625 2 3 C1.34 2.67 0.68 2.34 0 2 C0 1.34 0 0.68 0 0 Z " fill="#333333" transform="translate(191,170)"/>
<path d="M0 0 C0.66 0.33 1.32 0.66 2 1 C0.84826645 3.46800047 -0.04783565 5.04783565 -2 7 C-2.99 7 -3.98 7 -5 7 C-4.60196439 4.11424181 -4.20990931 3.17810487 -1.9375 1.25 C-1.298125 0.8375 -0.65875 0.425 0 0 Z " fill="#F1F1F1" transform="translate(145,169)"/>
<path d="M0 0 C0.33 0.66 0.66 1.32 1 2 C1.99 2.33 2.98 2.66 4 3 C0.25 6 0.25 6 -2 6 C-1.125 1.125 -1.125 1.125 0 0 Z " fill="#1E2225" transform="translate(139,100)"/>
<path d="M0 0 C1.2065625 0.0309375 1.2065625 0.0309375 2.4375 0.0625 C1.28576645 2.53050047 0.38966435 4.11033565 -1.5625 6.0625 C-2.2225 4.4125 -2.8825 2.7625 -3.5625 1.0625 C-2.5625 0.0625 -2.5625 0.0625 0 0 Z " fill="#E8E8E8" transform="translate(187.5625,167.9375)"/>
<path d="M0 0 C2.0625 0.4375 2.0625 0.4375 4 1 C4 1.99 4 2.98 4 4 C2.68 4.33 1.36 4.66 0 5 C-0.5625 3.0625 -0.5625 3.0625 -1 1 C-0.67 0.67 -0.34 0.34 0 0 Z " fill="#EAEAEA" transform="translate(203,110)"/>
<path d="M0 0 C0.99 0.33 1.98 0.66 3 1 C3.33 2.98 3.66 4.96 4 7 C3.01 7 2.02 7 1 7 C0 6 0 6 -0.0625 2.9375 C-0.041875 1.968125 -0.02125 0.99875 0 0 Z " fill="#F4F4F4" transform="translate(193,97)"/>
<path d="M0 0 C0.99 0.33 1.98 0.66 3 1 C3 1.99 3 2.98 3 4 C2.34 4 1.68 4 1 4 C1 5.32 1 6.64 1 8 C0.34 8 -0.32 8 -1 8 C-0.67 5.36 -0.34 2.72 0 0 Z " fill="#B4B4B4" transform="translate(6,80)"/>
<path d="M0 0 C0.66 0 1.32 0 2 0 C2 0.99 2 1.98 2 3 C2.66 3.33 3.32 3.66 4 4 C3.34 4.66 2.68 5.32 2 6 C1.01 5.67 0.02 5.34 -1 5 C-0.67 3.35 -0.34 1.7 0 0 Z " fill="#F0F0F0" transform="translate(180,178)"/>
<path d="M0 0 C0.99 0 1.98 0 3 0 C3 1.98 3 3.96 3 6 C1.68 5.67 0.36 5.34 -1 5 C-0.67 3.35 -0.34 1.7 0 0 Z " fill="#787878" transform="translate(201,98)"/>
<path d="M0 0 C1.67542976 0.28604898 3.34385343 0.61781233 5 1 C2.61426621 2.89213369 0.92824652 4.02391783 -2 5 C-1.125 1.125 -1.125 1.125 0 0 Z " fill="#767676" transform="translate(128,84)"/>
<path d="M0 0 C2.24606427 1.77444972 2.95081002 2.58352485 3.29296875 5.48046875 C3.25816406 6.37378906 3.22335938 7.26710938 3.1875 8.1875 C3.16042969 9.08855469 3.13335937 9.98960938 3.10546875 10.91796875 C3.07066406 11.60503906 3.03585938 12.29210937 3 13 C2.67 13 2.34 13 2 13 C1.855625 11.783125 1.71125 10.56625 1.5625 9.3125 C1.17219047 6.17329623 0.67648144 3.0924866 0 0 Z " fill="#535353" transform="translate(150,59)"/>
<path d="M0 0 C0.99 0.33 1.98 0.66 3 1 C1.35 2.65 -0.3 4.3 -2 6 C-2.66 5.67 -3.32 5.34 -4 5 C-4 4.34 -4 3.68 -4 3 C-2.1875 1.3125 -2.1875 1.3125 0 0 Z " fill="#343434" transform="translate(43,53)"/>
<path d="M0 0 C2.97 0.33 5.94 0.66 9 1 C9 1.66 9 2.32 9 3 C6.1875 3.1875 6.1875 3.1875 3 3 C2.01 2.01 1.02 1.02 0 0 Z " fill="#757575" transform="translate(89,48)"/>
<path d="M0 0 C1.65 0 3.3 0 5 0 C4.67 1.32 4.34 2.64 4 4 C1.525 3.01 1.525 3.01 -1 2 C-0.67 1.34 -0.34 0.68 0 0 Z " fill="#F4F4F4" transform="translate(181,18)"/>
</svg>
