<?xml version="1.0" encoding="UTF-8"?>
<svg version="1.1" xmlns="http://www.w3.org/2000/svg" width="225" height="225">
<path d="M0 0 C74.25 0 148.5 0 225 0 C225 74.25 225 148.5 225 225 C150.75 225 76.5 225 0 225 C0 150.75 0 76.5 0 0 Z " fill="#FCFCFC" transform="translate(0,0)"/>
<path d="M0 0 C6.75016702 0.70048903 12.78224422 2.81041337 19.1484375 5.09179688 C23.94659273 6.76870209 23.94659273 6.76870209 28.8984375 6.30078125 C30.62065351 5.23479996 32.31474501 4.12350332 34 3 C39.20268309 2.70880505 44.14070007 3.90993305 48.96484375 5.765625 C53.25240492 7.37120135 57.55777409 8.86801184 61.91015625 10.2890625 C63.08384766 10.67320313 64.25753906 11.05734375 65.46679688 11.453125 C67.89801682 12.24548348 70.33034241 13.03445623 72.76367188 13.8203125 C73.92576172 14.201875 75.08785156 14.5834375 76.28515625 14.9765625 C77.33582275 15.31768066 78.38648926 15.65879883 79.46899414 16.01025391 C82 17 82 17 84 19 C84.26069641 20.96424866 84.26069641 20.96424866 84.2746582 23.39868164 C84.28419022 24.3104567 84.29372223 25.22223175 84.30354309 26.16163635 C84.30263168 27.15114792 84.30172028 28.14065948 84.30078125 29.16015625 C84.30506638 30.1791954 84.3093515 31.19823456 84.31376648 32.24815369 C84.31951989 34.41111508 84.32000264 36.57409583 84.31567383 38.73706055 C84.31253587 42.02492073 84.33588384 45.31186199 84.36132812 48.59960938 C84.36360341 50.70312387 84.36430355 52.80664077 84.36328125 54.91015625 C84.372491 55.8854982 84.38170074 56.86084015 84.39118958 57.86573792 C84.32329342 68.04494759 81.99948218 75.05153294 74.703125 82.2734375 C68.29650022 87.76191541 68.29650022 87.76191541 64.8515625 88.39453125 C62.74675103 88.17406681 60.99105219 87.71369691 59 87 C58.37738281 86.79375 57.75476563 86.5875 57.11328125 86.375 C55.05058058 85.63862004 53.03070681 84.82030347 51 84 C49.29419896 83.36812139 47.5856474 82.74363822 45.875 82.125 C44.95074219 81.78855469 44.02648437 81.45210938 43.07421875 81.10546875 C40.85132451 80.30613067 38.62419334 79.5185422 36.39453125 78.73828125 C35.17121094 78.30902344 33.94789062 77.87976563 32.6875 77.4375 C31.55699219 77.04433594 30.42648438 76.65117187 29.26171875 76.24609375 C21.14534884 73.14534884 21.14534884 73.14534884 18 70 C17.43479997 67.34462628 17.26211802 64.70855287 17 62 C15.90300781 61.60167969 14.80601563 61.20335937 13.67578125 60.79296875 C12.22125618 60.25807888 10.76683452 59.72290775 9.3125 59.1875 C8.59126953 58.92646484 7.87003906 58.66542969 7.12695312 58.39648438 C-2.86647727 54.70028409 -2.86647727 54.70028409 -6 50 C-6.07905064 47.66800612 -6.08798769 45.33167378 -6 43 C-6.64066406 42.81824219 -7.28132813 42.63648438 -7.94140625 42.44921875 C-13.14395897 40.93729955 -18.07144327 39.24999329 -23 37 C-20 36 -20 36 -17.8125 36.9375 C-16.9153125 37.4634375 -16.9153125 37.4634375 -16 38 C-16 37.34 -16 36.68 -16 36 C-17.3921875 35.814375 -17.3921875 35.814375 -18.8125 35.625 C-22 35 -22 35 -25 33 C-24.67 32.34 -24.34 31.68 -24 31 C-23.030625 31.474375 -22.06125 31.94875 -21.0625 32.4375 C-17.36687133 34.04396716 -13.91490999 34.50012699 -9.91796875 34.7890625 C-8 35 -8 35 -6 36 C-6 28.74 -6 21.48 -6 14 C-9.3 13.34 -12.6 12.68 -16 12 C-17.88461119 11.49278365 -19.76311615 10.96016349 -21.625 10.375 C-22.46289062 10.11460938 -23.30078125 9.85421875 -24.1640625 9.5859375 C-24.76992188 9.39257812 -25.37578125 9.19921875 -26 9 C-26 8.34 -26 7.68 -26 7 C-22.7 7.99 -19.4 8.98 -16 10 C-16 9.34 -16 8.68 -16 8 C-20.455 7.01 -20.455 7.01 -25 6 C-25 5.01 -25 4.02 -25 3 C-20.86376678 1.23337354 -17.39822921 2.97466559 -13.4375 4.4375 C-8.35637206 6.35673993 -8.35637206 6.35673993 -3 7 C-2.01 4.69 -1.02 2.38 0 0 Z " fill="#252527" transform="translate(38,86)"/>
<path d="M0 0 C13.62640449 2.62640449 13.62640449 2.62640449 17 6 C17.1085509 7.42526716 17.14901791 8.8558127 17.16113281 10.28515625 C17.17074036 11.19700684 17.1803479 12.10885742 17.19024658 13.04833984 C17.19449646 14.0430127 17.19874634 15.03768555 17.203125 16.0625 C17.20882507 17.0829541 17.21452515 18.1034082 17.22039795 19.15478516 C17.22986946 21.32371987 17.23639042 23.49266911 17.24023438 25.66162109 C17.24987793 28.9582705 17.28085517 32.25428002 17.3125 35.55078125 C17.31903609 37.65885047 17.32428418 39.76692415 17.328125 41.875 C17.3404718 42.853479 17.3528186 43.83195801 17.36553955 44.84008789 C17.33858746 53.25565057 16.02292431 60.75605094 10 67 C8.35655595 68.48766736 6.66774128 69.92674114 4.9375 71.3125 C4.08027344 72.00988281 3.22304687 72.70726562 2.33984375 73.42578125 C0 75 0 75 -3 75 C-3.91288307 72.26135079 -4.12633653 70.65690676 -4.12939453 67.83911133 C-4.13254669 67.00426712 -4.13569885 66.16942291 -4.13894653 65.3092804 C-4.1369223 64.40928818 -4.13489807 63.50929596 -4.1328125 62.58203125 C-4.13376923 61.65081955 -4.13472595 60.71960785 -4.13571167 59.76017761 C-4.13639247 57.78730197 -4.13454512 55.81442408 -4.13037109 53.84155273 C-4.12505157 50.8415819 -4.13030382 47.84176286 -4.13671875 44.84179688 C-4.13605736 42.92187467 -4.13477494 41.00195256 -4.1328125 39.08203125 C-4.13483673 38.19216019 -4.13686096 37.30228912 -4.13894653 36.38545227 C-4.08633461 22.18821736 -4.08633461 22.18821736 -0.9375 16.5 C-0.39416016 15.49453125 -0.39416016 15.49453125 0.16015625 14.46875 C0.43730469 13.9840625 0.71445313 13.499375 1 13 C-0.093125 13.061875 -1.18625 13.12375 -2.3125 13.1875 C-6 13 -6 13 -7.9375 11.6875 C-9 10 -9 10 -9 7 C-8.01 7 -7.02 7 -6 7 C-5.67 6.01 -5.34 5.02 -5 4 C-3.68352881 3.30062468 -2.34977849 2.63270867 -1 2 C-0.67 1.34 -0.34 0.68 0 0 Z " fill="#252526" transform="translate(105,99)"/>
<path d="M0 0 C6.75016702 0.70048903 12.78224422 2.81041337 19.1484375 5.09179688 C23.94659273 6.76870209 23.94659273 6.76870209 28.8984375 6.30078125 C30.62065351 5.23479996 32.31474501 4.12350332 34 3 C40.38448344 2.64265951 46.1754794 4.58555641 52.0390625 6.87890625 C57.26964808 8.85935224 62.64343931 10.39899299 68 12 C67.12890625 14.45703125 67.12890625 14.45703125 66 17 C63.9375 17.6875 63.9375 17.6875 62 18 C61.67 18.66 61.34 19.32 61 20 C60.01 20 59.02 20 58 20 C58 20.99 58 21.98 58 23 C59.485 23.495 59.485 23.495 61 24 C61 24.99 61 25.98 61 27 C62.98 27.495 62.98 27.495 65 28 C65 28.66 65 29.32 65 30 C57.03653374 29.73050876 51.08397707 28.56079555 44 25 C31.91763218 19.6401987 31.91763218 19.6401987 19 18 C18.67 18.66 18.34 19.32 18 20 C13.64988225 19.48822144 10.02434323 18.69446031 6 17 C4.34080104 16.63128912 2.6752357 16.28718326 1 16 C1 15.34 1 14.68 1 14 C-1.97 13.505 -1.97 13.505 -5 13 C-5 14.65 -5 16.3 -5 18 C-5.33 16.68 -5.66 15.36 -6 14 C-6.60585938 13.89042969 -7.21171875 13.78085938 -7.8359375 13.66796875 C-14.03143795 12.49558943 -19.99460467 10.91661553 -26 9 C-26 8.34 -26 7.68 -26 7 C-22.7 7.99 -19.4 8.98 -16 10 C-16 9.34 -16 8.68 -16 8 C-20.455 7.01 -20.455 7.01 -25 6 C-25 5.01 -25 4.02 -25 3 C-20.86376678 1.23337354 -17.39822921 2.97466559 -13.4375 4.4375 C-8.35637206 6.35673993 -8.35637206 6.35673993 -3 7 C-2.01 4.69 -1.02 2.38 0 0 Z " fill="#2F2F30" transform="translate(38,86)"/>
<path d="M0 0 C2.73206025 0.85149884 5.37424731 1.83665045 8.0390625 2.87890625 C13.26964808 4.85935224 18.64343931 6.39899299 24 8 C23.12890625 10.45703125 23.12890625 10.45703125 22 13 C19.9375 13.6875 19.9375 13.6875 18 14 C17.67 14.66 17.34 15.32 17 16 C16.01 16 15.02 16 14 16 C14 16.99 14 17.98 14 19 C14.99 19.33 15.98 19.66 17 20 C16.67 20.66 16.34 21.32 16 22 C15.41734375 21.73445313 14.8346875 21.46890625 14.234375 21.1953125 C9.48012705 19.14709876 5.14237703 17.74859435 0 17.0625 C-6.02951871 16.21118194 -10.76396291 14.03504805 -16 11 C-16 10.34 -16 9.68 -16 9 C-16.804375 8.71125 -17.60875 8.4225 -18.4375 8.125 C-21 7 -21 7 -22 5 C-21.38511719 4.73445313 -20.77023438 4.46890625 -20.13671875 4.1953125 C-19.32847656 3.84210938 -18.52023438 3.48890625 -17.6875 3.125 C-16.88699219 2.77695313 -16.08648437 2.42890625 -15.26171875 2.0703125 C-9.12408187 -0.8341996 -6.84215364 -1.32644262 0 0 Z " fill="#363638" transform="translate(82,90)"/>
<path d="M0 0 C0.66 0.33 1.32 0.66 2 1 C2 1.66 2 2.32 2 3 C3.98 3.66 5.96 4.32 8 5 C8 5.33 8 5.66 8 6 C5.69 6.66 3.38 7.32 1 8 C1 9.65 1 11.3 1 13 C2.32 13 3.64 13 5 13 C5 13.66 5 14.32 5 15 C-1.625 15.25 -1.625 15.25 -5 13 C-8.12521833 12.83300768 -8.12521833 12.83300768 -11 13 C-11.33 12.01 -11.66 11.02 -12 10 C-13.65204456 9.29788106 -15.31923769 8.63028587 -17 8 C-17.33 7.34 -17.66 6.68 -18 6 C-17.38511719 5.73445313 -16.77023438 5.46890625 -16.13671875 5.1953125 C-15.32847656 4.84210938 -14.52023438 4.48890625 -13.6875 4.125 C-12.88699219 3.77695313 -12.08648437 3.42890625 -11.26171875 3.0703125 C-4.20636333 -0.26849128 -4.20636333 -0.26849128 0 0 Z " fill="#2B2B2C" transform="translate(78,89)"/>
<path d="M0 0 C4.12618659 0.92628678 5.63976955 2.23694451 8.0625 5.6875 C8.0625 9.23111243 7.72100044 11.55341591 5.9375 14.625 C2.92336748 16.33300843 0.44161601 16.04954814 -2.9375 15.6875 C-5.5813246 14.10120524 -5.89682479 12.80952564 -6.875 9.875 C-6.97568096 4.74027102 -5.16345403 1.20846797 0 0 Z " fill="#C2C2C2" transform="translate(192.9375,203.3125)"/>
<path d="M0 0 C2.75578973 1.05991913 4.44775451 1.72667168 6.4375 3.9375 C7.01241549 7.89004396 7.05122366 10.01691451 4.8125 13.375 C1.73932885 15.39682313 0.05502119 15.46505517 -3.5625 14.9375 C-5.9375 13.9375 -5.9375 13.9375 -7.5625 11.9375 C-8.01590774 8.7636458 -8.2633417 6.94628591 -7.5625 3.9375 C-5.10113577 1.05418762 -3.83883316 -0.09363008 0 0 Z " fill="#0A0A0A" transform="translate(174.5625,204.0625)"/>
<path d="M0 0 C5.07623945 -0.47002217 8.09064478 -0.18934195 12.5625 2.3125 C18.01056955 5.31020133 23.42040177 6.17096691 29.49609375 7.25 C33.92128356 8.19719782 37.11006224 9.72475339 41 12 C42.32907223 12.67512164 43.66145882 13.34385236 45 14 C45 14.66 45 15.32 45 16 C37.04140474 15.7306736 31.0775898 14.57033496 24 11 C16.21693853 7.55416595 8.1994638 5.2211804 0 3 C0 2.01 0 1.02 0 0 Z " fill="#4A4A4C" transform="translate(58,100)"/>
<path d="M0 0 C2.76864953 -0.36858988 2.76864953 -0.36858988 5 -1 C7.2432148 2.05077213 8.08481522 3.34248007 7.58984375 7.1796875 C7.39519531 8.11039063 7.20054687 9.04109375 7 10 C4.70858714 10.05384521 2.41681812 10.09272087 0.125 10.125 C-1.78925781 10.15980469 -1.78925781 10.15980469 -3.7421875 10.1953125 C-7 10 -7 10 -9 8 C-9.33302312 4.8695827 -9.47671956 2.82101702 -7.875 0.0625 C-5.08622818 -1.51780403 -3.07752855 -0.61550571 0 0 Z " fill="#B7B7B7" transform="translate(150,171)"/>
<path d="M0 0 C5.49654124 0.73614392 10.77189337 2.50623399 15.95703125 4.4140625 C18.28660838 5.18379465 18.28660838 5.18379465 22 5 C22 5.66 22 6.32 22 7 C23.62553283 8.70680947 25.29115995 10.37660195 27 12 C25 13 25 13 21.875 12.0625 C20.451875 11.5365625 20.451875 11.5365625 19 11 C19 12.65 19 14.3 19 16 C18.67 14.68 18.34 13.36 18 12 C17.39414062 11.89042969 16.78828125 11.78085938 16.1640625 11.66796875 C9.96856205 10.49558943 4.00539533 8.91661553 -2 7 C-2 6.34 -2 5.68 -2 5 C1.3 5.99 4.6 6.98 8 8 C8 7.34 8 6.68 8 6 C3.545 5.01 3.545 5.01 -1 4 C-1 1 -1 1 0 0 Z " fill="#3E3E3F" transform="translate(14,88)"/>
<path d="M0 0 C3.3 0.33 6.6 0.66 10 1 C9.25 3.4375 9.25 3.4375 8 6 C5.9375 6.6875 5.9375 6.6875 4 7 C3.67 7.66 3.34 8.32 3 9 C2.01 9 1.02 9 0 9 C0 9.99 0 10.98 0 12 C0.99 12.33 1.98 12.66 3 13 C2.67 13.66 2.34 14.32 2 15 C1.12601563 14.60167969 1.12601563 14.60167969 0.234375 14.1953125 C-5.59569782 11.68361446 -11.01021445 10.40092293 -17.28125 9.50390625 C-20.67253075 8.8753499 -23.075717 7.78706183 -26 6 C-24.68 5.34 -23.36 4.68 -22 4 C-22 4.66 -22 5.32 -22 6 C-19.03 6.33 -16.06 6.66 -13 7 C-13 6.34 -13 5.68 -13 5 C-9.32264395 3.77421465 -8.44933477 4.53403272 -5 6 C-1.81509993 6.2773501 -1.81509993 6.2773501 1 4 C0.67 2.68 0.34 1.36 0 0 Z " fill="#2B2B2D" transform="translate(96,97)"/>
<path d="M0 0 C5.01515859 0.35822561 9.37114839 2.16442091 14 4 C14 6.31 14 8.62 14 11 C13.67 10.01 13.34 9.02 13 8 C12.01 8 11.02 8 10 8 C10 8.66 10 9.32 10 10 C10.66 10.33 11.32 10.66 12 11 C7.71 11 3.42 11 -1 11 C-2.50662097 7.98675805 -2.17770373 5.31713623 -2 2 C-1.34 1.34 -0.68 0.68 0 0 Z " fill="#EDEDED" transform="translate(165,188)"/>
<path d="M0 0 C2.31 0 4.62 0 7 0 C6.33333333 2.66666667 5.66666667 5.33333333 5 8 C4.34 8 3.68 8 3 8 C3 25.82 3 43.64 3 62 C-7 59 -7 59 -10 57 C-6.7 57 -3.4 57 0 57 C0.24150988 49.79229705 0.45658198 42.58447889 0.64697266 35.37524414 C0.7155135 32.92190415 0.79132983 30.46875636 0.87451172 28.01586914 C0.99269376 24.4939019 1.0848594 20.97207645 1.171875 17.44921875 C1.23565338 15.79910042 1.23565338 15.79910042 1.30072021 14.11564636 C1.32104309 13.09481461 1.34136597 12.07398285 1.36230469 11.0222168 C1.38895203 10.12286911 1.41559937 9.22352142 1.4430542 8.29692078 C1.2044943 5.81568603 1.2044943 5.81568603 -1.02264404 4.18611145 C-1.67517151 3.79469467 -2.32769897 3.40327789 -3 3 C-0.69 3.33 1.62 3.66 4 4 C3.04134491 1.66924071 3.04134491 1.66924071 0 0 Z " fill="#2D2D2F" transform="translate(99,112)"/>
<path d="M0 0 C0.66 0 1.32 0 2 0 C2.33 1.32 2.66 2.64 3 4 C3.66 2.68 4.32 1.36 5 0 C11.0546875 -0.1953125 11.0546875 -0.1953125 13 0 C13.66 0.66 14.32 1.32 15 2 C15.66 1.34 16.32 0.68 17 0 C19.625 0.375 19.625 0.375 22 1 C22 1.99 22 2.98 22 4 C20.35 4 18.7 4 17 4 C17 4.66 17 5.32 17 6 C18.65 5.67 20.3 5.34 22 5 C21.67 5.99 21.34 6.98 21 8 C20.21625 7.835 19.4325 7.67 18.625 7.5 C15.38120793 6.88213484 13.13712835 6.98802311 10 8 C9.67 8.66 9.34 9.32 9 10 C8.34 10 7.68 10 7 10 C6.67 8.35 6.34 6.7 6 5 C4.515 7.475 4.515 7.475 3 10 C2.34 9.67 1.68 9.34 1 9 C0.5859375 6.93359375 0.5859375 6.93359375 0.375 4.4375 C0.30023438 3.61121094 0.22546875 2.78492187 0.1484375 1.93359375 C0.09945312 1.29550781 0.05046875 0.65742187 0 0 Z " fill="#868686" transform="translate(160,112)"/>
<path d="M0 0 C5.28 0 10.56 0 16 0 C16.66 1.32 17.32 2.64 18 4 C16.9375 5.4765625 16.9375 5.4765625 15 7 C11.75 7.3984375 11.75 7.3984375 8 7.375 C6.7625 7.38273437 5.525 7.39046875 4.25 7.3984375 C1 7 1 7 -0.9375 5.4765625 C-1.288125 4.98929687 -1.63875 4.50203125 -2 4 C-1.34 2.68 -0.68 1.36 0 0 Z " fill="#A1A1A1" transform="translate(169,87)"/>
<path d="M0 0 C4.29 0 8.58 0 13 0 C11.68 0.33 10.36 0.66 9 1 C9 1.99 9 2.98 9 4 C10.65 4.33 12.3 4.66 14 5 C14 6.65 14 8.3 14 10 C10.32612505 10.85298376 6.9552607 11.10789471 3.1875 11.0625 C1.72376953 11.04896484 1.72376953 11.04896484 0.23046875 11.03515625 C-0.87361328 11.01775391 -0.87361328 11.01775391 -2 11 C-2 10.34 -2 9.68 -2 9 C-1.34 9 -0.68 9 0 9 C1.20628008 6.66785852 2.1654738 4.50357861 3 2 C2.01 1.34 1.02 0.68 0 0 Z " fill="#EAEAEA" transform="translate(163,49)"/>
<path d="M0 0 C7.58058252 -0.37281553 7.58058252 -0.37281553 9.6875 1.5 C10.120625 1.995 10.55375 2.49 11 3 C13.62570704 3.25069913 13.62570704 3.25069913 16 3 C16 4.98 16 6.96 16 9 C11.38 9 6.76 9 2 9 C0 3 0 3 0 0 Z " fill="#7A7A7A" transform="translate(163,145)"/>
<path d="M0 0 C1.134375 0.474375 2.26875 0.94875 3.4375 1.4375 C7.91298952 3.1348234 12.24712186 3.68094105 17 4 C17 4.66 17 5.32 17 6 C17.66 6 18.32 6 19 6 C19.8723412 8.99480917 20.10829766 11.63575911 20.0625 14.75 C20.05347656 15.54921875 20.04445313 16.3484375 20.03515625 17.171875 C20.02355469 17.77515625 20.01195313 18.3784375 20 19 C19.67 19 19.34 19 19 19 C19 16.69 19 14.38 19 12 C18.35933594 11.81824219 17.71867187 11.63648438 17.05859375 11.44921875 C11.85604103 9.93729955 6.92855673 8.24999329 2 6 C5 5 5 5 7.1875 5.9375 C8.0846875 6.4634375 8.0846875 6.4634375 9 7 C9 6.34 9 5.68 9 5 C8.071875 4.87625 7.14375 4.7525 6.1875 4.625 C3 4 3 4 0 2 C0 1.34 0 0.68 0 0 Z " fill="#646464" transform="translate(13,117)"/>
<path d="M0 0 C3 1 3 1 4 3 C4.33 2.01 4.66 1.02 5 0 C5.99 0 6.98 0 8 0 C8 1.32 8 2.64 8 4 C8.66 4.33 9.32 4.66 10 5 C9.67 6.98 9.34 8.96 9 11 C8.34 11 7.68 11 7 11 C7 11.66 7 12.32 7 13 C3.72085432 12.43463006 2.06619192 11.6296988 0 9 C-0.29296875 6.73828125 -0.29296875 6.73828125 -0.1875 4.3125 C-0.16042969 3.50425781 -0.13335937 2.69601563 -0.10546875 1.86328125 C-0.07066406 1.24839844 -0.03585938 0.63351563 0 0 Z " fill="#E0E0E0" transform="translate(181,146)"/>
<path d="M0 0 C0.66 0.99 1.32 1.98 2 3 C0.35 2.67 -1.3 2.34 -3 2 C-3 3.32 -3 4.64 -3 6 C-1.35 6.33 0.3 6.66 2 7 C1.67 7.99 1.34 8.98 1 10 C-1.25 10.75 -1.25 10.75 -4 11 C-5.35432675 9.68799596 -6.68733482 8.35368596 -8 7 C-10.66834966 6.66501699 -10.66834966 6.66501699 -13 7 C-13 6.34 -13 5.68 -13 5 C-11.35 5 -9.7 5 -8 5 C-8 4.01 -8 3.02 -8 2 C-4.79191085 -0.1387261 -3.72301503 -0.47730962 0 0 Z " fill="#959595" transform="translate(197,109)"/>
<path d="M0 0 C0.99 0.33 1.98 0.66 3 1 C3 1.66 3 2.32 3 3 C7.62 3 12.24 3 17 3 C16.67 4.65 16.34 6.3 16 8 C15.443125 7.79375 14.88625 7.5875 14.3125 7.375 C11.340462 6.89304789 9.68020059 7.73434972 7 9 C6.67 8.67 6.34 8.34 6 8 C4.68 8 3.36 8 2 8 C0.23537317 4.91190305 0 3.76687864 0 0 Z " fill="#E0E0E0" transform="translate(162,151)"/>
<path d="M0 0 C8.35281294 0.89494424 15.16912607 1.87684455 22 7 C20.40234375 8.1328125 20.40234375 8.1328125 18 9 C14.94140625 8.2421875 14.94140625 8.2421875 11.5625 6.875 C10.45003906 6.43929687 9.33757813 6.00359375 8.19140625 5.5546875 C5.04411835 4.02149217 2.63155088 2.2921546 0 0 Z " fill="#3A3A3B" transform="translate(34,138)"/>
<path d="M0 0 C0.66 0.33 1.32 0.66 2 1 C0.515 3.475 0.515 3.475 -1 6 C-0.01 6.33 0.98 6.66 2 7 C0.19561778 12.41314667 -4.59056139 15.59843307 -9 19 C-7.125 14.25 -7.125 14.25 -6 12 C-6.99 11.34 -7.98 10.68 -9 10 C-8.43410156 9.44570313 -7.86820313 8.89140625 -7.28515625 8.3203125 C-6.55167969 7.59585937 -5.81820312 6.87140625 -5.0625 6.125 C-4.33160156 5.40570312 -3.60070312 4.68640625 -2.84765625 3.9453125 C-0.94332001 2.12972808 -0.94332001 2.12972808 0 0 Z " fill="#222222" transform="translate(180,21)"/>
<path d="M0 0 C0.99 0 1.98 0 3 0 C3.96070434 2.88211302 4.10581883 4.69850044 4.0625 7.6875 C4.05347656 8.49574219 4.04445312 9.30398437 4.03515625 10.13671875 C4.02355469 10.75160156 4.01195312 11.36648437 4 12 C3.01 12 2.02 12 1 12 C-0.33981486 12.3062434 -1.67511887 12.63451555 -3 13 C-3.33 12.01 -3.66 11.02 -4 10 C-3.34 10 -2.68 10 -2 10 C-2.165 9.236875 -2.33 8.47375 -2.5 7.6875 C-3 5 -3 5 -3 2 C-1.02 2.495 -1.02 2.495 1 3 C0.67 2.01 0.34 1.02 0 0 Z " fill="#ECECEC" transform="translate(188,83)"/>
<path d="M0 0 C1.32 0 2.64 0 4 0 C4.33 0.66 4.66 1.32 5 2 C5.33 1.34 5.66 0.68 6 0 C7.32 0 8.64 0 10 0 C10 2.97 10 5.94 10 9 C8.02 9 6.04 9 4 9 C3.67 8.01 3.34 7.02 3 6 C2.67 6.99 2.34 7.98 2 9 C1.34 9 0.68 9 0 9 C0 6.03 0 3.06 0 0 Z " fill="#282828" transform="translate(36,16)"/>
<path d="M0 0 C0.66 0 1.32 0 2 0 C2 3.63 2 7.26 2 11 C0.6078125 10.7215625 0.6078125 10.7215625 -0.8125 10.4375 C-4.01343771 9.75876119 -4.01343771 9.75876119 -7 11 C-7 7.7 -7 4.4 -7 1 C-3.60085025 2.13304992 -2.94745549 3.12518475 -1 6 C-0.67 4.02 -0.34 2.04 0 0 Z " fill="#838383" transform="translate(188,188)"/>
<path d="M0 0 C1.9609375 0.26953125 1.9609375 0.26953125 4.375 0.8125 C5.56222656 1.06966797 5.56222656 1.06966797 6.7734375 1.33203125 C9 2 9 2 12 4 C11.01 4.33 10.02 4.66 9 5 C9.33 6.65 9.66 8.3 10 10 C4.06 8.515 4.06 8.515 -2 7 C-2 6.34 -2 5.68 -2 5 C1.3 5.99 4.6 6.98 8 8 C8 7.34 8 6.68 8 6 C3.545 5.01 3.545 5.01 -1 4 C-1 1 -1 1 0 0 Z " fill="#707070" transform="translate(14,88)"/>
<path d="M0 0 C5.922178 0.63480605 11.28827744 2.21092972 16.9375 4.0625 C17.81212891 4.34416016 18.68675781 4.62582031 19.58789062 4.91601562 C21.72694327 5.60565555 23.86418579 6.30040829 26 7 C25.67 7.66 25.34 8.32 25 9 C16.68929929 7.26398696 16.68929929 7.26398696 13.0625 5.875 C8.70454521 4.62987006 4.50167282 4.83986144 0 5 C-0.33 4.34 -0.66 3.68 -1 3 C-0.67 2.01 -0.34 1.02 0 0 Z " fill="#3B3B3B" transform="translate(38,86)"/>
<path d="M0 0 C0 2.31 0 4.62 0 7 C-0.33 6.01 -0.66 5.02 -1 4 C-1.99 4 -2.98 4 -4 4 C-4 4.66 -4 5.32 -4 6 C-3.34 6.33 -2.68 6.66 -2 7 C-6.29 7 -10.58 7 -15 7 C-15 6.34 -15 5.68 -15 5 C-13.35 5 -11.7 5 -10 5 C-9.67 4.34 -9.34 3.68 -9 3 C-9.66 2.67 -10.32 2.34 -11 2 C-9.35 2 -7.7 2 -6 2 C-6 1.34 -6 0.68 -6 0 C-3.50907189 -1.24546405 -2.58919267 -0.7767578 0 0 Z " fill="#696969" transform="translate(179,192)"/>
<path d="M0 0 C0.78375 0.04125 1.5675 0.0825 2.375 0.125 C2.42899736 1.58292884 2.46779177 3.04142712 2.5 4.5 C2.52320313 5.31210938 2.54640625 6.12421875 2.5703125 6.9609375 C2.375 9.125 2.375 9.125 0.375 11.125 C-2.25 10.75 -2.25 10.75 -4.625 10.125 C-3.305 9.795 -1.985 9.465 -0.625 9.125 C-1.945 8.465 -3.265 7.805 -4.625 7.125 C-4.75 4.75 -4.75 4.75 -4.625 2.125 C-2.625 0.125 -2.625 0.125 0 0 Z " fill="#525252" transform="translate(171.625,172.875)"/>
<path d="M0 0 C0.99 0.99 1.98 1.98 3 3 C3.66 2.34 4.32 1.68 5 1 C5.8125 3.6875 5.8125 3.6875 6 7 C3.5625 9.875 3.5625 9.875 1 12 C-1.24497221 9.75502779 -1.37003419 9.03972651 -1.75 6 C-1.84796875 5.29875 -1.9459375 4.5975 -2.046875 3.875 C-2 2 -2 2 0 0 Z " fill="#1E1E1E" transform="translate(114,152)"/>
<path d="M0 0 C1.32 0 2.64 0 4 0 C4.33 1.32 4.66 2.64 5 4 C5.33 2.68 5.66 1.36 6 0 C6.66 0 7.32 0 8 0 C8 2.97 8 5.94 8 9 C6.68 9 5.36 9 4 9 C3.67 8.01 3.34 7.02 3 6 C2.67 6.99 2.34 7.98 2 9 C1.34 9 0.68 9 0 9 C0 6.03 0 3.06 0 0 Z " fill="#1D1D1D" transform="translate(68,16)"/>
<path d="M0 0 C2.61984486 1.30992243 3.03394425 2.25045672 4 5 C3.625 8.25 3.625 8.25 3 11 C1.33388095 11.042721 -0.33382885 11.04063832 -2 11 C-3 10 -3 10 -3.25 7.75 C-2.95277626 4.48053884 -1.83765781 2.67991764 0 0 Z " fill="#505050" transform="translate(154,170)"/>
<path d="M0 0 C2.68247184 2.68247184 4 4.12775536 4 8 C2.35 8 0.7 8 -1 8 C-1 8.66 -1 9.32 -1 10 C0.65 9.67 2.3 9.34 4 9 C3.34 10.65 2.68 12.3 2 14 C1.34 14 0.68 14 0 14 C0 13.01 0 12.02 0 11 C-0.66 11 -1.32 11 -2 11 C-2.94693195 7.2983569 -3.30443767 5.60887535 -1.5625 2.125 C-1.046875 1.42375 -0.53125 0.7225 0 0 Z " fill="#6D6D6D" transform="translate(205,170)"/>
<path d="M0 0 C1.60597325 0.45196245 3.20972508 0.91182327 4.8125 1.375 C6.15248047 1.75785156 6.15248047 1.75785156 7.51953125 2.1484375 C10 3 10 3 13 5 C7.73946963 5.31563182 4.55426184 4.66590937 0 2 C0 1.34 0 0.68 0 0 Z M6 5 C5.67 6.65 5.34 8.3 5 10 C3.68 10 2.36 10 1 10 C0.67 9.34 0.34 8.68 0 8 C-0.66 8.66 -1.32 9.32 -2 10 C-1.625 8.0625 -1.625 8.0625 -1 6 C1.46278801 4.768606 3.2795055 4.92840804 6 5 Z " fill="#4D4D4E" transform="translate(80,90)"/>
<path d="M0 0 C1.65 0.33 3.3 0.66 5 1 C5 1.66 5 2.32 5 3 C3.68 2.67 2.36 2.34 1 2 C1.680625 2.556875 2.36125 3.11375 3.0625 3.6875 C4.0215625 4.8321875 4.0215625 4.8321875 5 6 C4.75 8.75 4.75 8.75 4 11 C2.35 11 0.7 11 -1 11 C-1.33 9.68 -1.66 8.36 -2 7 C-1.01 7 -0.02 7 1 7 C1 7.66 1 8.32 1 9 C1.66 9 2.32 9 3 9 C2.319375 8.443125 1.63875 7.88625 0.9375 7.3125 C0.298125 6.549375 -0.34125 5.78625 -1 5 C-0.75 2.25 -0.75 2.25 0 0 Z " fill="#2C2C2C" transform="translate(19,15)"/>
<path d="M0 0 C1.98 0.99 1.98 0.99 4 2 C4.66 1.34 5.32 0.68 6 0 C8.7824349 1.39121745 9.55210065 3.30164212 11 6 C11 6.66 11 7.32 11 8 C10.34 8 9.68 8 9 8 C9 7.34 9 6.68 9 6 C8.34 6 7.68 6 7 6 C6.67 6.66 6.34 7.32 6 8 C3 6.25 3 6.25 0 4 C0 2.68 0 1.36 0 0 Z " fill="#09090B" transform="translate(66,133)"/>
<path d="M0 0 C0.99 0 1.98 0 3 0 C3 2.64 3 5.28 3 8 C3.66 8 4.32 8 5 8 C5 5.36 5 2.72 5 0 C5.66 0 6.32 0 7 0 C7.09765625 6.15234375 7.09765625 6.15234375 7 8 C6 9 6 9 3.5 9.125 C1 9 1 9 0 8 C-0.14115161 5.32941149 -0.04247107 2.67567762 0 0 Z " fill="#232323" transform="translate(58,16)"/>
<path d="M0 0 C1.65 0 3.3 0 5 0 C5.33 2.97 5.66 5.94 6 9 C5.01 9 4.02 9 3 9 C2.67 7.35 2.34 5.7 2 4 C1.67 5.65 1.34 7.3 1 9 C0.01 9 -0.98 9 -2 9 C-1.34 6.03 -0.68 3.06 0 0 Z " fill="#272727" transform="translate(28,16)"/>
<path d="M0 0 C1.67542976 0.28604898 3.34385343 0.61781233 5 1 C5 1.99 5 2.98 5 4 C4.34 4 3.68 4 3 4 C3 3.34 3 2.68 3 2 C2.34 2 1.68 2 1 2 C1 4.31 1 6.62 1 9 C1.66 9 2.32 9 3 9 C2.67 7.68 2.34 6.36 2 5 C2.99 5 3.98 5 5 5 C5 6.65 5 8.3 5 10 C3.02 10 1.04 10 -1 10 C-1.02689216 8.52093108 -1.04634621 7.04172517 -1.0625 5.5625 C-1.07410156 4.73878906 -1.08570312 3.91507813 -1.09765625 3.06640625 C-1 1 -1 1 0 0 Z " fill="#1D1D1D" transform="translate(80,15)"/>
<path d="M0 0 C2.4375 0.375 2.4375 0.375 5 1 C5.33 1.66 5.66 2.32 6 3 C5.01 3.33 4.02 3.66 3 4 C3.99 4.66 4.98 5.32 6 6 C5.67 7.32 5.34 8.64 5 10 C3.35 10 1.7 10 0 10 C-0.33 9.01 -0.66 8.02 -1 7 C1.475 7.99 1.475 7.99 4 9 C2.36587557 7.29159719 1.13093906 6.06546953 -1 5 C-0.67 3.35 -0.34 1.7 0 0 Z " fill="#0F0F0F" transform="translate(50,15)"/>
<path d="M0 0 C3 1 3 1 4 3 C4.33 2.01 4.66 1.02 5 0 C5.66 0 6.32 0 7 0 C7 2.64 7 5.28 7 8 C6.01 7.67 5.02 7.34 4 7 C3.67 6.34 3.34 5.68 3 5 C2.67 5.99 2.34 6.98 2 8 C1.34 8 0.68 8 0 8 C0 5.36 0 2.72 0 0 Z " fill="#3F3F3F" transform="translate(181,146)"/>
<path d="M0 0 C0.33 2.31 0.66 4.62 1 7 C-2.62326739 8.2077558 -3.64146369 7.54311128 -7 6 C-5.52522876 2.59668175 -4.14385429 0 0 0 Z M-4 8 C-3.34 8 -2.68 8 -2 8 C-2.33 8.66 -2.66 9.32 -3 10 C-3.33 9.34 -3.66 8.68 -4 8 Z " fill="#E1E1E1" transform="translate(183,30)"/>
<path d="M0 0 C0.66 0 1.32 0 2 0 C2.66 1.65 3.32 3.3 4 5 C4.66 3.35 5.32 1.7 6 0 C6.66 0 7.32 0 8 0 C8.33 2.64 8.66 5.28 9 8 C8.01 7.34 7.02 6.68 6 6 C5.67 7.32 5.34 8.64 5 10 C4.01 9.67 3.02 9.34 2 9 C1.26953125 6.93359375 1.26953125 6.93359375 0.8125 4.4375 C0.65394531 3.61121094 0.49539062 2.78492188 0.33203125 1.93359375 C0.16767578 0.97646484 0.16767578 0.97646484 0 0 Z " fill="#494949" transform="translate(178,49)"/>
<path d="M0 0 C7.38461538 -0.36923077 7.38461538 -0.36923077 10.5 1.5 C10.995 1.995 11.49 2.49 12 3 C11.34 3 10.68 3 10 3 C10 3.66 10 4.32 10 5 C6.7 4.34 3.4 3.68 0 3 C0 2.01 0 1.02 0 0 Z " fill="#4A4A4C" transform="translate(58,100)"/>
<path d="M0 0 C1.98 0 3.96 0 6 0 C4.68 0.33 3.36 0.66 2 1 C2 1.99 2 2.98 2 4 C3.65 4.33 5.3 4.66 7 5 C7 6.65 7 8.3 7 10 C2.25 11.125 2.25 11.125 0 10 C0 9.34 0 8.68 0 8 C2.97 8.495 2.97 8.495 6 9 C5.67 8.01 5.34 7.02 5 6 C3.35 6 1.7 6 0 6 C0 4.02 0 2.04 0 0 Z " fill="#494949" transform="translate(170,49)"/>
<path d="M0 0 C2.3125 0.1875 2.3125 0.1875 4 1 C3.25 2.9375 3.25 2.9375 2 5 C-0.0625 5.625 -0.0625 5.625 -2 6 C-2.33 6.66 -2.66 7.32 -3 8 C-6.0625 8.625 -6.0625 8.625 -9 9 C-7.66666667 7.66666667 -6.33333333 6.33333333 -5 5 C-3.7625 3.6078125 -3.7625 3.6078125 -2.5 2.1875 C-1.2625 1.1046875 -1.2625 1.1046875 0 0 Z " fill="#404042" transform="translate(102,98)"/>
<path d="M0 0 C1.67542976 0.28604898 3.34385343 0.61781233 5 1 C5 1.99 5 2.98 5 4 C3.35 4 1.7 4 0 4 C0 4.66 0 5.32 0 6 C1.65 5.67 3.3 5.34 5 5 C4.67 5.99 4.34 6.98 4 8 C2.35 7.67 0.7 7.34 -1 7 C-1.04254356 5.00045254 -1.04080783 2.99958364 -1 1 C-0.67 0.67 -0.34 0.34 0 0 Z " fill="#5A5A5A" transform="translate(177,112)"/>
<path d="M0 0 C1.98 0 3.96 0 6 0 C6.33 1.65 6.66 3.3 7 5 C6.01 5 5.02 5 4 5 C3.67 5.99 3.34 6.98 3 8 C2.01 7.34 1.02 6.68 0 6 C0.33 5.01 0.66 4.02 1 3 C0.67 2.01 0.34 1.02 0 0 Z " fill="#E6E6E6" transform="translate(176,16)"/>
<path d="M0 0 C1.77395508 0.42466497 3.54410631 0.8652409 5.3125 1.3125 C6.29863281 1.55613281 7.28476563 1.79976562 8.30078125 2.05078125 C11.00141012 3.00049589 12.20956216 3.81847677 14 6 C10.5317263 6 8.08733513 5.12682499 4.8125 4 C3.72582031 3.62875 2.63914062 3.2575 1.51953125 2.875 C0.68808594 2.58625 -0.14335938 2.2975 -1 2 C-0.67 1.34 -0.34 0.68 0 0 Z " fill="#4C4C4C" transform="translate(74,162)"/>
<path d="M0 0 C0.66 0 1.32 0 2 0 C2 3.63 2 7.26 2 11 C-2 9 -2 9 -3.25 6.375 C-3.4975 5.59125 -3.745 4.8075 -4 4 C-2.515 4.99 -2.515 4.99 -1 6 C-0.67 4.02 -0.34 2.04 0 0 Z " fill="#5B5B5B" transform="translate(188,188)"/>
<path d="M0 0 C0.66 0.33 1.32 0.66 2 1 C1.67 2.32 1.34 3.64 1 5 C1.99 5.33 2.98 5.66 4 6 C3.67 4.02 3.34 2.04 3 0 C3.99 0 4.98 0 6 0 C6 2.64 6 5.28 6 8 C5.01 8.495 5.01 8.495 4 9 C4 8.34 4 7.68 4 7 C2.35 6.67 0.7 6.34 -1 6 C-1.042721 4.33388095 -1.04063832 2.66617115 -1 1 C-0.67 0.67 -0.34 0.34 0 0 Z " fill="#333333" transform="translate(187,174)"/>
<path d="M0 0 C2.64 0 5.28 0 8 0 C7.34 1.65 6.68 3.3 6 5 C5.34 4.67 4.68 4.34 4 4 C3.67 4 3.34 4 3 4 C1.68 4 0.36 4 -1 4 C-0.67 2.68 -0.34 1.36 0 0 Z " fill="#ECECEC" transform="translate(165,155)"/>
<path d="M0 0 C0.66 0.33 1.32 0.66 2 1 C2 1.66 2 2.32 2 3 C3.98 2.67 5.96 2.34 8 2 C8 4.64 8 7.28 8 10 C7.34 10 6.68 10 6 10 C6 8.02 6 6.04 6 4 C4.35 4 2.7 4 1 4 C0.67 4.66 0.34 5.32 0 6 C-0.38218767 4.34385343 -0.71395102 2.67542976 -1 1 C-0.67 0.67 -0.34 0.34 0 0 Z " fill="#DADADA" transform="translate(173,144)"/>
<path d="M0 0 C1.65 0.33 3.3 0.66 5 1 C4.25 5.75 4.25 5.75 2 8 C2.99 8.33 3.98 8.66 5 9 C5 9.66 5 10.32 5 11 C2.69 11 0.38 11 -2 11 C-2 10.34 -2 9.68 -2 9 C-1.34 9 -0.68 9 0 9 C1.20628008 6.66785852 2.1654738 4.50357861 3 2 C2.01 1.34 1.02 0.68 0 0 Z " fill="#535353" transform="translate(163,49)"/>
<path d="M0 0 C2 3 2 3 2 6 C0.39402675 5.54803755 -1.20972508 5.08817673 -2.8125 4.625 C-3.70582031 4.36976563 -4.59914063 4.11453125 -5.51953125 3.8515625 C-8 3 -8 3 -11 1 C-10.28972656 1.01160156 -9.57945313 1.02320313 -8.84765625 1.03515625 C-7.92855469 1.04417969 -7.00945312 1.05320313 -6.0625 1.0625 C-4.68771484 1.07990234 -4.68771484 1.07990234 -3.28515625 1.09765625 C-1.03406673 1.25949049 -1.03406673 1.25949049 0 0 Z " fill="#4B4B4D" transform="translate(100,168)"/>
<path d="M0 0 C-0.33 0.99 -0.66 1.98 -1 3 C-1.66 3 -2.32 3 -3 3 C-3 3.66 -3 4.32 -3 5 C-3.99 5 -4.98 5 -6 5 C-6.33 3.35 -6.66 1.7 -7 0 C-4.3333581 -1.33332095 -2.83319697 -0.67102033 0 0 Z " fill="#303030" transform="translate(30,93)"/>
<path d="M0 0 C7.42857143 -0.28571429 7.42857143 -0.28571429 11 2 C11 2.66 11 3.32 11 4 C7.37 3.34 3.74 2.68 0 2 C0 1.34 0 0.68 0 0 Z " fill="#515153" transform="translate(92,112)"/>
<path d="M0 0 C2.00720923 0.28674418 4.0085944 0.61866701 6 1 C6 1.66 6 2.32 6 3 C6.66 3 7.32 3 8 3 C7.67 3.66 7.34 4.32 7 5 C4.36 4.67 1.72 4.34 -1 4 C-1 1 -1 1 0 0 Z " fill="#A1A1A1" transform="translate(14,88)"/>
<path d="M0 0 C2 0.25 2 0.25 4 1 C4.33 1.99 4.66 2.98 5 4 C4.34 4.66 3.68 5.32 3 6 C2.34 5.67 1.68 5.34 1 5 C0.67 5.66 0.34 6.32 0 7 C-0.38133299 5.0085944 -0.71325582 3.00720923 -1 1 C-0.67 0.67 -0.34 0.34 0 0 Z " fill="#EDEDED" transform="translate(163,88)"/>
<path d="M0 0 C0.66 0 1.32 0 2 0 C1.67 1.98 1.34 3.96 1 6 C-1.64 5.34 -4.28 4.68 -7 4 C-5.75 2.4375 -5.75 2.4375 -4 1 C-1.8125 1.3125 -1.8125 1.3125 0 2 C0 1.34 0 0.68 0 0 Z " fill="#202020" transform="translate(86,160)"/>
<path d="M0 0 C2.64 0 5.28 0 8 0 C8.33 1.32 8.66 2.64 9 4 C4.125 3.125 4.125 3.125 3 2 C2.67 3.65 2.34 5.3 2 7 C0.4375 5.1875 0.4375 5.1875 -1 3 C-0.67 2.01 -0.34 1.02 0 0 Z " fill="#B0B0B0" transform="translate(163,145)"/>
<path d="M0 0 C2.31 0 4.62 0 7 0 C6.125 3.875 6.125 3.875 5 5 C2.0625 5.1875 2.0625 5.1875 -1 5 C-1.66 4.34 -2.32 3.68 -3 3 C-0.69 3.33 1.62 3.66 4 4 C3.04134491 1.66924071 3.04134491 1.66924071 0 0 Z " fill="#3B3B3D" transform="translate(99,112)"/>
<path d="M0 0 C1.9375 0.8125 1.9375 0.8125 4 2 C4.33 2.99 4.66 3.98 5 5 C4 6 4 6 0.4375 6.0625 C-0.696875 6.041875 -1.83125 6.02125 -3 6 C-2.34 5.67 -1.68 5.34 -1 5 C-0.34444881 2.47266765 -0.34444881 2.47266765 0 0 Z " fill="#282828" transform="translate(37,90)"/>
<path d="M0 0 C6.15234375 0.5859375 6.15234375 0.5859375 8 1 C8.33 1.66 8.66 2.32 9 3 C2.375 4.125 2.375 4.125 -1 3 C-0.67 2.01 -0.34 1.02 0 0 Z " fill="#232323" transform="translate(77,92)"/>
<path d="M0 0 C3.26954202 0.56371414 4.82575883 1.49962266 7 4 C5.6875 6.5 5.6875 6.5 4 9 C3.01 9 2.02 9 1 9 C1.391875 8.443125 1.78375 7.88625 2.1875 7.3125 C2.455625 6.549375 2.72375 5.78625 3 5 C1.71815438 2.25167846 1.71815438 2.25167846 0 0 Z " fill="#D0D0D0" transform="translate(168,29)"/>
<path d="M0 0 C-0.99 0 -1.98 0 -3 0 C-3 2.31 -3 4.62 -3 7 C-3.33 6.34 -3.66 5.68 -4 5 C-5.64363134 4.27840576 -7.31050386 3.60648579 -9 3 C-7.01532024 -0.96935951 -3.9567243 -1.41311582 0 0 Z " fill="#DFDFDF" transform="translate(61,16)"/>
<path d="M0 0 C1.67542976 0.28604898 3.34385343 0.61781233 5 1 C4.34 2.32 3.68 3.64 3 5 C3.66 5.66 4.32 6.32 5 7 C3.35 6.67 1.7 6.34 0 6 C-0.38218767 4.34385343 -0.71395102 2.67542976 -1 1 C-0.67 0.67 -0.34 0.34 0 0 Z " fill="#2B2B2B" transform="translate(24,120)"/>
<path d="M0 0 C1.73017508 0.45451184 3.45909877 0.91378857 5.1875 1.375 C6.15042969 1.63023438 7.11335938 1.88546875 8.10546875 2.1484375 C10.82210207 2.94766296 13.39137175 3.9031362 16 5 C12.33967915 6.22010695 10.59039783 5.66318212 6.875 4.75 C5.79992187 4.49734375 4.72484375 4.2446875 3.6171875 3.984375 C2.75351563 3.65953125 1.88984375 3.3346875 1 3 C0.67 2.01 0.34 1.02 0 0 Z " fill="#363638" transform="translate(64,104)"/>
<path d="M0 0 C3.125 0.375 3.125 0.375 6 1 C6.33 1.99 6.66 2.98 7 4 C4.69 3.67 2.38 3.34 0 3 C-0.33 4.98 -0.66 6.96 -1 9 C-1.33 9 -1.66 9 -2 9 C-2.125 5.625 -2.125 5.625 -2 2 C-1.34 1.34 -0.68 0.68 0 0 Z " fill="#4E4E4E" transform="translate(165,188)"/>
<path d="M0 0 C1.65 0 3.3 0 5 0 C4.34 0.66 3.68 1.32 3 2 C2.83312552 4.58354218 2.83312552 4.58354218 3 7 C1.68 6.67 0.36 6.34 -1 6 C-0.67 4.02 -0.34 2.04 0 0 Z " fill="#D6D6D6" transform="translate(188,173)"/>
<path d="M0 0 C1.00289062 0.28746094 2.00578125 0.57492188 3.0390625 0.87109375 C3.80992188 1.09925781 4.58078125 1.32742187 5.375 1.5625 C5.045 2.2225 4.715 2.8825 4.375 3.5625 C2.9358866 3.27890113 1.49874482 2.98528601 0.0625 2.6875 C-0.73800781 2.52507812 -1.53851563 2.36265625 -2.36328125 2.1953125 C-4.625 1.5625 -4.625 1.5625 -7.625 -0.4375 C-4.72405209 -1.88797396 -3.06527404 -0.89106803 0 0 Z " fill="#474747" transform="translate(58.625,91.4375)"/>
<path d="M0 0 C0.66 0 1.32 0 2 0 C2.125 5.75 2.125 5.75 1 8 C-0.65 8 -2.3 8 -4 8 C-3.2884375 7.13375 -3.2884375 7.13375 -2.5625 6.25 C-1.0515133 4.07417916 -0.45963849 2.57397552 0 0 Z " fill="#F2F2F2" transform="translate(168,50)"/>
<path d="M0 0 C0.99 0.33 1.98 0.66 3 1 C2.67 2.98 2.34 4.96 2 7 C0.35 6.67 -1.3 6.34 -3 6 C-2.01 4.02 -1.02 2.04 0 0 Z " fill="#E5E5E5" transform="translate(181,22)"/>
<path d="M0 0 C1.32 0 2.64 0 4 0 C3.855625 0.556875 3.71125 1.11375 3.5625 1.6875 C2.97230872 4.11384195 2.476571 6.54906345 2 9 C1.34 9 0.68 9 0 9 C0 6.03 0 3.06 0 0 Z " fill="#080808" transform="translate(36,16)"/>
<path d="M0 0 C0.53625 0.45375 1.0725 0.9075 1.625 1.375 C4.31698302 3.21688312 6.88520388 4.07971933 10 5 C10 5.66 10 6.32 10 7 C8.52031676 6.85950482 7.04125484 6.71245174 5.5625 6.5625 C4.73878906 6.48128906 3.91507813 6.40007812 3.06640625 6.31640625 C1 6 1 6 0 5 C-0.04063832 3.33382885 -0.042721 1.66611905 0 0 Z " fill="#C1C1C1" transform="translate(12,117)"/>
<path d="M0 0 C2.31 0 4.62 0 7 0 C7 0.66 7 1.32 7 2 C7.99 2.33 8.98 2.66 10 3 C9.67 3.66 9.34 4.32 9 5 C2.25 2.25 2.25 2.25 0 0 Z " fill="#343436" transform="translate(89,107)"/>
<path d="M0 0 C0.66 0 1.32 0 2 0 C2.33 1.32 2.66 2.64 3 4 C3.66 3.67 4.32 3.34 5 3 C4.67 4.98 4.34 6.96 4 9 C3.01 9 2.02 9 1 9 C0.67 6.03 0.34 3.06 0 0 Z " fill="#4C4C4C" transform="translate(160,112)"/>
<path d="M0 0 C0.66 0 1.32 0 2 0 C2.0825 0.78375 2.165 1.5675 2.25 2.375 C2.72806339 5.14749104 2.72806339 5.14749104 5.0625 6.3125 C5.701875 6.539375 6.34125 6.76625 7 7 C4 8 4 8 1.8125 7.0625 C1.214375 6.711875 0.61625 6.36125 0 6 C0 4.02 0 2.04 0 0 Z " fill="#D1D1D1" transform="translate(165,175)"/>
<path d="M0 0 C1.65 0.33 3.3 0.66 5 1 C5 1.66 5 2.32 5 3 C3.68 2.67 2.36 2.34 1 2 C1.33 3.32 1.66 4.64 2 6 C1.01 5.67 0.02 5.34 -1 5 C-0.67 3.35 -0.34 1.7 0 0 Z " fill="#222222" transform="translate(19,15)"/>
<path d="M0 0 C0.66 0 1.32 0 2 0 C2 2.97 2 5.94 2 9 C1.01 9 0.02 9 -1 9 C-0.67 6.03 -0.34 3.06 0 0 Z " fill="#060606" transform="translate(74,16)"/>
<path d="M0 0 C0.66 0.33 1.32 0.66 2 1 C1.34 2.32 0.68 3.64 0 5 C-2.475 4.01 -2.475 4.01 -5 3 C-3 1 -3 1 0 0 Z " fill="#E8E8E8" transform="translate(182,203)"/>
<path d="M0 0 C0.99 0.66 1.98 1.32 3 2 C0.63404067 4.61500768 -1.86049226 6.38999603 -5 8 C-5.66 7.67 -6.32 7.34 -7 7 C-6.21625 6.401875 -5.4325 5.80375 -4.625 5.1875 C-1.85425677 3.08914751 -1.85425677 3.08914751 0 0 Z " fill="#E0E0E0" transform="translate(117,162)"/>
<path d="M0 0 C0.33 0.66 0.66 1.32 1 2 C2.65 2 4.3 2 6 2 C6.33 2.99 6.66 3.98 7 5 C3.44219804 4.39009109 0.3171411 3.4216319 -3 2 C-2.01 1.34 -1.02 0.68 0 0 Z " fill="#3C3C3E" transform="translate(73,101)"/>
<path d="M0 0 C0.33 0.66 0.66 1.32 1 2 C1.66 2 2.32 2 3 2 C3 2.66 3 3.32 3 4 C-0.13349732 5.04449911 -0.98968256 4.93423645 -4 4 C-4 3.01 -4 2.02 -4 1 C-2.68 0.67 -1.36 0.34 0 0 Z " fill="#DDDDDD" transform="translate(176,49)"/>
<path d="M0 0 C2.4375 0.375 2.4375 0.375 5 1 C5.33 1.66 5.66 2.32 6 3 C5.401875 3.144375 4.80375 3.28875 4.1875 3.4375 C2.43849596 3.8872439 0.71322977 4.42892341 -1 5 C-0.67 3.35 -0.34 1.7 0 0 Z " fill="#353535" transform="translate(50,15)"/>
<path d="M0 0 C1.32 0 2.64 0 4 0 C3.6875 1.875 3.6875 1.875 3 4 C2.01 4.66 1.02 5.32 0 6 C0 4.02 0 2.04 0 0 Z " fill="#DCDCDC" transform="translate(160,175)"/>
<path d="M0 0 C1.32 0 2.64 0 4 0 C3.67 1.65 3.34 3.3 3 5 C2.01 4.67 1.02 4.34 0 4 C0 2.68 0 1.36 0 0 Z " fill="#ECECEC" transform="translate(168,175)"/>
<path d="M0 0 C0.99 0 1.98 0 3 0 C3 1.65 3 3.3 3 5 C1.68 4.67 0.36 4.34 -1 4 C-0.67 2.68 -0.34 1.36 0 0 Z " fill="#F0F0F0" transform="translate(153,175)"/>
<path d="M0 0 C1.98 0.495 1.98 0.495 4 1 C4 3.97 4 6.94 4 10 C3.67 10 3.34 10 3 10 C3 7.69 3 5.38 3 3 C1.68 2.34 0.36 1.68 -1 1 C-0.67 0.67 -0.34 0.34 0 0 Z " fill="#636364" transform="translate(29,126)"/>
</svg>
