<?xml version="1.0" encoding="UTF-8"?>
<svg version="1.1" xmlns="http://www.w3.org/2000/svg" width="204" height="247">
<path d="M0 0 C67.32 0 134.64 0 204 0 C204 81.51 204 163.02 204 247 C136.68 247 69.36 247 0 247 C0 165.49 0 83.98 0 0 Z " fill="#B8B1AA" transform="translate(0,0)"/>
<path d="M0 0 C6.49549495 0.20401251 12.48605079 1.24487577 18.77685547 2.84912109 C19.69982422 3.07083984 20.62279297 3.29255859 21.57373047 3.52099609 C25.62744883 4.5197383 29.18309954 5.56159888 32.90185547 7.47412109 C32.90516562 8.43326007 32.90847576 9.39239904 32.91188622 10.38060284 C32.99284252 33.70724703 33.08514644 57.03382521 33.18938255 80.36037731 C33.2395268 91.64087248 33.28596954 102.92136032 33.32373047 114.2019043 C33.35664819 124.03281455 33.39647824 133.8636682 33.44464552 143.694516 C33.46991264 148.90095264 33.49169335 154.10735171 33.50519943 159.31383324 C33.51801778 164.21312631 33.54006987 169.11229058 33.56923866 174.01151276 C33.57831618 175.81062491 33.58400508 177.60975781 33.58606911 179.40889168 C33.58939039 181.86394287 33.60486417 184.31862857 33.62338257 186.77360535 C33.62144783 187.48664847 33.6195131 188.19969159 33.61751974 188.93434209 C33.66410483 193.06120463 33.81596919 197.38823481 36.90185547 200.47412109 C38.75231416 200.58410399 40.60700795 200.62325279 42.46069336 200.63525391 C44.26449463 200.64945374 44.26449463 200.64945374 46.10473633 200.66394043 C47.44466009 200.66877176 48.78458538 200.67319396 50.12451172 200.67724609 C51.51839231 200.6842085 52.91227252 200.69124955 54.30615234 200.69836426 C58.85888918 200.71808698 63.41158076 200.72255409 67.96435547 200.72412109 C68.73514812 200.72471024 69.50594078 200.72529938 70.30009079 200.72590637 C92.8830361 200.73814036 115.40797506 200.36045128 137.96435547 199.22412109 C139.16448273 199.16953735 140.36460999 199.11495361 141.60110474 199.05871582 C144.96465963 198.90102967 148.32546328 198.71642297 151.68701172 198.52099609 C152.67233887 198.47599976 153.65766602 198.43100342 154.67285156 198.38464355 C155.57350342 198.32490356 156.47415527 198.26516357 157.40209961 198.20361328 C158.56884972 198.13699493 158.56884972 198.13699493 159.75917053 198.06903076 C162.79950417 197.22489178 163.94402764 195.94004168 165.90185547 193.47412109 C166.50121815 190.28022739 166.50121815 190.28022739 166.40306091 186.64208984 C166.40859531 185.95545761 166.41412971 185.26882538 166.41983181 184.56138611 C166.43344285 182.26109599 166.41846789 179.96189011 166.40356445 177.66162109 C166.40734749 176.0123651 166.41284741 174.36311228 166.41993713 172.71386719 C166.43391109 168.23450465 166.42270846 163.75552538 166.40622592 159.27618408 C166.39238646 154.59085785 166.39883424 149.90555413 166.40235901 145.22021484 C166.40506201 137.35166235 166.39157784 129.48326231 166.3684082 121.61474609 C166.34179789 112.51470931 166.34005103 103.41492747 166.35179657 94.31486511 C166.36257189 85.56469457 166.35638921 76.81461634 166.34224129 68.06445312 C166.33647935 64.33884502 166.3365658 60.61330442 166.34130669 56.88769531 C166.34607537 52.5012929 166.33597939 48.11517003 166.31435204 43.7288208 C166.3087825 42.11794986 166.30832041 40.50705206 166.3133049 38.8961792 C166.31925097 36.6991923 166.30676678 34.50306201 166.28953552 32.30615234 C166.28710563 31.07614502 166.28467573 29.8461377 166.2821722 28.57885742 C165.86935183 25.2087759 165.29256138 23.84160171 162.90185547 21.47412109 C159.83764503 20.19163218 159.83764503 20.19163218 156.26513672 19.33349609 C155.62569626 19.16158752 154.9862558 18.98967896 154.32743835 18.81256104 C152.29315367 18.26907417 150.2541764 17.74639989 148.21435547 17.22412109 C146.83053118 16.85829551 145.44706228 16.49112272 144.06396484 16.12255859 C140.68057227 15.22410253 137.29266439 14.34422502 133.90185547 13.47412109 C133.90185547 13.14412109 133.90185547 12.81412109 133.90185547 12.47412109 C140.57705887 12.44885164 147.25225003 12.43128842 153.92749023 12.41918945 C156.20028138 12.41414784 158.47306927 12.40731472 160.74584961 12.39868164 C164.00489098 12.38660849 167.26388964 12.38089122 170.52294922 12.37646484 C171.54585556 12.37130356 172.5687619 12.36614227 173.62266541 12.36082458 C174.56356522 12.36074905 175.50446503 12.36067352 176.47387695 12.3605957 C177.30660629 12.35837509 178.13933563 12.35615448 178.99729919 12.35386658 C180.90185547 12.47412109 180.90185547 12.47412109 181.90185547 13.47412109 C181.99985672 16.47027651 182.03176887 19.44339093 182.02210999 22.43995667 C182.02339162 23.86843985 182.02339162 23.86843985 182.02469915 25.32578129 C182.02635686 28.54264563 182.02082785 31.75945875 182.01538086 34.97631836 C182.01509902 37.27200316 182.01525665 39.56768805 182.01582336 41.8633728 C182.01611148 48.1172542 182.01021246 54.3711166 182.00324941 60.62499356 C181.99701823 67.15265893 181.99641226 73.68032468 181.995224 80.20799255 C181.99246427 91.17129863 181.98620871 102.13459766 181.97729492 113.09790039 C181.96812157 124.39217087 181.96105182 135.68643945 181.95678711 146.98071289 C181.95651911 147.6835231 181.95625111 148.3863333 181.955975 149.11044079 C181.95366228 155.22349103 181.95150942 161.33654133 181.94937229 167.44959164 C181.93995581 193.79110804 181.92003736 220.1326059 181.90185547 246.47412109 C114.58185547 246.47412109 47.26185547 246.47412109 -22.09814453 246.47412109 C-22.21905363 188.41536124 -22.21905363 188.41536124 -22.24462891 164.15185547 C-22.25050277 158.60717747 -22.25656429 153.06249972 -22.26293945 147.51782227 C-22.2637307 146.8228606 -22.26452195 146.12789893 -22.26533717 145.41187781 C-22.27839498 134.18346907 -22.30205185 122.95510629 -22.32960292 111.72672483 C-22.35763006 100.20849429 -22.37409043 88.69029613 -22.38041002 77.17203218 C-22.38432956 70.70023069 -22.3935758 64.2285335 -22.4153347 57.75676537 C-22.43563198 51.67066423 -22.44199204 45.58471079 -22.43746758 39.49857903 C-22.43829581 37.2599889 -22.44430147 35.02139405 -22.45576096 32.7828331 C-22.47059922 29.73587202 -22.46712983 26.68947488 -22.45890808 23.64250183 C-22.46764661 22.74854035 -22.47638513 21.85457887 -22.48538846 20.93352765 C-22.47941531 20.11940673 -22.47344217 19.30528581 -22.46728802 18.46649456 C-22.46842718 17.76287279 -22.46956634 17.05925102 -22.47074002 16.33430737 C-21.97583938 13.86351152 -21.09437231 12.97579321 -19.09814453 11.47412109 C-15.74267578 11.18115234 -15.74267578 11.18115234 -11.91064453 11.28662109 C-10.0021875 11.32722656 -10.0021875 11.32722656 -8.05517578 11.36865234 C-6.59144531 11.42085937 -6.59144531 11.42085937 -5.09814453 11.47412109 C-5.16001953 10.40162109 -5.22189453 9.32912109 -5.28564453 8.22412109 C-5.07736596 4.05854959 -4.44919692 1.00539218 0 0 Z " fill="#18181D" transform="translate(22.09814453125,0.52587890625)"/>
<path d="M0 0 C4.66888656 0.47973582 9.13689292 1.50485727 13.67871094 2.66308594 C14.60167969 2.88480469 15.52464844 3.10652344 16.47558594 3.33496094 C20.60733559 4.35292824 23.95993146 5.3661962 27.80371094 7.28808594 C28.13371094 69.65808594 28.46371094 132.02808594 28.80371094 196.28808594 C27.81371094 196.61808594 26.82371094 196.94808594 25.80371094 197.28808594 C25.47371094 196.95808594 25.14371094 196.62808594 24.80371094 196.28808594 C24.80371094 197.60808594 24.80371094 198.92808594 24.80371094 200.28808594 C20.74717322 200.45615557 16.69041293 200.61666543 12.63330078 200.77026367 C11.25398775 200.82353838 9.87475201 200.87885576 8.49560547 200.9362793 C6.50998262 201.01859603 4.52403231 201.09288971 2.53808594 201.16699219 C1.3440918 201.21412354 0.15009766 201.26125488 -1.08007812 201.30981445 C-3.70738842 201.29149491 -5.71599244 201.08532414 -8.19628906 200.28808594 C-8.52628906 198.96808594 -8.85628906 197.64808594 -9.19628906 196.28808594 C-8.53628906 196.28808594 -7.87628906 196.28808594 -7.19628906 196.28808594 C-6.53628906 196.94808594 -5.87628906 197.60808594 -5.19628906 198.28808594 C-4.86628906 197.62808594 -4.53628906 196.96808594 -4.19628906 196.28808594 C-4.85628906 195.62808594 -5.51628906 194.96808594 -6.19628906 194.28808594 C-5.53628906 194.28808594 -4.87628906 194.28808594 -4.19628906 194.28808594 C-4.52628906 193.29808594 -4.85628906 192.30808594 -5.19628906 191.28808594 C-5.19628906 188.9547526 -5.19628906 186.62141927 -5.19628906 184.28808594 C-5.52628906 183.95808594 -5.85628906 183.62808594 -6.19628906 183.28808594 C-6.33744068 180.61749743 -6.23876014 177.96376356 -6.19628906 175.28808594 C-6.85628906 175.28808594 -7.51628906 175.28808594 -8.19628906 175.28808594 C-8.52628906 159.77808594 -8.85628906 144.26808594 -9.19628906 128.28808594 C-9.52628906 128.28808594 -9.85628906 128.28808594 -10.19628906 128.28808594 C-10.19628906 90.00808594 -10.19628906 51.72808594 -10.19628906 12.28808594 C-14.81628906 12.28808594 -19.43628906 12.28808594 -24.19628906 12.28808594 C-24.19628906 11.95808594 -24.19628906 11.62808594 -24.19628906 11.28808594 C-19.57628906 11.28808594 -14.95628906 11.28808594 -10.19628906 11.28808594 C-10.19628906 8.97808594 -10.19628906 6.66808594 -10.19628906 4.28808594 C-7.71866547 -0.6185025 -5.03169483 -0.20653161 0 0 Z M-7.19628906 191.28808594 C-5.19628906 192.28808594 -5.19628906 192.28808594 -5.19628906 192.28808594 Z " fill="#3B3C41" transform="translate(27.1962890625,0.7119140625)"/>
<path d="M0 0 C-0.33 0.99 -0.66 1.98 -1 3 C-1.34472037 11.36453837 -1.09402021 19.69716802 0 28 C1.32 27.34 2.64 26.68 4 26 C3.98428955 25.31897217 3.9685791 24.63794434 3.95239258 23.9362793 C3.89006778 20.85343719 3.85101742 17.77072756 3.8125 14.6875 C3.78736328 13.61564453 3.76222656 12.54378906 3.73632812 11.43945312 C3.72182617 9.89741211 3.72182617 9.89741211 3.70703125 8.32421875 C3.6913208 7.37635498 3.67561035 6.42849121 3.65942383 5.4519043 C4 3 4 3 5.39892578 1.1784668 C7.50632777 -0.37268133 8.49693262 -0.23818377 11.0625 0.125 C16.08239345 0.89032802 21.41835885 1.75681464 26 4 C27.94727302 7.06763369 28.28869719 9.60931946 28.4140625 13.203125 C28.47207031 14.67265625 28.47207031 14.67265625 28.53125 16.171875 C28.5621875 17.18765625 28.593125 18.2034375 28.625 19.25 C28.68300781 20.796875 28.68300781 20.796875 28.7421875 22.375 C28.83631674 24.9164894 28.92194979 27.45797433 29 30 C29.99 30.33 30.98 30.66 32 31 C32.495 29.515 32.495 29.515 33 28 C33.02693575 30.12493141 33.04636628 32.24995912 33.0625 34.375 C33.07410156 35.55835938 33.08570313 36.74171875 33.09765625 37.9609375 C33 41 33 41 32 43 C32.66 43 33.32 43 34 43 C34.94271563 54.41339952 35.13324614 65.73684233 35.09765625 77.18359375 C35.09578579 78.97819478 35.09436487 80.77279634 35.09336853 82.56739807 C35.08959269 87.23777738 35.07980598 91.90812444 35.06866455 96.57849121 C35.05834293 101.36547408 35.05384813 106.15246228 35.04882812 110.93945312 C35.03817809 120.29298274 35.02116277 129.64648866 35 139 C34.67 139 34.34 139 34 139 C33.15709698 146.37540139 32.93113111 153.60890773 33.0625 161.03125 C33 164 33 164 32 167 C32.31534555 168.67016349 32.65221844 170.33628822 33 172 C33.50655557 180.61144469 33.36648728 188.00459271 30 196 C23.70609798 196.91709031 17.54469456 197.21441039 11.1875 197.25 C9.77694336 197.2809375 9.77694336 197.2809375 8.33789062 197.3125 C7.43619141 197.31765625 6.53449219 197.3228125 5.60546875 197.328125 C4.79231201 197.3374707 3.97915527 197.34681641 3.14135742 197.35644531 C0.44090134 196.90693375 -0.38786973 196.1873838 -2 194 C-3.32027285 190.22868721 -3.13630069 186.36377668 -3.12025452 182.41973877 C-3.12153615 181.26917578 -3.12153615 181.26917578 -3.12284368 180.0953691 C-3.12449164 177.52351663 -3.11898829 174.95172928 -3.11352539 172.37988281 C-3.11324335 170.53695172 -3.11340159 168.69402051 -3.1139679 166.85108948 C-3.11425519 161.84527783 -3.10836934 156.83949006 -3.10139394 151.83368397 C-3.09514919 146.60329624 -3.09455571 141.37290798 -3.09336853 136.14251709 C-3.09025853 126.23679896 -3.08204959 116.33109184 -3.07201904 106.42537856 C-3.06084764 95.14859737 -3.05534486 83.87181565 -3.05032361 72.59503031 C-3.03986672 49.39668076 -3.02227366 26.198341 -3 3 C-3.99 2.67 -4.98 2.34 -6 2 C-2.25 0 -2.25 0 0 0 Z " fill="#A5B8C3" transform="translate(58,5)"/>
<path d="M0 0 C67.32 0 134.64 0 204 0 C204 4.62 204 9.24 204 14 C203.01 13.67 202.02 13.34 201 13 C199.38975487 12.88528988 197.77544145 12.8237226 196.16137695 12.79467773 C195.1805867 12.77473251 194.19979645 12.75478729 193.18928528 12.73423767 C192.13295395 12.71752518 191.07662262 12.70081268 189.98828125 12.68359375 C188.90491989 12.66281265 187.82155853 12.64203156 186.70536804 12.62062073 C183.24114384 12.55518203 179.7768432 12.49626647 176.3125 12.4375 C173.96548685 12.39430939 171.61848147 12.35069493 169.27148438 12.30664062 C163.51440396 12.19950643 157.75724733 12.09772936 152 12 C152 12.66 152 13.32 152 14 C149.525 14.99 149.525 14.99 147 16 C147.33 14.68 147.66 13.36 148 12 C146.68 12.66 145.36 13.32 144 14 C144 13.01 144 12.02 144 11 C141.36 11 138.72 11 136 11 C136 10.34 136 9.68 136 9 C128.95792295 9.7187807 128.95792295 9.7187807 122 11 C122 10.34 122 9.68 122 9 C119.81619325 8.4638921 117.62771417 7.94679902 115.4375 7.4375 C114.21933594 7.14746094 113.00117187 6.85742188 111.74609375 6.55859375 C107.45928377 5.73691706 107.45928377 5.73691706 101 7 C101 15.58 101 24.16 101 33 C99.515 33.495 99.515 33.495 98 34 C96.77030122 37.51190809 96.77030122 37.51190809 96 41 C95.34 40.67 94.68 40.34 94 40 C94.11869627 35.81891433 94.24297273 31.63804212 94.37231445 27.45727539 C94.41549804 26.03642225 94.45718408 24.61552274 94.49731445 23.19458008 C94.55542095 21.1465053 94.61899638 19.09866035 94.68359375 17.05078125 C94.72025146 15.82012939 94.75690918 14.58947754 94.79467773 13.3215332 C94.97269423 10.44173016 95.34609105 7.80412912 96 5 C95.01 5 94.02 5 93 5 C93 24.14 93 43.28 93 63 C92.67 63 92.34 63 92 63 C92 58.05 92 53.1 92 48 C91.34 48 90.68 48 90 48 C90 44.04 90 40.08 90 36 C88.515 36.495 88.515 36.495 87 37 C85.78341579 34.56683158 85.81171294 32.85098941 85.71875 30.1328125 C85.66267578 28.68068359 85.66267578 28.68068359 85.60546875 27.19921875 C85.57066406 26.18472656 85.53585938 25.17023437 85.5 24.125 C85.43094316 22.12746699 85.35816916 20.1300582 85.28125 18.1328125 C85.25095703 17.24480957 85.22066406 16.35680664 85.18945312 15.44189453 C85.01390939 13.17928056 84.62523198 11.17628824 84 9 C81.77228658 8.49356447 79.54275924 7.9951038 77.3125 7.5 C76.07113281 7.2215625 74.82976562 6.943125 73.55078125 6.65625 C70.55209629 6.1020376 68.02502372 5.69477238 65 6 C62.43624877 8.56375123 62.73806289 9.5969279 62.69140625 13.15625 C62.66626953 14.17847656 62.64113281 15.20070313 62.61523438 16.25390625 C62.5800791 18.41790883 62.54882879 20.58197838 62.52148438 22.74609375 C62.49505859 23.76832031 62.46863281 24.79054688 62.44140625 25.84375 C62.42795166 26.78412109 62.41449707 27.72449219 62.40063477 28.69335938 C62.26842529 29.45455078 62.13621582 30.21574219 62 31 C61.01 31.66 60.02 32.32 59 33 C58.27034634 35.56282742 58.27034634 35.56282742 58 38 C57.67 38 57.34 38 57 38 C56.38464114 30.25307154 55.88929232 22.52234252 55.8125 14.75 C55.79832031 13.52796875 55.78414062 12.3059375 55.76953125 11.046875 C56 8 56 8 58 5 C57.01 5.66 56.02 6.32 55 7 C49.35821802 6.62107434 44.08304408 5.34745828 38.625 3.9375 C29.39034786 1.49694606 29.39034786 1.49694606 20 2 C17.70366176 5.44450737 17.45983515 7.93812283 17 12 C15.85660156 12.04898437 14.71320312 12.09796875 13.53515625 12.1484375 C12.04424527 12.22345189 10.55336108 12.29900028 9.0625 12.375 C7.93038086 12.42140625 7.93038086 12.42140625 6.77539062 12.46875 C4.84492605 12.5726315 2.92057919 12.77895614 1 13 C0.67 13.66 0.34 14.32 0 15 C0 10.05 0 5.1 0 0 Z " fill="#FDFDFC" transform="translate(0,0)"/>
<path d="M0 0 C8.29447614 -0.11400257 16.58831988 -0.20528177 24.88337517 -0.25906086 C28.73716748 -0.28490196 32.59038566 -0.31981716 36.44384766 -0.37719727 C68.63708004 -0.84380005 68.63708004 -0.84380005 84 5 C86.97 5.99 89.94 6.98 93 8 C93 26.15 93 44.3 93 63 C92.67 63 92.34 63 92 63 C92 58.05 92 53.1 92 48 C91.34 48 90.68 48 90 48 C90 44.04 90 40.08 90 36 C88.515 36.495 88.515 36.495 87 37 C85.78341579 34.56683158 85.81171294 32.85098941 85.71875 30.1328125 C85.66267578 28.68068359 85.66267578 28.68068359 85.60546875 27.19921875 C85.57066406 26.18472656 85.53585938 25.17023437 85.5 24.125 C85.43094316 22.12746699 85.35816916 20.1300582 85.28125 18.1328125 C85.25095703 17.24480957 85.22066406 16.35680664 85.18945312 15.44189453 C85.01390939 13.17928056 84.62523198 11.17628824 84 9 C81.77228658 8.49356447 79.54275924 7.9951038 77.3125 7.5 C76.07113281 7.2215625 74.82976562 6.943125 73.55078125 6.65625 C70.55209629 6.1020376 68.02502372 5.69477238 65 6 C62.43624877 8.56375123 62.73806289 9.5969279 62.69140625 13.15625 C62.66626953 14.17847656 62.64113281 15.20070313 62.61523438 16.25390625 C62.5800791 18.41790883 62.54882879 20.58197838 62.52148438 22.74609375 C62.49505859 23.76832031 62.46863281 24.79054688 62.44140625 25.84375 C62.42795166 26.78412109 62.41449707 27.72449219 62.40063477 28.69335938 C62.26842529 29.45455078 62.13621582 30.21574219 62 31 C61.01 31.66 60.02 32.32 59 33 C58.27034634 35.56282742 58.27034634 35.56282742 58 38 C57.67 38 57.34 38 57 38 C56.38464114 30.25307154 55.88929232 22.52234252 55.8125 14.75 C55.79832031 13.52796875 55.78414062 12.3059375 55.76953125 11.046875 C56 8 56 8 58 5 C57.01 5.66 56.02 6.32 55 7 C49.35821802 6.62107434 44.08304408 5.34745828 38.625 3.9375 C29.39034786 1.49694606 29.39034786 1.49694606 20 2 C17.70366176 5.44450737 17.45983515 7.93812283 17 12 C15.85660156 12.04898437 14.71320312 12.09796875 13.53515625 12.1484375 C12.04424527 12.22345189 10.55336108 12.29900028 9.0625 12.375 C7.93038086 12.42140625 7.93038086 12.42140625 6.77539062 12.46875 C4.84492605 12.5726315 2.92057919 12.77895614 1 13 C0.67 13.66 0.34 14.32 0 15 C0 10.05 0 5.1 0 0 Z " fill="#D7E4EC" transform="translate(0,0)"/>
<path d="M0 0 C0.66 0 1.32 0 2 0 C2 1.65 2 3.3 2 5 C3.94603274 5.59070014 3.94603274 5.59070014 6 6 C6.33 5.67 6.66 5.34 7 5 C9.53541298 5.09086451 12.03554784 5.2370945 14.5625 5.4375 C15.62887695 5.51581055 15.62887695 5.51581055 16.71679688 5.59570312 C18.47821999 5.72574107 20.23916173 5.86226897 22 6 C22.05787784 9.62493334 22.0935542 13.24974857 22.125 16.875 C22.14175781 17.90753906 22.15851563 18.94007812 22.17578125 20.00390625 C22.18222656 20.99003906 22.18867187 21.97617187 22.1953125 22.9921875 C22.20578613 23.90339355 22.21625977 24.81459961 22.22705078 25.75341797 C22 28 22 28 20 30 C16.98828125 30.1171875 16.98828125 30.1171875 13.3125 29.875 C11.51232422 29.77832031 11.51232422 29.77832031 9.67578125 29.6796875 C5.29978006 28.87052256 2.72510706 27.38139065 -1 25 C-1.02886984 21.02084841 -1.04675406 17.04172347 -1.0625 13.0625 C-1.07087891 11.92619141 -1.07925781 10.78988281 -1.08789062 9.61914062 C-1.09111328 8.53955078 -1.09433594 7.45996094 -1.09765625 6.34765625 C-1.10289307 5.34742432 -1.10812988 4.34719238 -1.11352539 3.31665039 C-1 1 -1 1 0 0 Z " fill="#070707" transform="translate(101,6)"/>
<path d="M0 0 C0.99 0.33 1.98 0.66 3 1 C2.01 1.66 1.02 2.32 0 3 C-0.72965366 5.56282742 -0.72965366 5.56282742 -1 8 C-0.21625 7.979375 0.5675 7.95875 1.375 7.9375 C4 8 4 8 6 9 C6.928125 9 7.85625 9 8.8125 9 C12 9 12 9 14.6875 9.5625 C17.1457356 10.22201498 17.1457356 10.22201498 20 9 C20.05790353 12.29159316 20.09356261 15.58305603 20.125 18.875 C20.14175781 19.81214844 20.15851563 20.74929687 20.17578125 21.71484375 C20.18222656 22.61074219 20.18867187 23.50664062 20.1953125 24.4296875 C20.20578613 25.25710449 20.21625977 26.08452148 20.22705078 26.93701172 C20 29 20 29 18 31 C15.13671875 31.046875 15.13671875 31.046875 11.6875 30.75 C9.99173828 30.61851563 9.99173828 30.61851563 8.26171875 30.484375 C4.02433278 29.8551105 1.05375135 29.05375135 -2 26 C-2.25878906 23.6015625 -2.25878906 23.6015625 -2.265625 20.625 C-2.26820312 19.55765625 -2.27078125 18.4903125 -2.2734375 17.390625 C-2.26183594 15.71226563 -2.26183594 15.71226563 -2.25 14 C-2.25773437 12.88109375 -2.26546875 11.7621875 -2.2734375 10.609375 C-2.27085938 9.54203125 -2.26828125 8.4746875 -2.265625 7.375 C-2.26336914 6.39273437 -2.26111328 5.41046875 -2.25878906 4.3984375 C-2 2 -2 2 0 0 Z " fill="#2E3037" transform="translate(65,5)"/>
<path d="M0 0 C4.76221029 0.50111178 9.31855665 1.59444453 13.94628906 2.796875 C14.90277344 3.03535156 15.85925781 3.27382813 16.84472656 3.51953125 C19.17308152 4.10161999 21.49820905 4.69414378 23.82128906 5.296875 C22.50128906 5.626875 21.18128906 5.956875 19.82128906 6.296875 C20.31628906 7.3796875 20.31628906 7.3796875 20.82128906 8.484375 C21.82732436 11.31384927 21.99106308 13.32582966 21.82128906 16.296875 C20.83128906 16.791875 20.83128906 16.791875 19.82128906 17.296875 C19.32628906 13.336875 19.32628906 13.336875 18.82128906 9.296875 C18.49128906 9.956875 18.16128906 10.616875 17.82128906 11.296875 C16.86867187 11.20148437 15.91605469 11.10609375 14.93457031 11.0078125 C13.6803125 10.89695312 12.42605469 10.78609375 11.13378906 10.671875 C9.89242187 10.55585938 8.65105469 10.43984375 7.37207031 10.3203125 C3.89248737 10.29734496 1.89644185 10.75635869 -1.17871094 12.296875 C-1.17871094 10.316875 -1.17871094 8.336875 -1.17871094 6.296875 C-2.41072394 8.76090101 -2.3358211 10.48078546 -2.38964844 13.234375 C-2.4321875 14.70003906 -2.4321875 14.70003906 -2.47558594 16.1953125 C-2.52766469 18.26283891 -2.57193742 20.33057671 -2.60839844 22.3984375 C-2.63933594 23.37554688 -2.67027344 24.35265625 -2.70214844 25.359375 C-2.72196777 26.25785156 -2.74178711 27.15632813 -2.76220703 28.08203125 C-2.89965332 28.81292969 -3.03709961 29.54382813 -3.17871094 30.296875 C-4.16871094 30.956875 -5.15871094 31.616875 -6.17871094 32.296875 C-6.50977671 35.33219095 -6.50977671 35.33219095 -6.30371094 38.984375 C-6.13173705 46.27606789 -6.33461363 53.51160178 -6.67871094 60.796875 C-6.72656738 61.83030029 -6.77442383 62.86372559 -6.82373047 63.9284668 C-6.93913086 66.38475798 -7.05733125 68.84087316 -7.17871094 71.296875 C-7.50871094 71.296875 -7.83871094 71.296875 -8.17871094 71.296875 C-8.50871094 58.096875 -8.83871094 44.896875 -9.17871094 31.296875 C-9.50871094 31.296875 -9.83871094 31.296875 -10.17871094 31.296875 C-10.17871094 25.026875 -10.17871094 18.756875 -10.17871094 12.296875 C-14.79871094 12.296875 -19.41871094 12.296875 -24.17871094 12.296875 C-24.17871094 11.966875 -24.17871094 11.636875 -24.17871094 11.296875 C-19.55871094 11.296875 -14.93871094 11.296875 -10.17871094 11.296875 C-10.17871094 8.986875 -10.17871094 6.676875 -10.17871094 4.296875 C-7.70280502 -0.60139301 -5.02760388 -0.20468616 0 0 Z " fill="#787B81" transform="translate(27.1787109375,0.703125)"/>
<path d="M0 0 C0.33 0 0.66 0 1 0 C1.17299264 6.54151422 1.33909678 13.0831772 1.5 19.625 C1.52400879 20.59773865 1.54801758 21.57047729 1.57275391 22.57269287 C1.90566504 36.29253826 2.10450665 49.99748059 1.96289062 63.72119141 C1.91603716 69.90134321 1.98425984 75.89286227 3 82 C3.66 82.33 4.32 82.66 5 83 C5 83.66 5 84.32 5 85 C10.28 85.33 15.56 85.66 21 86 C21 86.33 21 86.66 21 87 C9.45 87 -2.1 87 -14 87 C-14 86.67 -14 86.34 -14 86 C-11.36 86 -8.72 86 -6 86 C-5.855625 84.700625 -5.71125 83.40125 -5.5625 82.0625 C-5.125 78.125 -5.125 78.125 -4 77 C-3.90129736 75.64349048 -3.86920887 74.28196919 -3.8671875 72.921875 C-3.86589844 72.09042969 -3.86460938 71.25898438 -3.86328125 70.40234375 C-3.86714844 69.52707031 -3.87101562 68.65179688 -3.875 67.75 C-3.87113281 66.89019531 -3.86726563 66.03039062 -3.86328125 65.14453125 C-3.86971287 60.97041156 -3.94077377 57.06877376 -5 53 C-4.67 53 -4.34 53 -4 53 C-4.01160156 52.17242187 -4.02320312 51.34484375 -4.03515625 50.4921875 C-4.12223348 38.9731133 -3.59267426 27.50197885 -3 16 C-2.67 16 -2.34 16 -2 16 C-1.93941406 15.01257813 -1.87882812 14.02515625 -1.81640625 13.0078125 C-1.73261719 11.72648437 -1.64882812 10.44515625 -1.5625 9.125 C-1.48128906 7.84882812 -1.40007812 6.57265625 -1.31640625 5.2578125 C-1 2 -1 2 0 0 Z " fill="#8C9CA3" transform="translate(94,115)"/>
<path d="M0 0 C20.46 0 40.92 0 62 0 C60.68 0.33 59.36 0.66 58 1 C57.690625 1.825 57.38125 2.65 57.0625 3.5 C56.5365625 4.7375 56.5365625 4.7375 56 6 C52.41289038 7.13502458 49.86030625 6.97987926 46.26953125 6.00390625 C44.94018555 5.66069336 44.94018555 5.66069336 43.58398438 5.31054688 C41.75551542 4.81702777 39.92738222 4.32226285 38.09960938 3.82617188 C32.23476318 2.31443896 26.05671934 0.84152229 20 2 C17.70366176 5.44450737 17.45983515 7.93812283 17 12 C15.85660156 12.04898437 14.71320312 12.09796875 13.53515625 12.1484375 C12.04424527 12.22345189 10.55336108 12.29900028 9.0625 12.375 C7.93038086 12.42140625 7.93038086 12.42140625 6.77539062 12.46875 C4.84492605 12.5726315 2.92057919 12.77895614 1 13 C0.67 13.66 0.34 14.32 0 15 C0 10.05 0 5.1 0 0 Z " fill="#FCFCFD" transform="translate(0,0)"/>
<path d="M0 0 C0.33 0 0.66 0 1 0 C3.19335329 53.00016066 3.19335329 53.00016066 3.0625 72.25 C2.97962755 84.53421047 2.97962755 84.53421047 3.3125 96.8125 C3.34645874 97.88129395 3.34645874 97.88129395 3.38110352 98.97167969 C3.53547752 101.74126886 3.64760469 103.56217552 5.41796875 105.76171875 C6.20107422 106.37466797 6.20107422 106.37466797 7 107 C9 110 9 110 9 113 C9.69867188 112.90460938 10.39734375 112.80921875 11.1171875 112.7109375 C12.02726562 112.60007812 12.93734375 112.48921875 13.875 112.375 C14.77992187 112.25898438 15.68484375 112.14296875 16.6171875 112.0234375 C17.79667969 112.01183594 17.79667969 112.01183594 19 112 C19.66 112.66 20.32 113.32 21 114 C18.22858283 114.08089542 15.45952181 114.14044062 12.6875 114.1875 C11.90181641 114.21263672 11.11613281 114.23777344 10.30664062 114.26367188 C9.54931641 114.27333984 8.79199219 114.28300781 8.01171875 114.29296875 C7.31522217 114.3086792 6.61872559 114.32438965 5.90112305 114.34057617 C3.36646587 113.8865057 2.54222291 113.03591794 1 111 C0.08750597 108.10228707 -0.12380833 105.48469368 -0.12025452 102.45684814 C-0.12162918 101.551035 -0.12300385 100.64522186 -0.12442017 99.71195984 C-0.12082489 98.72581192 -0.11722961 97.739664 -0.11352539 96.72363281 C-0.11367142 95.67941666 -0.11381744 94.6352005 -0.1139679 93.55934143 C-0.11327113 90.10724817 -0.10548973 86.65520884 -0.09765625 83.203125 C-0.09579123 80.80987579 -0.09436772 78.41662619 -0.09336853 76.02337646 C-0.08954996 69.72364244 -0.07972527 63.42393146 -0.06866455 57.12420654 C-0.05843627 50.69608878 -0.05386787 44.2679673 -0.04882812 37.83984375 C-0.03810244 25.22655267 -0.02122606 12.61327756 0 0 Z " fill="#838F99" transform="translate(55,88)"/>
<path d="M0 0 C1.54125475 -0.05482724 3.08309906 -0.09316134 4.625 -0.125 C5.48351562 -0.14820312 6.34203125 -0.17140625 7.2265625 -0.1953125 C10.43075718 0.03033501 12.96816222 0.94790704 16 2 C18.53437607 2.55522495 21.07676588 3.07481191 23.625 3.5625 C31.66353538 5.11084065 31.66353538 5.11084065 35 6 C35 6.66 35 7.32 35 8 C32.03 8.66 29.06 9.32 26 10 C25.67 9.34 25.34 8.68 25 8 C21.97685747 7.03617189 21.97685747 7.03617189 18.375 6.3125 C17.16585937 6.04050781 15.95671875 5.76851563 14.7109375 5.48828125 C10.44911076 4.75803633 10.44911076 4.75803633 4 6 C4 14.58 4 23.16 4 32 C2.515 32.495 2.515 32.495 1 33 C-0.22969878 36.51190809 -0.22969878 36.51190809 -1 40 C-1.66 39.67 -2.32 39.34 -3 39 C-2.88130373 34.81891433 -2.75702727 30.63804212 -2.62768555 26.45727539 C-2.58450196 25.03642225 -2.54281592 23.61552274 -2.50268555 22.19458008 C-2.44457905 20.1465053 -2.38100362 18.09866035 -2.31640625 16.05078125 C-2.27974854 14.82012939 -2.24309082 13.58947754 -2.20532227 12.3215332 C-2.02730577 9.44173016 -1.65390895 6.80412912 -1 4 C-1.66 3.67 -2.32 3.34 -3 3 C-2.34 3 -1.68 3 -1 3 C-0.67 2.01 -0.34 1.02 0 0 Z " fill="#DDDAD5" transform="translate(97,1)"/>
<path d="M0 0 C1.32 0 2.64 0 4 0 C4 0.99 4 1.98 4 3 C5.32 3.33 6.64 3.66 8 4 C8 4.66 8 5.32 8 6 C8.33 6.66 8.66 7.32 9 8 C8.67 8.66 8.34 9.32 8 10 C9.65 10.33 11.3 10.66 13 11 C13 10.34 13 9.68 13 9 C12.01 8.67 11.02 8.34 10 8 C10.66 7.67 11.32 7.34 12 7 C12.33 6.01 12.66 5.02 13 4 C13.66 4 14.32 4 15 4 C15.02685938 6.14576637 15.04633088 8.29162645 15.0625 10.4375 C15.07410156 11.63246094 15.08570312 12.82742187 15.09765625 14.05859375 C15 17 15 17 14 18 C6.60759023 18.69739715 0.9367357 16.52244934 -6 14 C-6 10.04 -6 6.08 -6 2 C-4.02 1.67 -2.04 1.34 0 1 C0 0.67 0 0.34 0 0 Z " fill="#060709" transform="translate(31,18)"/>
<path d="M0 0 C0.66 0 1.32 0 2 0 C2 1.65 2 3.3 2 5 C3.94603274 5.59070014 3.94603274 5.59070014 6 6 C6.33 5.67 6.66 5.34 7 5 C9.53541298 5.09086451 12.03554784 5.2370945 14.5625 5.4375 C15.62887695 5.51581055 15.62887695 5.51581055 16.71679688 5.59570312 C18.47821999 5.72574107 20.23916173 5.86226897 22 6 C22.04241723 8.33294775 22.04092937 10.66702567 22 13 C20.13872594 14.86127406 17.50070864 14.46118139 15.0078125 14.71875 C12.79861215 14.9662595 12.79861215 14.9662595 10 16 C9.34 15.67 8.68 15.34 8 15 C8 15.66 8 16.32 8 17 C6.02 17.99 6.02 17.99 4 19 C4 17.35 4 15.7 4 14 C3.34 13.67 2.68 13.34 2 13 C1.67 16.96 1.34 20.92 1 25 C0.34 25 -0.32 25 -1 25 C-1.02886984 21.02084841 -1.04675406 17.04172347 -1.0625 13.0625 C-1.07087891 11.92619141 -1.07925781 10.78988281 -1.08789062 9.61914062 C-1.09111328 8.53955078 -1.09433594 7.45996094 -1.09765625 6.34765625 C-1.10289307 5.34742432 -1.10812988 4.34719238 -1.11352539 3.31665039 C-1 1 -1 1 0 0 Z " fill="#16191A" transform="translate(101,6)"/>
<path d="M0 0 C-1 3 -1 3 -3 5 C-2.01 6.485 -2.01 6.485 -1 8 C-0.67 8.66 -0.34 9.32 0 10 C0.66 8.35 1.32 6.7 2 5 C4.80362384 6.86908256 7.38485683 8.87961365 10 11 C10.33 10.01 10.66 9.02 11 8 C9.68 7.67 8.36 7.34 7 7 C7.66 5.35 8.32 3.7 9 2 C10.32 2 11.64 2 13 2 C13.33 1.01 13.66 0.02 14 -1 C14.05382106 1.62527189 14.09358313 4.24944713 14.125 6.875 C14.14175781 7.62136719 14.15851563 8.36773437 14.17578125 9.13671875 C14.1933959 11.09194461 14.10320189 13.04742021 14 15 C12 17 12 17 9.13671875 17.046875 C7.42935547 16.89992188 7.42935547 16.89992188 5.6875 16.75 C3.99173828 16.61851563 3.99173828 16.61851563 2.26171875 16.484375 C-1.04730401 15.99297521 -4.54418339 15.45581661 -7 13 C-6.90982004 10.80949979 -6.75333792 8.621534 -6.5625 6.4375 C-6.46066406 5.23996094 -6.35882813 4.04242188 -6.25390625 2.80859375 C-6.17011719 1.88175781 -6.08632812 0.95492188 -6 0 C-3 -1 -3 -1 0 0 Z " fill="#020306" transform="translate(71,19)"/>
<path d="M0 0 C0.33 0 0.66 0 1 0 C1 15.84 1 31.68 1 48 C1.66 48 2.32 48 3 48 C3 50.64 3 53.28 3 56 C3.66 56.33 4.32 56.66 5 57 C4.98839844 57.69867188 4.97679687 58.39734375 4.96484375 59.1171875 C4.95582031 60.02726562 4.94679688 60.93734375 4.9375 61.875 C4.92589844 62.77992188 4.91429687 63.68484375 4.90234375 64.6171875 C4.83750743 67.0168585 4.83750743 67.0168585 6 69 C5.01 69.99 4.02 70.98 3 72 C2.67 71.01 2.34 70.02 2 69 C1.34 69 0.68 69 0 69 C-0.495 69.99 -0.495 69.99 -1 71 C-1 70.01 -1 69.02 -1 68 C-0.34 68 0.32 68 1 68 C1 67.01 1 66.02 1 65 C0.34 65 -0.32 65 -1 65 C-1.02312684 56.67271053 -1.04091683 48.34543437 -1.05181217 40.01812077 C-1.05704026 36.15179882 -1.06413654 32.28549879 -1.07543945 28.41918945 C-1.086271 24.69096599 -1.0922774 20.96276366 -1.09487724 17.23452568 C-1.09673101 15.80910344 -1.10035071 14.38368241 -1.10573006 12.95826912 C-1.11294393 10.96836592 -1.11340808 8.97844166 -1.11352539 6.98852539 C-1.115746 5.85379288 -1.11796661 4.71906036 -1.12025452 3.54994202 C-1 1 -1 1 0 0 Z " fill="#212225" transform="translate(18,128)"/>
<path d="M0 0 C0.33 0 0.66 0 1 0 C1.17299264 6.54151422 1.33909678 13.0831772 1.5 19.625 C1.52400879 20.59773865 1.54801758 21.57047729 1.57275391 22.57269287 C1.90566504 36.29253826 2.10450665 49.99748059 1.96289062 63.72119141 C1.91594317 69.91374098 2.16931836 75.86074353 3 82 C1.68 82 0.36 82 -1 82 C-1.02313662 71.60384149 -1.04092185 61.20768907 -1.05181217 50.81151009 C-1.0570381 45.98451963 -1.06413052 41.15754675 -1.07543945 36.33056641 C-1.0862786 31.67514752 -1.09227903 27.01974556 -1.09487724 22.36431503 C-1.09672963 20.58525196 -1.1003467 18.80618984 -1.10573006 17.02713394 C-1.11295409 14.54166893 -1.11399036 12.05627454 -1.11352539 9.57080078 C-1.11712067 8.82993225 -1.12071594 8.08906372 -1.12442017 7.32574463 C-1.11405216 2.22810432 -1.11405216 2.22810432 0 0 Z " fill="#8E8C83" transform="translate(94,115)"/>
<path d="M0 0 C0.66 0 1.32 0 2 0 C2.33 3.96 2.66 7.92 3 12 C5.6855594 9.3144406 6.06049974 6.62378672 7 3 C7.33 3 7.66 3 8 3 C7.91939409 6.62592996 7.80653183 10.25014402 7.6875 13.875 C7.66494141 14.90753906 7.64238281 15.94007812 7.61914062 17.00390625 C7.58369141 17.99003906 7.54824219 18.97617187 7.51171875 19.9921875 C7.48553467 20.90339355 7.45935059 21.81459961 7.43237305 22.75341797 C7.28968994 23.49479004 7.14700684 24.23616211 7 25 C6.01 25.66 5.02 26.32 4 27 C3.66893422 30.03531595 3.66893422 30.03531595 3.875 33.6875 C4.04697389 40.97919289 3.8440973 48.21472678 3.5 55.5 C3.45214355 56.53342529 3.40428711 57.56685059 3.35498047 58.6315918 C3.23958007 61.08788298 3.12137969 63.54399816 3 66 C2.67 66 2.34 66 2 66 C1.67 52.8 1.34 39.6 1 26 C0.67 26 0.34 26 0 26 C0 19.73 0 13.46 0 7 C-4.62 7 -9.24 7 -14 7 C-14 6.67 -14 6.34 -14 6 C-9.38 6 -4.76 6 0 6 C0 4.02 0 2.04 0 0 Z " fill="#66676D" transform="translate(17,6)"/>
<path d="M0 0 C0.598125 0.165 1.19625 0.33 1.8125 0.5 C4.11344336 1.1114124 4.11344336 1.1114124 7 1 C6.125 5.875 6.125 5.875 5 7 C4.87894665 8.68331618 4.82040331 10.37122153 4.7890625 12.05859375 C4.76070312 13.08404297 4.73234375 14.10949219 4.703125 15.16601562 C4.65113902 17.34292839 4.60683878 19.52003859 4.5703125 21.69726562 C4.539375 22.72400391 4.5084375 23.75074219 4.4765625 24.80859375 C4.45674316 25.75532959 4.43692383 26.70206543 4.41650391 27.67749023 C4.27905762 28.44391846 4.14161133 29.21034668 4 30 C3.01 30.66 2.02 31.32 1 32 C0.27034634 34.56282742 0.27034634 34.56282742 0 37 C-0.33 37 -0.66 37 -1 37 C-1.61535886 29.25307154 -2.11070768 21.52234252 -2.1875 13.75 C-2.20167969 12.52796875 -2.21585938 11.3059375 -2.23046875 10.046875 C-2 7 -2 7 0 4 C-0.66 3.67 -1.32 3.34 -2 3 C-1.34 2.01 -0.68 1.02 0 0 Z " fill="#CFDDE8" transform="translate(58,1)"/>
<path d="M0 0 C0.99 0 1.98 0 3 0 C2.96447021 1.05501709 2.92894043 2.11003418 2.89233398 3.19702148 C2.76232921 7.09741817 2.63904161 10.99800284 2.51782227 14.89868164 C2.46432885 16.58949623 2.40899402 18.28025358 2.35180664 19.97094727 C2.27009959 22.39587047 2.19493605 24.82091994 2.12109375 27.24609375 C2.09405869 28.00651474 2.06702362 28.76693573 2.03916931 29.55039978 C1.98708701 31.36623334 1.98813415 33.18345843 2 35 C2.33 35.33 2.66 35.66 3 36 C3.08865208 38.8843382 3.11521296 41.74462158 3.09765625 44.62890625 C3.0962413 45.49313705 3.09482635 46.35736786 3.09336853 47.24778748 C3.08775239 50.01939292 3.07519719 52.7909188 3.0625 55.5625 C3.05748708 57.4368478 3.05292381 59.31119685 3.04882812 61.18554688 C3.03777772 65.79039544 3.0205023 70.39518421 3 75 C2.67 75 2.34 75 2 75 C-0.22337469 58.93129265 -0.23449361 43.01032369 -0.125 26.8125 C-0.11494334 24.20117533 -0.10582227 21.58984689 -0.09765625 18.97851562 C-0.07587136 12.65225975 -0.04260943 6.32614815 0 0 Z " fill="#BEBABC" transform="translate(93,5)"/>
<path d="M0 0 C0.74507812 0.20431641 1.49015625 0.40863281 2.2578125 0.61914062 C4.09327208 1.12506859 5.92234122 1.65407866 7.75 2.1875 C8.08 3.8375 8.41 5.4875 8.75 7.1875 C4.19190786 10.2262281 0.00317941 8.98387908 -5.25 8.1875 C-7.65366514 7.63915101 -9.90777128 6.96824291 -12.25 6.1875 C-12.5 3.875 -12.5 3.875 -12.25 1.1875 C-8.62875762 -3.11272532 -4.75703762 -1.40778057 0 0 Z " fill="#656D79" transform="translate(76.25,6.8125)"/>
<path d="M0 0 C0.99 0 1.98 0 3 0 C3.14541967 4.22880411 3.23411527 8.45696413 3.3125 12.6875 C3.35439453 13.88568359 3.39628906 15.08386719 3.43945312 16.31835938 C3.5617294 25.09779599 3.5617294 25.09779599 0.95703125 29.28125 C-2.61656958 31.35837598 -5.58603102 31.77839358 -9.625 31.8125 C-10.6759082 31.84911743 -10.6759082 31.84911743 -11.74804688 31.88647461 C-13.83255593 31.95155592 -15.91460562 31.98176926 -18 32 C-19.15242187 32.01546875 -20.30484375 32.0309375 -21.4921875 32.046875 C-23.99637791 32.05988378 -26.49634027 32.04773927 -29 32 C-28.01 31.67 -27.02 31.34 -26 31 C-25.67 30.01 -25.34 29.02 -25 28 C-20.05 28 -15.1 28 -10 28 C-10 28.66 -10 29.32 -10 30 C-8.01508358 29.73323796 -8.01508358 29.73323796 -6 29 C-5.67 28.01 -5.34 27.02 -5 26 C-4.01 26 -3.02 26 -2 26 C-2 25.34 -2 24.68 -2 24 C-1.34 24 -0.68 24 0 24 C0.33 16.74 0.66 9.48 1 2 C0.34 1.67 -0.32 1.34 -1 1 C-0.67 0.67 -0.34 0.34 0 0 Z " fill="#918C88" transform="translate(186,168)"/>
<path d="M0 0 C13.2 0 26.4 0 40 0 C38.68 0.33 37.36 0.66 36 1 C35.690625 1.825 35.38125 2.65 35.0625 3.5 C34.5365625 4.7375 34.5365625 4.7375 34 6 C30.40583715 7.13597692 27.80804356 6.97577042 24.19921875 6.0390625 C23.30396484 5.81476562 22.40871094 5.59046875 21.48632812 5.359375 C20.56271484 5.11703125 19.63910156 4.8746875 18.6875 4.625 C12.45253612 3.0210941 6.41219821 1.64648188 0 1 C0 0.67 0 0.34 0 0 Z " fill="#F5F7F8" transform="translate(22,0)"/>
<path d="M0 0 C0.33 0 0.66 0 1 0 C1.65041206 25.67051847 2.18328487 51.32037927 2 77 C1.67 77 1.34 77 1 77 C0.67 69.41 0.34 61.82 0 54 C-0.33 54 -0.66 54 -1 54 C-1.02537091 47.11320788 -1.04287571 40.22642783 -1.05493164 33.33959961 C-1.05995801 30.99714711 -1.06678008 28.65469775 -1.07543945 26.31225586 C-1.08757918 22.94383978 -1.09324531 19.57546522 -1.09765625 16.20703125 C-1.10281754 15.16102249 -1.10797882 14.11501373 -1.11329651 13.03730774 C-1.11337204 12.05666855 -1.11344757 11.07602936 -1.11352539 10.06567383 C-1.115746 9.20629715 -1.11796661 8.34692047 -1.12025452 7.46150208 C-0.99457736 4.88900339 -0.56648426 2.50932729 0 0 Z " fill="#4E4F54" transform="translate(18,27)"/>
<path d="M0 0 C-0.33 0.99 -0.66 1.98 -1 3 C-1.08878884 4.47216888 -1.12198352 5.94805441 -1.12025452 7.42289734 C-1.12162918 8.32733582 -1.12300385 9.23177429 -1.12442017 10.16362 C-1.12082489 11.15336319 -1.11722961 12.14310638 -1.11352539 13.1628418 C-1.11367142 14.20691193 -1.11381744 15.25098206 -1.1139679 16.32669067 C-1.11327018 19.78422103 -1.10548431 23.24169778 -1.09765625 26.69921875 C-1.09579157 29.0938972 -1.0943679 31.48857604 -1.09336853 33.883255 C-1.08954728 40.19122365 -1.07972031 46.49916934 -1.06866455 52.80712891 C-1.05844202 59.24185882 -1.0538691 65.67659244 -1.04882812 72.11132812 C-1.03809772 84.74089522 -1.02121774 97.37044639 -1 110 C-1.33 110 -1.66 110 -2 110 C-3.09864595 88.01655796 -3.12342542 66.06559143 -3.06866455 44.06109619 C-3.05824156 39.41378244 -3.05382726 34.76646281 -3.04882812 30.11914062 C-3.03825825 21.07941223 -3.02130309 12.03970905 -3 3 C-3.99 2.67 -4.98 2.34 -6 2 C-2.25 0 -2.25 0 0 0 Z " fill="#9AA6AF" transform="translate(58,5)"/>
<path d="M0 0 C5.34550014 -0.18432759 8.90290821 0.2657456 14 2 C16.53437607 2.55522495 19.07676588 3.07481191 21.625 3.5625 C29.66353538 5.11084065 29.66353538 5.11084065 33 6 C33 6.66 33 7.32 33 8 C30.03 8.66 27.06 9.32 24 10 C23.67 9.34 23.34 8.68 23 8 C20.94299313 7.34289205 20.94299313 7.34289205 18.44921875 6.9296875 C17.52302734 6.75566406 16.59683594 6.58164063 15.64257812 6.40234375 C14.66740234 6.22832031 13.69222656 6.05429688 12.6875 5.875 C11.72392578 5.69324219 10.76035156 5.51148438 9.76757812 5.32421875 C5.74172013 4.5820994 2.1107822 4 -2 4 C-1.34 2.68 -0.68 1.36 0 0 Z " fill="#E2E0E1" transform="translate(99,1)"/>
<path d="M0 0 C0.66 0 1.32 0 2 0 C2 15.51 2 31.02 2 47 C1.67 47 1.34 47 1 47 C1 42.05 1 37.1 1 32 C0.34 32 -0.32 32 -1 32 C-1 28.04 -1 24.08 -1 20 C-1.99 20.33 -2.98 20.66 -4 21 C-5.0070238 15.96488101 -4.97387813 12.76052962 -3 8 C-2.34 8.66 -1.68 9.32 -1 10 C0.23267348 8.99163938 0.23267348 8.99163938 0.09765625 6.93359375 C0.08605469 6.10988281 0.07445313 5.28617188 0.0625 4.4375 C0.05347656 3.61121094 0.04445313 2.78492188 0.03515625 1.93359375 C0.02355469 1.29550781 0.01195313 0.65742188 0 0 Z " fill="#D3DFE6" transform="translate(91,16)"/>
<path d="M0 0 C1.42059843 0.20337627 2.83659398 0.4390141 4.25 0.6875 C5.03890625 0.81511719 5.8278125 0.94273438 6.640625 1.07421875 C10.14322429 2.44858304 11.07665703 3.70970255 13 7 C13.56260957 11.10174119 13.46447982 15.16759527 13.390625 19.30078125 C13.38496521 20.49229294 13.37930542 21.68380463 13.37347412 22.91142273 C13.35110685 26.71219269 13.30090685 30.51201557 13.25 34.3125 C13.22993559 36.89126242 13.21168472 39.47003963 13.1953125 42.04882812 C13.15124071 48.36620785 13.0843237 54.68303626 13 61 C12.67 61 12.34 61 12 61 C11.85711716 54.64625066 11.71475376 48.29248984 11.57275391 41.9387207 C11.52437143 39.77660864 11.47586943 37.61449924 11.42724609 35.45239258 C11.3574339 32.3471749 11.28804961 29.24194791 11.21875 26.13671875 C11.19687622 25.16788254 11.17500244 24.19904633 11.15246582 23.20085144 C11.13244507 22.3001442 11.11242432 21.39943695 11.09179688 20.47143555 C11.07403198 19.67867722 11.05626709 18.88591888 11.03796387 18.06913757 C11.00696592 16.37966201 11 14.68975991 11 13 C10.34 13 9.68 13 9 13 C8.15545644 9.62182575 7.89155081 7.32534757 9 4 C8.01 4.33 7.02 4.66 6 5 C2 5 2 5 0 4 C0 2.68 0 1.36 0 0 Z " fill="#C8C7C5" transform="translate(176,19)"/>
<path d="M0 0 C0.33 0 0.66 0 1 0 C1 23.43 1 46.86 1 71 C-1 67 -1 67 -2 64 C-1.34 64 -0.68 64 0 64 C0 60.37 0 56.74 0 53 C-0.66 53 -1.32 53 -2 53 C-1.83628906 52.21318848 -1.67257813 51.42637695 -1.50390625 50.61572266 C-0.87393771 46.09545422 -0.89534711 41.70519582 -0.9375 37.1484375 C-0.94128662 36.21198395 -0.94507324 35.2755304 -0.94897461 34.31069946 C-0.96114476 31.33208518 -0.97977693 28.35356983 -1 25.375 C-1.02658614 21.4453151 -1.04657726 17.51567845 -1.0625 13.5859375 C-1.07494751 12.23427994 -1.07494751 12.23427994 -1.08764648 10.85531616 C-1.09094971 10.0140921 -1.09425293 9.17286804 -1.09765625 8.30615234 C-1.10289307 7.56924164 -1.10812988 6.83233093 -1.11352539 6.0730896 C-0.99641086 3.93445855 -0.5865353 2.05551918 0 0 Z " fill="#1D252B" transform="translate(54,124)"/>
<path d="M0 0 C0.99 0.33 1.98 0.66 3 1 C3 2.32 3 3.64 3 5 C3.99 4.67 4.98 4.34 6 4 C6 3.34 6 2.68 6 2 C6.99 2.33 7.98 2.66 9 3 C9.33 4.98 9.66 6.96 10 9 C11.32 9.33 12.64 9.66 14 10 C10.72698081 12.96909598 8.61934238 13.34354794 4.25 13.1875 C3.26515625 13.16042969 2.2803125 13.13335937 1.265625 13.10546875 C0.51796875 13.07066406 -0.2296875 13.03585938 -1 13 C-1.07654536 8.48382401 -1.10228696 4.40914783 0 0 Z " fill="#0B0C10" transform="translate(103,19)"/>
<path d="M0 0 C6.27 0.33 12.54 0.66 19 1 C20.53266582 4.06533164 20.10276471 7.26754272 20.0625 10.625 C20.05798828 11.33140625 20.05347656 12.0378125 20.04882812 12.765625 C20.03703875 14.51045275 20.01910324 16.255237 20 18 C19.67 18 19.34 18 19 18 C19 14.04 19 10.08 19 6 C17.68 7.32 16.36 8.64 15 10 C15.66 10.33 16.32 10.66 17 11 C17 11.66 17 12.32 17 13 C15.35 12.67 13.7 12.34 12 12 C11 9 11 9 11 6 C10.01 5.67 9.02 5.34 8 5 C8 4.01 8 3.02 8 2 C7.01 2.66 6.02 3.32 5 4 C2.3125 3.625 2.3125 3.625 0 3 C0 2.01 0 1.02 0 0 Z " fill="#292B2D" transform="translate(27,16)"/>
<path d="M0 0 C2.125 0.375 2.125 0.375 4 1 C5.25 7.625 5.25 7.625 3 11 C3.350625 11.969375 3.70125 12.93875 4.0625 13.9375 C5 17 5 17 3.75 19.375 C2 21 2 21 0 21 C-2 19 -2 19 -2.1953125 15.9609375 C-2.17210937 14.77757812 -2.14890625 13.59421875 -2.125 12.375 C-2.10695312 11.18648437 -2.08890625 9.99796875 -2.0703125 8.7734375 C-2.04710937 7.85820312 -2.02390625 6.94296875 -2 6 C-1.34 6 -0.68 6 0 6 C0 5.01 0 4.02 0 3 C-0.66 2.67 -1.32 2.34 -2 2 C-1.34 1.34 -0.68 0.68 0 0 Z " fill="#899BA7" transform="translate(66,158)"/>
<path d="M0 0 C6.68993219 0.53951066 12.63460728 1.88706171 19 4 C19 4.99 19 5.98 19 7 C14.71 7 10.42 7 6 7 C6 7.66 6 8.32 6 9 C4.68 8.67 3.36 8.34 2 8 C2 7.34 2 6.68 2 6 C1.34 6 0.68 6 0 6 C-0.33 6.66 -0.66 7.32 -1 8 C-0.67 5.36 -0.34 2.72 0 0 Z " fill="#6E727B" transform="translate(103,5)"/>
<path d="M0 0 C1.22589844 0.01353516 1.22589844 0.01353516 2.4765625 0.02734375 C3.41628906 0.04474609 3.41628906 0.04474609 4.375 0.0625 C4.375 1.0525 4.375 2.0425 4.375 3.0625 C3.055 3.0625 1.735 3.0625 0.375 3.0625 C-0.285 4.7125 -0.945 6.3625 -1.625 8.0625 C-0.305 8.3925 1.015 8.7225 2.375 9.0625 C2.045 10.3825 1.715 11.7025 1.375 13.0625 C0.715 12.7325 0.055 12.4025 -0.625 12.0625 C-0.625 11.4025 -0.625 10.7425 -0.625 10.0625 C-1.945 10.3925 -3.265 10.7225 -4.625 11.0625 C-4.955 9.7425 -5.285 8.4225 -5.625 7.0625 C-6.615 9.0425 -7.605 11.0225 -8.625 13.0625 C-10.38962683 9.97440305 -10.625 8.82937864 -10.625 5.0625 C-9.965 5.0625 -9.305 5.0625 -8.625 5.0625 C-8.33625 4.423125 -8.0475 3.78375 -7.75 3.125 C-5.8355695 -0.38478925 -3.69916548 -0.05284522 0 0 Z " fill="#121214" transform="translate(79.625,17.9375)"/>
<path d="M0 0 C-1 3 -1 3 -3 5 C-2.01 6.485 -2.01 6.485 -1 8 C-0.875 10.6875 -0.875 10.6875 -1 13 C0.65 13 2.3 13 4 13 C4.33 12.34 4.66 11.68 5 11 C5 11.99 5 12.98 5 14 C6.65 14.33 8.3 14.66 10 15 C9.67 15.66 9.34 16.32 9 17 C6.70704764 16.71861942 4.41564544 16.4245814 2.125 16.125 C0.84882812 15.96257813 -0.42734375 15.80015625 -1.7421875 15.6328125 C-5 15 -5 15 -7 13 C-6.9765625 9.9609375 -6.9765625 9.9609375 -6.625 6.375 C-6.51414062 5.18648437 -6.40328125 3.99796875 -6.2890625 2.7734375 C-6.19367188 1.85820312 -6.09828125 0.94296875 -6 0 C-3 -1 -3 -1 0 0 Z " fill="#08080A" transform="translate(71,19)"/>
<path d="M0 0 C0.598125 0.165 1.19625 0.33 1.8125 0.5 C4.11344336 1.1114124 4.11344336 1.1114124 7 1 C6.70100785 4.58790575 6.23013399 5.78166776 3.5625 8.3125 C1 10 1 10 -1 10 C-0.9278125 10.6084375 -0.855625 11.216875 -0.78125 11.84375 C0.10824048 20.24449341 0.09524389 28.565624 0 37 C-0.33 37 -0.66 37 -1 37 C-1.61535886 29.25307154 -2.11070768 21.52234252 -2.1875 13.75 C-2.20167969 12.52796875 -2.21585938 11.3059375 -2.23046875 10.046875 C-2 7 -2 7 0 4 C-0.66 3.67 -1.32 3.34 -2 3 C-1.34 2.01 -0.68 1.02 0 0 Z " fill="#CBD8E0" transform="translate(58,1)"/>
<path d="M0 0 C0.33 0 0.66 0 1 0 C1.33 5.28 1.66 10.56 2 16 C3.81115956 14.18884044 3.38199448 11.38721773 3.5625 8.9375 C3.64628906 7.83277344 3.73007813 6.72804688 3.81640625 5.58984375 C3.87699219 4.73519531 3.93757813 3.88054688 4 3 C4.33 3 4.66 3 5 3 C5.33 9.6 5.66 16.2 6 23 C5.01 23.33 4.02 23.66 3 24 C1.77030122 27.51190809 1.77030122 27.51190809 1 31 C0.34 30.67 -0.32 30.34 -1 30 C-0.67 20.1 -0.34 10.2 0 0 Z " fill="#D8D6D1" transform="translate(95,10)"/>
<path d="M0 0 C0.99 0.33 1.98 0.66 3 1 C4.125 6.625 4.125 6.625 3 10 C3.66 10 4.32 10 5 10 C5.33 9.34 5.66 8.68 6 8 C6.66 8 7.32 8 8 8 C8 8.66 8 9.32 8 10 C7.01 10.495 7.01 10.495 6 11 C5.09274566 13.11327425 5.09274566 13.11327425 4.375 15.5625 C4.11460938 16.38878906 3.85421875 17.21507812 3.5859375 18.06640625 C3.39257812 18.70449219 3.19921875 19.34257812 3 20 C2.01 20 1.02 20 0 20 C0 13.4 0 6.8 0 0 Z " fill="#9B9289" transform="translate(104,157)"/>
<path d="M0 0 C0.99386719 0.00902344 1.98773438 0.01804688 3.01171875 0.02734375 C4.15060547 0.04474609 4.15060547 0.04474609 5.3125 0.0625 C5.6425 0.7225 5.9725 1.3825 6.3125 2.0625 C4.3325 2.0625 2.3525 2.0625 0.3125 2.0625 C-2.07823445 5.88767513 -2.24716552 9.65915524 -2.6875 14.0625 C-3.3475 14.0625 -4.0075 14.0625 -4.6875 14.0625 C-5.0175 15.7125 -5.3475 17.3625 -5.6875 19.0625 C-6.0175 19.0625 -6.3475 19.0625 -6.6875 19.0625 C-6.6875 13.4525 -6.6875 7.8425 -6.6875 2.0625 C-7.3475 1.7325 -8.0075 1.4025 -8.6875 1.0625 C-5.53819107 0.01273036 -3.29935544 -0.03881595 0 0 Z " fill="#7A7C83" transform="translate(25.6875,3.9375)"/>
<path d="M0 0 C0.99 0.33 1.98 0.66 3 1 C3 2.32 3 3.64 3 5 C0 7 0 7 -2.48046875 6.7578125 C-3.37378906 6.54898437 -4.26710938 6.34015625 -5.1875 6.125 C-6.08855469 5.92132812 -6.98960938 5.71765625 -7.91796875 5.5078125 C-8.94857422 5.25644531 -8.94857422 5.25644531 -10 5 C-10 5.66 -10 6.32 -10 7 C-10.99 6.67 -11.98 6.34 -13 6 C-13 5.34 -13 4.68 -13 4 C-13.66 3.67 -14.32 3.34 -15 3 C-13 1 -13 1 -9.8125 0.75 C-5.83431685 1.01086447 -2.76742668 1.76981986 1 3 C0.67 2.01 0.34 1.02 0 0 Z " fill="#5A606B" transform="translate(44,9)"/>
<path d="M0 0 C2.58905168 5.17810337 3.09609567 8.13614744 2.87890625 13.85546875 C2.85529526 14.51710526 2.83168427 15.17874176 2.80735779 15.86042786 C2.73090143 17.96968002 2.64680043 20.0785482 2.5625 22.1875 C2.5092612 23.61912196 2.45652093 25.05076254 2.40429688 26.48242188 C2.27531118 29.98851576 2.13946876 33.49430571 2 37 C1.34 37 0.68 37 0 37 C0 24.79 0 12.58 0 0 Z " fill="#B8C6CF" transform="translate(56,35)"/>
<path d="M0 0 C0.66 0 1.32 0 2 0 C2 1.65 2 3.3 2 5 C3.32 5.33 4.64 5.66 6 6 C6 6.66 6 7.32 6 8 C5.01 8.33 4.02 8.66 3 9 C2.34 14.28 1.68 19.56 1 25 C0.34 25 -0.32 25 -1 25 C-1.02886984 21.02084841 -1.04675406 17.04172347 -1.0625 13.0625 C-1.07087891 11.92619141 -1.07925781 10.78988281 -1.08789062 9.61914062 C-1.09111328 8.53955078 -1.09433594 7.45996094 -1.09765625 6.34765625 C-1.10289307 5.34742432 -1.10812988 4.34719238 -1.11352539 3.31665039 C-1 1 -1 1 0 0 Z " fill="#535255" transform="translate(101,6)"/>
<path d="M0 0 C4.95 0.33 9.9 0.66 15 1 C15 2.32 15 3.64 15 5 C10.47258828 6.50913724 5.93573202 6.77429281 1.5 5 C1.005 4.67 0.51 4.34 0 4 C0 2.68 0 1.36 0 0 Z " fill="#565B62" transform="translate(108,11)"/>
<path d="M0 0 C0.99 0.33 1.98 0.66 3 1 C2.01 1.495 2.01 1.495 1 2 C1 3.65 1 5.3 1 7 C1.598125 7.103125 2.19625 7.20625 2.8125 7.3125 C5.28243264 8.08876455 6.32251235 9.07088921 8 11 C8 10.34 8 9.68 8 9 C9.98 9.66 11.96 10.32 14 11 C13.67 11.66 13.34 12.32 13 13 C9.37 12.67 5.74 12.34 2 12 C1.67 13.98 1.34 15.96 1 18 C-1.31321132 14.53018302 -1.43728755 12.55334769 -1.75 8.4375 C-1.84796875 7.28121094 -1.9459375 6.12492188 -2.046875 4.93359375 C-2 2 -2 2 0 0 Z " fill="#2F323A" transform="translate(26,5)"/>
<path d="M0 0 C0.66 0.33 1.32 0.66 2 1 C1.67 1.66 1.34 2.32 1 3 C1.99 3.33 2.98 3.66 4 4 C4 3.34 4 2.68 4 2 C5.65 2 7.3 2 9 2 C9 2.66 9 3.32 9 4 C14.28 4.33 19.56 4.66 25 5 C25 5.33 25 5.66 25 6 C13.45 6 1.9 6 -10 6 C-10 5.67 -10 5.34 -10 5 C-7.36 5 -4.72 5 -2 5 C-2 3.68 -2 2.36 -2 1 C-1.34 0.67 -0.68 0.34 0 0 Z " fill="#7F8D97" transform="translate(90,196)"/>
<path d="M0 0 C0.75410156 0.19529297 1.50820312 0.39058594 2.28515625 0.59179688 C4.15008306 1.07573358 6.01276459 1.56830769 7.875 2.0625 C4.68296259 3.95545242 2.43511744 4.26250438 -1.25 4.125 C-4.82846806 3.92333205 -4.82846806 3.92333205 -8.125 5.0625 C-8.125 4.0725 -8.125 3.0825 -8.125 2.0625 C-9.115 2.0625 -10.105 2.0625 -11.125 2.0625 C-10.795 1.0725 -10.465 0.0825 -10.125 -0.9375 C-6.79929578 -2.60035211 -3.44139055 -0.91829852 0 0 Z " fill="#9098A6" transform="translate(76.125,6.9375)"/>
<path d="M0 0 C0.99 0.66 1.98 1.32 3 2 C3.66 2 4.32 2 5 2 C5.66 3.32 6.32 4.64 7 6 C5.04901915 7.95098085 1.35325071 7.25415108 -1.31640625 7.31640625 C-2.41298805 7.3475779 -2.41298805 7.3475779 -3.53172302 7.37937927 C-5.87521656 7.44495024 -8.21882539 7.50379432 -10.5625 7.5625 C-12.14779855 7.60567808 -13.73308529 7.64929213 -15.31835938 7.69335938 C-19.21212037 7.8006392 -23.10599772 7.9018849 -27 8 C-27 7.67 -27 7.34 -27 7 C-20.99912756 6.17349095 -15.04917946 5.7209101 -9 5.4375 C-8.12988281 5.39431641 -7.25976562 5.35113281 -6.36328125 5.30664062 C-4.24231781 5.20175782 -2.12117567 5.10049925 0 5 C0 3.35 0 1.7 0 0 Z " fill="#25272B" transform="translate(51,195)"/>
<path d="M0 0 C0.99 0.33 1.98 0.66 3 1 C3 2.32 3 3.64 3 5 C2.34 5 1.68 5 1 5 C1.33 5.66 1.66 6.32 2 7 C2.99 7.33 3.98 7.66 5 8 C3.68 8.33 2.36 8.66 1 9 C1.33 9.66 1.66 10.32 2 11 C2.99 10.67 3.98 10.34 5 10 C4.67 11.65 4.34 13.3 4 15 C1.69 14.01 -0.62 13.02 -3 12 C-3 8.88772805 -2.54372951 6.05847848 -2 3 C-1.34 3 -0.68 3 0 3 C0 2.01 0 1.02 0 0 Z " fill="#212224" transform="translate(27,176)"/>
<path d="M0 0 C3 2 3 2 5 5 C5 5.99 5 6.98 5 8 C5.69867188 7.90460938 6.39734375 7.80921875 7.1171875 7.7109375 C8.02726562 7.60007813 8.93734375 7.48921875 9.875 7.375 C10.77992187 7.25898438 11.68484375 7.14296875 12.6171875 7.0234375 C13.40351562 7.01570312 14.18984375 7.00796875 15 7 C15.66 7.66 16.32 8.32 17 9 C14.22858283 9.08089542 11.45952181 9.14044062 8.6875 9.1875 C7.90181641 9.21263672 7.11613281 9.23777344 6.30664062 9.26367188 C5.54931641 9.27333984 4.79199219 9.28300781 4.01171875 9.29296875 C3.31522217 9.3086792 2.61872559 9.32438965 1.90112305 9.34057617 C-0.58237578 8.89567045 -1.47101992 7.96642914 -3 6 C-3 5.34 -3 4.68 -3 4 C-2.34 4 -1.68 4 -1 4 C-0.67 2.68 -0.34 1.36 0 0 Z " fill="#8D9CA6" transform="translate(59,193)"/>
<path d="M0 0 C0.33 0 0.66 0 1 0 C1.74668723 5.31207248 2.11933785 10.4042139 2.09765625 15.78125 C2.0962413 16.48020386 2.09482635 17.17915771 2.09336853 17.89929199 C2.0878367 20.09957429 2.07529777 22.29974923 2.0625 24.5 C2.05747616 26.00520685 2.05291482 27.51041532 2.04882812 29.015625 C2.03788977 32.67711735 2.02067359 36.33854817 2 40 C1.67 40 1.34 40 1 40 C0.67 32.41 0.34 24.82 0 17 C-0.33 17 -0.66 17 -1 17 C-1.12036664 11.22240116 -0.8320582 5.72040011 0 0 Z " fill="#45464B" transform="translate(18,64)"/>
<path d="M0 0 C0.33 0 0.66 0 1 0 C1.99 8.25 2.98 16.5 4 25 C2.68 25 1.36 25 0 25 C0 16.75 0 8.5 0 0 Z " fill="#7E7D76" transform="translate(93,172)"/>
<path d="M0 0 C0.33 0 0.66 0 1 0 C2.34615493 12.30770225 2.09824685 24.63752318 2 37 C1.67 37 1.34 37 1 37 C-1.34900367 24.53669127 -0.87402815 12.60431504 0 0 Z " fill="#98A7AE" transform="translate(91,131)"/>
<path d="M0 0 C0.33 0 0.66 0 1 0 C1 13.53 1 27.06 1 41 C0.67 41 0.34 41 0 41 C-0.36173964 38.54256214 -0.71468169 36.08441207 -1.0625 33.625 C-1.16626953 32.92632812 -1.27003906 32.22765625 -1.37695312 31.5078125 C-2.11328125 26.2265625 -2.11328125 26.2265625 -1 24 C-0.95319361 22.58410678 -0.96248557 21.16616987 -1 19.75 C-1.07755427 13.13849873 -0.53143625 6.58601355 0 0 Z " fill="#C2CCD0" transform="translate(92,63)"/>
<path d="M0 0 C-0.33 0.99 -0.66 1.98 -1 3 C-1.07152544 5.00664625 -1.08399621 7.01563199 -1.0625 9.0234375 C-1.05476563 10.209375 -1.04703125 11.3953125 -1.0390625 12.6171875 C-1.01310204 15.11458418 -0.98706088 17.61198002 -0.9609375 20.109375 C-0.95320313 21.29789063 -0.94546875 22.48640625 -0.9375 23.7109375 C-0.92589844 24.79681152 -0.91429687 25.88268555 -0.90234375 27.00146484 C-0.99324301 29.7925266 -1.36133308 32.28755141 -2 35 C-2.33 35 -2.66 35 -3 35 C-3 24.44 -3 13.88 -3 3 C-3.99 2.67 -4.98 2.34 -6 2 C-2.25 0 -2.25 0 0 0 Z " fill="#A9B6BE" transform="translate(58,5)"/>
<path d="M0 0 C14.85 0 29.7 0 45 0 C45 0.33 45 0.66 45 1 C43.98574951 1.02505615 42.97149902 1.0501123 41.92651367 1.07592773 C38.16368973 1.17009645 34.40104631 1.27029405 30.63842773 1.37231445 C29.00988996 1.41562749 27.38130784 1.45730518 25.75268555 1.49731445 C23.41181065 1.55510503 21.07115824 1.61877398 18.73046875 1.68359375 C18.00224411 1.70030624 17.27401947 1.71701874 16.52372742 1.73423767 C13.43833061 1.82467238 10.94828022 2.01723993 8 3 C5.26187393 2.54451823 2.6798824 1.74685247 0 1 C0 0.67 0 0.34 0 0 Z " fill="#09080D" transform="translate(156,13)"/>
<path d="M0 0 C6.27 0.33 12.54 0.66 19 1 C19 1.99 19 2.98 19 4 C13.555 4.495 13.555 4.495 8 5 C8 4.01 8 3.02 8 2 C7.01 2.66 6.02 3.32 5 4 C2.3125 3.625 2.3125 3.625 0 3 C0 2.01 0 1.02 0 0 Z " fill="#1C1D21" transform="translate(27,16)"/>
<path d="M0 0 C5.28 1.32 10.56 2.64 16 4 C15.67 4.66 15.34 5.32 15 6 C8.54107286 6.40368295 3.93891422 5.5915262 -2 3 C-1.34 2.01 -0.68 1.02 0 0 Z " fill="#8E9197" transform="translate(106,5)"/>
<path d="M0 0 C1.44010481 0.25662245 2.8770687 0.53090821 4.3125 0.8125 C5.11300781 0.96332031 5.91351563 1.11414063 6.73828125 1.26953125 C9.28795169 2.09299994 10.38603508 2.87878897 12 5 C12.375 8.0625 12.375 8.0625 12 11 C11.01 11.66 10.02 12.32 9 13 C8.15545644 9.62182575 7.89155081 7.32534757 9 4 C8.01 4.33 7.02 4.66 6 5 C2 5 2 5 0 4 C0 2.68 0 1.36 0 0 Z " fill="#DBD9D9" transform="translate(176,19)"/>
<path d="M0 0 C0.99 0.33 1.98 0.66 3 1 C3.33 2.98 3.66 4.96 4 7 C5.32 7.33 6.64 7.66 8 8 C5.64031256 10.09749995 4.45383006 10.96905704 1.25 11.1875 C0.5075 11.125625 -0.235 11.06375 -1 11 C-1.33 10.01 -1.66 9.02 -2 8 C-1.01 7.34 -0.02 6.68 1 6 C0.01 4.68 -0.98 3.36 -2 2 C-1.34 2 -0.68 2 0 2 C0 1.34 0 0.68 0 0 Z " fill="#020505" transform="translate(109,21)"/>
<path d="M0 0 C1.32 0 2.64 0 4 0 C4 0.99 4 1.98 4 3 C5.32 3.33 6.64 3.66 8 4 C7.34 5.98 6.68 7.96 6 10 C5.01 9.01 4.02 8.02 3 7 C1.35 7.66 -0.3 8.32 -2 9 C-2 7.35 -2 5.7 -2 4 C-1.01 4 -0.02 4 1 4 C0.67 2.68 0.34 1.36 0 0 Z " fill="#111215" transform="translate(31,18)"/>
<path d="M0 0 C2.06257104 4.12514209 2.23756602 5.81800138 2.1953125 10.296875 C2.18886719 11.50214844 2.18242188 12.70742188 2.17578125 13.94921875 C2.15902344 15.20347656 2.14226562 16.45773438 2.125 17.75 C2.11597656 19.01972656 2.10695313 20.28945313 2.09765625 21.59765625 C2.07409005 24.73196093 2.04118832 27.86588541 2 31 C1.67 31 1.34 31 1 31 C1 26.05 1 21.1 1 16 C0.34 16 -0.32 16 -1 16 C-0.67 10.72 -0.34 5.44 0 0 Z " fill="#CFD8DA" transform="translate(91,32)"/>
<path d="M0 0 C2.64 0 5.28 0 8 0 C7.38125 0.061875 6.7625 0.12375 6.125 0.1875 C3.72238859 0.828919 3.72238859 0.828919 2.75 3.5625 C2.5025 4.366875 2.255 5.17125 2 6 C3.32 6.33 4.64 6.66 6 7 C5.67 8.32 5.34 9.64 5 11 C4.34 10.67 3.68 10.34 3 10 C3 9.34 3 8.68 3 8 C1.68 8.33 0.36 8.66 -1 9 C-0.67 6.03 -0.34 3.06 0 0 Z " fill="#302F31" transform="translate(76,20)"/>
<path d="M0 0 C0.66 0 1.32 0 2 0 C2.33 0.99 2.66 1.98 3 3 C3.66 3.66 4.32 4.32 5 5 C4.34 6.98 3.68 8.96 3 11 C2.01 11 1.02 11 0 11 C0 7.37 0 3.74 0 0 Z " fill="#857C73" transform="translate(104,166)"/>
<path d="M0 0 C0.33 0 0.66 0 1 0 C1.16922465 3.68738722 1.33491801 7.37492518 1.5 11.0625 C1.54769531 12.10083984 1.59539062 13.13917969 1.64453125 14.20898438 C1.87873695 19.47861272 2.05985616 24.72517547 2 30 C1.01 30 0.02 30 -1 30 C-0.67 20.1 -0.34 10.2 0 0 Z " fill="#CFCDCC" transform="translate(95,10)"/>
<path d="M0 0 C2.31 0.66 4.62 1.32 7 2 C6.67 2.99 6.34 3.98 6 5 C4.68 5 3.36 5 2 5 C2 5.66 2 6.32 2 7 C0.68 6.67 -0.64 6.34 -2 6 C-1.34 4.02 -0.68 2.04 0 0 Z " fill="#C9D6DD" transform="translate(64,33)"/>
<path d="M0 0 C2.64 0.33 5.28 0.66 8 1 C8 1.99 8 2.98 8 4 C7.01 4.495 7.01 4.495 6 5 C6 5.66 6 6.32 6 7 C4.02 7.99 4.02 7.99 2 9 C2 7.35 2 5.7 2 4 C1.34 3.67 0.68 3.34 0 3 C0 2.01 0 1.02 0 0 Z " fill="#1C1D20" transform="translate(103,16)"/>
<path d="M0 0 C0.99386719 0.00902344 1.98773438 0.01804688 3.01171875 0.02734375 C4.15060547 0.04474609 4.15060547 0.04474609 5.3125 0.0625 C5.6425 0.7225 5.9725 1.3825 6.3125 2.0625 C5.384375 1.98 4.45625 1.8975 3.5 1.8125 C0.22144778 1.70946955 0.22144778 1.70946955 -1.5625 4.0625 C-1.93375 4.7225 -2.305 5.3825 -2.6875 6.0625 C-6.08664975 4.92945008 -6.74004451 3.93731525 -8.6875 1.0625 C-5.53819107 0.01273036 -3.29935544 -0.03881595 0 0 Z " fill="#6F7277" transform="translate(25.6875,3.9375)"/>
<path d="M0 0 C1.77049689 -0.05410687 3.54146849 -0.09284119 5.3125 -0.125 C6.29863281 -0.14820313 7.28476563 -0.17140625 8.30078125 -0.1953125 C11 0 11 0 14 2 C11 4 11 4 8.6875 3.6875 C7.800625 3.460625 6.91375 3.23375 6 3 C4.00102872 2.66055205 2.00124361 2.32578384 0 2 C0 1.34 0 0.68 0 0 Z " fill="#60626F" transform="translate(71,12)"/>
<path d="M0 0 C0.66 0 1.32 0 2 0 C2.05395478 1.62463842 2.09277195 3.24978541 2.125 4.875 C2.14820312 5.77992187 2.17140625 6.68484375 2.1953125 7.6171875 C2 10 2 10 0 12 C0 10.35 0 8.7 0 7 C-4.62 7 -9.24 7 -14 7 C-14 6.67 -14 6.34 -14 6 C-9.38 6 -4.76 6 0 6 C0 4.02 0 2.04 0 0 Z " fill="#5E6065" transform="translate(17,6)"/>
<path d="M0 0 C0.33 0.99 0.66 1.98 1 3 C2.65 3.33 4.3 3.66 6 4 C5.67 4.66 5.34 5.32 5 6 C0.38 5.34 -4.24 4.68 -9 4 C-7 2 -7 2 -3.375 1.875 C-1.704375 1.936875 -1.704375 1.936875 0 2 C0 1.34 0 0.68 0 0 Z " fill="#141921" transform="translate(75,30)"/>
<path d="M0 0 C2.31 0.33 4.62 0.66 7 1 C6.375 2.9375 6.375 2.9375 5 5 C1.875 5.75 1.875 5.75 -1 6 C-1.33 5.34 -1.66 4.68 -2 4 C-1.0625 1.875 -1.0625 1.875 0 0 Z " fill="#DBDAD6" transform="translate(167,17)"/>
<path d="M0 0 C0.99 0.33 1.98 0.66 3 1 C2.01 1.66 1.02 2.32 0 3 C-0.72965366 5.56282742 -0.72965366 5.56282742 -1 8 C0.65 8 2.3 8 4 8 C4 8.99 4 9.98 4 11 C3.01 11 2.02 11 1 11 C0.34 11.66 -0.32 12.32 -1 13 C-2.17673198 10.64653604 -2.16623866 9.1193967 -2.1875 6.5 C-2.20167969 5.7059375 -2.21585938 4.911875 -2.23046875 4.09375 C-2 2 -2 2 0 0 Z " fill="#414C56" transform="translate(65,5)"/>
<path d="M0 0 C1.35158203 0.15275391 1.35158203 0.15275391 2.73046875 0.30859375 C3.41753906 0.39238281 4.10460937 0.47617188 4.8125 0.5625 C4.8125 0.8925 4.8125 1.2225 4.8125 1.5625 C1.13862505 2.41548376 -2.2322393 2.67039471 -6 2.625 C-7.46373047 2.61146484 -7.46373047 2.61146484 -8.95703125 2.59765625 C-10.06111328 2.58025391 -10.06111328 2.58025391 -11.1875 2.5625 C-7.08027748 -0.17564835 -4.78174827 -0.55890564 0 0 Z " fill="#88847F" transform="translate(168.1875,197.4375)"/>
<path d="M0 0 C0.99 0 1.98 0 3 0 C3 0.66 3 1.32 3 2 C8.28 2.33 13.56 2.66 19 3 C19 3.33 19 3.66 19 4 C16.20807795 4.05380578 13.4171859 4.09357669 10.625 4.125 C9.8309375 4.14175781 9.036875 4.15851563 8.21875 4.17578125 C6.14507985 4.19335473 4.07116759 4.10335168 2 4 C1.34 3.34 0.68 2.68 0 2 C0 1.34 0 0.68 0 0 Z " fill="#94918B" transform="translate(96,198)"/>
<path d="M0 0 C2.97 0 5.94 0 9 0 C8 2 8 2 7 3 C5.48530552 3.23192865 3.96245438 3.41215238 2.4375 3.5625 C1.19806641 3.68818359 1.19806641 3.68818359 -0.06640625 3.81640625 C-1.02353516 3.90728516 -1.02353516 3.90728516 -2 4 C-1.34 2.68 -0.68 1.36 0 0 Z " fill="#828689" transform="translate(20,1)"/>
<path d="M0 0 C0.99 0 1.98 0 3 0 C3 0.99 3 1.98 3 3 C3.69867188 2.90460938 4.39734375 2.80921875 5.1171875 2.7109375 C6.02726562 2.60007813 6.93734375 2.48921875 7.875 2.375 C8.77992187 2.25898438 9.68484375 2.14296875 10.6171875 2.0234375 C11.40351562 2.01570312 12.18984375 2.00796875 13 2 C13.66 2.66 14.32 3.32 15 4 C9.39 4 3.78 4 -2 4 C-1.34 3.67 -0.68 3.34 0 3 C0 2.01 0 1.02 0 0 Z " fill="#8895A1" transform="translate(61,198)"/>
<path d="M0 0 C0.33 0 0.66 0 1 0 C1 5.61 1 11.22 1 17 C1.66 17 2.32 17 3 17 C3 18.32 3 19.64 3 21 C2.34 21 1.68 21 1 21 C-0.17426264 18.65147472 -0.11508173 17.26225935 -0.09765625 14.6484375 C-0.09443359 13.79765625 -0.09121094 12.946875 -0.08789062 12.0703125 C-0.07951172 11.18085938 -0.07113281 10.29140625 -0.0625 9.375 C-0.05798828 8.4778125 -0.05347656 7.580625 -0.04882812 6.65625 C-0.03702591 4.43743352 -0.02056155 2.21874982 0 0 Z " fill="#657176" transform="translate(55,176)"/>
<path d="M0 0 C0.66 0.33 1.32 0.66 2 1 C2 6.28 2 11.56 2 17 C1.67 17 1.34 17 1 17 C0.63826036 14.54256214 0.28531831 12.08441207 -0.0625 9.625 C-0.16626953 8.92632812 -0.27003906 8.22765625 -0.37695312 7.5078125 C-1.11328125 2.2265625 -1.11328125 2.2265625 0 0 Z " fill="#B5C2CA" transform="translate(91,87)"/>
<path d="M0 0 C0 1.65 0 3.3 0 5 C-2.62113708 5 -4.50935112 4.68707555 -7 4 C-7 3.01 -7 2.02 -7 1 C-4 0 -4 0 0 0 Z " fill="#D9D6D3" transform="translate(128,35)"/>
<path d="M0 0 C1.46015291 0.28241641 2.91809793 0.57626614 4.375 0.875 C5.18710938 1.03742187 5.99921875 1.19984375 6.8359375 1.3671875 C9 2 9 2 11 4 C2.42857143 4.28571429 2.42857143 4.28571429 -1 2 C-0.67 1.34 -0.34 0.68 0 0 Z " fill="#3F444C" transform="translate(109,13)"/>
<path d="M0 0 C0.99 0 1.98 0 3 0 C2.67 3.63 2.34 7.26 2 11 C0 9 0 9 -0.1953125 6.8359375 C-0.17210938 6.02382812 -0.14890625 5.21171875 -0.125 4.375 C-0.10695313 3.55773437 -0.08890625 2.74046875 -0.0703125 1.8984375 C-0.04710938 1.27195312 -0.02390625 0.64546875 0 0 Z " fill="#B8B8BA" transform="translate(93,5)"/>
<path d="M0 0 C1.79133978 -0.05391993 3.58313899 -0.09275571 5.375 -0.125 C6.37273437 -0.14820313 7.37046875 -0.17140625 8.3984375 -0.1953125 C11 0 11 0 13 2 C12.39671875 1.98839844 11.7934375 1.97679687 11.171875 1.96484375 C10.37265625 1.95582031 9.5734375 1.94679687 8.75 1.9375 C7.96109375 1.92589844 7.1721875 1.91429687 6.359375 1.90234375 C4.09308998 1.99614694 2.1711105 2.36758937 0 3 C0 2.01 0 1.02 0 0 Z " fill="#0F141B" transform="translate(61,203)"/>
<path d="M0 0 C0.80050781 0.03480469 1.60101563 0.06960937 2.42578125 0.10546875 C3.63814453 0.14607422 3.63814453 0.14607422 4.875 0.1875 C5.48988281 0.22230469 6.10476562 0.25710937 6.73828125 0.29296875 C6.73828125 0.95296875 6.73828125 1.61296875 6.73828125 2.29296875 C0.79828125 2.78796875 0.79828125 2.78796875 -5.26171875 3.29296875 C-2.26171875 0.29296875 -2.26171875 0.29296875 0 0 Z " fill="#1C1C20" transform="translate(77.26171875,17.70703125)"/>
<path d="M0 0 C2.475 0.495 2.475 0.495 5 1 C5 1.99 5 2.98 5 4 C3.35 4.66 1.7 5.32 0 6 C0 4.02 0 2.04 0 0 Z " fill="#71737E" transform="translate(26,7)"/>
<path d="M0 0 C0 0.99 0 1.98 0 3 C-6.15234375 2.4140625 -6.15234375 2.4140625 -8 2 C-8.33 1.34 -8.66 0.68 -9 0 C-5.67465243 -1.10844919 -3.37817425 -0.84454356 0 0 Z " fill="#26211F" transform="translate(112,32)"/>
<path d="M0 0 C3.5 0.25 3.5 0.25 5.5 2.25 C4.04536519 2.63909985 2.58608793 3.01088029 1.125 3.375 C-0.09316406 3.68824219 -0.09316406 3.68824219 -1.3359375 4.0078125 C-2.05007812 4.08773438 -2.76421875 4.16765625 -3.5 4.25 C-4.16 3.59 -4.82 2.93 -5.5 2.25 C-3.5 0.25 -3.5 0.25 0 0 Z " fill="#606570" transform="translate(34.5,9.75)"/>
<path d="M0 0 C1.60495567 0.11442461 3.20898119 0.24194694 4.8125 0.375 C5.70582031 0.44460937 6.59914063 0.51421875 7.51953125 0.5859375 C10 1 10 1 13 3 C11.58344207 3.0272415 10.16672955 3.04650467 8.75 3.0625 C7.56664062 3.07990234 7.56664062 3.07990234 6.359375 3.09765625 C4.09308998 3.00385306 2.1711105 2.63241063 0 2 C0 1.34 0 0.68 0 0 Z " fill="#93969D" transform="translate(27,6)"/>
<path d="M0 0 C1.125 1.5625 1.125 1.5625 2 4 C1.125 7.625 1.125 7.625 0 11 C0 11.66 0 12.32 0 13 C-0.66 13 -1.32 13 -2 13 C-1.85966889 11.02043559 -1.7125877 9.04134859 -1.5625 7.0625 C-1.48128906 5.96035156 -1.40007813 4.85820312 -1.31640625 3.72265625 C-1 1 -1 1 0 0 Z " fill="#6B6B6F" transform="translate(48,24)"/>
<path d="M0 0 C-0.33 0.99 -0.66 1.98 -1 3 C-1.22325814 5.05893621 -1.40705759 7.12233653 -1.5625 9.1875 C-1.64628906 10.27417969 -1.73007812 11.36085938 -1.81640625 12.48046875 C-1.87699219 13.31191406 -1.93757813 14.14335937 -2 15 C-2.33 15 -2.66 15 -3 15 C-3 11.04 -3 7.08 -3 3 C-3.99 2.67 -4.98 2.34 -6 2 C-2.25 0 -2.25 0 0 0 Z " fill="#A1AAB1" transform="translate(58,5)"/>
<path d="M0 0 C0.33 1.32 0.66 2.64 1 4 C-4.53846154 4.36923077 -4.53846154 4.36923077 -6.875 2.5 C-7.24625 2.005 -7.6175 1.51 -8 1 C-2.25 0 -2.25 0 0 0 Z " fill="#D0DCE3" transform="translate(85,36)"/>
<path d="M0 0 C-0.33 0.99 -0.66 1.98 -1 3 C-2.65 2.67 -4.3 2.34 -6 2 C-6 2.66 -6 3.32 -6 4 C-6.99 3.67 -7.98 3.34 -9 3 C-6.38997624 -0.48003168 -4.1689578 -0.27793052 0 0 Z " fill="#464C58" transform="translate(40,12)"/>
<path d="M0 0 C2.97 0.33 5.94 0.66 9 1 C5.1496895 3.56687367 3.41430237 2.83288724 -1 2 C-0.67 1.34 -0.34 0.68 0 0 Z M-1 3 C1 4 1 4 1 4 Z " fill="#141415" transform="translate(97,202)"/>
<path d="M0 0 C4.44870215 -0.39253254 7.14243493 0.84694043 11 3 C10.67 3.66 10.34 4.32 10 5 C9.34 5 8.68 5 8 5 C8 4.34 8 3.68 8 3 C5.36 2.67 2.72 2.34 0 2 C0 1.34 0 0.68 0 0 Z " fill="#2A2D32" transform="translate(103,14)"/>
<path d="M0 0 C3.63 0 7.26 0 11 0 C11.33 0.99 11.66 1.98 12 3 C6.06 2.01 6.06 2.01 0 1 C0 0.67 0 0.34 0 0 Z " fill="#77818C" transform="translate(73,10)"/>
<path d="M0 0 C0.99 0 1.98 0 3 0 C3 2.31 3 4.62 3 7 C2.01 7 1.02 7 0 7 C0 4.69 0 2.38 0 0 Z " fill="#6A7C88" transform="translate(66,166)"/>
<path d="M0 0 C0.99 0.33 1.98 0.66 3 1 C2.67 3.31 2.34 5.62 2 8 C1.34 8 0.68 8 0 8 C0 5.36 0 2.72 0 0 Z " fill="#8B8279" transform="translate(104,157)"/>
<path d="M0 0 C0.99 0.33 1.98 0.66 3 1 C2.67 2.98 2.34 4.96 2 7 C1.34 7 0.68 7 0 7 C0 5.68 0 4.36 0 3 C-0.66 2.67 -1.32 2.34 -2 2 C-1.34 1.34 -0.68 0.68 0 0 Z " fill="#7B8D99" transform="translate(66,158)"/>
<path d="M0 0 C0.33 0 0.66 0 1 0 C1 2.64 1 5.28 1 8 C0.01 8 -0.98 8 -2 8 C-2.125 5.125 -2.125 5.125 -2 2 C-1.34 1.34 -0.68 0.68 0 0 Z " fill="#72747C" transform="translate(22,10)"/>
<path d="M0 0 C0.99 0.33 1.98 0.66 3 1 C3 2.66666667 3 4.33333333 3 6 C2.01 5.67 1.02 5.34 0 5 C-0.33 5.99 -0.66 6.98 -1 8 C-0.67 5.36 -0.34 2.72 0 0 Z " fill="#7C7A85" transform="translate(103,5)"/>
<path d="M0 0 C5.75 -0.125 5.75 -0.125 8 1 C8 1.66 8 2.32 8 3 C5.69 3 3.38 3 1 3 C0.67 2.01 0.34 1.02 0 0 Z " fill="#5C5E60" transform="translate(112,26)"/>
<path d="M0 0 C0.93065133 2.60582371 1.14917407 3.64198224 0.0625 6.25 C-0.4634375 7.11625 -0.4634375 7.11625 -1 8 C-1.66 7.67 -2.32 7.34 -3 7 C-3.625 4.9375 -3.625 4.9375 -4 3 C-2.68 3 -1.36 3 0 3 C0 2.01 0 1.02 0 0 Z " fill="#090C0F" transform="translate(84,18)"/>
<path d="M0 0 C0.66 0.99 1.32 1.98 2 3 C1.01 3.33 0.02 3.66 -1 4 C-1.33 4.66 -1.66 5.32 -2 6 C-3.32 5.01 -4.64 4.02 -6 3 C-4.125 1.9375 -4.125 1.9375 -2 1 C-1.34 1.33 -0.68 1.66 0 2 C0 1.34 0 0.68 0 0 Z " fill="#242428" transform="translate(188,17)"/>
<path d="M0 0 C-0.33 1.32 -0.66 2.64 -1 4 C-1.99 4 -2.98 4 -4 4 C-4 3.34 -4 2.68 -4 2 C-5.32 1.67 -6.64 1.34 -8 1 C-5.23735711 0.40267181 -2.83967231 0 0 0 Z " fill="#272626" transform="translate(123,16)"/>
<path d="M0 0 C2.00720923 0.28674418 4.0085944 0.61866701 6 1 C6 1.66 6 2.32 6 3 C3.69 3.33 1.38 3.66 -1 4 C-1 1 -1 1 0 0 Z " fill="#9C9CA6" transform="translate(106,5)"/>
<path d="M0 0 C3.375 -0.125 3.375 -0.125 7 0 C7.66 0.66 8.32 1.32 9 2 C5.52176885 3.15941038 3.54104422 2.70820884 0 2 C0 1.34 0 0.68 0 0 Z " fill="#555E68" transform="translate(71,12)"/>
</svg>
