<?xml version="1.0" standalone="no"?>
<!DOCTYPE svg PUBLIC "-//W3C//DTD SVG 20010904//EN"
 "http://www.w3.org/TR/2001/REC-SVG-20010904/DTD/svg10.dtd">
<svg version="1.0" xmlns="http://www.w3.org/2000/svg"
 width="225.000000pt" height="225.000000pt" viewBox="0 0 225.000000 225.000000"
 preserveAspectRatio="xMidYMid meet">

<g transform="translate(0.000000,225.000000) scale(0.100000,-0.100000)"
fill="#000000" stroke="none">
<path d="M1044 2030 c-22 -11 -42 -26 -44 -33 -2 -6 -6 -372 -9 -812 -6 -726
-6 -754 -9 -306 -1 272 -4 492 -6 490 -9 -10 -14 -1088 -5 -1091 9 -3 16 -25
18 -56 1 -7 5 -11 10 -8 5 3 25 -1 45 -9 37 -16 70 -21 49 -7 -6 4 144 6 334
5 373 -3 384 -2 419 52 14 22 16 110 15 871 -2 770 -3 848 -18 871 -33 50 -56
53 -420 53 -319 0 -340 -1 -379 -20z m726 -13 c59 -20 71 -56 68 -192 l-3
-118 -32 27 c-18 15 -33 34 -33 42 0 8 -7 14 -16 14 -9 0 -33 14 -54 30 -21
17 -42 30 -46 30 -15 1 -54 37 -54 50 0 7 -16 11 -45 9 -24 -2 -47 0 -51 4 -4
4 -41 8 -83 9 l-76 2 94 5 c75 5 96 10 105 24 8 12 8 22 0 35 -10 14 -27 17
-119 17 -92 0 -109 -3 -119 -17 -8 -13 -8 -23 2 -39 12 -18 11 -19 -6 -10 -11
6 -41 12 -68 15 -27 3 -51 6 -54 7 -3 1 -13 1 -22 0 -19 -2 -23 15 -9 38 7 11
43 16 133 21 209 12 450 10 488 -3z m-721 -171 c16 -86 51 -138 134 -200 64
-47 227 -146 242 -146 6 0 86 -51 95 -60 3 -3 17 -11 33 -19 32 -17 35 -27 7
-27 -13 0 -19 5 -15 14 3 10 0 12 -10 8 -8 -3 -15 -1 -15 4 0 6 -15 10 -32 10
-51 0 -82 11 -66 22 9 7 6 8 -11 4 -14 -3 -31 0 -39 6 -10 9 -22 8 -49 -1 -26
-10 -37 -10 -42 -2 -11 17 -120 -8 -145 -33 -25 -25 -24 -112 2 -159 14 -26
17 -57 17 -157 -1 -121 -2 -127 -32 -181 -17 -31 -38 -65 -48 -75 -9 -11 -28
-34 -41 -53 l-24 -35 0 575 c0 317 3 579 7 583 10 10 20 -13 32 -78z m627
-1051 c1 -16 -5 -26 -18 -31 -10 -3 -17 -11 -15 -17 2 -7 -11 -28 -30 -47 -18
-19 -33 -38 -33 -42 0 -5 -6 -8 -14 -8 -8 0 -33 -18 -56 -40 -23 -22 -46 -40
-50 -40 -5 0 -26 -15 -46 -34 -21 -19 -48 -37 -61 -41 -12 -3 -39 -17 -60 -31
-22 -14 -39 -21 -41 -15 -5 16 -22 2 -22 -18 0 -16 -53 -41 -89 -41 -7 0 -17
-5 -24 -10 -35 -30 -60 -50 -62 -50 -10 0 1 62 16 91 30 61 96 107 269 191
161 79 281 150 316 189 9 10 18 19 18 19 1 0 2 -11 2 -25z m-689 -447 c-3 -8
-6 -5 -6 6 -1 11 2 17 5 13 3 -3 4 -12 1 -19z"/>
<path d="M489 1951 c-34 -34 -37 -68 -9 -103 10 -14 16 -29 12 -33 -4 -5 -2
-5 5 -2 6 4 22 2 35 -3 l23 -11 -24 5 c-16 3 -21 2 -14 -5 9 -9 30 -16 56 -18
5 -1 5 -6 2 -11 -3 -6 10 -1 30 11 19 12 39 29 44 38 12 25 8 86 -6 84 -8 -2
-10 4 -6 14 5 12 3 14 -7 8 -10 -6 -12 -4 -6 11 4 10 4 15 0 12 -4 -4 -18 2
-32 12 -35 28 -69 25 -103 -9z"/>
<path d="M877 1893 c4 -53 3 -73 -6 -73 -7 0 -9 -6 -6 -12 4 -7 -3 -2 -14 12
-17 20 -20 21 -14 5 5 -14 0 -12 -19 10 -50 58 -143 27 -140 -47 2 -48 6 -78
10 -73 2 2 12 -5 22 -15 9 -9 23 -19 31 -22 9 -3 7 -10 -9 -26 -27 -27 -28
-37 0 -56 15 -11 26 -12 40 -5 23 12 24 55 1 68 -17 10 -16 11 2 12 11 1 27 1
36 0 9 -1 23 12 31 29 l15 30 14 -42 c14 -42 14 -39 17 93 1 75 -2 147 -7 160
-6 17 -8 2 -4 -48z"/>
<path d="M594 1753 c5 -10 -1 -11 -23 -7 -46 10 -79 -3 -96 -37 -18 -34 -13
-80 11 -100 8 -7 32 -16 52 -20 35 -6 36 -7 6 -8 -16 0 -39 -8 -50 -17 -10 -8
-14 -13 -7 -10 6 4 13 1 15 -4 4 -12 90 -16 107 -6 6 4 9 12 6 17 -4 5 -2 9 4
9 6 0 17 13 25 29 18 34 11 94 -12 113 -13 11 -14 11 -7 -1 6 -10 4 -12 -4 -7
-7 5 -10 14 -7 21 3 8 -3 19 -12 27 -11 9 -14 9 -8 1z"/>
<path d="M973 1490 c0 -25 2 -35 4 -22 2 12 2 32 0 45 -2 12 -4 2 -4 -23z"/>
<path d="M391 284 c0 -11 3 -14 6 -6 3 7 2 16 -1 19 -3 4 -6 -2 -5 -13z"/>
<path d="M422 236 c7 -8 15 -12 17 -11 5 6 -10 25 -20 25 -5 0 -4 -6 3 -14z"/>
</g>
</svg>
