<?xml version="1.0" standalone="no"?>
<!DOCTYPE svg PUBLIC "-//W3C//DTD SVG 20010904//EN"
 "http://www.w3.org/TR/2001/REC-SVG-20010904/DTD/svg10.dtd">
<svg version="1.0" xmlns="http://www.w3.org/2000/svg"
 width="225.000000pt" height="225.000000pt" viewBox="0 0 225.000000 225.000000"
 preserveAspectRatio="xMidYMid meet">

<g transform="translate(0.000000,225.000000) scale(0.100000,-0.100000)"
fill="#000000" stroke="none">
<path d="M715 2180 c-249 -5 -261 -6 -291 -27 -69 -49 -66 -6 -65 -1025 1
-625 4 -926 12 -945 14 -38 37 -62 81 -84 35 -18 69 -19 675 -19 l638 0 39 23
c22 12 49 35 60 50 21 28 21 38 26 680 3 359 3 787 0 952 -5 290 -6 301 -27
331 -44 62 -48 62 -488 66 -220 2 -517 1 -660 -2z m405 -61 c0 -5 5 -7 10 -4
13 8 13 -1 0 -26 -8 -15 -6 -24 8 -40 11 -11 22 -38 25 -59 3 -21 12 -53 21
-71 9 -18 16 -40 16 -51 0 -10 4 -18 8 -18 5 0 17 -26 28 -57 10 -32 24 -67
31 -78 7 -11 13 -27 13 -37 0 -9 6 -37 14 -60 36 -110 47 -158 50 -218 5 -80
15 -185 22 -225 4 -25 -30 5 -221 195 l-225 225 0 230 c1 246 4 265 51 291 29
16 149 19 149 3z m-352 -71 c4 -35 -21 -54 -53 -40 -28 13 -33 43 -10 66 22
21 59 6 63 -26z m86 -814 c18 -7 20 -51 9 -142 -6 -50 -7 -53 -32 -50 -36 4
-74 78 -67 128 8 52 48 80 90 64z m986 -789 c0 -212 -2 -233 -20 -262 -11 -18
-23 -33 -27 -34 -5 0 -20 -3 -35 -5 -16 -3 -28 0 -28 6 0 5 5 10 11 10 6 0 3
7 -5 16 -17 17 -22 49 -6 39 6 -3 10 -2 10 4 0 5 -5 13 -11 17 -8 5 -8 9 1 14
8 5 1 15 -19 33 -17 14 -31 28 -31 32 0 3 -9 15 -19 26 -11 12 -22 33 -26 47
-5 22 -18 41 -65 99 -6 7 -10 18 -10 25 0 7 -9 30 -20 51 -11 20 -20 48 -20
62 0 14 -4 25 -10 25 -5 0 -12 17 -16 38 -3 20 -15 69 -26 107 -10 39 -21 95
-24 125 -3 30 -10 72 -15 94 -6 21 -8 40 -5 43 3 3 0 15 -5 27 -6 11 86 -76
205 -194 l216 -215 0 -230z m-147 -312 c-18 -2 -48 -2 -65 0 -18 2 -4 4 32 4
36 0 50 -2 33 -4z"/>
<path d="M1120 2029 c0 -5 5 -7 10 -4 6 3 10 8 10 11 0 2 -4 4 -10 4 -5 0 -10
-5 -10 -11z"/>
<path d="M1763 211 l0 -30 19 21 c20 24 23 32 7 22 -6 -3 -14 -1 -18 5 -4 7
-8 -2 -8 -18z"/>
</g>
</svg>
