<?xml version="1.0" standalone="no"?>
<!DOCTYPE svg PUBLIC "-//W3C//DTD SVG 20010904//EN"
 "http://www.w3.org/TR/2001/REC-SVG-20010904/DTD/svg10.dtd">
<svg version="1.0" xmlns="http://www.w3.org/2000/svg"
 width="225.000000pt" height="225.000000pt" viewBox="0 0 225.000000 225.000000"
 preserveAspectRatio="xMidYMid meet">

<g transform="translate(0.000000,225.000000) scale(0.100000,-0.100000)"
fill="#000000" stroke="none">
<path d="M369 2231 c-46 -9 -95 -44 -117 -84 -16 -30 -17 -103 -20 -997 -2
-700 0 -976 9 -1007 12 -45 58 -96 103 -113 20 -7 262 -11 782 -11 621 0 759
3 787 14 42 18 83 67 97 115 8 26 10 334 8 1003 l-3 965 -27 41 c-14 22 -43
48 -65 59 -36 18 -72 19 -778 20 -407 1 -756 -1 -776 -5z m99 -17 c-3 -14 12
-16 122 -14 68 0 126 3 129 6 2 2 -50 4 -117 4 -79 0 -122 4 -122 10 0 8 95
10 295 9 l294 -1 -32 -22 c-44 -30 -77 -82 -78 -125 l-2 -36 -6 35 c-7 36 -12
-5 -26 -220 -5 -69 -4 -73 10 -50 14 24 14 23 15 -33 0 -36 -4 -56 -10 -52 -5
3 -10 15 -10 26 0 10 -5 19 -11 19 -6 0 -8 -15 -4 -43 6 -36 4 -44 -9 -44 -14
0 -16 17 -16 118 0 78 -4 120 -12 125 -7 4 -8 3 -4 -4 4 -7 3 -12 -2 -12 -5 0
-11 33 -14 73 -6 92 -31 146 -78 169 -29 15 -63 18 -211 18 -167 0 -178 -1
-210 -23 -56 -37 -63 -64 -70 -242 l-5 -160 -2 155 c-1 131 1 161 17 195 19
43 73 95 97 95 8 0 14 5 14 11 0 6 -17 8 -47 5 l-48 -6 45 14 c65 20 112 20
108 0z m1431 -32 c19 -9 44 -30 55 -45 20 -27 21 -43 23 -250 1 -122 -1 -213
-4 -203 -7 25 -50 91 -83 125 -25 27 -133 101 -148 101 -3 0 -29 9 -57 19 -69
27 -185 45 -232 37 -21 -4 -60 -9 -88 -12 -72 -7 -228 -86 -279 -142 -41 -45
-61 -73 -72 -105 -5 -15 -9 -16 -15 -5 -12 18 -11 355 1 399 12 42 46 76 86
89 16 4 198 9 404 9 338 1 378 -1 409 -17z m-1570 5 c-2 -1 -13 -9 -24 -17
-19 -14 -19 -14 -6 3 7 9 18 17 24 17 6 0 8 -1 6 -3z m416 -71 c31 -46 -25
-97 -66 -60 -23 21 -24 47 -3 68 23 23 51 20 69 -8z m23 -126 c57 -35 79 -118
42 -161 l-20 -24 16 38 c17 44 7 92 -26 122 -24 22 -91 31 -119 15 -13 -6 -25
-9 -28 -7 -8 9 50 36 77 37 14 0 40 -9 58 -20z m132 -330 c0 -5 -5 -10 -11
-10 -5 0 -7 5 -4 10 3 6 8 10 11 10 2 0 4 -4 4 -10z m48 -202 l-2 -193 -6 175
c-5 163 -3 210 6 210 2 0 3 -87 2 -192z m419 -303 c110 -29 236 -14 343 40 28
14 50 23 50 21 0 -13 -84 -53 -148 -72 l-74 -21 43 -6 c41 -6 139 -43 139 -52
0 -3 -22 4 -50 15 -126 50 -268 46 -387 -10 -35 -16 -63 -27 -63 -25 0 12 110
58 163 69 l61 12 -58 12 c-55 11 -150 52 -171 74 -5 5 14 -2 42 -16 29 -14 78
-33 110 -41z m-287 -631 c95 -66 271 -114 410 -114 118 1 317 48 361 86 8 8
20 14 25 14 5 0 23 14 41 30 18 17 36 30 42 30 5 0 12 6 14 13 3 6 6 -84 6
-201 1 -238 -5 -268 -61 -302 -32 -19 -49 -20 -431 -20 -450 0 -444 -1 -478
73 -16 36 -19 67 -19 212 0 94 3 188 7 209 6 38 7 38 22 20 9 -10 37 -33 61
-50z m-92 -434 c10 -14 38 -35 62 -48 24 -12 37 -22 29 -22 -22 0 -78 39 -101
71 -11 14 -21 46 -23 70 l-4 44 9 -45 c5 -25 18 -56 28 -70z"/>
<path d="M425 2210 c3 -5 11 -10 16 -10 6 0 7 5 4 10 -3 6 -11 10 -16 10 -6 0
-7 -4 -4 -10z"/>
<path d="M758 2193 c7 -3 16 -2 19 1 4 3 -2 6 -13 5 -11 0 -14 -3 -6 -6z"/>
<path d="M962 2160 c-7 -11 -12 -25 -12 -32 1 -7 8 0 16 15 18 33 14 46 -4 17z"/>
<path d="M810 2166 c0 -2 8 -10 18 -17 15 -13 16 -12 3 4 -13 16 -21 21 -21
13z"/>
<path d="M1342 2158 c-7 -7 -12 -21 -12 -33 0 -40 18 -45 155 -45 137 0 155 5
155 45 0 40 -18 45 -155 45 -89 0 -135 -4 -143 -12z"/>
</g>
</svg>
