<?xml version="1.0" standalone="no"?>
<!DOCTYPE svg PUBLIC "-//W3C//DTD SVG 20010904//EN"
 "http://www.w3.org/TR/2001/REC-SVG-20010904/DTD/svg10.dtd">
<svg version="1.0" xmlns="http://www.w3.org/2000/svg"
 width="225.000000pt" height="225.000000pt" viewBox="0 0 225.000000 225.000000"
 preserveAspectRatio="xMidYMid meet">

<g transform="translate(0.000000,225.000000) scale(0.100000,-0.100000)"
fill="#000000" stroke="none">
<path d="M417 2123 c-26 -13 -53 -35 -59 -48 -6 -14 -15 -25 -20 -25 -4 0 -8
-8 -8 -17 0 -15 -2 -16 -10 -3 -12 18 -14 -237 -10 -1165 2 -708 1 -684 55
-735 l27 -25 726 -3 c707 -2 728 -2 759 17 18 11 40 32 50 48 17 26 18 80 21
941 2 892 2 914 -17 958 -16 35 -29 49 -63 63 -41 18 -82 19 -723 19 l-680 0
-48 -25z m76 10 c-7 -2 -19 -2 -25 0 -7 3 -2 5 12 5 14 0 19 -2 13 -5z m95 0
c-16 -2 -40 -2 -55 0 -16 2 -3 4 27 4 30 0 43 -2 28 -4z m152 -34 c9 -5 -45
-9 -133 -9 -228 0 -238 -10 -247 -245 l-6 -150 -4 125 c-2 69 -5 143 -6 165
-1 22 3 49 9 60 11 21 51 56 74 65 21 8 296 -1 313 -11z m1123 -6 c34 -17 44
-41 47 -113 5 -89 0 -158 -9 -135 -5 11 -6 27 -4 35 2 8 -3 4 -11 -10 l-15
-25 -1 25 c0 17 -3 21 -8 12 -15 -22 -39 -4 -35 26 3 23 2 24 -6 7 -5 -11 -10
-14 -10 -6 -1 7 -7 11 -16 7 -18 -6 -20 15 -3 32 9 9 15 9 27 -1 14 -11 14
-10 2 6 -10 13 -17 14 -26 7 -9 -8 -15 -8 -20 0 -3 5 -16 10 -28 11 -21 0 -21
1 -2 9 l20 9 -20 1 c-11 0 -31 8 -45 16 -14 8 -18 13 -10 11 11 -3 15 4 16 29
0 29 -2 33 -18 28 -10 -3 -18 -1 -18 5 0 6 -18 11 -41 11 -29 0 -38 -3 -33
-12 5 -9 2 -8 -9 1 -10 8 -16 15 -14 17 8 8 158 11 162 4 3 -5 0 -11 -5 -13
-7 -4 -6 -5 1 -3 6 1 10 5 9 10 -5 27 69 26 123 -1z m-580 10 c4 -3 1 -13 -6
-22 -10 -14 -10 -14 4 -3 13 10 19 9 29 -3 7 -9 10 -18 6 -22 -3 -3 -6 -1 -6
5 0 7 -5 12 -11 12 -5 0 -8 -4 -5 -9 4 -5 -2 -8 -11 -7 -10 2 -18 11 -18 22 0
10 -7 22 -15 26 -11 5 -10 7 6 7 11 1 24 -2 27 -6z m150 0 c-7 -2 -21 -2 -30
0 -10 3 -4 5 12 5 17 0 24 -2 18 -5z m114 1 c-3 -3 -12 -4 -19 -1 -8 3 -5 6 6
6 11 1 17 -2 13 -5z m-303 -17 c10 10 7 -11 -4 -27 -8 -13 -10 -12 -10 3 0 10
-8 17 -20 17 -11 0 -20 4 -20 10 0 6 9 6 24 0 13 -5 27 -6 30 -3z m96 9 c0 -3
-4 -8 -10 -11 -5 -3 -10 -1 -10 4 0 6 5 11 10 11 6 0 10 -2 10 -4z m-902 -43
c-15 -9 -31 -26 -37 -37 -5 -12 -10 -15 -10 -8 -1 15 47 62 63 62 6 0 -1 -8
-16 -17z m782 7 c0 -5 -4 -10 -10 -10 -5 0 -10 5 -10 10 0 6 5 10 10 10 6 0
10 -4 10 -10z m-479 -10 c38 -21 12 -79 -29 -65 -23 7 -33 36 -20 59 10 19 22
20 49 6z m970 -78 c-7 -2 -18 1 -23 6 -8 8 -4 9 13 5 13 -4 18 -8 10 -11z
m-692 -42 c5 0 14 -15 21 -32 34 -91 49 -114 113 -174 38 -35 81 -70 95 -78
112 -59 151 -83 145 -90 -4 -4 0 -4 9 -1 8 3 23 -1 32 -10 12 -13 13 -19 3
-30 -6 -7 -15 -11 -19 -8 -5 2 -8 -1 -8 -7 0 -6 -7 -4 -17 5 -9 10 -26 15 -40
12 -13 -2 -26 0 -29 4 -3 5 0 9 7 9 7 0 9 3 6 6 -4 4 -13 1 -21 -5 -9 -8 -16
-8 -20 -2 -4 6 -13 8 -21 4 -8 -3 -15 0 -15 7 0 10 -3 10 -14 1 -12 -10 -16
-8 -21 10 -6 17 -9 19 -16 8 -5 -8 -9 -11 -9 -6 0 4 -12 0 -26 -10 l-27 -17
13 24 c13 24 13 24 -12 8 -23 -15 -28 -15 -47 -1 -17 11 -25 12 -36 3 -8 -6
-19 -9 -26 -5 -15 10 -30 -15 -23 -37 3 -10 1 -18 -5 -18 -8 0 -11 75 -10 238
1 130 4 227 6 215 2 -13 8 -23 12 -23z m718 24 c-3 -3 -12 -4 -19 -1 -8 3 -5
6 6 6 11 1 17 -2 13 -5z m-1095 -53 c-9 -16 -18 -28 -21 -26 -4 5 27 55 34 55
2 0 -4 -13 -13 -29z m-197 -93 c-11 -6 -28 -20 -38 -32 l-18 -21 10 22 c11 22
38 42 56 42 6 0 1 -5 -10 -11z m385 -151 c0 -2 -10 -12 -22 -23 l-23 -19 19
23 c18 21 26 27 26 19z m698 -168 c12 -8 22 -18 22 -22 0 -10 -44 2 -48 13 -2
4 -12 5 -24 2 -15 -3 -19 -1 -14 7 4 6 12 9 17 6 5 -4 9 -1 9 5 0 6 -10 8 -27
4 -25 -7 -27 -6 -14 10 12 14 17 15 35 3 12 -8 31 -20 44 -28z m-513 -61 c0
-32 5 -53 13 -55 6 -3 12 -11 12 -18 0 -8 6 -18 14 -22 7 -4 29 -37 47 -73 42
-81 50 -174 24 -283 -15 -63 -55 -152 -75 -167 -3 -3 -9 -13 -13 -23 -4 -10
-11 -16 -16 -12 -5 3 -12 -7 -14 -22 -2 -16 -5 142 -6 350 0 207 2 377 7 377
4 0 7 -23 7 -52z m728 -657 c-5 -3 -8 -16 -7 -28 2 -33 -103 -148 -144 -158
-14 -3 -22 -11 -19 -19 3 -7 -4 -18 -15 -25 -16 -10 -19 -10 -13 1 3 7 -1 4
-9 -6 -9 -11 -16 -16 -16 -12 0 4 -7 1 -15 -8 -8 -8 -15 -21 -15 -28 0 -10 -3
-9 -10 2 -8 13 -10 12 -10 -3 0 -10 -4 -16 -9 -13 -4 3 -16 -3 -26 -14 -10
-11 -21 -17 -25 -15 -4 3 -11 -2 -14 -11 -3 -8 -10 -13 -15 -9 -5 3 -12 1 -16
-5 -3 -5 -13 -10 -22 -10 -8 0 -28 -9 -44 -21 -16 -11 -34 -17 -40 -14 -6 4
-13 -2 -16 -14 -4 -17 -8 -19 -19 -10 -11 9 -14 8 -14 -5 0 -9 -6 -16 -14 -16
-8 0 -22 -7 -31 -16 -8 -9 -22 -13 -31 -10 -8 3 -12 2 -9 -4 3 -6 -1 -10 -10
-10 -10 0 -13 -5 -9 -12 5 -7 3 -8 -5 -4 -7 5 -18 0 -26 -10 -22 -30 -37 -6
-25 37 29 105 119 170 415 304 72 33 208 121 250 163 17 16 32 25 34 19 2 -5
-1 -12 -6 -16z m-393 -375 c0 -2 -7 -7 -16 -10 -8 -3 -12 -2 -9 4 6 10 25 14
25 6z"/>
<path d="M1773 2036 c7 -14 13 -23 15 -21 7 6 -9 45 -18 45 -4 0 -3 -11 3 -24z"/>
<path d="M1727 2033 c-14 -13 -6 -33 13 -33 11 0 20 5 20 11 0 6 -7 9 -14 6
-10 -4 -13 -1 -9 9 5 15 1 18 -10 7z"/>
<path d="M1774 1989 c-8 -14 14 -19 25 -6 8 10 7 14 -5 14 -8 0 -17 -4 -20 -8z"/>
</g>
</svg>
